<svg width="249" height="404" viewBox="0 0 249 404" fill="none" xmlns="http://www.w3.org/2000/svg">
<path d="M144.097 79.6756C140.789 85.556 138.827 92.0971 138.353 98.8273C137.667 108.52 139.973 118.189 144.958 126.529C141.659 130.843 140.026 136.202 140.359 141.623C140.599 146.721 142.638 151.568 146.113 155.306C145.01 158.505 144.908 161.964 145.82 165.223C146.695 168.469 148.745 171.273 151.573 173.09C149.969 175.661 149.074 178.611 148.981 181.64C148.858 185.259 149.86 188.826 151.848 191.851C148.913 197.675 148.298 204.396 150.126 210.657C151.011 213.728 152.621 216.541 154.822 218.859C157.022 221.177 159.748 222.932 162.769 223.975C165.575 219.118 167.147 213.648 167.347 208.042C167.546 202.437 166.368 196.868 163.915 191.824C166.044 189.053 167.34 185.734 167.653 182.253C167.977 178.99 167.482 175.697 166.214 172.673C168.923 172.238 171.178 170.009 171.968 166.857C172.354 165.376 172.373 163.822 172.021 162.332C171.67 160.842 170.96 159.46 169.952 158.307C171.979 157.132 173.707 155.505 175.003 153.555C176.3 151.604 177.13 149.38 177.428 147.057C177.853 143.513 177.151 139.925 175.422 136.802C178.838 133.733 181.419 129.847 182.924 125.508C184.969 119.562 185.277 113.156 183.812 107.04C185.435 103.625 186.223 99.8724 186.112 96.0926C185.964 91.1209 184.224 86.328 181.149 82.4191C177.207 74.002 169.828 68.7457 161.899 68.7368C151.014 68.7279 144.745 78.6367 144.097 79.6756Z" fill="#DD9D36" stroke="#E0832E" stroke-miterlimit="10"/>
<path d="M38.1967 77.0209C34.8864 82.9008 32.9213 89.4418 32.4432 96.1726C31.7732 105.868 34.091 115.537 39.0846 123.875C35.7847 128.188 34.1517 133.548 34.4854 138.969C34.7228 144.062 36.7582 148.907 40.23 152.642C39.1502 155.832 39.0604 159.274 39.9725 162.515C40.8452 165.759 42.8927 168.563 45.7171 170.382C44.1179 172.955 43.2265 175.904 43.1334 178.932C42.9972 182.569 43.9998 186.157 46.0012 189.196C43.0731 195.022 42.4577 201.741 44.2787 208.002C45.1621 211.074 46.7722 213.888 48.973 216.206C51.1737 218.524 53.9003 220.278 56.9222 221.32C59.9505 216.131 61.5383 210.227 61.5215 204.219C61.5376 199.008 60.3591 193.863 58.0765 189.179C60.1959 186.399 61.4912 183.079 61.8145 179.598C62.1369 176.345 61.6488 173.063 60.3939 170.045C63.1019 169.61 65.3483 167.328 66.1385 164.229C66.5295 162.748 66.5501 161.193 66.1986 159.702C65.8472 158.211 65.1343 156.829 64.123 155.679C66.1448 154.493 67.8671 152.859 69.1572 150.903C70.4473 148.946 71.2706 146.719 71.5635 144.394C71.9899 140.845 71.2845 137.253 69.548 134.13C72.9575 131.064 75.5303 127.18 77.024 122.845C79.0686 116.898 79.3766 110.492 77.9119 104.377C79.5361 100.965 80.3244 97.215 80.2115 93.4379C80.0861 88.4727 78.3748 83.6781 75.3281 79.7556C71.3504 71.3473 63.9454 66.0821 56.0432 66.0732C45.1489 66.0644 38.8626 76.0265 38.1967 77.0209Z" fill="#DD9D36" stroke="#E0832E" stroke-miterlimit="10"/>
<path d="M108.483 133.49C149.899 133.49 183.474 103.831 183.474 67.2452C183.474 30.659 149.899 1 108.483 1C67.0667 1 33.4922 30.659 33.4922 67.2452C33.4922 103.831 67.0667 133.49 108.483 133.49Z" fill="#DD9D36" stroke="#E0832E" stroke-miterlimit="10"/>
<path d="M39.084 123.875C40.91 132.08 44.8949 139.648 50.6265 145.796C54.4787 149.874 59.0357 153.221 64.078 155.679" fill="#DD9D36"/>
<path d="M39.084 123.875C40.91 132.08 44.8949 139.648 50.6265 145.796C54.4787 149.874 59.0357 153.221 64.078 155.679" stroke="#E0832E" stroke-miterlimit="10"/>
<path d="M35.6406 83.4224C35.7738 88.3324 36.9281 112.172 55.3694 126.582C59.6388 129.891 64.4437 132.444 69.5756 134.13" fill="#DD9D36"/>
<path d="M35.6406 83.4224C35.7738 88.3324 36.9281 112.172 55.3694 126.582C59.6388 129.891 64.4437 132.444 69.5756 134.13" stroke="#E0832E" stroke-miterlimit="10"/>
<path d="M40.2383 152.598C42.6526 158.176 46.6465 162.926 51.7275 166.262C54.3965 167.976 57.3219 169.253 60.3933 170.045" fill="#DD9D36"/>
<path d="M40.2383 152.598C42.6526 158.176 46.6465 162.926 51.7275 166.262C54.3965 167.976 57.3219 169.253 60.3933 170.045" stroke="#E0832E" stroke-miterlimit="10"/>
<path d="M45.9845 189.196H58.0597C56.7539 189.282 55.4446 189.094 54.2152 188.646C48.8879 186.63 45.6293 179.341 45.7004 170.382" fill="#DD9D36"/>
<path d="M45.9845 189.196H58.0597C56.7539 189.282 55.4446 189.094 54.2152 188.646C48.8879 186.63 45.6293 179.341 45.7004 170.382" stroke="#E0832E" stroke-miterlimit="10"/>
<path d="M183.747 107.04C180.493 113.293 175.533 118.496 169.443 122.045C162.015 126.245 153.385 127.81 144.955 126.485" fill="#DD9D36"/>
<path d="M183.747 107.04C180.493 113.293 175.533 118.496 169.443 122.045C162.015 126.245 153.385 127.81 144.955 126.485" stroke="#E0832E" stroke-miterlimit="10"/>
<path d="M175.421 136.793C172.718 142.276 168.549 146.903 163.378 150.163C158.206 153.423 152.234 155.187 146.121 155.261" fill="#DD9D36"/>
<path d="M175.421 136.793C172.718 142.276 168.549 146.903 163.378 150.163C158.206 153.423 152.234 155.187 146.121 155.261" stroke="#E0832E" stroke-miterlimit="10"/>
<path d="M169.96 158.333C168.533 161.304 166.577 163.991 164.189 166.262C160.652 169.592 156.3 171.931 151.572 173.046" fill="#DD9D36"/>
<path d="M169.96 158.333C168.533 161.304 166.577 163.991 164.189 166.262C160.652 169.592 156.3 171.931 151.572 173.046" stroke="#E0832E" stroke-miterlimit="10"/>
<path d="M166.221 172.699C166.115 176.387 165.034 179.981 163.086 183.114C160.452 187.229 156.483 190.313 151.846 191.851H163.921" fill="#DD9D36"/>
<path d="M166.221 172.699C166.115 176.387 165.034 179.981 163.086 183.114C160.452 187.229 156.483 190.313 151.846 191.851H163.921" stroke="#E0832E" stroke-miterlimit="10"/>
<path d="M60.2718 34.4644C58.4339 36.1513 43.7305 50.1533 45.5151 71.6313C46.9979 89.5222 58.8956 100.132 61.3639 102.237" fill="#DD9D36"/>
<path d="M60.2718 34.4644C58.4339 36.1513 43.7305 50.1533 45.5151 71.6313C46.9979 89.5222 58.8956 100.132 61.3639 102.237" stroke="#E0832E" stroke-miterlimit="10"/>
<path d="M153.72 28.1514C155.496 29.794 173.147 46.8769 169.773 72.4835C166.665 96.0924 148.171 107.946 145.693 109.482" fill="#DD9D36"/>
<path d="M153.72 28.1514C155.496 29.794 173.147 46.8769 169.773 72.4835C166.665 96.0924 148.171 107.946 145.693 109.482" stroke="#E0832E" stroke-miterlimit="10"/>
<path d="M78.3221 21.1729C70.0459 32.2089 64.7582 45.1942 62.9706 58.8725C59.277 88.004 73.3144 109.704 77.2655 115.413" fill="#DD9D36"/>
<path d="M78.3221 21.1729C70.0459 32.2089 64.7582 45.1942 62.9706 58.8725C59.277 88.004 73.3144 109.704 77.2655 115.413" stroke="#E0832E" stroke-miterlimit="10"/>
<path d="M133.475 17.3281C137.835 22.6022 151.02 39.9071 151.624 65.4959C152.361 96.9981 133.502 117.641 129.631 121.699" fill="#DD9D36"/>
<path d="M133.475 17.3281C137.835 22.6022 151.02 39.9071 151.624 65.4959C152.361 96.9981 133.502 117.641 129.631 121.699" stroke="#E0832E" stroke-miterlimit="10"/>
<path d="M97.5164 13.4927C86.904 29.7671 80.6875 48.5125 79.4722 67.9033C78.257 87.2941 82.0845 106.669 90.582 124.141" fill="#DD9D36"/>
<path d="M97.5164 13.4927C86.904 29.7671 80.6875 48.5125 79.4722 67.9033C78.257 87.2941 82.0845 106.669 90.582 124.141" stroke="#E0832E" stroke-miterlimit="10"/>
<path d="M120.211 12.791C124.988 20.9063 137.081 43.867 134.169 74.579C132.521 91.5807 126.642 107.899 117.068 122.045" fill="#DD9D36"/>
<path d="M120.211 12.791C124.988 20.9063 137.081 43.867 134.169 74.579C132.521 91.5807 126.642 107.899 117.068 122.045" stroke="#E0832E" stroke-miterlimit="10"/>
<path d="M107.995 27.4502C94.3281 56.9196 92.4538 90.5013 102.757 121.309Z" fill="#DD9D36"/>
<path d="M107.995 27.4502C94.3281 56.9196 92.4538 90.5013 102.757 121.309" stroke="#E0832E" stroke-miterlimit="10"/>
<path d="M113.596 262.092C114.445 256.741 116.9 251.774 120.636 247.849C124.371 243.925 129.211 241.228 134.514 240.117C146.35 237.79 158.638 244.183 163.815 255.655C163.761 261.044 163.584 265.572 163.415 268.973C163.184 273.412 162.918 276.804 162.58 281.101C162.536 281.59 162.039 287.912 161.453 293.78C160.325 305.128 158.905 315.978 157.289 326.286C155.959 330.332 153.284 333.801 149.71 336.115C146.135 338.43 141.875 339.451 137.64 339.009C133.456 338.443 129.58 336.502 126.621 333.492C123.661 330.481 121.787 326.572 121.294 322.379L113.596 262.092Z" fill="#595A5C"/>
<path d="M133.398 400.593C133.54 401.111 133.821 401.58 134.211 401.95C134.6 402.319 135.084 402.575 135.609 402.689C136.308 402.778 137.017 402.616 137.608 402.233C138.2 401.849 138.636 401.268 138.841 400.593C144.664 383.93 149.409 366.91 153.047 349.638C155.311 338.885 157.016 328.612 158.303 318.899C158.658 306.176 148.226 296.506 137.713 297.59C128.381 298.522 120.435 307.756 120.843 318.899C125.04 346.127 129.225 373.359 133.398 400.593Z" fill="#595A5C"/>
<path d="M103.535 263.37C102.683 258.017 100.224 253.049 96.4828 249.125C92.7419 245.202 87.8964 242.509 82.5893 241.404C70.7449 239.078 58.4566 245.462 53.2891 256.942C53.3423 262.332 53.511 266.86 53.6886 270.26C53.9195 274.7 54.1858 278.092 54.5232 282.389C54.5232 282.877 55.0648 289.199 55.642 295.068C56.7785 306.415 58.1991 317.265 59.815 327.573C61.1444 331.618 63.8176 335.085 67.3905 337.4C70.9634 339.714 75.2207 340.737 79.4551 340.297C83.6424 339.733 87.5231 337.791 90.4857 334.779C93.4483 331.767 95.3245 327.854 95.8188 323.658C98.3937 303.592 100.966 283.496 103.535 263.37Z" fill="#595A5C"/>
<path d="M83.7471 401.88C83.6052 402.398 83.3241 402.868 82.9343 403.237C82.5446 403.606 82.0611 403.862 81.5363 403.976C80.8357 404.065 80.126 403.904 79.5329 403.52C78.9398 403.137 78.5015 402.556 78.2955 401.88C72.4734 385.217 67.7282 368.197 64.0893 350.925C61.8341 340.172 60.1205 329.9 58.833 320.186C58.4779 307.463 68.9194 297.794 79.432 298.877C88.7637 299.809 96.7014 309.043 96.3018 320.186C92.1051 347.42 87.9202 374.652 83.7471 401.88Z" fill="#595A5C"/>
<path d="M136.469 153.486C135.212 151.981 134.452 150.125 134.293 148.171C134.134 146.217 134.584 144.262 135.581 142.574C138.147 138.436 143.092 138.294 143.439 138.285C153.134 146.489 163.185 155.51 173.432 165.41C183.678 175.31 192.85 184.846 201.311 194.16C202.418 196.716 202.723 199.547 202.184 202.28C201.646 205.013 200.29 207.518 198.296 209.462C196.302 211.407 193.764 212.7 191.019 213.171C188.274 213.641 185.45 213.266 182.923 212.095C178.484 207.158 146.52 165.872 136.469 153.486Z" fill="#A9D0CC"/>
<path d="M76.4739 154.737C78.0926 153.631 79.3287 152.05 80.0124 150.212C80.696 148.374 80.7936 146.369 80.2918 144.474C78.9333 139.794 74.2098 138.32 73.8812 138.258C62.3387 143.532 50.2102 149.499 37.6733 156.256C25.1363 163.013 13.7003 169.716 3.0457 176.402C1.30456 178.56 0.257286 181.194 0.0416196 183.959C-0.174047 186.723 0.451987 189.488 1.8374 191.89C3.2228 194.292 5.30271 196.218 7.8036 197.416C10.3045 198.613 13.1092 199.026 15.849 198.599C21.5492 195.056 63.4663 163.927 76.4739 154.737Z" fill="#A9D0CC"/>
<path d="M73.7117 138.223C75.079 136.447 87.4562 120.82 108.916 120.874C130.226 120.918 142.523 136.403 143.917 138.223C151.565 160.268 157.036 183.009 160.254 206.12C163.093 226.621 164.142 247.331 163.388 268.014C161.968 269.328 148.836 281.048 131.691 277.426C124.709 275.876 118.377 272.207 113.56 266.922C112.125 267.674 110.527 268.063 108.906 268.055C107.286 268.048 105.692 267.643 104.264 266.878C99.1968 272.056 92.7081 275.615 85.6183 277.106C68.5708 280.542 55.5278 269.799 53.752 268.289C51.9467 224.052 58.7247 179.883 73.7117 138.223V138.223Z" fill="#595A5C"/>
<path d="M73.7142 138.223C73.2081 138.081 67.1261 156.265 62.3848 176.704C60.2183 186.018 58.5669 194.906 57.3149 203.278C56.4271 209.147 54.8733 220.601 54.0475 235.384C53.1596 251.739 53.3372 268.236 53.8078 268.236C54.4204 268.236 53.3461 240.383 58.7 204.184C64.3736 165.641 74.2913 138.401 73.7142 138.223Z" fill="#818285"/>
<path d="M144.032 138.631C144.538 138.489 150.132 155.989 154.873 176.429C157.031 185.742 158.682 194.63 159.943 203.003C160.831 208.872 162.385 220.326 163.211 235.109C164.099 251.464 163.921 267.961 163.442 268.005C162.829 268.005 163.903 240.152 158.549 203.953C152.849 165.365 143.42 138.8 144.032 138.631Z" fill="#818285"/>
<path d="M109.406 148.211C147.694 148.211 178.732 116.986 178.732 78.468C178.732 39.9498 147.694 8.72461 109.406 8.72461C71.1184 8.72461 40.0801 39.9498 40.0801 78.468C40.0801 116.986 71.1184 148.211 109.406 148.211Z" fill="#595A5C"/>
<path d="M109.167 148.105C106.796 148.141 104.424 148.046 102.064 147.821C96.7112 147.303 91.4457 146.109 86.3926 144.27C101.515 147.715 117.218 147.715 132.341 144.27C124.947 147.048 117.079 148.348 109.185 148.096L109.167 148.105Z" fill="#818285"/>
<path d="M163.594 248.152L53.8516 247.388C54.6179 210.039 61.344 173.051 73.7757 137.823C74.2818 138.711 85.7267 157.952 108.314 158.245C115.538 158.331 122.653 156.482 128.921 152.891C135.19 149.301 140.383 144.098 143.963 137.823C150.215 155.906 155.01 174.46 158.302 193.307C161.47 211.426 163.239 229.762 163.594 248.152V248.152Z" fill="#78236B"/>
<path d="M157.626 189.827L108.677 216.978L59.888 189.676C56.9402 206.199 54.5607 223.779 52.9536 242.354C48.7104 292.548 50.9575 343.08 59.6394 392.7L157.369 392.815C166.833 343.934 169.477 293.977 165.227 244.37C163.633 226.07 161.096 207.865 157.626 189.827V189.827Z" fill="#2B3E99"/>
<path d="M61.0515 183.301C60.1044 188.587 59.1484 193.87 58.1836 199.15L109.113 225.831V209.618L61.0515 183.301Z" fill="#19181D"/>
<path d="M156.482 183.727L159.421 199.523L109.113 225.831V209.618L156.482 183.727Z" fill="#19181D"/>
<path d="M38.7402 211.686C39.481 209.018 41.1256 206.689 43.3929 205.099C45.6601 203.509 48.4094 202.755 51.1706 202.967C53.4912 203.241 55.6792 204.194 57.4596 205.708C59.24 207.221 60.5333 209.227 61.1771 211.473L58.8331 242.496C58.83 242.904 58.6749 243.297 58.398 243.597C57.5101 244.485 55.1395 244.112 52.609 242.416C51.447 241.61 50.346 240.72 49.315 239.752C39.8323 230.865 38.7757 217.83 38.7402 211.686Z" fill="#595A5C"/>
<path d="M80.2031 99.7952C81.8365 99.5492 83.4975 99.5492 85.1309 99.7952L83.6836 98.6055C83.6836 98.6055 80.6382 98.9517 80.2031 99.7952Z" fill="#78236B"/>
<path d="M68.0117 72.7146C68.0117 72.7146 68.6954 75.7689 76.1447 78.5569C76.1447 78.5569 80.7085 80.67 82.573 71.2762C82.573 71.2762 75.7186 71.7912 68.3669 64.3418C68.3669 64.3418 68.1538 69.8023 78.3112 73.9842C78.3112 73.9842 78.8972 74.4992 78.3112 74.8721C78.2579 74.8721 72.4156 75.6801 68.0117 72.7146Z" fill="#78236B"/>
<path d="M85.388 99.7948C90.576 99.7948 94.7818 93.2158 94.7818 85.1003C94.7818 76.9847 90.576 70.4058 85.388 70.4058C80.1999 70.4058 75.9941 76.9847 75.9941 85.1003C75.9941 93.2158 80.1999 99.7948 85.388 99.7948Z" fill="white"/>
<path d="M148.616 72.7146C148.616 72.7146 147.941 75.7689 140.492 78.5569C140.492 78.5569 135.919 80.67 134.055 71.2762C134.055 71.2762 140.918 71.7912 148.261 64.3418C148.261 64.3418 148.474 69.8023 138.317 73.9842C138.317 73.9842 137.722 74.4992 138.361 74.8721C138.379 74.8721 144.212 75.6801 148.616 72.7146Z" fill="#78236B"/>
<path d="M136.815 99.7952C135.185 99.549 133.527 99.549 131.896 99.7952L133.344 98.6055C133.344 98.6055 136.389 98.9517 136.815 99.7952Z" fill="#78236B"/>
<path d="M131.238 99.7948C136.426 99.7948 140.631 93.2158 140.631 85.1003C140.631 76.9847 136.426 70.4058 131.238 70.4058C126.05 70.4058 121.844 76.9847 121.844 85.1003C121.844 93.2158 126.05 99.7948 131.238 99.7948Z" fill="white"/>
<path d="M85.5902 99.7949C89.6602 99.7949 92.9596 94.5317 92.9596 88.0393C92.9596 81.5469 89.6602 76.2837 85.5902 76.2837C81.5201 76.2837 78.2207 81.5469 78.2207 88.0393C78.2207 94.5317 81.5201 99.7949 85.5902 99.7949Z" fill="#231F20"/>
<path d="M81.1536 82.126C82.1834 82.126 83.0182 80.8181 83.0182 79.2048C83.0182 77.5915 82.1834 76.2837 81.1536 76.2837C80.1239 76.2837 79.2891 77.5915 79.2891 79.2048C79.2891 80.8181 80.1239 82.126 81.1536 82.126Z" fill="white"/>
<path d="M131.187 99.7949C135.316 99.7949 138.663 94.5317 138.663 88.0393C138.663 81.5469 135.316 76.2837 131.187 76.2837C127.058 76.2837 123.711 81.5469 123.711 88.0393C123.711 94.5317 127.058 99.7949 131.187 99.7949Z" fill="#231F20"/>
<path d="M127.271 82.126C128.301 82.126 129.135 80.8181 129.135 79.2048C129.135 77.5915 128.301 76.2837 127.271 76.2837C126.241 76.2837 125.406 77.5915 125.406 79.2048C125.406 80.8181 126.241 82.126 127.271 82.126Z" fill="white"/>
<path opacity="0.57" d="M76.705 111.471C81.5008 111.471 85.3885 110.445 85.3885 109.18C85.3885 107.915 81.5008 106.889 76.705 106.889C71.9092 106.889 68.0215 107.915 68.0215 109.18C68.0215 110.445 71.9092 111.471 76.705 111.471Z" fill="#F7B1C4"/>
<path opacity="0.57" d="M142.096 111.471C146.891 111.471 150.779 110.445 150.779 109.18C150.779 107.915 146.891 106.889 142.096 106.889C137.3 106.889 133.412 107.915 133.412 109.18C133.412 110.445 137.3 111.471 142.096 111.471Z" fill="#F7B1C4"/>
<path d="M91.7461 117.322C92.9268 118.234 94.1867 119.04 95.5107 119.728C96.1678 120.083 96.8514 120.376 97.5174 120.714C98.1833 121.051 98.8936 121.273 99.5861 121.521C105.214 123.541 111.373 123.51 116.98 121.433L118.036 121.078C118.383 120.953 118.711 120.758 119.049 120.607L121.055 119.639C121.395 119.482 121.721 119.298 122.032 119.089L122.982 118.503L124.882 117.322L123.044 118.645L122.156 119.293C121.857 119.521 121.539 119.723 121.206 119.897L119.208 120.944C118.88 121.113 118.551 121.308 118.205 121.45L117.149 121.85C116.447 122.107 115.746 122.4 115.026 122.614L112.78 123.084C112.041 123.253 111.29 123.36 110.534 123.404C109.787 123.515 109.033 123.559 108.279 123.537C105.243 123.551 102.231 122.997 99.3997 121.903C96.6018 120.832 94.012 119.282 91.7461 117.322V117.322Z" fill="white"/>
<path d="M2.84081 192.535C1.65684 189.954 1.31546 187.067 1.86511 184.282C2.41476 181.497 3.82751 178.956 5.90292 177.019C7.97832 175.082 10.611 173.848 13.4273 173.492C16.2437 173.135 19.1007 173.675 21.593 175.034L58.2182 206.004C58.4935 206.572 61.4058 212.761 57.9519 219.011C56.9119 220.814 55.4956 222.371 53.7994 223.577C52.1033 224.783 50.1672 225.609 48.123 225.999C31.0996 217.723 15.7488 206.379 2.84081 192.535V192.535Z" fill="#A9D0CC"/>
<path d="M217.302 177.085C214.763 176.656 212.441 175.391 210.704 173.491C208.967 171.59 207.915 169.163 207.716 166.596C207.517 164.029 208.182 161.469 209.605 159.324C211.028 157.178 213.128 155.57 215.571 154.755L246.647 154.995C247.053 154.973 247.453 155.099 247.774 155.35C248.76 156.193 248.502 158.564 246.984 161.21C246.255 162.425 245.439 163.585 244.542 164.681C236.356 174.688 223.428 176.624 217.302 177.085Z" fill="#595A5C"/>
<path d="M196.339 210.612C193.771 211.841 190.881 212.228 188.081 211.717C185.281 211.206 182.713 209.824 180.745 207.768C178.776 205.712 177.507 203.087 177.119 200.267C176.73 197.447 177.242 194.576 178.581 192.064L209.169 155.049C209.728 154.764 215.89 151.781 222.177 155.164C223.991 156.188 225.565 157.59 226.791 159.275C228.016 160.96 228.865 162.889 229.28 164.931C221.189 182.041 210.024 197.52 196.339 210.595V210.612Z" fill="#A9D0CC"/>
<path d="M58.3359 46.9748C90.0512 42.4555 109.336 31.0462 119.804 23.2061C129.411 16.0143 129.82 13.1553 129.491 11.6636C127.529 2.41185 89.3853 -0.979876 84.3066 9.6126C82.0691 14.2918 87.8581 18.3672 86.8371 25.5945C85.3721 35.8585 71.5832 42.6064 58.3359 46.9748Z" fill="#DD9D36" stroke="#E0832E" stroke-miterlimit="10"/>
<path d="M42.8242 55.605C53.8943 49.239 65.4038 43.6697 77.2653 38.9394C90.3527 33.7541 99.7288 31.268 101.744 23.8453C102.961 19.3348 101.114 14.416 98.4236 11.4149C92.4215 4.80016 81.5538 7.14418 78.4906 7.80121C66.9392 10.3228 60.1469 18.8732 55.9561 24.1827C48.8618 33.3023 44.3286 44.1493 42.8242 55.605V55.605Z" fill="#DD9D36" stroke="#E0832E" stroke-miterlimit="10"/>
<path d="M76.4844 48.9194C80.6574 48.5465 134.552 43.379 137.953 25.1418C138.485 22.2473 138.175 16.769 134.623 12.7558C129.882 7.42848 120.568 5.98123 114.699 9.1421C108.413 12.5161 109.283 19.3794 104.932 27.5391C101.487 34.1716 94.0823 42.6065 76.4844 48.9194Z" fill="#DD9D36" stroke="#E0832E" stroke-miterlimit="10"/>
<path d="M107.789 48.6442C122.421 43.4234 151.295 32.0851 150.017 22.8334C149.537 19.2818 144.548 15.9789 143.242 15.1176C138.687 12.1255 130.759 9.57723 127.18 12.7736C123.771 15.8191 127.376 21.3506 125.964 28.7556C124.916 34.1894 120.974 41.3991 107.789 48.6442Z" fill="#DD9D36" stroke="#E0832E" stroke-miterlimit="10"/>
<path d="M60.7847 46.584C55.3572 51.9576 51.7281 58.8809 50.3965 66.4016C47.9282 80.7942 55.1467 91.6264 56.7182 93.8639L41.4466 79.6577C41.0115 79.125 34.5566 70.9476 37.824 62.2463C38.8659 59.625 40.5922 57.3315 42.8228 55.6049" fill="#DD9D36"/>
<path d="M60.7847 46.584C55.3572 51.9576 51.7281 58.8809 50.3965 66.4016C47.9282 80.7942 55.1467 91.6264 56.7182 93.8639L41.4466 79.6577C41.0115 79.125 34.5566 70.9476 37.824 62.2463C38.8659 59.625 40.5922 57.3315 42.8228 55.6049" stroke="#E0832E" stroke-miterlimit="10"/>
<path d="M150.018 22.8335C161.401 26.6207 171.042 34.3784 177.176 44.6883C183.311 54.9983 185.531 67.1718 183.429 78.9834L171.522 96.8654C174.579 83.7169 174.207 70.0035 170.441 57.0401C166.676 44.0767 159.643 32.2981 150.018 22.8335V22.8335Z" fill="#DD9D36" stroke="#E0832E" stroke-miterlimit="10"/>
<path d="M144.273 32.6085L150.018 22.8418C157.088 29.0473 162.702 36.7354 166.462 45.3586C171.507 57.1767 172.928 70.2269 170.546 82.854C167.162 63.803 157.988 46.2581 144.273 32.6085V32.6085Z" fill="#DD9D36" stroke="#E0832E" stroke-miterlimit="10"/>
<path d="M86.5242 17.0176C80.6162 17.1785 74.8444 18.8276 69.7431 21.8122C63.3647 25.6117 58.3351 31.3119 55.3594 38.1137" fill="#DD9D36"/>
<path d="M86.5242 17.0176C80.6162 17.1785 74.8444 18.8276 69.7431 21.8122C63.3647 25.6117 58.3351 31.3119 55.3594 38.1137" stroke="#E0832E" stroke-miterlimit="10"/>
<path d="M46.252 56.8125C44.4693 60.0503 43.4832 63.666 43.3752 67.3606C43.3108 69.7936 43.6345 72.2213 44.3341 74.5525" fill="#DD9D36"/>
<path d="M46.252 56.8125C44.4693 60.0503 43.4832 63.666 43.3752 67.3606C43.3108 69.7936 43.6345 72.2213 44.3341 74.5525" stroke="#E0832E" stroke-miterlimit="10"/>
<path d="M92.3579 24.1738C93.1727 25.3477 93.7232 26.6842 93.9715 28.0914C94.2198 29.4985 94.16 30.9428 93.7963 32.3246C93.1913 34.1767 92.0463 35.8054 90.5084 37.0016C88.9705 38.1978 87.11 38.9066 85.166 39.037" fill="#DD9D36"/>
<path d="M92.3579 24.1738C93.1727 25.3477 93.7232 26.6842 93.9715 28.0914C94.2198 29.4985 94.16 30.9428 93.7963 32.3246C93.1913 34.1767 92.0463 35.8054 90.5084 37.0016C88.9705 38.1978 87.11 38.9066 85.166 39.037" stroke="#E0832E" stroke-miterlimit="10"/>
<path d="M118.647 11.7437C118.949 12.4717 122.598 21.981 116.73 30.4425C115.152 32.6308 113.15 34.4799 110.844 35.88C108.538 37.2801 105.974 38.2028 103.305 38.5933" fill="#DD9D36"/>
<path d="M118.647 11.7437C118.949 12.4717 122.598 21.981 116.73 30.4425C115.152 32.6308 113.15 34.4799 110.844 35.88C108.538 37.2801 105.974 38.2028 103.305 38.5933" stroke="#E0832E" stroke-miterlimit="10"/>
<path d="M149.822 31.4009C156.71 36.9817 161.453 44.7746 163.247 53.456Z" fill="#DD9D36"/>
<path d="M149.822 31.4009C156.71 36.9817 161.453 44.7746 163.247 53.456" stroke="#E0832E" stroke-miterlimit="10"/>
<path d="M170.439 42.4287C175.139 47.4936 178.272 53.8096 179.463 60.6152C180.654 67.4208 179.852 74.4257 177.152 80.7854" fill="#DD9D36"/>
<path d="M170.439 42.4287C175.139 47.4936 178.272 53.8096 179.463 60.6152C180.654 67.4208 179.852 74.4257 177.152 80.7854" stroke="#E0832E" stroke-miterlimit="10"/>
</svg>
