<svg width="250" height="444" viewBox="0 0 250 444" fill="none" xmlns="http://www.w3.org/2000/svg">
<path d="M164.445 100.236C166.576 114.371 159.374 119.184 163.016 129.513C165.487 136.539 169.785 137.09 170.991 145.123C171.167 146.294 171.249 147.465 170.64 156.916C170.007 167.057 169.75 168.498 169.644 170.395C169.644 171.168 169.644 171.73 169.644 171.835C169.208 177.864 166.729 183.564 162.618 187.996C159.198 191.579 155.24 193.535 154.83 193.078C154.42 192.621 156.622 191.052 157.524 187.691C158.191 185.232 158.086 182.281 157.231 182.012C156.376 181.742 154.643 184.518 153.636 186.204C151.809 189.261 152.16 189.905 151.294 190.888C148.589 194.027 142.944 189.366 136.726 191.931C130.215 194.624 129.91 200.128 125.214 200.128C119.277 200.128 116.314 190.244 111.911 191.404C111.031 191.709 110.259 192.261 109.685 192.994C109.112 193.727 108.762 194.61 108.679 195.537C108.585 197.821 111.021 199.273 110.646 199.859C110.271 200.444 107.051 199.66 104.357 197.517C99.6731 193.746 99.1696 187.984 98.4201 188.148C97.6706 188.312 97.4481 192.305 99.3218 195.889C100.622 198.383 102.144 199.004 101.84 199.847C101.301 201.323 95.6915 201.674 91.0658 199.343C87.1193 197.364 87.5526 195.245 83.3016 192.317C78.3949 188.886 71.7901 187.492 70.537 189.261C69.7173 190.432 71.1577 192.891 72.1531 194.12C74.3547 196.826 77.4697 197.212 77.3761 197.54C77.2824 197.868 73.9683 197.915 71.2514 195.924C69.5065 194.636 69.6939 193.746 68.1949 192.867C66.087 191.614 63.6043 192.141 61.1685 192.68C56.0158 193.851 54.4817 196.111 52.7134 195.198C50.746 194.191 51.5423 190.771 50.02 190.338C47.8183 189.706 44.8556 196.685 42.6422 196.1C40.6866 195.584 40.9208 189.682 39.7614 189.624C38.9065 189.624 38.9768 192.762 36.7049 194.659C33.707 197.153 28.5075 195.912 28.4255 195.385C28.4255 195.057 30.3578 195.21 32.3837 193.757C34.1169 192.516 36.0609 189.987 35.6276 188.007C34.8664 184.6 27.8868 186.473 25.006 182.527C21.4928 177.655 28.3669 170.067 29.4092 154.152C30.1938 142.266 25.896 140.966 23.9637 121.819C23.0854 112.93 24.0223 113.212 23.6241 99.5686C22.8278 73.4421 19.4083 70.0343 20.8136 57.5039C21.2586 53.5106 23.1557 38.2867 33.5079 24.9834C51.9991 1.28106 84.1917 1.04684 90.9838 1C96.2302 1 134.512 1.18737 148.682 25.124C153.367 33.0286 154.678 42.2918 155.814 50.2433C157.922 64.9402 155.346 71.6153 159.538 86.1833C162.114 95.0834 163.496 94.006 164.445 100.236Z" fill="#EE3824" stroke="#BB2425" stroke-miterlimit="10"/>
<path d="M73.8043 12.8979C63.3152 63.6569 65.3247 116.205 79.6596 166.015" stroke="#BB2425" stroke-miterlimit="10"/>
<path d="M118.174 31.0259C127.542 56.0633 138.48 97.3902 130.154 145.943C128.247 157.053 125.431 167.989 121.734 178.639" stroke="#BB2425" stroke-miterlimit="10"/>
<path d="M35.9542 90.5864C31.6261 114.051 32.7318 138.196 39.1863 161.167C40.6478 166.225 42.3796 171.201 44.3742 176.074" stroke="#BB2425" stroke-miterlimit="10"/>
<path d="M51.5517 27.4663C42.4876 56.8558 42.2596 88.2609 50.8959 117.779" stroke="#BB2425" stroke-miterlimit="10"/>
<path d="M46.9618 137.535C46.0645 147.686 47.6397 157.905 51.5524 167.315C53.896 172.926 57.0527 178.163 60.9209 182.855" stroke="#BB2425" stroke-miterlimit="10"/>
<path d="M146.339 123.938C147.917 137.462 146.481 151.168 142.135 164.071C139.05 173.133 134.565 181.656 128.844 189.331" stroke="#BB2425" stroke-miterlimit="10"/>
<path d="M121.092 12.5698C129.526 21.8797 136.04 32.7628 140.26 44.595C144.48 56.4273 146.323 68.9761 145.684 81.5222" stroke="#BB2425" stroke-miterlimit="10"/>
<path d="M106.85 142.71C110.573 151.829 111.7 161.799 110.106 171.519C109.154 177.074 107.294 182.435 104.602 187.387" stroke="#BB2425" stroke-miterlimit="10"/>
<path d="M35.3106 33.9419C28.7614 47.7863 27.3823 63.5173 31.4227 78.2902" stroke="#BB2425" stroke-miterlimit="10"/>
<path d="M99.7322 14.186C108.311 36.5515 111.52 60.6182 109.101 84.45C107.676 97.9969 104.41 111.286 99.3926 123.95" stroke="#BB2425" stroke-miterlimit="10"/>
<path d="M84.5076 39.7622C80.7133 50.1027 75.1391 69.9289 79.9756 93.5024C81.486 100.887 83.8805 108.063 87.1074 114.874" stroke="#BB2425" stroke-miterlimit="10"/>
<path d="M90.6685 143.355C93.8103 151.4 94.375 160.223 92.2846 168.603C91 173.502 88.8029 178.115 85.8086 182.199" stroke="#BB2425" stroke-miterlimit="10"/>
<path d="M63.7919 146.599C63.6448 158.687 66.8905 170.575 73.1604 180.911" stroke="#BB2425" stroke-miterlimit="10"/>
<path d="M159.619 145.299C162.578 150.899 164.285 157.075 164.62 163.4C164.956 169.725 163.913 176.048 161.563 181.93" stroke="#BB2425" stroke-miterlimit="10"/>
<path d="M95.1289 219.287C95.832 214.537 98.068 210.146 101.497 206.784C104.925 203.422 109.358 201.273 114.121 200.663C118.884 200.053 123.716 201.016 127.881 203.406C132.046 205.795 135.316 209.48 137.194 213.9C137.194 218.408 137.006 222.203 136.866 225.048C136.667 228.784 136.444 231.606 136.163 235.202C136.163 235.611 135.718 240.916 135.226 245.823C134.278 255.332 133.083 264.408 131.713 273.05C130.595 276.423 128.362 279.314 125.383 281.248C122.403 283.183 118.853 284.046 115.318 283.695C111.808 283.227 108.555 281.603 106.071 279.079C103.588 276.556 102.016 273.276 101.605 269.76C99.4658 252.943 97.3071 236.119 95.1289 219.287Z" fill="#595A5C"/>
<path d="M111.712 335.269C111.831 335.703 112.067 336.095 112.393 336.405C112.719 336.714 113.123 336.929 113.562 337.026C114.148 337.101 114.742 336.965 115.237 336.643C115.732 336.322 116.097 335.835 116.267 335.269C121.139 321.315 125.106 307.061 128.142 292.595C130.039 283.59 131.468 275.029 132.545 266.832C132.85 256.187 124.102 248.095 115.307 248.962C107.484 249.746 100.844 257.475 101.254 266.832C104.721 289.652 108.207 312.465 111.712 335.269Z" fill="#595A5C"/>
<path d="M86.6858 220.364C85.9827 215.614 83.7466 211.224 80.3181 207.862C76.8896 204.5 72.4565 202.35 67.6935 201.74C62.9306 201.13 58.0988 202.093 53.9337 204.483C49.7687 206.872 46.4985 210.557 44.6211 214.977C44.6211 219.486 44.8202 223.28 44.9607 226.126C45.1481 229.861 45.3706 232.683 45.6633 236.29C45.6633 236.689 46.1083 241.993 46.6002 246.9C47.5488 256.409 48.7315 265.485 50.1134 274.128C51.2278 277.502 53.4595 280.396 56.4402 282.331C59.4208 284.266 62.9723 285.128 66.5083 284.773C70.0204 284.31 73.278 282.689 75.7659 280.168C78.2537 277.646 79.8298 274.367 80.2449 270.849L86.6858 220.364Z" fill="#595A5C"/>
<path d="M70.1379 336.346C70.0173 336.779 69.7815 337.171 69.4556 337.48C69.1298 337.79 68.7261 338.005 68.2876 338.103C67.7005 338.176 67.1065 338.04 66.6097 337.719C66.1129 337.397 65.745 336.912 65.5707 336.346C60.7042 322.39 56.7379 308.136 53.6961 293.673C51.8107 284.679 50.382 276.107 49.3046 267.909C49.0001 257.264 57.748 249.172 66.5427 250.039C74.3537 250.823 81.0053 258.552 80.5955 267.909C77.1213 290.729 73.6354 313.542 70.1379 336.346Z" fill="#595A5C"/>
<path d="M164.421 176.18C162.272 177.199 159.857 177.514 157.519 177.082C155.181 176.65 153.038 175.493 151.395 173.773C149.752 172.054 148.693 169.861 148.368 167.505C148.043 165.15 148.468 162.751 149.584 160.651L175.16 129.688C176.861 128.869 178.728 128.451 180.616 128.468C182.504 128.484 184.364 128.934 186.051 129.782C187.575 130.638 188.897 131.814 189.923 133.229C190.95 134.644 191.659 136.265 192 137.98C185.221 152.303 175.874 165.263 164.421 176.215V176.18Z" fill="#595A5C"/>
<path d="M181.776 147.301C179.639 146.949 177.682 145.891 176.218 144.295C174.754 142.698 173.868 140.657 173.702 138.498C173.536 136.338 174.1 134.186 175.303 132.385C176.505 130.584 178.278 129.238 180.336 128.564L206.38 128.763C206.724 128.74 207.063 128.849 207.329 129.068C208.149 129.77 207.938 131.749 206.661 133.974C206.057 134.989 205.376 135.956 204.624 136.867C197.738 145.298 186.905 146.926 181.776 147.301Z" fill="#595A5C"/>
<path d="M64.0487 129.396C65.4039 128.468 66.4388 127.144 67.0112 125.605C67.5837 124.066 67.6656 122.388 67.2457 120.8C66.8247 119.568 66.1199 118.452 65.1882 117.543C64.2565 116.634 63.124 115.956 61.8822 115.565C52.1975 119.98 42.056 124.934 31.5516 130.637C21.0471 136.34 11.5029 141.903 2.5677 147.5C1.10276 149.308 0.220085 151.518 0.0360626 153.837C-0.14796 156.157 0.375306 158.478 1.53687 160.494C2.69844 162.51 4.44377 164.127 6.54276 165.132C8.64174 166.136 10.9958 166.481 13.2947 166.12C18.0492 163.193 53.1577 137.101 64.0487 129.396Z" fill="#595A5C"/>
<path d="M2.36845 161.049C1.37979 158.888 1.09594 156.471 1.55709 154.14C2.01825 151.809 3.20104 149.682 4.93798 148.061C6.67492 146.439 8.87799 145.405 11.2352 145.104C13.5925 144.804 15.9845 145.253 18.0724 146.388L48.7544 172.327C49.5582 174.036 49.9573 175.908 49.9208 177.797C49.8842 179.686 49.4129 181.54 48.5436 183.218C47.6745 184.722 46.4933 186.024 45.0793 187.034C43.6653 188.044 42.0514 188.739 40.3461 189.073C26.0732 182.143 13.1991 172.644 2.36845 161.049V161.049Z" fill="#595A5C"/>
<path d="M32.4414 177.082C33.0646 174.856 34.4378 172.914 36.3286 171.584C38.2194 170.255 40.5116 169.619 42.817 169.786C44.7613 170.013 46.5948 170.81 48.0869 172.077C49.5789 173.344 50.6628 175.024 51.2019 176.906L49.2111 202.88C49.2068 203.222 49.0777 203.551 48.848 203.805C48.0868 204.578 46.1195 204.239 43.9998 202.81C43.0241 202.139 42.1039 201.391 41.2478 200.573C33.3665 193.149 32.4765 182.234 32.4414 177.082Z" fill="#595A5C"/>
<path d="M114.286 128.354C113.229 127.097 112.588 125.544 112.451 123.908C112.315 122.271 112.69 120.633 113.524 119.219C114.261 118.144 115.241 117.258 116.385 116.634C117.528 116.009 118.803 115.663 120.106 115.624C128.233 122.486 136.653 130.052 145.225 138.331C153.797 146.61 161.48 154.609 168.565 162.408C169.484 164.544 169.735 166.908 169.285 169.189C168.835 171.47 167.705 173.561 166.043 175.188C164.381 176.814 162.266 177.899 159.975 178.3C157.685 178.7 155.327 178.398 153.212 177.433C149.429 173.287 122.682 138.717 114.286 128.354Z" fill="#595A5C"/>
<path d="M61.7053 115.565C62.8764 114.066 73.2169 100.997 91.181 101.032C109.145 101.067 119.287 114.043 120.458 115.565C126.861 134.025 131.442 153.068 134.136 172.42C136.522 189.588 137.411 206.93 136.794 224.252C135.623 225.353 124.603 235.166 110.246 232.133C104.382 230.845 99.0626 227.768 95.0221 223.327C93.7428 223.988 92.3164 224.315 90.8766 224.275C89.6035 224.229 88.3579 223.892 87.2346 223.292C82.9939 227.622 77.5664 230.601 71.636 231.852C57.3607 234.733 46.4463 225.739 44.9591 224.474C43.4235 187.436 49.0826 150.45 61.6233 115.565H61.7053Z" fill="#595A5C"/>
<path d="M61.7065 115.565C61.2849 115.448 56.1908 130.672 52.2209 147.793C50.4057 155.592 49.0239 163.017 47.9699 170.043C47.2321 174.962 45.9323 184.553 45.2296 196.978C44.4684 210.667 44.6441 224.509 45.0423 224.521C45.4404 224.533 44.6558 201.193 49.1293 170.886C53.8955 138.53 62.2218 115.717 61.7065 115.565Z" fill="#818285"/>
<path d="M120.645 115.905C121.067 115.788 125.751 130.438 129.721 147.524C131.525 155.323 132.906 162.748 133.96 169.774C134.698 174.692 136.01 184.284 136.701 196.709C137.462 210.398 137.298 224.24 136.9 224.252C136.502 224.264 137.286 200.924 132.801 170.617C128 138.296 120.107 116.057 120.645 115.905Z" fill="#818285"/>
<path d="M175.968 396.469C201.216 412.782 251.713 382.838 249.956 376.373C248.914 372.556 230.926 381.468 208.969 371.877C189.705 363.445 189.307 350.317 170.722 344.556C154.503 339.52 135.73 343.595 134.103 349.966C133.072 354.018 139.408 357.191 151.915 369.476C169.41 386.632 168.415 391.55 175.968 396.469Z" fill="#69C182"/>
<path d="M46.2599 184.811H136.198C142.358 218.104 140.46 244.031 137.591 261.55C132.614 291.998 123.117 306.707 130.038 328.934C137.896 354.112 158.671 362.731 155.415 369.113C150.93 377.919 105.539 373.071 76.8599 350.083C19.4191 303.955 43.4845 196.545 46.2599 184.811Z" fill="#169A48"/>
<path d="M134.523 414.222C145.543 442.187 204.038 447.269 206.368 440.993C207.75 437.28 187.935 434.048 175.698 413.472C164.936 395.403 172.267 384.5 160.474 368.972C150.215 355.434 132.579 347.811 127.555 352.05C124.358 354.732 127.661 360.997 130.67 378.282C134.921 402.418 131.186 405.861 134.523 414.222Z" fill="#69C182"/>
<path d="M46.8685 175.512C43.0977 178.252 40.252 184.201 42.032 187.949C47.2901 199.074 93.3832 191.275 93.6526 185.208C93.7814 182.574 85.0218 180.43 67.5261 176.144C54.1525 172.865 49.9835 173.252 46.8685 175.512Z" fill="#69C182"/>
<path d="M134.934 175.594C138.716 178.334 141.55 184.272 139.782 188.019C134.524 199.156 88.4307 191.357 88.1496 185.279C88.0325 182.656 96.7804 180.513 114.288 176.226C127.673 172.947 131.819 173.334 134.934 175.594Z" fill="#69C182"/>
<path d="M72.8787 154.175C80.8145 154.175 87.2477 148.177 87.2477 140.778C87.2477 133.379 80.8145 127.381 72.8787 127.381C64.943 127.381 58.5098 133.379 58.5098 140.778C58.5098 148.177 64.943 154.175 72.8787 154.175Z" fill="#8263AB"/>
<path d="M109.685 154.07C117.621 154.07 124.054 148.072 124.054 140.673C124.054 133.274 117.621 127.276 109.685 127.276C101.75 127.276 95.3164 133.274 95.3164 140.673C95.3164 148.072 101.75 154.07 109.685 154.07Z" fill="#8263AB"/>
<path d="M71.0391 143.39C77.2433 140.46 84.0374 138.994 90.8978 139.103C97.7582 139.213 104.502 140.896 110.609 144.023" stroke="#8263AB" stroke-width="5" stroke-miterlimit="10"/>
<path d="M91.6142 123.927C123.674 123.927 149.664 97.7796 149.664 65.5256C149.664 33.2715 123.674 7.12451 91.6142 7.12451C59.5542 7.12451 33.5645 33.2715 33.5645 65.5256C33.5645 97.7796 59.5542 123.927 91.6142 123.927Z" fill="#595A5C"/>
<path d="M91.4282 123.844C84.9214 123.942 78.4518 122.847 72.3398 120.612C78.5837 122.035 84.9659 122.761 91.3697 122.779C97.902 122.802 104.416 122.083 110.786 120.636C107.143 122.001 103.355 122.944 99.4969 123.446C96.8224 123.796 94.1241 123.929 91.4282 123.844V123.844Z" fill="#818285"/>
<path d="M67.1758 83.3846C68.5425 83.1841 69.9312 83.1841 71.2979 83.3846L70.1269 82.3892C70.1269 82.3892 67.5271 82.6819 67.1758 83.3846Z" fill="#169A48"/>
<path d="M56.9629 60.7124C56.9629 60.7124 57.5367 63.2653 63.7668 65.6075C63.7668 65.6075 67.5962 67.3758 69.1537 59.5062C69.1537 59.5062 63.4155 59.9395 57.2439 53.6509C57.2439 53.6509 57.0683 58.2297 65.5702 61.7312C65.5702 61.7312 66.0738 62.1528 65.5702 62.4807C62.5852 62.8409 59.5641 62.2202 56.9629 60.7124V60.7124Z" fill="#169A48"/>
<path d="M71.5082 83.3961C75.8545 83.3961 79.3778 77.8856 79.3778 71.0882C79.3778 64.2907 75.8545 58.7803 71.5082 58.7803C67.162 58.7803 63.6387 64.2907 63.6387 71.0882C63.6387 77.8856 67.162 83.3961 71.5082 83.3961Z" fill="white"/>
<path d="M124.453 60.7124C124.453 60.7124 123.89 63.2653 117.649 65.6075C117.649 65.6075 113.831 67.3758 112.262 59.5062C112.262 59.5062 118.012 59.9395 124.171 53.6509C124.171 53.6509 124.347 58.2297 115.845 61.7312C115.845 61.7312 115.353 62.1528 115.845 62.4807C118.83 62.8409 121.851 62.2202 124.453 60.7124V60.7124Z" fill="#169A48"/>
<path d="M114.579 83.3846C113.212 83.1845 111.824 83.1845 110.457 83.3846L111.628 82.3892C111.628 82.3892 114.216 82.6819 114.579 83.3846Z" fill="#FFDE11"/>
<path d="M109.909 83.3961C114.255 83.3961 117.778 77.8856 117.778 71.0882C117.778 64.2907 114.255 58.7803 109.909 58.7803C105.562 58.7803 102.039 64.2907 102.039 71.0882C102.039 77.8856 105.562 83.3961 109.909 83.3961Z" fill="white"/>
<path d="M71.6852 83.3844C75.0936 83.3844 77.8567 78.9802 77.8567 73.5474C77.8567 68.1146 75.0936 63.7104 71.6852 63.7104C68.2768 63.7104 65.5137 68.1146 65.5137 73.5474C65.5137 78.9802 68.2768 83.3844 71.6852 83.3844Z" fill="#231F20"/>
<path d="M67.9716 68.5938C68.8318 68.5938 69.5291 67.498 69.5291 66.1463C69.5291 64.7945 68.8318 63.6987 67.9716 63.6987C67.1114 63.6987 66.4141 64.7945 66.4141 66.1463C66.4141 67.498 67.1114 68.5938 67.9716 68.5938Z" fill="white"/>
<path d="M109.861 83.3844C113.321 83.3844 116.126 78.9802 116.126 73.5474C116.126 68.1146 113.321 63.7104 109.861 63.7104C106.401 63.7104 103.596 68.1146 103.596 73.5474C103.596 78.9802 106.401 83.3844 109.861 83.3844Z" fill="#231F20"/>
<path d="M106.583 68.5938C107.443 68.5938 108.14 67.498 108.14 66.1463C108.14 64.7945 107.443 63.6987 106.583 63.6987C105.723 63.6987 105.025 64.7945 105.025 66.1463C105.025 67.498 105.723 68.5938 106.583 68.5938Z" fill="white"/>
<path opacity="0.57" d="M64.2352 93.1746C68.2516 93.1746 71.5075 92.3147 71.5075 91.254C71.5075 90.1934 68.2516 89.3335 64.2352 89.3335C60.2188 89.3335 56.9629 90.1934 56.9629 91.254C56.9629 92.3147 60.2188 93.1746 64.2352 93.1746Z" fill="#F7B1C4"/>
<path opacity="0.57" d="M118.995 93.1746C123.011 93.1746 126.267 92.3147 126.267 91.254C126.267 90.1934 123.011 89.3335 118.995 89.3335C114.979 89.3335 111.723 90.1934 111.723 91.254C111.723 92.3147 114.979 93.1746 118.995 93.1746Z" fill="#F7B1C4"/>
<path d="M76.8379 98.0693C77.8415 98.8115 78.9072 99.4658 80.0232 100.025C80.5736 100.318 81.1943 100.564 81.6978 100.833L83.431 101.501C85.7639 102.313 88.2215 102.71 90.6916 102.672C93.1621 102.683 95.6142 102.247 97.9288 101.383C99.1032 100.995 100.246 100.517 101.348 99.9548C102.519 99.3926 103.48 98.6783 104.58 98.0693C103.573 98.7954 102.578 99.58 101.512 100.248C100.423 100.889 99.2883 101.449 98.1162 101.922C97.5306 102.145 96.9451 102.391 96.3361 102.578L94.4859 103.011C93.8649 103.147 93.2347 103.237 92.6004 103.281C91.9685 103.372 91.33 103.412 90.6916 103.398C88.1464 103.403 85.6232 102.926 83.2553 101.992C80.896 101.085 78.7215 99.7553 76.8379 98.0693V98.0693Z" fill="white"/>
<path d="M52.3261 104.991C54.2461 107.294 56.3705 109.418 58.6733 111.338C61.0037 113.291 63.5041 115.031 66.1447 116.538C57.4671 128.248 54.6448 138.319 53.7197 145.498C52.7126 153.368 54.2584 155.827 51.6235 161.483C47.759 169.751 39.8074 174.482 41.0839 181.122C41.4093 182.273 41.6443 183.447 41.7865 184.635C41.9271 186.567 41.6928 188.652 39.6083 194.32C38.1094 198.407 37.3482 200.456 36.7509 200.562C33.9755 201.065 28.1202 190.994 27.7572 180.653C27.6217 174.607 29.223 168.649 32.3712 163.486C26.7367 150.133 24.8656 135.492 26.9608 121.152C28.0646 116.775 30.4795 112.84 33.8818 109.874C41.4938 103.34 50.9091 104.757 52.3261 104.991Z" fill="#EE3824" stroke="#BB2425" stroke-miterlimit="10"/>
<path d="M42.3613 69.5075L28.0041 65.5259C24.9007 77.3771 22.3478 86.6051 20.6849 92.6009C17.5933 103.773 16.4222 107.356 18.2491 111.853C20.6615 117.791 26.7979 121.725 32.6181 125.449C35.3581 127.23 38.2319 128.796 41.2137 130.134C42.3028 139.174 44.0594 141.844 45.7106 142.067C50.0201 142.769 58.8499 128.318 56.3556 114.734C55.6559 111.037 54.192 107.527 52.0578 104.429C49.4245 101.49 47.2384 98.1793 45.57 94.6034C42.0025 86.7508 40.8843 78.0052 42.3613 69.5075V69.5075Z" fill="#EE3824" stroke="#BB2425" stroke-miterlimit="10"/>
<path d="M141.538 56.6958C145.59 61.7782 148.19 69.4604 146.937 81.4053C148.888 76.445 150.248 71.2723 150.989 65.9941C153.331 49.1307 150.438 23.297 135.941 16.8093C131.256 14.7248 124.687 14.3501 120.881 17.6174C115.482 22.3016 116.466 33.4619 120.881 40.7108C126.396 49.8217 134.828 48.2759 141.538 56.6958Z" fill="#EE3824" stroke="#BB2425" stroke-miterlimit="10"/>
<path d="M27.9933 68.336C18.414 57.2811 25.2647 28.6252 43.2171 15.3336C52.5857 8.36571 62.1299 7.75676 76.8619 6.81991C79.7778 6.64425 124.559 4.13817 130.239 20.7556C130.893 22.8302 131.038 25.032 130.661 27.1745C130.284 29.317 129.396 31.337 128.073 33.0635C125.52 36.1551 120.964 37.8883 111.069 37.4081C89.2283 36.3191 85.6917 26.5875 72.3415 28.0396C60.6309 29.281 48.4401 38.3684 44.2945 49.2125C40.1489 60.0566 45.1728 70.2917 40.3246 72.9149C37.0222 74.6949 31.1903 72.06 27.9933 68.336Z" fill="#EE3824" stroke="#BB2425" stroke-miterlimit="10"/>
<path d="M146.258 177.983C143.342 168.333 139.818 158.005 135.531 147.184C131.07 135.93 126.385 125.636 121.713 116.315C127.355 113.082 132.319 108.787 136.328 103.667C146.598 90.4693 147.113 75.9129 147.043 70.7251C146.747 75.6263 146.7 80.5394 146.903 85.4454C147.324 96.0552 148.753 103.105 152.758 123.915C157.173 146.821 157.629 149.585 156.88 154.527C155.446 163.138 151.784 171.224 146.258 177.983V177.983Z" fill="#EE3824" stroke="#BB2425" stroke-miterlimit="10"/>
<path d="M27.9928 68.3364C26.5573 59.1773 27.8908 49.798 31.8222 41.4019C35.1289 34.4145 40.1433 28.3732 46.402 23.8359" fill="#EE3824"/>
<path d="M27.9928 68.3364C26.5573 59.1773 27.8908 49.798 31.8222 41.4019C35.1289 34.4145 40.1433 28.3732 46.402 23.8359" stroke="#BB2425" stroke-miterlimit="10"/>
<path d="M130.426 25.2998C124.284 27.938 117.67 29.2968 110.986 29.2932C101.785 29.2415 92.7748 26.6609 84.9414 21.8335" fill="#EE3824"/>
<path d="M130.426 25.2998C124.284 27.938 117.67 29.2968 110.986 29.2932C101.785 29.2415 92.7748 26.6609 84.9414 21.8335" stroke="#BB2425" stroke-miterlimit="10"/>
<path d="M128.353 18.1794C107.845 8.60427 84.5993 6.6367 62.7734 12.6286Z" fill="#EE3824"/>
<path d="M128.353 18.1794C107.845 8.60427 84.5993 6.6367 62.7734 12.6286" stroke="#BB2425" stroke-miterlimit="10"/>
<path d="M42.4082 35.1952C45.8741 30.1954 50.301 25.9358 55.4305 22.6648C72.3641 11.9612 90.9372 16.341 95.2467 17.4535" fill="#EE3824"/>
<path d="M42.4082 35.1952C45.8741 30.1954 50.301 25.9358 55.4305 22.6648C72.3641 11.9612 90.9372 16.341 95.2467 17.4535" stroke="#BB2425" stroke-miterlimit="10"/>
<path d="M130.215 20.7793C135.864 23.6193 140.579 28.0212 143.799 33.4619C148.049 40.9378 149.305 49.7475 147.312 58.1129" fill="#EE3824"/>
<path d="M130.215 20.7793C135.864 23.6193 140.579 28.0212 143.799 33.4619C148.049 40.9378 149.305 49.7475 147.312 58.1129" stroke="#BB2425" stroke-miterlimit="10"/>
<path d="M125.564 39.1885C127.231 41.9893 129.559 44.3395 132.343 46.0338C135.127 47.7281 138.284 48.715 141.538 48.9083" fill="#EE3824"/>
<path d="M125.564 39.1885C127.231 41.9893 129.559 44.3395 132.343 46.0338C135.127 47.7281 138.284 48.715 141.538 48.9083" stroke="#BB2425" stroke-miterlimit="10"/>
<path d="M34.5972 76.686C34 77.8571 23.8703 99.2525 34.9368 114.16C37.261 117.245 40.2253 119.789 43.6261 121.62" fill="#EE3824"/>
<path d="M34.5972 76.686C34 77.8571 23.8703 99.2525 34.9368 114.16C37.261 117.245 40.2253 119.789 43.6261 121.62" stroke="#BB2425" stroke-miterlimit="10"/>
<path d="M40.3242 98.5615C44.7425 102.775 47.9253 108.117 49.5288 114.008C51.428 121.346 50.8179 129.108 47.7956 136.059" fill="#EE3824"/>
<path d="M40.3242 98.5615C44.7425 102.775 47.9253 108.117 49.5288 114.008C51.428 121.346 50.8179 129.108 47.7956 136.059" stroke="#BB2425" stroke-miterlimit="10"/>
<path d="M33.5548 132.593C32.0848 137.036 31.8242 141.79 32.7998 146.367C33.7753 150.945 35.9518 155.18 39.1057 158.637" fill="#EE3824"/>
<path d="M33.5548 132.593C32.0848 137.036 31.8242 141.79 32.7998 146.367C33.7753 150.945 35.9518 155.18 39.1057 158.637" stroke="#BB2425" stroke-miterlimit="10"/>
<path d="M34.0693 190.409C32.3081 185.918 32.1264 180.963 33.554 176.356C34.761 172.638 36.9839 169.332 39.9715 166.812" fill="#EE3824"/>
<path d="M34.0693 190.409C32.3081 185.918 32.1264 180.963 33.554 176.356C34.761 172.638 36.9839 169.332 39.9715 166.812" stroke="#BB2425" stroke-miterlimit="10"/>
<path d="M140.555 98.2217C140.087 114.617 143.471 121.772 146.984 125.156C147.349 125.486 147.697 125.833 148.027 126.198C153.086 131.937 151.235 141.422 148.718 148.765" fill="#EE3824"/>
<path d="M140.555 98.2217C140.087 114.617 143.471 121.772 146.984 125.156C147.349 125.486 147.697 125.833 148.027 126.198C153.086 131.937 151.235 141.422 148.718 148.765" stroke="#BB2425" stroke-miterlimit="10"/>
<path d="M132.357 118.013C135.412 122.802 138.027 127.858 140.168 133.119C144.607 144.104 146.962 155.819 147.113 167.666" fill="#EE3824"/>
<path d="M132.357 118.013C135.412 122.802 138.027 127.858 140.168 133.119C144.607 144.104 146.962 155.819 147.113 167.666" stroke="#BB2425" stroke-miterlimit="10"/>
</svg>
