<svg width="246" height="436" viewBox="0 0 246 436" fill="none" xmlns="http://www.w3.org/2000/svg">
<path d="M72.6968 265.17C73.9164 267.097 74.6412 269.296 74.8069 271.57C75.1169 276.33 72.8869 282.01 69.9869 282.45C66.5769 282.98 64.1168 275.96 62.4568 276.69C60.7968 277.42 60.6668 285.33 64.8668 288.54C65.7801 289.167 66.8105 289.604 67.8964 289.824C68.9824 290.044 70.1015 290.043 71.1868 289.82C78.0068 288.51 79.0568 280.02 83.9568 279.95C87.4268 279.95 91.0468 284.12 90.5168 286.58C89.7468 290.11 80.5168 289.72 80.5168 290.78C80.5168 292.24 98.3668 297.98 107.227 289.37C112.087 284.64 113.057 276.77 119.037 275.77C120.249 275.585 121.488 275.681 122.657 276.05C131.527 278.44 137.007 288.12 142.317 293.9C153.737 306.33 170.577 307.46 171.177 306.11C171.687 304.96 161.727 299.43 150.847 286.93C148.577 284.33 147.217 282.5 147.567 282.04C148.157 281.25 153.507 284.85 160.687 289.72C183.797 305.41 183.347 305.52 185.097 306.07C202.867 311.68 222.767 291.87 222.387 292.41C217.047 299.99 209.617 303.41 203.207 300.89C192.207 296.54 188.817 276.39 190.787 274.5C192.757 272.61 199.387 288.71 208.897 288.17C216.357 287.73 222.317 277.26 226.647 266.49C223.247 273.58 217.227 277.1 211.737 275.44C207.527 274.18 203.787 269.92 202.497 264.61C200.257 255.33 206.217 249.61 208.497 240.11C213.497 219.74 194.027 209.11 189.547 178.44C186.967 160.79 192.707 159.44 192.547 138.33C192.547 135.15 191.727 93.9801 170.547 68.1401C135.237 24.9201 52.5569 36.4201 36.1068 71.7501C31.9268 80.7501 31.5868 92.1701 31.1868 105.81C30.3668 133.81 37.5568 136.93 35.7068 157.28C33.4368 182.19 22.0468 184.14 21.5668 208.15C21.2768 223.01 27.3068 228.2 31.2668 246.87C32.7168 253.72 35.9568 269.03 31.5968 271.51C26.7368 274.28 16.1368 259.05 14.2368 260.64C12.0068 262.49 22.5068 286.75 31.5968 285.64C39.9068 284.64 43.3668 262.89 46.9968 263.8C48.5268 264.19 49.3068 268.38 48.6468 271.8C47.2368 279.05 39.4968 282.09 39.9668 283.01C40.4368 283.93 51.2968 282.49 57.3468 274.09C60.5868 269.58 60.8568 265.33 64.5668 263.85C67.4868 262.72 70.6468 264.02 72.6968 265.17Z" fill="#FFDE11" stroke="#DCBB26" stroke-miterlimit="10"/>
<path d="M58.9777 180.99L57.0977 211.08" stroke="#DCBB26" stroke-miterlimit="10"/>
<path d="M161.588 182.03C163.927 190.274 163.927 199.006 161.588 207.25Z" fill="#FFDE11"/>
<path d="M161.588 182.03C163.927 190.274 163.927 199.006 161.588 207.25" stroke="#DCBB26" stroke-miterlimit="10"/>
<path d="M169.877 172.04C172.445 182.999 174.229 194.127 175.217 205.34C176.341 218.129 176.421 230.988 175.457 243.79" fill="#FFDE11"/>
<path d="M169.877 172.04C172.445 182.999 174.229 194.127 175.217 205.34C176.341 218.129 176.421 230.988 175.457 243.79" stroke="#DCBB26" stroke-miterlimit="10"/>
<path d="M204.827 279.93C202.433 279.416 200.191 278.355 198.277 276.83C192.887 272.53 191.917 265.98 191.717 264.44" fill="#FFDE11"/>
<path d="M204.827 279.93C202.433 279.416 200.191 278.355 198.277 276.83C192.887 272.53 191.917 265.98 191.717 264.44" stroke="#DCBB26" stroke-miterlimit="10"/>
<path d="M188.568 214.42C193.092 222.463 195.5 231.522 195.568 240.75C195.584 245.633 194.931 250.494 193.628 255.2" fill="#FFDE11"/>
<path d="M188.568 214.42C193.092 222.463 195.5 231.522 195.568 240.75C195.584 245.633 194.931 250.494 193.628 255.2" stroke="#DCBB26" stroke-miterlimit="10"/>
<path d="M185.167 246.89C183.999 264.56 185.472 282.305 189.538 299.54Z" fill="#FFDE11"/>
<path d="M185.167 246.89C183.999 264.56 185.472 282.305 189.538 299.54" stroke="#DCBB26" stroke-miterlimit="10"/>
<path d="M56.508 69.5698C50.5574 75.7374 46.1089 83.1938 43.508 91.3598C35.138 117.86 49.828 141.63 51.998 145.02" stroke="#DCBB26" stroke-miterlimit="10"/>
<path d="M117.479 67.4199C128.609 85.7833 135.129 106.569 136.479 128C137.777 148.518 134.356 169.06 126.479 188.05" stroke="#DCBB26" stroke-miterlimit="10"/>
<path d="M29.0469 275.74C31.4882 275.943 33.9326 275.387 36.0469 274.15C41.6369 270.78 44.3469 262.25 42.5469 252.89" stroke="#DCBB26" stroke-miterlimit="10"/>
<path d="M44.0478 171.59C42.0478 173.95 27.7178 191.23 31.5478 214.1C32.9884 222.504 36.6089 230.383 42.0478 236.95" stroke="#DCBB26" stroke-miterlimit="10"/>
<path d="M129.467 57.8799C137.998 58.5544 146.237 61.3005 153.467 65.8799C177.267 81.1199 188.317 116.74 182.947 156.21" stroke="#DCBB26" stroke-miterlimit="10"/>
<path d="M101.979 238.02C103.389 240.63 111.669 256.66 105.479 274.15C103.397 279.998 99.9717 285.277 95.4785 289.56" stroke="#DCBB26" stroke-miterlimit="10"/>
<path d="M87.4882 101.42C84.4882 109.54 73.8982 140.67 87.4882 172.09C91.0372 180.29 95.935 187.838 101.978 194.42" stroke="#DCBB26" stroke-miterlimit="10"/>
<path d="M118.977 209.85C113.137 230.42 116.037 249.8 126.977 258.74C129.887 261.099 133.313 262.737 136.977 263.52" stroke="#DCBB26" stroke-miterlimit="10"/>
<path d="M99.4883 57.8799C106.992 74.5613 110.58 92.7383 109.978 111.02C109.631 120.555 108.12 130.012 105.478 139.18" stroke="#DCBB26" stroke-miterlimit="10"/>
<path d="M68.0472 77.54C62.1866 106.2 60.6729 135.579 63.5572 164.69C65.1159 180.307 67.9555 195.769 72.0472 210.92" stroke="#DCBB26" stroke-miterlimit="10"/>
<path d="M82.9881 211.42C85.6672 221.095 86.6817 231.155 85.9881 241.17C85.3363 250.674 83.1444 260.009 79.498 268.81" stroke="#DCBB26" stroke-miterlimit="10"/>
<path d="M146.957 98.2598C152.948 114.389 155.667 131.549 154.957 148.74C154.175 167.654 149.224 186.162 140.457 202.94" stroke="#DCBB26" stroke-miterlimit="10"/>
<path d="M152.457 229.51C151.747 232.19 144.257 261.94 160.947 279.99C164.319 283.622 168.404 286.519 172.947 288.5" stroke="#DCBB26" stroke-miterlimit="10"/>
<path d="M112.348 294.8C113.157 289.174 115.789 283.968 119.839 279.979C123.888 275.99 129.134 273.439 134.772 272.715C140.41 271.991 146.13 273.135 151.056 275.972C155.982 278.808 159.843 283.181 162.048 288.42C161.998 293.75 161.818 298.23 161.648 301.59C161.428 306 161.158 309.33 160.828 313.59C160.828 314.07 160.288 320.33 159.718 326.13C158.598 337.35 157.198 348.07 155.588 358.27C154.271 362.266 151.629 365.691 148.099 367.979C144.569 370.267 140.362 371.28 136.178 370.85C132.037 370.299 128.198 368.385 125.267 365.41C122.335 362.435 120.478 358.568 119.988 354.42C117.441 334.54 114.894 314.667 112.348 294.8Z" fill="#595A5C"/>
<path d="M131.918 431.74C132.062 432.347 132.406 432.887 132.895 433.273C133.384 433.66 133.99 433.87 134.613 433.87C135.236 433.87 135.841 433.66 136.33 433.273C136.819 432.887 137.164 432.347 137.308 431.74C143.05 415.261 147.726 398.43 151.308 381.35C153.538 370.73 155.228 360.56 156.508 350.96C156.858 338.39 146.508 328.82 136.138 329.86C126.918 330.78 119.068 339.91 119.508 350.96L131.918 431.74Z" fill="#595A5C"/>
<path d="M102.407 296.07C101.566 290.778 99.1376 285.866 95.4427 281.986C91.7479 278.105 86.9612 275.439 81.7168 274.34C70.0168 272.04 57.8668 278.34 52.7168 289.7C52.7668 295.03 52.9368 299.51 53.1068 302.87C53.3368 307.28 53.5968 310.62 53.9368 314.87C53.9368 315.36 54.4668 321.61 55.0468 327.41C56.1668 338.63 57.5668 349.36 59.1668 359.55C60.4877 363.548 63.1357 366.974 66.6716 369.261C70.2075 371.547 74.4187 372.556 78.6068 372.12C82.744 371.56 86.5774 369.64 89.5032 366.662C92.4289 363.683 94.2807 359.816 94.7668 355.67C97.3135 335.81 99.8601 315.943 102.407 296.07Z" fill="#595A5C"/>
<path d="M82.8269 433.01C82.6791 433.612 82.3337 434.147 81.846 434.529C81.3584 434.912 80.7566 435.119 80.1369 435.119C79.5172 435.119 78.9155 434.912 78.4278 434.529C77.9401 434.147 77.5948 433.612 77.4469 433.01C71.7048 416.534 67.0285 399.706 63.4469 382.63C61.2069 372 59.5169 361.84 58.2469 352.23C57.8969 339.66 68.2469 330.1 78.6069 331.13C87.8369 332.05 95.6869 341.18 95.2469 352.23C91.1136 379.164 86.9736 406.09 82.8269 433.01Z" fill="#595A5C"/>
<path d="M134.958 187.42C133.717 185.934 132.965 184.101 132.805 182.171C132.646 180.241 133.087 178.309 134.068 176.64C136.608 172.55 141.508 172.4 141.838 172.4C151.428 180.51 161.368 189.4 171.498 199.21C181.628 209.02 190.698 218.42 199.048 227.63C200.15 230.153 200.459 232.951 199.935 235.653C199.411 238.356 198.079 240.836 196.114 242.764C194.15 244.693 191.646 245.98 188.934 246.454C186.223 246.928 183.431 246.567 180.928 245.42C176.458 240.48 144.878 199.66 134.958 187.42Z" fill="#E39BC0"/>
<path d="M214.659 209.8C212.158 209.363 209.875 208.105 208.169 206.227C206.462 204.348 205.429 201.954 205.233 199.424C205.037 196.893 205.689 194.37 207.086 192.251C208.483 190.131 210.546 188.538 212.949 187.72L243.699 187.96C244.103 187.932 244.503 188.057 244.819 188.31C245.819 189.15 245.549 191.49 244.039 194.11C243.318 195.306 242.513 196.449 241.629 197.53C233.499 207.42 220.719 209.35 214.659 209.8Z" fill="#595A5C"/>
<path d="M75.6477 188.65C77.2451 187.555 78.4648 185.993 79.1397 184.177C79.8146 182.362 79.9117 180.382 79.4177 178.51C78.0777 173.88 73.4177 172.42 73.0777 172.32C61.6577 177.54 49.6677 183.44 37.2777 190.12C24.8877 196.8 13.5977 203.42 3.04771 210.03C1.31209 212.163 0.264674 214.773 0.0438735 217.515C-0.176927 220.256 0.439281 223 1.81107 225.384C3.18285 227.768 5.24565 229.679 7.72687 230.866C10.2081 232.053 12.991 232.458 15.7077 232.03C21.3377 228.52 62.7777 197.75 75.6477 188.65Z" fill="#E39BC0"/>
<path d="M72.8784 172.32C74.2284 170.55 86.4684 155.12 107.688 155.17C128.908 155.22 140.908 170.53 142.288 172.32C149.851 194.105 155.26 216.579 158.438 239.42C161.256 259.691 162.307 280.168 161.578 300.62C160.178 301.92 147.188 313.51 130.238 309.93C123.334 308.392 117.072 304.76 112.308 299.53C110.803 300.32 109.118 300.706 107.418 300.65C105.916 300.592 104.446 300.195 103.118 299.49C98.1134 304.608 91.7031 308.126 84.6984 309.6C67.8484 313 54.9484 302.38 53.1984 300.88C51.3937 257.158 58.0768 213.5 72.8784 172.32V172.32Z" fill="#595A5C"/>
<path d="M72.8774 172.32C72.3774 172.18 66.3574 190.16 61.6674 210.32C59.5374 219.53 57.8974 228.32 56.6674 236.6C55.7974 242.4 54.2574 253.73 53.4374 268.34C52.5374 284.51 52.7374 300.85 53.2074 300.86C53.6774 300.87 52.7374 273.42 58.0474 237.58C63.6774 199.42 73.4874 172.5 72.8774 172.32Z" fill="#818285"/>
<path d="M142.447 172.72C142.937 172.58 148.447 189.89 153.157 210.1C155.297 219.31 156.927 228.1 158.157 236.37C159.027 242.17 160.577 253.5 161.387 268.11C162.297 284.29 162.087 300.63 161.627 300.64C161.017 300.64 162.077 273.1 156.787 237.31C151.157 199.16 141.827 172.9 142.447 172.72Z" fill="#818285"/>
<path d="M108.198 182.2C146.052 182.2 176.738 151.325 176.738 113.24C176.738 75.1542 146.052 44.2798 108.198 44.2798C70.3446 44.2798 39.6582 75.1542 39.6582 113.24C39.6582 151.325 70.3446 182.2 108.198 182.2Z" fill="#595A5C"/>
<path d="M107.967 182.09C105.63 182.128 103.293 182.035 100.967 181.81C95.6714 181.295 90.4629 180.109 85.4668 178.28C100.423 181.674 115.95 181.674 130.907 178.28C123.596 181.031 115.814 182.315 108.007 182.06L107.967 182.09Z" fill="#818285"/>
<path d="M161.777 281.02L53.2773 280.29C54.0277 243.361 60.6783 206.789 72.9773 171.96C73.4773 172.84 84.7873 191.86 107.117 192.17C114.261 192.252 121.297 190.421 127.496 186.867C133.694 183.314 138.829 178.167 142.367 171.96C148.548 189.836 153.29 208.178 156.547 226.81C159.671 244.72 161.42 262.843 161.777 281.02V281.02Z" fill="#BA3C5E"/>
<path d="M155.878 223.35L107.488 250.19L59.2483 223.19C56.3283 239.53 53.9483 256.92 52.3883 275.28C48.2068 324.92 50.4453 374.892 59.0483 423.96L155.678 424.08C165.037 375.747 167.649 326.35 163.438 277.3C161.852 259.198 159.329 241.191 155.878 223.35V223.35Z" fill="#DF79B0"/>
<path d="M60.3986 216.89L57.5586 232.56L107.909 258.95V242.95L60.3986 216.89Z" fill="#E7AFD0"/>
<path d="M154.748 217.31L157.648 232.94L107.908 258.94V242.94L154.748 217.31Z" fill="#E7AFD0"/>
<path d="M36.5684 246.94C36.8591 244.224 38.0806 241.693 40.0255 239.775C41.9704 237.858 44.5188 236.672 47.2384 236.42C49.547 236.311 51.8363 236.887 53.8184 238.075C55.8006 239.264 57.387 241.012 58.3784 243.1L61.1084 273.74C61.1692 274.141 61.0802 274.55 60.8584 274.89C60.1284 275.89 57.7684 275.89 55.0184 274.67C53.7546 274.073 52.5378 273.381 51.3784 272.6C40.7384 265.47 37.5984 252.93 36.5684 246.94Z" fill="#595A5C"/>
<path d="M2.84868 226.03C1.67717 223.48 1.33845 220.625 1.88055 217.872C2.42266 215.119 3.81808 212.606 5.86883 210.69C7.91958 208.774 10.5215 207.553 13.3055 207.199C16.0895 206.846 18.9141 207.378 21.3787 208.72L57.5887 239.34C57.8687 239.9 60.7487 246.02 57.3287 252.2C56.3018 253.982 54.9029 255.521 53.2273 256.714C51.5516 257.906 49.6387 258.724 47.6187 259.11C30.7863 250.933 15.6085 239.718 2.84868 226.03V226.03Z" fill="#E39BC0"/>
<path d="M79.3281 134.33C80.9425 134.088 82.5838 134.088 84.1981 134.33L82.7681 133.15C82.7681 133.15 79.7581 133.5 79.3281 134.33Z" fill="#DF79B0"/>
<path d="M67.2773 107.56C67.2773 107.56 67.9473 110.56 75.2773 113.33C75.2773 113.33 79.7873 115.42 81.6373 106.13C81.6373 106.13 74.8573 106.64 67.5773 99.27C67.5773 99.27 67.3673 104.67 77.4073 108.81C77.4073 108.81 77.9973 109.31 77.4073 109.69C77.4073 109.69 71.6273 110.49 67.2773 107.56Z" fill="#DF79B0"/>
<path d="M84.458 134.33C89.5887 134.33 93.748 127.825 93.748 119.8C93.748 111.775 89.5887 105.27 84.458 105.27C79.3272 105.27 75.168 111.775 75.168 119.8C75.168 127.825 79.3272 134.33 84.458 134.33Z" fill="white"/>
<path d="M146.967 107.56C146.967 107.56 146.297 110.56 138.967 113.33C138.967 113.33 134.447 115.42 132.607 106.13C132.607 106.13 139.387 106.64 146.667 99.27C146.667 99.27 146.877 104.67 136.837 108.81C136.837 108.81 136.247 109.31 136.837 109.69C136.847 109.69 142.617 110.49 146.967 107.56Z" fill="#DF79B0"/>
<path d="M135.307 134.33C133.693 134.088 132.052 134.088 130.438 134.33L131.868 133.15C131.868 133.15 134.877 133.5 135.307 134.33Z" fill="#DF79B0"/>
<path d="M129.788 134.33C134.919 134.33 139.078 127.825 139.078 119.8C139.078 111.775 134.919 105.27 129.788 105.27C124.657 105.27 120.498 111.775 120.498 119.8C120.498 127.825 124.657 134.33 129.788 134.33Z" fill="white"/>
<path d="M84.6572 134.33C88.6833 134.33 91.9472 129.127 91.9472 122.71C91.9472 116.292 88.6833 111.09 84.6572 111.09C80.631 111.09 77.3672 116.292 77.3672 122.71C77.3672 129.127 80.631 134.33 84.6572 134.33Z" fill="#231F20"/>
<path d="M80.268 116.86C81.2897 116.86 82.118 115.566 82.118 113.97C82.118 112.374 81.2897 111.08 80.268 111.08C79.2462 111.08 78.418 112.374 78.418 113.97C78.418 115.566 79.2462 116.86 80.268 116.86Z" fill="white"/>
<path d="M129.738 134.33C133.819 134.33 137.128 129.127 137.128 122.71C137.128 116.292 133.819 111.09 129.738 111.09C125.656 111.09 122.348 116.292 122.348 122.71C122.348 129.127 125.656 134.33 129.738 134.33Z" fill="#231F20"/>
<path d="M125.868 116.86C126.889 116.86 127.718 115.566 127.718 113.97C127.718 112.374 126.889 111.08 125.868 111.08C124.846 111.08 124.018 112.374 124.018 113.97C124.018 115.566 124.846 116.86 125.868 116.86Z" fill="white"/>
<path opacity="0.57" d="M75.8673 145.87C80.6115 145.87 84.4573 144.858 84.4573 143.61C84.4573 142.362 80.6115 141.35 75.8673 141.35C71.1232 141.35 67.2773 142.362 67.2773 143.61C67.2773 144.858 71.1232 145.87 75.8673 145.87Z" fill="#F7B1C4"/>
<path opacity="0.57" d="M140.527 145.87C145.272 145.87 149.118 144.858 149.118 143.61C149.118 142.362 145.272 141.35 140.527 141.35C135.783 141.35 131.938 142.362 131.938 143.61C131.938 144.858 135.783 145.87 140.527 145.87Z" fill="#F7B1C4"/>
<path d="M90.748 151.66C91.9153 152.561 93.164 153.351 94.4781 154.02C95.1181 154.37 95.7981 154.66 96.4781 155.02C97.1581 155.38 97.8381 155.57 98.4781 155.82C101.234 156.816 104.147 157.311 107.078 157.28C110.008 157.286 112.915 156.761 115.658 155.73L116.658 155.38C116.998 155.25 117.318 155.07 117.658 154.92L119.658 153.92C120.968 153.24 122.178 152.4 123.458 151.65C122.238 152.48 121.068 153.4 119.798 154.17L117.798 155.17C117.468 155.34 117.148 155.54 116.798 155.68L115.798 156.07C115.108 156.33 114.418 156.62 113.698 156.84L111.518 157.34C110.787 157.502 110.045 157.609 109.298 157.66C108.559 157.763 107.814 157.807 107.068 157.79C101.069 157.771 95.2763 155.595 90.748 151.66V151.66Z" fill="white"/>
<path d="M194.158 243.89C191.622 245.09 188.772 245.461 186.012 244.951C183.253 244.44 180.725 243.073 178.786 241.045C176.847 239.016 175.596 236.429 175.211 233.65C174.825 230.87 175.325 228.04 176.638 225.56L206.848 189C207.398 188.72 213.488 185.76 219.708 189.11C221.497 190.121 223.049 191.506 224.256 193.169C225.464 194.832 226.3 196.736 226.708 198.75C223.323 205.902 219.391 212.783 214.948 219.33C208.903 228.227 201.934 236.459 194.158 243.89V243.89Z" fill="#E39BC0"/>
<path d="M106.047 1L87.0469 12C91.6769 11.49 95.4669 14.81 95.4769 18.4C95.3957 19.9853 94.7433 21.4876 93.6404 22.6291C92.5374 23.7707 91.0584 24.4744 89.4769 24.61C87.9745 24.7668 86.4625 24.4196 85.179 23.6231C83.8955 22.8266 82.9133 21.6259 82.3869 20.21C75.8956 24.2344 70.5018 29.8035 66.6869 36.42C64.4905 40.3407 62.9247 44.5826 62.0469 48.99L152.517 48.35C151.422 43.7678 149.448 39.4414 146.707 35.61C141.998 29.195 135.51 24.3029 128.047 21.54C127.41 22.6216 126.489 23.5077 125.383 24.1019C124.278 24.6961 123.03 24.9756 121.777 24.91C120.127 24.7735 118.591 24.0164 117.477 22.7916C116.364 21.5667 115.756 19.9652 115.777 18.31C116.017 14.76 119.997 11.68 124.577 12.47L106.047 1Z" fill="#DCBB26" stroke="#EDD673" stroke-miterlimit="10"/>
<path d="M103.277 43.0001C100.907 37.5301 72.0472 39.5301 51.8772 57.4201C35.1472 72.3101 24.2372 98.4201 28.8772 121.28C32.8772 141.08 46.4572 148.05 43.2972 165.56C41.3872 176.18 35.5272 178.43 33.3772 189.79C30.6972 204.01 36.7272 217.12 41.9472 225.68C47.0272 234.76 43.0372 244.87 36.9472 247.13C32.1772 248.91 25.3872 246.13 21.6172 239.67C25.0472 252.15 32.0472 261.42 39.2572 261.6C48.8472 261.82 56.1872 245.6 58.1872 234.1C61.0472 217.72 52.6572 213.42 52.3272 194.02C51.9772 173.26 61.5272 171.15 62.6972 150.21C64.1172 125.02 50.7472 120.54 52.3272 102.21C55.3372 67.2901 106.597 50.6701 103.277 43.0001Z" fill="#FFDE11" stroke="#DCBB26" stroke-miterlimit="10"/>
<path d="M149.887 48.9899C152.887 50.7899 179.397 67.3899 180.737 91.6899C181.367 103 176.147 109.11 180.487 119.98C184.827 130.85 193.867 134.31 192.927 141.32C192.227 146.6 186.377 150.1 181.987 152.12C178.684 157.708 176.656 163.957 176.047 170.42C175.467 176.66 175.907 187.02 179.277 187.91C183.687 189.08 191.277 173.54 192.467 174.28C192.827 174.51 192.307 176.06 192.217 176.34C189.977 182.9 180.477 198.2 175.047 196.91C170.047 195.73 167.267 180.16 170.317 134.68C165.867 131.68 159.647 126.42 157.137 118.22C152.137 101.91 165.617 86.2699 159.747 80.2199C156.277 76.6299 151.227 81.7199 142.677 79.0999C127.807 74.4199 124.317 53.4199 119.447 54.2699C117.057 54.6999 114.797 60.3299 114.447 80.7099C112.24 79.9084 110.204 78.6972 108.447 77.1399C102.737 72.0199 102.787 65.3499 100.447 65.3099C98.357 65.3099 96.197 70.6099 95.907 75.0699C95.7027 79.4455 97.0286 83.7557 99.657 87.2599C75.917 63.7499 79.047 52.9899 80.047 50.4199C85.797 35.7599 123.987 33.2599 149.887 48.9899Z" fill="#FFDE11" stroke="#DCBB26" stroke-miterlimit="10"/>
<path d="M93.6878 47.3398C90.8644 49.568 88.9916 52.7845 88.4478 56.3398C88.1962 58.384 88.3778 60.4582 88.9808 62.4275C89.5838 64.3968 90.5948 66.2171 91.9478 67.7698" fill="#FFDE11"/>
<path d="M93.6878 47.3398C90.8644 49.568 88.9916 52.7845 88.4478 56.3398C88.1962 58.384 88.3778 60.4582 88.9808 62.4275C89.5838 64.3968 90.5948 66.2171 91.9478 67.7698" stroke="#DCBB26" stroke-miterlimit="10"/>
<path d="M112.908 41.7202C109.07 44.564 106.262 48.5795 104.908 53.1602C102.708 60.9802 105.238 69.7202 111.318 76.0302" fill="#FFDE11"/>
<path d="M112.908 41.7202C109.07 44.564 106.262 48.5795 104.908 53.1602C102.708 60.9802 105.238 69.7202 111.318 76.0302" stroke="#DCBB26" stroke-miterlimit="10"/>
<path d="M74.6677 52.96C64.1885 58.5226 55.3043 66.6702 48.8577 76.63C42.6261 86.2926 38.7678 97.2919 37.5977 108.73" fill="#FFDE11"/>
<path d="M74.6677 52.96C64.1885 58.5226 55.3043 66.6702 48.8577 76.63C42.6261 86.2926 38.7678 97.2919 37.5977 108.73" stroke="#DCBB26" stroke-miterlimit="10"/>
<path d="M45.3672 119.42C50.2484 127.047 53.3011 135.699 54.2872 144.7C55.1756 152.797 54.3858 160.991 51.9672 168.77" fill="#FFDE11"/>
<path d="M45.3672 119.42C50.2484 127.047 53.3011 135.699 54.2872 144.7C55.1756 152.797 54.3858 160.991 51.9672 168.77" stroke="#DCBB26" stroke-miterlimit="10"/>
<path d="M44.377 207.74C47.8922 211.887 50.3978 216.792 51.697 222.07C53.0681 227.695 53.0681 233.566 51.697 239.19" fill="#FFDE11"/>
<path d="M44.377 207.74C47.8922 211.887 50.3978 216.792 51.697 222.07C53.0681 227.695 53.0681 233.566 51.697 239.19" stroke="#DCBB26" stroke-miterlimit="10"/>
<path d="M131.537 53.8198C132.747 62.9198 138.197 70.0698 145.237 71.8198C148.577 72.6089 152.081 72.3075 155.237 70.9598" fill="#FFDE11"/>
<path d="M131.537 53.8198C132.747 62.9198 138.197 70.0698 145.237 71.8198C148.577 72.6089 152.081 72.3075 155.237 70.9598" stroke="#DCBB26" stroke-miterlimit="10"/>
<path d="M170.587 83.4199C168.867 86.5099 162.587 98.6299 166.427 112.63C167.548 116.642 169.377 120.422 171.827 123.79" fill="#FFDE11"/>
<path d="M170.587 83.4199C168.867 86.5099 162.587 98.6299 166.427 112.63C167.548 116.642 169.377 120.422 171.827 123.79" stroke="#DCBB26" stroke-miterlimit="10"/>
<path d="M129.457 45.6602C138.043 47.7834 146.01 51.8938 152.717 57.6602C157.918 62.152 162.279 67.5323 165.597 73.5502" fill="#FFDE11"/>
<path d="M129.457 45.6602C138.043 47.7834 146.01 51.8938 152.717 57.6602C157.918 62.152 162.279 67.5323 165.597 73.5502" stroke="#DCBB26" stroke-miterlimit="10"/>
<path d="M177.227 134.99C175.324 140.139 173.924 145.461 173.047 150.88C171.978 157.551 171.7 164.324 172.217 171.06" fill="#FFDE11"/>
<path d="M177.227 134.99C175.324 140.139 173.924 145.461 173.047 150.88C171.978 157.551 171.7 164.324 172.217 171.06" stroke="#DCBB26" stroke-miterlimit="10"/>
</svg>
