<svg width="251" height="439" viewBox="0 0 251 439" fill="none" xmlns="http://www.w3.org/2000/svg">
<path d="M168.145 163.239C169.092 161.95 170.049 160.662 170.996 159.362C173.528 155.895 175.979 152.474 178.351 149.098C182.186 151.369 185.411 154.54 187.748 158.335C194.202 169.123 188.763 178.964 191.853 193.093C192.994 198.453 195.822 206.333 203.485 215.022C196.907 214.966 190.472 213.1 184.886 209.629C171.452 200.985 164.998 182.75 168.145 163.239Z" fill="#72493E" stroke="#8E6D66" stroke-miterlimit="10"/>
<path d="M161.498 207.017L150.414 178.508C152.592 176.809 154.383 175.372 155.671 174.346C159.119 171.705 162.42 168.876 165.558 165.873C167.189 164.242 168.443 162.828 169.219 161.916C179.482 170.925 184.112 179.626 186.324 185.647C191.798 200.129 188.126 209.526 194.968 221.568C199.017 228.317 204.994 233.699 212.13 237.02C206.257 246.519 200.407 248.15 198.195 248.549C185.503 250.83 168.797 235.036 161.498 207.017Z" fill="#72493E" stroke="#8E6D66" stroke-miterlimit="10"/>
<path d="M163.697 178.691C168.956 180.022 173.676 182.945 177.211 187.061C186.333 197.837 183.368 212.297 183.026 213.848" fill="#72493E"/>
<path d="M163.697 178.691C168.956 180.022 173.676 182.945 177.211 187.061C186.333 197.837 183.368 212.297 183.026 213.848" stroke="#8E6D66" stroke-miterlimit="10"/>
<path d="M169.193 201.692C169.478 205.272 171.759 229.129 188.944 238.89C191.95 240.594 195.224 241.774 198.626 242.38" fill="#72493E"/>
<path d="M169.193 201.692C169.478 205.272 171.759 229.129 188.944 238.89C191.95 240.594 195.224 241.774 198.626 242.38" stroke="#8E6D66" stroke-miterlimit="10"/>
<path d="M174.658 156.59C177.676 157.337 180.362 159.061 182.299 161.494C184.303 164.05 185.463 167.167 185.617 170.411" fill="#72493E"/>
<path d="M174.658 156.59C177.676 157.337 180.362 159.061 182.299 161.494C184.303 164.05 185.463 167.167 185.617 170.411" stroke="#8E6D66" stroke-miterlimit="10"/>
<path d="M111.243 191.474C153.622 191.474 187.977 156.562 187.977 113.496C187.977 70.4304 153.622 35.5186 111.243 35.5186C68.8631 35.5186 34.5078 70.4304 34.5078 113.496C34.5078 156.562 68.8631 191.474 111.243 191.474Z" fill="#72493E" stroke="#8E6D66" stroke-miterlimit="10"/>
<path d="M88.1254 58.1206C84.4877 62.5224 63.0261 89.3778 69.5832 123.862C71.7987 135.316 76.6822 146.087 83.8377 155.302" stroke="#8E6D66" stroke-miterlimit="10"/>
<path d="M92.8823 99.561C90.7157 104.647 82.2314 126.04 91.4569 149.589C95.1519 158.927 101.015 167.253 108.562 173.878" stroke="#8E6D66" stroke-miterlimit="10"/>
<path d="M101.514 70.5049C104.935 75.3742 117.034 93.9392 113.373 118.138C111.994 127.007 108.728 135.476 103.794 142.975" stroke="#8E6D66" stroke-miterlimit="10"/>
<path d="M126.236 57.6416C136.674 75.2843 142.259 95.3738 142.425 115.872C142.591 136.37 137.333 156.548 127.183 174.357" stroke="#8E6D66" stroke-miterlimit="10"/>
<path d="M172.924 127.192C173.931 135.179 172.605 143.286 169.104 150.535C161.954 165.2 148.338 170.411 145.293 171.483" stroke="#8E6D66" stroke-miterlimit="10"/>
<path d="M61.4424 68.6003C53.7357 78.9196 49.5608 91.4483 49.5371 104.328C49.617 113.984 52.0685 123.472 56.6758 131.959" stroke="#8E6D66" stroke-miterlimit="10"/>
<path d="M56.207 153.876C63.0507 162.383 71.4627 169.499 80.987 174.836C86.8539 178.106 93.0902 180.663 99.5634 182.454" stroke="#8E6D66" stroke-miterlimit="10"/>
<path d="M127.184 42.874C138.151 45.9353 147.84 52.4494 154.814 61.4505C158.793 66.7259 161.705 72.7256 163.39 79.1146" stroke="#8E6D66" stroke-miterlimit="10"/>
<path d="M154.336 90.9856C159.722 98.246 162.265 107.227 161.486 116.233C160.73 123.621 157.739 130.603 152.91 136.246" stroke="#8E6D66" stroke-miterlimit="10"/>
<path d="M170.061 78.1223C172.276 80.0333 174.09 82.365 175.397 84.9822C176.705 87.5993 177.48 90.45 177.678 93.3689C177.864 97.7408 176.702 102.064 174.348 105.753" stroke="#8E6D66" stroke-miterlimit="10"/>
<path d="M122.417 150.535C124.51 156.54 124.722 163.041 123.024 169.169C121.327 175.298 117.802 180.764 112.918 184.837" stroke="#8E6D66" stroke-miterlimit="10"/>
<path d="M104.32 45.7363C112.132 49.2502 118.385 55.5053 121.897 63.3182C125.408 71.1312 125.934 79.9601 123.376 88.1348" stroke="#8E6D66" stroke-miterlimit="10"/>
<path d="M115.268 296.798C116.104 291.11 118.777 285.853 122.879 281.826C126.981 277.799 132.287 275.223 137.989 274.492C143.691 273.761 149.475 274.914 154.46 277.776C159.446 280.638 163.359 285.051 165.603 290.343C165.603 295.748 165.375 300.287 165.204 303.697C164.976 308.155 164.713 311.542 164.371 315.841C164.371 316.332 163.835 322.684 163.231 328.545C162.091 339.949 160.677 350.793 159.057 361.125C157.72 365.175 155.04 368.647 151.461 370.965C147.881 373.284 143.617 374.31 139.375 373.874C135.182 373.306 131.298 371.359 128.333 368.341C125.369 365.323 123.492 361.404 122.999 357.202C120.43 337.079 117.852 316.944 115.268 296.798Z" fill="#595A5C"/>
<path d="M135.108 435.59C135.252 436.108 135.534 436.576 135.924 436.946C136.313 437.315 136.796 437.572 137.32 437.688C138.021 437.778 138.731 437.616 139.324 437.232C139.917 436.848 140.354 436.266 140.559 435.59C146.388 418.892 151.134 401.835 154.768 384.525C157.048 373.749 158.748 363.451 160.036 353.735C160.401 340.998 149.933 331.305 139.407 332.354C130.056 333.289 122.096 342.537 122.541 353.735C126.73 381.02 130.919 408.305 135.108 435.59Z" fill="#595A5C"/>
<path d="M105.187 298.063C104.351 292.376 101.678 287.118 97.5755 283.091C93.4735 279.064 88.1672 276.489 82.4656 275.758C76.7639 275.027 70.9796 276.18 65.9942 279.042C61.0088 281.903 57.0958 286.317 54.8516 291.609C54.9086 297.014 55.0796 301.553 55.2507 304.962C55.4788 309.421 55.7524 312.808 56.0945 317.107C56.0945 317.597 56.6305 323.949 57.2349 329.822C58.3753 341.226 59.7703 352.082 61.42 362.391C62.7547 366.44 65.4327 369.911 69.0103 372.23C72.5878 374.548 76.8502 375.575 81.0912 375.14C85.2764 374.571 89.1542 372.628 92.116 369.617C95.0777 366.606 96.9558 362.696 97.4553 358.502L105.187 298.063Z" fill="#595A5C"/>
<path d="M85.3566 436.879C85.2069 437.405 84.9147 437.88 84.5122 438.25C84.1096 438.62 83.6125 438.872 83.0758 438.977C82.3769 439.064 81.6698 438.901 81.0793 438.517C80.4888 438.133 80.0529 437.553 79.8486 436.879C74.0475 420.195 69.3168 403.158 65.6854 385.871C63.4047 375.095 61.7055 364.797 60.4169 355.081C60.0634 342.332 70.5205 332.639 81.0574 333.688C90.4083 334.623 98.368 343.883 97.9119 355.081L85.3566 436.879Z" fill="#595A5C"/>
<path d="M138.187 187.962C136.925 186.458 136.16 184.599 135.999 182.643C135.838 180.686 136.287 178.728 137.286 177.037C139.852 172.886 144.812 172.738 145.154 172.738C154.882 180.96 164.951 189.992 175.214 199.913C185.477 209.834 194.669 219.39 203.153 228.73C204.269 231.289 204.582 234.128 204.048 236.869C203.515 239.61 202.161 242.124 200.166 244.078C198.171 246.032 195.629 247.334 192.878 247.81C190.126 248.287 187.295 247.916 184.759 246.747C180.197 241.752 148.267 200.369 138.187 187.962Z" fill="#595A5C"/>
<path d="M197.875 247.944C195.303 249.158 192.415 249.531 189.619 249.012C186.824 248.492 184.262 247.106 182.298 245.05C180.334 242.994 179.067 240.371 178.676 237.555C178.285 234.738 178.79 231.87 180.12 229.357L210.738 192.306C212.774 191.325 215.009 190.825 217.269 190.845C219.529 190.865 221.754 191.404 223.773 192.42C225.589 193.445 227.165 194.847 228.392 196.533C229.62 198.22 230.471 200.15 230.888 202.193C222.791 219.344 211.599 234.854 197.875 247.944V247.944Z" fill="#FBF2A8"/>
<path d="M218.972 210.655C216.441 210.208 214.13 208.933 212.403 207.03C210.677 205.126 209.632 202.702 209.433 200.14C209.235 197.577 209.894 195.022 211.307 192.875C212.72 190.728 214.807 189.112 217.239 188.281L248.405 188.509C248.816 188.49 249.221 188.62 249.545 188.874C250.526 189.718 250.275 192.101 248.747 194.747C248.018 195.945 247.203 197.089 246.307 198.168C238.062 208.26 225.096 210.256 218.972 210.655Z" fill="#FBF2A8"/>
<path d="M78.0689 189.216C79.6896 188.111 80.9274 186.53 81.6116 184.692C82.2959 182.854 82.3928 180.849 81.8891 178.953C80.5321 174.266 75.7996 172.772 75.4689 172.681C63.8943 177.961 51.7495 183.948 39.1827 190.71C26.616 197.472 15.2352 204.2 4.49303 210.906C2.7434 213.07 1.69019 215.713 1.47207 218.487C1.25396 221.261 1.88118 224.037 3.27113 226.447C4.66108 228.858 6.74859 230.791 9.25876 231.993C11.7689 233.194 14.5841 233.607 17.3335 233.177C23.0238 229.642 65.0232 198.442 78.0689 189.216Z" fill="#595A5C"/>
<path d="M75.2869 172.624C76.6554 170.834 89.0625 155.188 110.57 155.233C132.077 155.279 144.244 170.799 145.636 172.624C153.284 194.73 158.75 217.532 161.954 240.703C164.807 261.247 165.872 282 165.136 302.727C163.71 304.05 150.551 315.796 133.377 312.17C126.374 310.615 120.024 306.93 115.199 301.621C113.674 302.427 111.964 302.82 110.239 302.762C108.718 302.726 107.226 302.336 105.883 301.621C100.815 306.817 94.3175 310.39 87.2151 311.884C70.1097 315.306 57.064 304.563 55.285 303.047C53.4649 258.689 60.2573 214.398 75.2869 172.624V172.624Z" fill="#595A5C"/>
<path d="M75.2855 172.624C74.7837 172.487 68.6828 190.71 63.8819 211.191C61.7152 220.519 60.0617 229.436 58.8073 237.818C57.9178 243.691 56.3555 255.174 55.5345 269.988C54.6108 286.375 54.8161 302.944 55.295 302.955C55.774 302.967 54.8389 275.039 60.1985 238.765C65.9345 200.141 75.8785 172.852 75.2855 172.624Z" fill="#818285"/>
<path d="M145.771 173.08C146.273 172.932 151.872 190.471 156.627 210.951C158.794 220.291 160.447 229.197 161.713 237.59C162.591 243.463 164.153 254.946 164.986 269.76C165.898 286.147 165.693 302.705 165.225 302.716C164.758 302.727 165.682 274.811 160.322 238.537C154.597 199.867 145.155 173.251 145.771 173.08Z" fill="#818285"/>
<path d="M111.059 182.682C149.426 182.682 180.529 151.39 180.529 112.789C180.529 74.1887 149.426 42.8967 111.059 42.8967C72.6909 42.8967 41.5879 74.1887 41.5879 112.789C41.5879 151.39 72.6909 182.682 111.059 182.682Z" fill="#595A5C"/>
<path d="M110.832 182.568C108.449 182.614 106.065 182.519 103.693 182.283C98.328 181.761 93.0513 180.557 87.9902 178.702C103.147 182.139 118.881 182.139 134.038 178.702C129.68 180.332 125.15 181.456 120.536 182.055C117.32 182.487 114.075 182.658 110.832 182.568V182.568Z" fill="#818285"/>
<path d="M165.375 282.828L55.3984 282.098C56.1682 244.667 62.9089 207.599 75.3661 172.293C75.8793 173.194 87.3399 192.466 109.976 192.82C117.22 192.899 124.353 191.038 130.634 187.428C136.915 183.818 142.114 178.592 145.692 172.293C151.96 190.414 156.765 209.008 160.06 227.897C163.24 246.044 165.017 264.408 165.375 282.828V282.828Z" fill="#E6BB21"/>
<path d="M159.389 224.385L110.354 251.582L61.4667 224.214C58.5018 240.772 56.0956 258.424 54.5105 277.001C50.2578 327.298 52.5115 377.933 61.2158 427.653L159.15 427.779C168.636 378.794 171.284 328.731 167.018 279.019C165.416 260.689 162.869 242.453 159.389 224.385V224.385Z" fill="#E6BB21"/>
<path d="M62.6159 217.839L59.7422 233.724L110.773 260.431V244.181L62.6159 217.839Z" fill="#FBF2A8"/>
<path d="M158.235 218.238L161.189 234.066L110.773 260.432V244.181L158.235 218.238Z" fill="#FBF2A8"/>
<path d="M1.24257 226.221C0.0509362 223.635 -0.294972 220.739 0.254047 217.945C0.803065 215.152 2.21905 212.602 4.30059 210.66C6.38214 208.717 9.02323 207.48 11.8482 207.125C14.6732 206.77 17.5382 207.315 20.0357 208.682L56.7324 239.723C57.6881 241.769 58.1614 244.007 58.1159 246.265C58.0705 248.522 57.5074 250.74 56.4701 252.746C55.4232 254.55 54.0024 256.109 52.303 257.319C50.6036 258.528 48.665 259.36 46.6174 259.759C29.5664 251.452 14.1863 240.084 1.24257 226.221V226.221Z" fill="#FBF2A8"/>
<path d="M40.2539 246.291C40.9968 243.624 42.6392 241.296 44.9026 239.702C47.166 238.108 49.9111 237.346 52.6724 237.544C55.0059 237.812 57.2079 238.765 59.0001 240.283C60.7923 241.801 62.0943 243.817 62.7418 246.074L60.347 277.16C60.3476 277.581 60.1934 277.987 59.9137 278.301C59.0014 279.225 56.6409 278.814 54.1093 277.16C52.9397 276.353 51.8341 275.458 50.8022 274.481C41.3486 265.506 40.2881 252.449 40.2539 246.291Z" fill="#FBF2A8"/>
<path d="M81.8086 134.16C83.4456 133.917 85.1093 133.917 86.7463 134.16L85.2981 133.019C85.2981 133.019 82.2419 133.316 81.8086 134.16Z" fill="#FBF2A8"/>
<path d="M69.584 107.031C69.584 107.031 70.2568 110.087 77.7261 112.881C77.7261 112.881 82.2876 115.002 84.1692 105.594C84.1692 105.594 77.327 106.096 69.9261 98.6377C69.9261 98.6377 69.7094 104.1 79.8814 108.308C79.8814 108.308 80.4744 108.81 79.8814 109.197C79.8472 109.197 73.9972 109.996 69.584 107.031Z" fill="#FBF2A8"/>
<path d="M86.9975 134.16C92.1996 134.16 96.4168 127.568 96.4168 119.438C96.4168 111.307 92.1996 104.716 86.9975 104.716C81.7953 104.716 77.5781 111.307 77.5781 119.438C77.5781 127.568 81.7953 134.16 86.9975 134.16Z" fill="white"/>
<path d="M150.357 107.031C150.357 107.031 149.684 110.087 142.215 112.881C142.215 112.881 137.653 115.002 135.771 105.594C135.771 105.594 142.614 106.096 150.026 98.6377C150.026 98.6377 150.231 104.1 140.059 108.308C140.059 108.308 139.466 108.81 140.059 109.197C140.093 109.197 145.989 109.996 150.357 107.031Z" fill="#FBF2A8"/>
<path d="M138.543 134.16C136.906 133.917 135.242 133.917 133.605 134.16L135.054 133.019C135.054 133.019 138.11 133.316 138.543 134.16Z" fill="#FBF2A8"/>
<path d="M132.955 134.16C138.157 134.16 142.374 127.568 142.374 119.438C142.374 111.307 138.157 104.716 132.955 104.716C127.752 104.716 123.535 111.307 123.535 119.438C123.535 127.568 127.752 134.16 132.955 134.16Z" fill="white"/>
<path d="M87.204 134.16C91.2851 134.16 94.5935 128.886 94.5935 122.38C94.5935 115.874 91.2851 110.6 87.204 110.6C83.1228 110.6 79.8145 115.874 79.8145 122.38C79.8145 128.886 83.1228 134.16 87.204 134.16Z" fill="#231F20"/>
<path d="M82.755 116.461C83.7878 116.461 84.6251 115.149 84.6251 113.531C84.6251 111.912 83.7878 110.6 82.755 110.6C81.7221 110.6 80.8848 111.912 80.8848 113.531C80.8848 115.149 81.7221 116.461 82.755 116.461Z" fill="white"/>
<path d="M132.896 134.16C137.034 134.16 140.389 128.886 140.389 122.38C140.389 115.874 137.034 110.6 132.896 110.6C128.759 110.6 125.404 115.874 125.404 122.38C125.404 128.886 128.759 134.16 132.896 134.16Z" fill="#231F20"/>
<path d="M128.974 116.461C130.007 116.461 130.844 115.149 130.844 113.531C130.844 111.912 130.007 110.6 128.974 110.6C127.941 110.6 127.104 111.912 127.104 113.531C127.104 115.149 127.941 116.461 128.974 116.461Z" fill="white"/>
<path opacity="0.57" d="M78.2966 145.86C83.102 145.86 86.9976 144.833 86.9976 143.568C86.9976 142.302 83.102 141.275 78.2966 141.275C73.4912 141.275 69.5957 142.302 69.5957 143.568C69.5957 144.833 73.4912 145.86 78.2966 145.86Z" fill="#F7B1C4"/>
<path opacity="0.57" d="M143.834 145.86C148.639 145.86 152.535 144.833 152.535 143.568C152.535 142.302 148.639 141.275 143.834 141.275C139.028 141.275 135.133 142.302 135.133 143.568C135.133 144.833 139.028 145.86 143.834 145.86Z" fill="#F7B1C4"/>
<path d="M93.3711 151.721C94.5637 152.626 95.8345 153.424 97.1685 154.104C97.8185 154.458 98.5027 154.754 99.1641 155.085C99.8255 155.416 100.544 155.632 101.251 155.883C104.039 156.893 106.987 157.391 109.952 157.354C112.919 157.366 115.864 156.837 118.641 155.792L119.691 155.439C120.044 155.313 120.363 155.131 120.705 154.971L122.724 154.013C124.047 153.329 125.267 152.462 126.578 151.732C125.358 152.599 124.161 153.523 122.884 154.31L120.888 155.37C120.546 155.541 120.227 155.746 119.873 155.883L118.824 156.294C118.117 156.556 117.41 156.853 116.691 157.069L114.479 157.582C113.728 157.747 112.966 157.853 112.198 157.902C111.444 158.017 110.681 158.062 109.918 158.039C106.879 158.046 103.866 157.485 101.034 156.385C98.2204 155.303 95.6245 153.723 93.3711 151.721V151.721Z" fill="white"/>
<path d="M109.042 69.7864C129.549 69.7864 146.172 54.388 146.172 35.3932C146.172 16.3984 129.549 1 109.042 1C88.5358 1 71.9121 16.3984 71.9121 35.3932C71.9121 54.388 88.5358 69.7864 109.042 69.7864Z" fill="#72493E" stroke="#8E6D66" stroke-miterlimit="10"/>
<path d="M73.3594 44.7556C96.5544 37.3462 121.503 37.494 144.609 45.1775L108.117 90.3243L73.3594 44.7556Z" fill="#72493E" stroke="#8E6D66" stroke-miterlimit="10"/>
<path d="M109.188 91.9891C105.767 77.9969 109.644 63.4801 119.588 54.2204C132.497 42.2239 149.602 44.8011 153.536 45.3941C157.471 45.987 166.514 47.2985 173.96 54.3002C182.376 62.2828 183.847 73.1162 185.751 87.0855C186.071 89.4803 189.332 114.123 184.885 115.275C179.377 116.701 173.766 79.7986 152.955 73.2872C138.005 68.6117 120.831 81.2925 109.188 91.9891Z" fill="#72493E" stroke="#8E6D66" stroke-miterlimit="10"/>
<path d="M108.834 91.9548C111.992 76.9135 107.066 61.6897 95.9589 52.8063C89.1167 47.2984 77.8386 44.1054 68.5903 45.0519C61.4013 46.183 54.5997 49.0611 48.7823 53.4335V53.4335L48.1779 53.9695C39.762 61.952 38.2796 72.7854 36.3866 86.7547C36.0559 89.1495 32.8059 113.793 37.2533 114.944C42.784 116.37 48.7253 78.5328 69.1833 72.9564C83.1185 69.159 98.6159 81.7372 108.834 91.9548Z" fill="#72493E" stroke="#8E6D66" stroke-miterlimit="10"/>
<path d="M108.232 4.14746V35.3933" stroke="#8E6D66" stroke-miterlimit="10"/>
<path d="M95.583 7.89917C92.4572 12.5432 91.0571 18.1355 91.626 23.7045C92.0676 27.469 93.4263 31.0675 95.583 34.1844" fill="#72493E"/>
<path d="M95.583 7.89917C92.4572 12.5432 91.0571 18.1355 91.626 23.7045C92.0676 27.469 93.4263 31.0675 95.583 34.1844" stroke="#8E6D66" stroke-miterlimit="10"/>
<path d="M84.7037 14.6157C81.9101 19.1677 80.7929 24.5519 81.5449 29.8395C82.0033 32.6432 83.0108 35.3289 84.5098 37.7422" fill="#72493E"/>
<path d="M84.7037 14.6157C81.9101 19.1677 80.7929 24.5519 81.5449 29.8395C82.0033 32.6432 83.0108 35.3289 84.5098 37.7422" stroke="#8E6D66" stroke-miterlimit="10"/>
<path d="M75.8213 27.8555C74.7671 30.4196 74.4244 33.2207 74.8292 35.9634C75.0271 37.3246 75.4108 38.6522 75.9696 39.9091" fill="#72493E"/>
<path d="M75.8213 27.8555C74.7671 30.4196 74.4244 33.2207 74.8292 35.9634C75.0271 37.3246 75.4108 38.6522 75.9696 39.9091" stroke="#8E6D66" stroke-miterlimit="10"/>
<path d="M120.137 7.53418C123.263 12.1782 124.663 17.7705 124.094 23.3395C123.653 27.1006 122.294 30.6956 120.137 33.808" fill="#72493E"/>
<path d="M120.137 7.53418C123.263 12.1782 124.663 17.7705 124.094 23.3395C123.653 27.1006 122.294 30.6956 120.137 33.808" stroke="#8E6D66" stroke-miterlimit="10"/>
<path d="M131.014 14.251C133.809 18.798 134.927 24.1793 134.172 29.4633C133.716 32.2677 132.709 34.9538 131.208 37.366" fill="#72493E"/>
<path d="M131.014 14.251C133.809 18.798 134.927 24.1793 134.172 29.4633C133.716 32.2677 132.709 34.9538 131.208 37.366" stroke="#8E6D66" stroke-miterlimit="10"/>
<path d="M139.898 27.4905C140.953 30.0504 141.296 32.8481 140.89 35.587C140.694 36.9522 140.31 38.2837 139.75 39.5441" fill="#72493E"/>
<path d="M139.898 27.4905C140.953 30.0504 141.296 32.8481 140.89 35.587C140.694 36.9522 140.31 38.2837 139.75 39.5441" stroke="#8E6D66" stroke-miterlimit="10"/>
<path d="M72.8446 44.516C72.6015 43.9614 72.3995 43.3897 72.2402 42.8055C71.8217 41.2379 71.6941 39.6068 71.8638 37.9932L146.318 38.3923C146.353 39.4271 146.281 40.4629 146.101 41.4827C145.913 42.5509 145.607 43.595 145.189 44.5958L72.8446 44.516Z" fill="#FEC410"/>
<path d="M92.1523 46.9563C94.1086 46.5824 96.1238 46.6515 98.0499 47.1587C99.9759 47.6658 101.764 48.5981 103.282 49.887C108.596 54.6423 107.273 61.7126 107.216 62.009" fill="#72493E"/>
<path d="M92.1523 46.9563C94.1086 46.5824 96.1238 46.6515 98.0499 47.1587C99.9759 47.6658 101.764 48.5981 103.282 49.887C108.596 54.6423 107.273 61.7126 107.216 62.009" stroke="#8E6D66" stroke-miterlimit="10"/>
<path d="M125.087 47.2987C123.131 46.9216 121.116 46.9881 119.19 47.4933C117.264 47.9986 115.475 48.9297 113.957 50.218C108.643 54.9733 109.965 62.0549 110.022 62.3628" fill="#72493E"/>
<path d="M125.087 47.2987C123.131 46.9216 121.116 46.9881 119.19 47.4933C117.264 47.9986 115.475 48.9297 113.957 50.218C108.643 54.9733 109.965 62.0549 110.022 62.3628" stroke="#8E6D66" stroke-miterlimit="10"/>
<path d="M38.9661 101.078C38.8123 93.5626 40.612 86.1362 44.189 79.5251C45.5954 76.9578 47.2737 74.5492 49.1951 72.3408" fill="#72493E"/>
<path d="M38.9661 101.078C38.8123 93.5626 40.612 86.1362 44.189 79.5251C45.5954 76.9578 47.2737 74.5492 49.1951 72.3408" stroke="#8E6D66" stroke-miterlimit="10"/>
<path d="M50.7246 60.367C53.0027 57.785 55.7745 55.6849 58.8767 54.1906C61.9789 52.6963 65.3488 51.8379 68.7879 51.6661C73.8866 51.5419 78.9011 52.9826 83.1564 55.7942" fill="#72493E"/>
<path d="M50.7246 60.367C53.0027 57.785 55.7745 55.6849 58.8767 54.1906C61.9789 52.6963 65.3488 51.8379 68.7879 51.6661C73.8866 51.5419 78.9011 52.9826 83.1564 55.7942" stroke="#8E6D66" stroke-miterlimit="10"/>
<path d="M60.4609 67.768C62.2399 66.5593 71.9786 60.2075 84.4085 62.9785C90.3356 64.3441 95.7176 67.4541 99.8603 71.9075" fill="#72493E"/>
<path d="M60.4609 67.768C62.2399 66.5593 71.9786 60.2075 84.4085 62.9785C90.3356 64.3441 95.7176 67.4541 99.8603 71.9075" stroke="#8E6D66" stroke-miterlimit="10"/>
<path d="M183.107 101.796C183.264 94.2884 181.477 86.8677 177.918 80.2548C176.512 77.6876 174.834 75.279 172.912 73.0706" fill="#72493E"/>
<path d="M183.107 101.796C183.264 94.2884 181.477 86.8677 177.918 80.2548C176.512 77.6876 174.834 75.279 172.912 73.0706" stroke="#8E6D66" stroke-miterlimit="10"/>
<path d="M171.35 61.0969C169.072 58.5137 166.3 56.4123 163.198 54.916C160.096 53.4198 156.726 52.5591 153.286 52.3846C148.188 52.2718 143.175 53.7158 138.918 56.524" fill="#72493E"/>
<path d="M171.35 61.0969C169.072 58.5137 166.3 56.4123 163.198 54.916C160.096 53.4198 156.726 52.5591 153.286 52.3846C148.188 52.2718 143.175 53.7158 138.918 56.524" stroke="#8E6D66" stroke-miterlimit="10"/>
<path d="M161.553 68.4978C159.786 67.289 150.047 60.9372 137.606 63.7083C131.676 65.0743 126.29 68.1841 122.143 72.6373" fill="#72493E"/>
<path d="M161.553 68.4978C159.786 67.289 150.047 60.9372 137.606 63.7083C131.676 65.0743 126.29 68.1841 122.143 72.6373" stroke="#8E6D66" stroke-miterlimit="10"/>
</svg>
