<svg width="250" height="433" viewBox="0 0 250 433" fill="none" xmlns="http://www.w3.org/2000/svg">
<path d="M203.067 107.791C208.192 117.457 210.852 116.82 213.08 124.172C215.275 133.51 214.465 143.303 210.766 152.154C197.002 186.073 116.99 186.808 108.47 186.819C81.4393 186.819 28.7075 186.819 11.7645 155.712C9.87234 152.23 -0.356141 133.406 6.25021 118.452C8.50999 113.327 11.6564 111.067 17.1382 100.309C20.2971 94.7111 22.7624 88.7493 24.4798 82.5552C28.2317 68.9425 26.2639 60.271 32.7513 47.8584C50.6241 13.6805 101.031 11.6803 107.411 11.5073C131.576 10.8801 164.976 19.0759 180.675 42.7658C183.149 46.6255 185.336 50.6622 187.217 54.8432C188.298 57.7949 189.866 62.5199 191.628 68.391C198.429 91.1619 197.034 96.4058 203.067 107.791Z" fill="#1C1B17" stroke="#6B6867" stroke-width="0.75" stroke-miterlimit="10"/>
<path d="M76.2697 27.8123C57.8347 47.4799 53.0664 64.3904 52.2123 76.284C50.7202 96.8275 60.2783 110.256 52.7313 124.723C47.098 135.536 35.3342 140.401 26.5762 142.823" stroke="#6B6867" stroke-width="0.75" stroke-miterlimit="10"/>
<path d="M133.275 27.8123C155.7 40.4086 163.95 54.1295 167.269 64.5743C173.757 84.9123 163.755 99.9523 172.503 122.064C177.584 134.887 186.342 143.461 192.906 148.684" stroke="#6B6867" stroke-width="0.75" stroke-miterlimit="10"/>
<path d="M96.6636 32.613C90.3948 65.4565 89.8644 99.1378 95.0958 132.162C97.3585 146.232 100.68 160.112 105.032 173.682" stroke="#6B6867" stroke-width="0.75" stroke-miterlimit="10"/>
<path d="M120.203 80.5225C125.975 95.5106 129.329 111.321 130.14 127.362C130.958 143.512 129.191 159.689 124.906 175.282" stroke="#6B6867" stroke-width="0.75" stroke-miterlimit="10"/>
<path d="M16.6406 126.302C20.9311 124.903 24.7392 122.321 27.626 118.852C36.4921 108.04 31.6482 93.2596 31.2914 92.2324" stroke="#6B6867" stroke-width="0.75" stroke-miterlimit="10"/>
<path d="M166.229 38.4407C173.827 48.8305 179.271 60.6344 182.242 73.1586C185.213 85.6827 185.65 98.6744 183.528 111.37" stroke="#6B6867" stroke-width="0.75" stroke-miterlimit="10"/>
<path d="M73.6556 92.2324C74.153 103.549 74.5134 114.362 74.7369 124.669C75.0829 142.088 74.8558 147.84 71.0715 153.42C66.2275 160.566 58.3237 163.389 53.2852 164.599" stroke="#6B6867" stroke-width="0.75" stroke-miterlimit="10"/>
<path d="M144.26 68.8127C148.294 82.0789 149.888 95.9671 148.963 109.802C147.795 125.837 143.362 135.849 148.963 144.402C153.667 151.581 162.835 153.755 169.366 154.511" stroke="#6B6867" stroke-width="0.75" stroke-miterlimit="10"/>
<path d="M109.24 31.5425C114.313 40.795 116.154 51.4755 114.473 61.8927C113.396 67.9751 111.081 73.7714 107.672 78.9222" stroke="#6B6867" stroke-width="0.75" stroke-miterlimit="10"/>
<path d="M111.314 112.462C116.531 122.708 119.39 133.99 119.683 145.483C119.856 153.409 118.794 161.314 116.537 168.913" stroke="#6B6867" stroke-width="0.75" stroke-miterlimit="10"/>
<path d="M114.439 289.969C115.282 284.254 117.969 278.971 122.092 274.925C126.215 270.88 131.548 268.292 137.277 267.557C143.007 266.823 148.819 267.981 153.83 270.856C158.84 273.73 162.773 278.164 165.03 283.481C165.03 288.887 164.803 293.472 164.63 296.899C164.403 301.386 164.133 304.781 163.787 309.106C163.787 309.604 163.246 315.972 162.706 321.887C161.56 333.315 160.132 344.236 158.5 354.626C157.159 358.697 154.466 362.187 150.87 364.517C147.273 366.848 142.987 367.879 138.724 367.439C134.5 366.879 130.584 364.927 127.594 361.892C124.603 358.857 122.71 354.912 122.214 350.68C119.619 330.454 117.027 310.217 114.439 289.969Z" fill="#595A5C"/>
<path d="M134.377 429.47C134.511 430.001 134.79 430.485 135.183 430.867C135.577 431.249 136.069 431.514 136.604 431.632C137.314 431.72 138.033 431.551 138.628 431.154C139.223 430.757 139.656 430.159 139.848 429.47C145.71 412.686 150.481 395.542 154.131 378.143C156.412 367.331 158.132 356.962 159.429 347.177C159.786 334.375 149.265 324.633 138.68 325.682C129.284 326.623 121.283 335.921 121.737 347.177C125.954 374.611 130.167 402.042 134.377 429.47Z" fill="#595A5C"/>
<path d="M104.309 291.266C103.47 285.547 100.784 280.26 96.6598 276.21C92.5359 272.16 87.2006 269.571 81.4677 268.836C75.7348 268.101 69.9188 269.261 64.9067 272.139C59.8946 275.018 55.9614 279.456 53.707 284.778C53.707 290.185 53.9341 294.769 54.1179 298.197C54.345 302.684 54.6153 306.079 54.9505 310.404C54.9505 310.901 55.4911 317.27 56.0857 323.173C57.167 334.613 58.6483 345.533 60.2809 355.924C61.6234 359.991 64.3143 363.479 67.9085 365.808C71.5027 368.138 75.7847 369.171 80.0459 368.736C84.2612 368.172 88.1689 366.221 91.1525 363.191C94.1362 360.16 96.026 356.222 96.5239 351.999L104.309 291.266Z" fill="#595A5C"/>
<path d="M84.3682 430.767C84.2227 431.289 83.9373 431.761 83.5428 432.133C83.1484 432.505 82.6598 432.761 82.1301 432.875C81.428 432.96 80.7186 432.795 80.1257 432.41C79.5328 432.024 79.0942 431.443 78.8864 430.767C73.0345 413.981 68.2637 396.837 64.6032 379.441C62.3326 368.628 60.6027 358.259 59.316 348.474C58.9484 335.672 69.4688 325.92 80.0541 326.979C89.45 327.92 97.4512 337.219 96.997 348.474L84.3682 430.767Z" fill="#595A5C"/>
<path d="M137.469 180.569C136.199 179.057 135.429 177.189 135.267 175.221C135.104 173.253 135.556 171.284 136.561 169.584C139.156 165.421 144.129 165.259 144.486 165.259C154.217 173.519 164.381 182.559 174.696 192.571C185.011 202.583 194.245 212.141 202.808 221.537C203.915 224.106 204.217 226.951 203.675 229.696C203.133 232.44 201.771 234.956 199.77 236.912C197.769 238.867 195.223 240.17 192.466 240.649C189.71 241.128 186.873 240.76 184.33 239.594C179.745 234.631 147.578 193.057 137.469 180.569Z" fill="#595A5C"/>
<path d="M197.769 238.112C195.184 239.333 192.281 239.709 189.47 239.187C186.66 238.665 184.085 237.271 182.111 235.204C180.137 233.136 178.864 230.5 178.472 227.669C178.08 224.837 178.59 221.954 179.928 219.429L210.7 182.18C211.263 181.899 217.469 178.936 223.805 182.299C225.63 183.328 227.212 184.737 228.445 186.431C229.678 188.125 230.533 190.064 230.952 192.117C222.808 209.356 211.56 224.948 197.769 238.112V238.112Z" fill="#595A5C"/>
<path d="M218.659 203.372C216.114 202.924 213.791 201.643 212.054 199.729C210.318 197.816 209.267 195.379 209.068 192.803C208.869 190.226 209.532 187.657 210.953 185.499C212.374 183.341 214.473 181.717 216.918 180.883L248.274 181.121C248.684 181.104 249.087 181.234 249.409 181.488C250.404 182.332 250.145 184.732 248.609 187.392C247.877 188.614 247.057 189.782 246.155 190.884C237.905 200.961 224.833 202.918 218.659 203.372Z" fill="#595A5C"/>
<path d="M77.0391 181.834C78.6701 180.72 79.9159 179.128 80.6052 177.277C81.2945 175.426 81.3934 173.407 80.8883 171.498C79.526 166.784 74.7577 165.291 74.4009 165.194C62.7452 170.514 50.5921 176.525 37.9633 183.326C25.3345 190.127 13.8409 196.885 3.09347 203.61C1.32959 205.784 0.26624 208.441 0.0437828 211.232C-0.178674 214.022 0.450216 216.814 1.84745 219.24C3.24468 221.665 5.34457 223.61 7.86995 224.817C10.3953 226.025 13.2275 226.438 15.9926 226.003C21.7232 222.446 63.9346 191.1 77.0391 181.834Z" fill="#595A5C"/>
<path d="M74.2282 165.205C75.6014 163.399 88.0789 147.667 109.682 147.721C131.285 147.775 143.535 163.367 144.93 165.194C152.638 187.397 158.15 210.303 161.387 233.582C164.278 254.23 165.363 275.09 164.63 295.926C163.203 297.245 149.98 309.052 132.712 305.409C125.675 303.849 119.293 300.152 114.439 294.823C112.902 295.62 111.186 296.011 109.455 295.959C107.942 295.894 106.463 295.487 105.13 294.769C100.035 299.988 93.5064 303.578 86.3705 305.084C69.2005 308.544 56.0959 297.721 54.2686 296.197C52.4052 251.654 59.1831 207.171 74.2282 165.205V165.205Z" fill="#595A5C"/>
<path d="M74.2267 165.205C73.7185 165.053 67.5879 183.37 62.8089 203.967C60.6464 213.341 58.9705 222.294 57.7054 230.728C56.8188 236.631 55.2402 248.179 54.4077 263.067C53.4886 279.535 53.6941 296.186 54.1698 296.196C54.6456 296.207 53.7157 268.138 59.1002 231.679C64.9065 192.809 74.843 165.378 74.2267 165.205Z" fill="#818285"/>
<path d="M145.091 165.605C145.599 165.464 151.232 183.088 156.012 203.686C158.174 213.06 159.85 222.013 161.115 230.447C162.002 236.361 163.569 247.898 164.359 262.786C165.278 279.253 165.072 295.904 164.597 295.915C164.121 295.926 165.061 267.868 159.677 231.398C153.968 192.538 144.475 165.778 145.091 165.605Z" fill="#818285"/>
<path d="M110.213 175.26C148.777 175.26 180.039 143.809 180.039 105.012C180.039 66.2157 148.777 34.7646 110.213 34.7646C71.649 34.7646 40.3867 66.2157 40.3867 105.012C40.3867 143.809 71.649 175.26 110.213 175.26Z" fill="#595A5C"/>
<path d="M109.973 175.152C102.144 175.274 94.3596 173.954 87.0078 171.26C102.243 174.72 118.06 174.72 133.295 171.26C125.847 174.051 117.924 175.358 109.973 175.109V175.152Z" fill="#818285"/>
<path d="M164.792 275.923L54.2578 275.231C55.0271 237.596 61.8017 200.325 74.3255 164.826C74.8337 165.724 86.3597 185.1 109.109 185.37C116.382 185.458 123.546 183.599 129.86 179.987C136.173 176.375 141.406 171.141 145.017 164.826C151.314 183.038 156.144 201.723 159.462 220.705C162.648 238.948 164.43 257.408 164.792 275.923V275.923Z" fill="#5291CD"/>
<path d="M158.781 217.18L109.487 244.524L60.3449 217.05C57.3715 233.69 54.9387 251.401 53.3493 270.117C49.0813 320.655 51.3454 371.531 60.0854 421.49L158.478 421.609C168.017 372.373 170.681 322.052 166.392 272.085C164.804 253.664 162.263 235.338 158.781 217.18V217.18Z" fill="#F3DC35"/>
<path d="M61.5119 210.606L58.625 226.576L109.908 253.455V237.118L61.5119 210.606Z" fill="#EC1849" stroke="#A51D3C" stroke-width="0.75" stroke-miterlimit="10"/>
<path d="M157.623 211.028L160.586 226.943L109.908 253.444V237.107L157.623 211.028Z" fill="#EC1849" stroke="#A51D3C" stroke-width="0.75" stroke-miterlimit="10"/>
<path d="M2.87623 219.904C1.6853 217.306 1.34273 214.398 1.89711 211.593C2.45148 208.789 3.87466 206.23 5.96483 204.28C8.055 202.33 10.7061 201.087 13.5421 200.728C16.3782 200.369 19.2553 200.912 21.7654 202.28L58.6572 233.474C58.9275 234.036 61.9009 240.275 58.3868 246.579C57.3362 248.389 55.9094 249.954 54.2027 251.166C52.496 252.378 50.5492 253.211 48.4935 253.607C31.3496 245.265 15.8864 233.841 2.87623 219.904V219.904Z" fill="#595A5C"/>
<path d="M39.0352 239.193C39.7799 236.513 41.43 234.174 43.7048 232.574C45.9796 230.973 48.7386 230.21 51.5126 230.414C53.8512 230.684 56.0571 231.641 57.851 233.166C59.6449 234.69 60.9461 236.713 61.5897 238.977L59.2326 270.225C59.2121 270.625 59.0558 271.007 58.7893 271.306C57.8811 272.236 55.5456 271.814 52.9615 270.117C51.7912 269.301 50.6818 268.401 49.6421 267.424C40.138 258.515 39.0784 245.389 39.0352 239.193Z" fill="#595A5C"/>
<path d="M80.8008 126.497C82.4457 126.248 84.1187 126.248 85.7637 126.497L84.304 125.296C84.304 125.296 81.2333 125.642 80.8008 126.497Z" fill="#F3DC35"/>
<path d="M68.5195 99.2171C68.5195 99.2171 69.2115 102.288 76.7045 105.099C76.7045 105.099 81.3105 107.261 83.1919 97.7682C83.1919 97.7682 76.2828 98.2872 68.8655 90.7834C68.8655 90.7834 68.6493 96.2761 78.8778 100.515C78.8778 100.515 79.4833 101.023 78.8778 101.401C78.8345 101.39 72.9526 102.234 68.5195 99.2171Z" fill="#F3DC35"/>
<path d="M86.0233 126.497C91.2484 126.497 95.4841 119.869 95.4841 111.694C95.4841 103.519 91.2484 96.8923 86.0233 96.8923C80.7982 96.8923 76.5625 103.519 76.5625 111.694C76.5625 119.869 80.7982 126.497 86.0233 126.497Z" fill="white"/>
<path d="M149.708 99.2171C149.708 99.2171 149.026 102.288 141.523 105.099C141.523 105.099 136.917 107.261 135.035 97.7682C135.035 97.7682 141.933 98.2872 149.351 90.7834C149.351 90.7834 149.567 96.2761 139.338 100.515C139.338 100.515 138.744 101.023 139.338 101.401C139.393 101.39 145.274 102.234 149.708 99.2171Z" fill="#F3DC35"/>
<path d="M137.826 126.497C136.181 126.248 134.508 126.248 132.863 126.497L134.323 125.296C134.323 125.296 137.35 125.642 137.826 126.497Z" fill="#F3DC35"/>
<path d="M132.205 126.497C137.43 126.497 141.666 119.869 141.666 111.694C141.666 103.519 137.43 96.8923 132.205 96.8923C126.98 96.8923 122.744 103.519 122.744 111.694C122.744 119.869 126.98 126.497 132.205 126.497Z" fill="white"/>
<path d="M86.2191 126.496C90.3215 126.496 93.6472 121.196 93.6472 114.657C93.6472 108.118 90.3215 102.817 86.2191 102.817C82.1167 102.817 78.791 108.118 78.791 114.657C78.791 121.196 82.1167 126.496 86.2191 126.496Z" fill="#231F20"/>
<path d="M81.7642 108.699C82.8032 108.699 83.6455 107.383 83.6455 105.758C83.6455 104.134 82.8032 102.817 81.7642 102.817C80.7251 102.817 79.8828 104.134 79.8828 105.758C79.8828 107.383 80.7251 108.699 81.7642 108.699Z" fill="white"/>
<path d="M132.151 126.496C136.314 126.496 139.688 121.196 139.688 114.657C139.688 108.118 136.314 102.817 132.151 102.817C127.989 102.817 124.615 108.118 124.615 114.657C124.615 121.196 127.989 126.496 132.151 126.496Z" fill="#231F20"/>
<path d="M128.204 108.699C129.243 108.699 130.085 107.383 130.085 105.758C130.085 104.134 129.243 102.817 128.204 102.817C127.165 102.817 126.322 104.134 126.322 105.758C126.322 107.383 127.165 108.699 128.204 108.699Z" fill="white"/>
<path opacity="0.57" d="M77.2765 138.25C82.1074 138.25 86.0237 137.219 86.0237 135.947C86.0237 134.675 82.1074 133.644 77.2765 133.644C72.4456 133.644 68.5293 134.675 68.5293 135.947C68.5293 137.219 72.4456 138.25 77.2765 138.25Z" fill="#F7B1C4"/>
<path opacity="0.57" d="M143.146 138.25C147.977 138.25 151.893 137.219 151.893 135.947C151.893 134.675 147.977 133.644 143.146 133.644C138.315 133.644 134.398 134.675 134.398 135.947C134.398 137.219 138.315 138.25 143.146 138.25Z" fill="#F7B1C4"/>
<path d="M92.4238 144.142C93.6316 145.058 94.9157 145.868 96.2622 146.564C96.9218 146.932 97.6138 147.224 98.2841 147.548C98.9545 147.873 99.6681 148.11 100.371 148.359C103.178 149.372 106.145 149.874 109.129 149.84C112.108 149.85 115.065 149.319 117.854 148.273L118.936 147.916C119.282 147.786 119.606 147.602 119.952 147.451L121.974 146.478C123.304 145.786 124.537 144.921 125.845 144.164C124.623 145.029 123.412 145.959 122.125 146.748L120.125 147.829C119.779 148.002 119.455 148.208 119.109 148.348L118.027 148.748C117.325 149.019 116.622 149.311 115.865 149.527L113.648 150.046C112.905 150.214 112.149 150.322 111.389 150.37C110.634 150.484 109.87 150.527 109.107 150.5C106.053 150.516 103.022 149.955 100.176 148.846C97.329 147.759 94.7024 146.166 92.4238 144.142V144.142Z" fill="white"/>
<path d="M120.969 63.7201C135.457 74.846 153.276 63.4931 165.732 77.0301C172.966 84.9015 173.841 96.2004 173.993 98.298C174.587 106.04 172.555 111.478 169.733 119.804C166.911 128.129 162.932 140.455 158.607 155.96C161.321 158.836 170.176 167.443 182.167 167.097C201.629 166.546 215.685 142.683 213.588 125.902C212.658 118.55 209.046 115.911 203.673 107.359C187.659 81.8308 195.336 66.2718 185.984 48.9721C170.435 20.2761 122.883 8.35006 111.14 20.9464C103.161 29.5098 107.875 53.643 120.969 63.7201Z" fill="#1C1B17" stroke="#6B6867" stroke-width="0.75" stroke-miterlimit="10"/>
<path d="M177.444 91.3889L174.168 139.807" stroke="#6B6867" stroke-width="0.75" stroke-miterlimit="10"/>
<path d="M184.006 122.875C184.2 124.475 186.741 143.796 200.224 148.824C202.396 149.634 204.697 150.037 207.015 150.014" fill="#1C1B17"/>
<path d="M184.006 122.875C184.2 124.475 186.741 143.796 200.224 148.824C202.396 149.634 204.697 150.037 207.015 150.014" stroke="#6B6867" stroke-width="0.75" stroke-miterlimit="10"/>
<path d="M169.248 145.061C169.313 145.807 170.329 155.874 179.087 160.566C182.596 162.364 186.576 163.031 190.479 162.475C194.382 161.919 198.017 160.169 200.885 157.463" fill="#1C1B17"/>
<path d="M169.248 145.061C169.313 145.807 170.329 155.874 179.087 160.566C182.596 162.364 186.576 163.031 190.479 162.475C194.382 161.919 198.017 160.169 200.885 157.463" stroke="#6B6867" stroke-width="0.75" stroke-miterlimit="10"/>
<path d="M158.467 40.8196C166.406 42.4994 173.428 47.0941 178.145 53.6971C181.886 59.1035 183.927 65.5041 184.006 72.0781" fill="#1C1B17"/>
<path d="M158.467 40.8196C166.406 42.4994 173.428 47.0941 178.145 53.6971C181.886 59.1035 183.927 65.5041 184.006 72.0781" stroke="#6B6867" stroke-width="0.75" stroke-miterlimit="10"/>
<path d="M194.559 90.4373C193.77 91.9294 187.574 104.18 193.38 116.906C195.919 122.348 200.102 126.856 205.339 129.794" fill="#1C1B17"/>
<path d="M194.559 90.4373C193.77 91.9294 187.574 104.18 193.38 116.906C195.919 122.348 200.102 126.856 205.339 129.794" stroke="#6B6867" stroke-width="0.75" stroke-miterlimit="10"/>
<path d="M98.4255 61.4601C83.9478 72.586 66.1182 61.233 53.6624 74.7701C46.4289 82.6415 45.564 93.9404 45.4018 96.038C44.8071 103.78 46.8398 109.218 49.6618 117.544C52.4839 125.869 56.4628 138.195 60.7986 153.7C58.0738 156.576 49.2185 165.183 37.2276 164.837C17.7654 164.286 3.70934 140.423 5.80693 123.642C6.7368 116.29 10.3589 113.651 15.7219 105.099C31.735 79.5708 24.0582 64.0118 33.4109 46.7121C48.905 18.0161 96.4577 6.09005 108.157 18.6864C116.179 27.2498 111.465 51.4154 98.4255 61.4601Z" fill="#1C1B17" stroke="#6B6867" stroke-width="0.75" stroke-miterlimit="10"/>
<path d="M41.9004 89.1292L45.1765 137.547" stroke="#6B6867" stroke-width="0.75" stroke-miterlimit="10"/>
<path d="M35.3365 120.615C35.1527 122.215 32.601 141.537 19.1721 146.618C16.9967 147.427 14.6917 147.83 12.3711 147.808" fill="#1C1B17"/>
<path d="M35.3365 120.615C35.1527 122.215 32.601 141.537 19.1721 146.618C16.9967 147.427 14.6917 147.83 12.3711 147.808" stroke="#6B6867" stroke-width="0.75" stroke-miterlimit="10"/>
<path d="M50.1037 142.802C50.0281 143.548 48.9684 153.614 40.2537 158.306C36.748 160.106 32.7706 160.775 28.869 160.221C24.9673 159.668 21.3332 157.918 18.4668 155.214" fill="#1C1B17"/>
<path d="M50.1037 142.802C50.0281 143.548 48.9684 153.614 40.2537 158.306C36.748 160.106 32.7706 160.775 28.869 160.221C24.9673 159.668 21.3332 157.918 18.4668 155.214" stroke="#6B6867" stroke-width="0.75" stroke-miterlimit="10"/>
<path d="M60.8855 38.5598C52.9455 40.2316 45.9204 44.8186 41.1962 51.4157C37.4554 56.8221 35.4147 63.2227 35.3359 69.7967" fill="#1C1B17"/>
<path d="M60.8855 38.5598C52.9455 40.2316 45.9204 44.8186 41.1962 51.4157C37.4554 56.8221 35.4147 63.2227 35.3359 69.7967" stroke="#6B6867" stroke-width="0.75" stroke-miterlimit="10"/>
<path d="M24.7942 88.1777C25.5835 89.6698 31.779 101.92 25.9619 114.646C23.4438 120.081 19.2839 124.589 14.0684 127.535" fill="#1C1B17"/>
<path d="M24.7942 88.1777C25.5835 89.6698 31.779 101.92 25.9619 114.646C23.4438 120.081 19.2839 124.589 14.0684 127.535" stroke="#6B6867" stroke-width="0.75" stroke-miterlimit="10"/>
<path d="M104.037 25.174C102.177 10.7395 88.8993 -0.905357 81.4279 1.81936C69.0478 6.34973 66.442 52.7131 76.8002 57.7517C84.5851 61.5035 106.696 45.8256 104.037 25.174Z" fill="#EC1849" stroke="#A51D3C" stroke-width="0.75" stroke-miterlimit="10"/>
<path d="M116.623 24.7524C118.483 10.3287 131.76 -1.32703 139.232 1.39768C151.612 5.92806 154.218 52.2914 143.838 57.33C136.074 61.0819 113.963 45.4148 116.623 24.7524Z" fill="#EC1849" stroke="#A51D3C" stroke-width="0.75" stroke-miterlimit="10"/>
<path d="M101.173 18.211C102.254 17.4757 105.498 17.4865 112.072 17.5298C119.446 17.5298 120.073 17.8109 120.722 18.211C126.625 21.9953 127.209 37.6732 121.868 41.6954C120.57 42.6577 119.857 42.2468 111.056 42.0846C102.665 41.9225 101.962 42.2685 100.676 41.3062C95.1831 37.2623 95.4966 22.1034 101.173 18.211Z" fill="#EC1849" stroke="#A51D3C" stroke-width="0.75" stroke-miterlimit="10"/>
<path d="M111.769 21.4436C109.935 23.4281 108.879 26.0084 108.796 28.7095C108.726 31.1244 109.426 33.4988 110.796 35.4888" fill="#EC1849"/>
<path d="M111.769 21.4436C109.935 23.4281 108.879 26.0084 108.796 28.7095C108.726 31.1244 109.426 33.4988 110.796 35.4888" stroke="#A51D3C" stroke-width="0.75" stroke-miterlimit="10"/>
<path d="M96.5773 27.8773C94.0481 27.4988 91.604 26.6829 89.3546 25.4661C87.2282 24.2954 85.2922 22.8079 83.6133 21.0547" fill="#EC1849"/>
<path d="M96.5773 27.8773C94.0481 27.4988 91.604 26.6829 89.3546 25.4661C87.2282 24.2954 85.2922 22.8079 83.6133 21.0547" stroke="#A51D3C" stroke-width="0.75" stroke-miterlimit="10"/>
<path d="M96.869 35.197C94.7147 36.7175 92.1426 37.5338 89.5058 37.5338C86.869 37.5338 84.2969 36.7175 82.1426 35.197" fill="#EC1849"/>
<path d="M96.869 35.197C94.7147 36.7175 92.1426 37.5338 89.5058 37.5338C86.869 37.5338 84.2969 36.7175 82.1426 35.197" stroke="#A51D3C" stroke-width="0.75" stroke-miterlimit="10"/>
<path d="M124.928 26.7959C127.409 26.0934 129.752 24.9746 131.858 23.4873C133.863 22.0688 135.642 20.3555 137.135 18.4055" fill="#EC1849"/>
<path d="M124.928 26.7959C127.409 26.0934 129.752 24.9746 131.858 23.4873C133.863 22.0688 135.642 20.3555 137.135 18.4055" stroke="#A51D3C" stroke-width="0.75" stroke-miterlimit="10"/>
<path d="M125.359 34.1158C128.039 35.5444 131.134 35.9883 134.107 35.37C136.305 34.8747 138.342 33.8335 140.032 32.3425" fill="#EC1849"/>
<path d="M125.359 34.1158C128.039 35.5444 131.134 35.9883 134.107 35.37C136.305 34.8747 138.342 33.8335 140.032 32.3425" stroke="#A51D3C" stroke-width="0.75" stroke-miterlimit="10"/>
</svg>
