<svg width="250" height="414" viewBox="0 0 250 414" fill="none" xmlns="http://www.w3.org/2000/svg">
<g clip-path="url(#clip0_132_346)">
<path d="M197.48 83.4688C197.48 90.4466 199.774 90.845 199.098 95.6257C197.757 105.187 188.048 108.024 189.111 113.577C189.956 118.068 196.719 118.406 196.671 121.69C196.671 125.42 188.217 125.602 181.538 134.426C179.718 136.832 178.429 139.598 177.758 142.539C177.179 145.123 176.551 150.29 178.302 151.231C180.717 152.439 185.343 144.821 186.671 145.726C188 146.632 185.826 157.449 180.464 159.006C175.56 160.467 171.575 153.187 166.95 154.95C163.894 156.157 163.134 160.249 162.119 162.773C156.685 175.968 128.461 183.501 107.484 175.268C91.6636 169.086 85.1542 155.952 75.3359 159.573C70.6743 161.312 66.2783 166.455 61.5684 164.499C58.5372 163.292 58.1749 160.213 55.3489 159.863C50.9409 159.32 48.1029 166.249 45.8928 165.368C42.9703 164.161 46.0498 150.881 43.7311 150.024C41.4124 149.167 36.944 163.907 31.0385 163.63C26.6546 163.424 21.981 154.95 23.4785 148.865C24.7707 143.529 30.7245 140.475 30.495 140.173C30.2656 139.871 24.6378 146.209 20.5076 144.809C15.7614 143.227 13.4669 131.626 15.6769 122.221C17.4763 114.422 22.2587 108.519 21.6187 108.024C20.9786 107.529 18.2493 113.07 13.5152 113.529C9.57817 113.915 6.47446 110.608 5.95516 110.052C0.339488 104.149 1.75246 92.9577 3.79343 92.4386C5.53247 91.9557 6.86091 99.4768 12.1626 100.551C15.7856 101.288 19.0101 98.5472 19.7226 97.9436C23.7442 94.5271 24.5533 89.2032 24.8552 86.3541C26.2682 75.2474 20.3868 72.507 22.4399 64.9255C24.4084 57.6096 31.1351 55.5573 29.9999 51.0301C29.2511 47.9879 25.9663 47.9154 24.8673 43.7867C24.0219 40.5875 24.9518 36.7243 26.4976 36.2655C28.0435 35.8068 29.3115 39.7183 32.7051 40.5995C35.4706 41.3239 38.2241 39.6337 40.6153 37.7504C48.5739 31.4486 51.7863 23.3842 56.4841 16.8531C58.0903 14.6076 66.0368 3.57338 77.0145 0.639781C89.7072 -2.7405 93.4026 8.2937 111.3 9.65789C128.28 10.8651 130.696 1.42449 146.419 4.15286C148.835 4.57539 165.875 7.77459 173.713 21.8148C179.232 31.7142 174.172 36.1931 179.92 45.851C187.396 58.4064 199.847 57.4164 200.994 66.7001C201.682 72.181 197.444 73.9074 197.48 83.4688Z" fill="black"/>
<path d="M72.9437 25.6902C62.6422 38.3042 55.8409 53.405 53.2224 69.4769C50.4361 86.8011 52.4967 104.558 59.1762 120.785" stroke="#838B91" stroke-width="0.5" stroke-miterlimit="10"/>
<path d="M158.41 41.4204C170.852 74.9626 169.673 112.04 155.125 144.724" stroke="#838B91" stroke-width="0.5" stroke-miterlimit="10"/>
<path d="M107.785 26.3662C102.636 34.9029 99.4898 44.4954 98.5828 54.4226C97.6729 64.4004 99.0184 74.4551 102.52 83.8431" stroke="#838B91" stroke-width="0.5" stroke-miterlimit="10"/>
<path d="M122.254 45.5251C125.092 56.4679 126.417 67.7479 126.191 79.0503C125.861 94.8302 122.516 110.401 116.336 124.926" stroke="#838B91" stroke-width="0.5" stroke-miterlimit="10"/>
<path d="M79.5127 61.9436C73.9974 71.8725 70.6356 82.8512 69.6461 94.1649C68.3572 109.785 71.5539 125.449 78.8606 139.316" stroke="#838B91" stroke-width="0.5" stroke-miterlimit="10"/>
<path d="M37.4392 66.0483C31.277 78.5507 29.2067 92.6745 31.5216 106.419C32.7878 113.395 35.2385 120.103 38.7676 126.254" stroke="#838B91" stroke-width="0.5" stroke-miterlimit="10"/>
<path d="M136.057 23.6377C142.955 36.0388 146.998 49.8224 147.892 63.9838C148.837 79.2258 146.129 94.4732 139.994 108.459" stroke="#838B91" stroke-width="0.5" stroke-miterlimit="10"/>
<path d="M131.456 128.994C132.238 135.341 131.094 141.776 128.171 147.465C125.26 153.07 120.659 157.619 115.02 160.467" stroke="#838B91" stroke-width="0.5" stroke-miterlimit="10"/>
<path d="M94.6333 97.521C90.4852 105.031 88.6531 113.6 89.3679 122.149C90.1535 131.27 93.8397 139.901 99.8867 146.777" stroke="#838B91" stroke-width="0.5" stroke-miterlimit="10"/>
<path d="M185.137 123.887C181.689 126.496 178.812 129.783 176.683 133.545C174.139 138.129 172.719 143.251 172.541 148.491" stroke="#838B91" stroke-width="0.5" stroke-miterlimit="10"/>
<path d="M151.395 164.366C153.347 163.911 155.153 162.973 156.648 161.638C159.121 159.3 160.643 156.131 160.923 152.74" stroke="#838B91" stroke-width="0.5" stroke-miterlimit="10"/>
<path d="M149.752 156.845C154.346 154.552 158.385 151.285 161.587 147.272C164.147 144.055 166.147 140.431 167.505 136.551" stroke="#838B91" stroke-width="0.5" stroke-miterlimit="10"/>
<path d="M184.593 104.849C183.943 109.186 182.788 113.432 181.152 117.501C178.866 123.224 175.646 128.527 171.623 133.195" stroke="#838B91" stroke-width="0.5" stroke-miterlimit="10"/>
<path d="M34.5042 142.455C32.1402 144.35 30.5964 147.082 30.1928 150.084C29.8587 153.137 30.7008 156.202 32.5477 158.656" stroke="#838B91" stroke-width="0.5" stroke-miterlimit="10"/>
<path d="M40.4937 130.491C41.554 133.593 41.9209 136.89 41.5685 140.149C41.1351 144.088 39.6548 147.84 37.2812 151.014" stroke="#838B91" stroke-width="0.5" stroke-miterlimit="10"/>
<path d="M114.428 271.074C115.27 265.36 117.957 260.078 122.08 256.032C126.203 251.986 131.536 249.398 137.267 248.662C142.998 247.927 148.812 249.084 153.824 251.958C158.836 254.831 162.771 259.263 165.029 264.58C165.029 270.012 164.8 274.576 164.631 277.992C164.401 282.483 164.135 285.887 163.785 290.209C163.785 290.704 163.242 297.079 162.662 302.982C161.515 314.415 160.09 325.328 158.459 335.722C157.116 339.792 154.423 343.28 150.825 345.61C147.228 347.939 142.942 348.97 138.678 348.531C134.462 347.96 130.555 346.004 127.573 342.971C124.591 339.937 122.702 335.999 122.205 331.775C119.637 311.541 117.044 291.308 114.428 271.074Z" fill="#684650"/>
<path d="M134.366 410.547C134.51 411.07 134.794 411.543 135.188 411.915C135.582 412.288 136.07 412.545 136.6 412.66C137.305 412.75 138.02 412.588 138.617 412.201C139.214 411.814 139.655 411.228 139.86 410.547C145.716 393.764 150.488 376.622 154.147 359.228C156.418 348.362 158.145 338.052 159.437 328.274C159.799 315.465 149.28 305.722 138.689 306.785C129.293 307.714 121.286 317.022 121.782 328.274C125.936 355.702 130.131 383.127 134.366 410.547Z" fill="#684650"/>
<path d="M104.295 272.366C103.455 266.648 100.768 261.362 96.6431 257.313C92.518 253.264 87.1815 250.675 81.4473 249.941C75.7131 249.206 69.896 250.367 64.883 253.245C59.87 256.123 55.9363 260.562 53.6816 265.883C53.6816 271.304 53.9111 275.867 54.0922 279.296C54.3217 283.786 54.5874 287.179 54.9255 291.501C54.9255 291.996 55.469 298.37 56.0607 304.273C57.196 315.706 58.6331 326.632 60.2634 337.014C61.6045 341.084 64.2976 344.574 67.8957 346.904C71.4939 349.234 75.7808 350.264 80.0451 349.823C84.2602 349.254 88.1665 347.301 91.1488 344.269C94.1311 341.238 96.0199 337.301 96.5177 333.078C99.1022 312.837 101.695 292.599 104.295 272.366Z" fill="#684650"/>
<path d="M84.3557 411.851C84.2072 412.468 83.8555 413.017 83.3571 413.409C82.8587 413.802 82.2427 414.015 81.6083 414.015C80.9738 414.015 80.3578 413.802 79.8595 413.409C79.3611 413.017 79.0093 412.468 78.8608 411.851C73.0064 395.067 68.2344 377.926 64.5741 360.531C62.3037 349.666 60.5767 339.356 59.2845 329.566C58.9222 316.769 69.441 307.026 80.0323 308.077C89.428 309.018 97.4348 318.314 96.9397 329.566C92.7611 356.994 88.5665 384.423 84.3557 411.851Z" fill="#684650"/>
<path d="M137.457 161.686C136.189 160.173 135.422 158.303 135.262 156.335C135.102 154.368 135.557 152.399 136.563 150.7C137.448 149.409 138.626 148.346 140.001 147.597C141.376 146.848 142.909 146.434 144.474 146.39C154.244 154.648 164.376 163.738 174.665 173.698C184.955 183.658 194.23 193.268 202.756 202.672C203.874 205.243 204.186 208.092 203.649 210.844C203.112 213.596 201.753 216.119 199.75 218.082C197.748 220.045 195.197 221.353 192.434 221.835C189.671 222.317 186.828 221.949 184.278 220.781C179.75 215.747 147.577 174.157 137.457 161.686Z" fill="#684650"/>
<path d="M218.662 184.491C216.119 184.039 213.798 182.756 212.064 180.842C210.33 178.928 209.281 176.493 209.082 173.919C208.882 171.344 209.545 168.777 210.964 166.619C212.383 164.462 214.479 162.837 216.923 162L248.262 162.241C248.695 162.209 249.125 162.338 249.47 162.604C250.46 163.461 250.206 165.839 248.673 168.507C247.955 169.728 247.147 170.894 246.257 171.996C237.912 182.089 224.845 184.032 218.662 184.491Z" fill="#595A5C"/>
<path d="M77.0257 162.978C78.6692 161.868 79.9267 160.275 80.6235 158.419C81.3203 156.563 81.422 154.536 80.9144 152.62C80.4092 151.137 79.5622 149.794 78.4419 148.7C77.3216 147.605 75.9594 146.789 74.4654 146.318C62.8235 151.63 50.6139 157.642 37.9817 164.427C25.3494 171.211 13.8041 177.996 3.05581 184.708C1.29155 186.882 0.228277 189.539 0.00641444 192.329C-0.215449 195.119 0.414531 197.911 1.81316 200.336C3.21178 202.761 5.31327 204.705 7.84009 205.911C10.3669 207.117 13.2002 207.528 15.9658 207.091C21.7385 203.553 63.9224 172.225 77.0257 162.978Z" fill="#684650"/>
<path d="M74.2119 146.318C75.5887 144.519 88.0639 128.789 109.681 128.849C131.299 128.909 143.496 144.543 144.933 146.318C152.641 168.518 158.155 191.421 161.394 214.696C164.264 235.341 165.335 256.196 164.594 277.026C163.157 278.354 149.933 290.161 132.663 286.515C125.624 284.951 119.242 281.249 114.391 275.915C112.949 276.684 111.34 277.086 109.705 277.086C108.071 277.086 106.462 276.684 105.02 275.915C99.9213 281.129 93.3898 284.713 86.2524 286.213C69.0914 289.678 55.9399 278.861 54.1525 277.34C52.3016 232.78 59.1139 188.285 74.2119 146.318V146.318Z" fill="#684650"/>
<path d="M74.2115 146.318C73.7043 146.185 67.5693 164.427 62.7869 185.082C60.6131 194.463 58.9465 203.408 57.6785 211.835C56.7969 217.75 55.2631 229.292 54.3936 244.165C53.4758 260.644 53.6811 277.28 54.1521 277.304C54.6231 277.328 53.6932 249.247 59.0794 212.789C64.8279 173.928 74.8757 146.499 74.2115 146.318Z" fill="#818285"/>
<path d="M145.09 146.728C145.597 146.584 151.225 164.209 155.959 184.793C158.133 194.173 159.8 203.131 161.068 211.557C161.961 217.473 163.483 229.002 164.353 243.887C165.282 260.366 165.077 277.002 164.594 277.014C164.111 277.026 165.053 248.97 159.667 212.511C153.967 173.65 144.462 146.91 145.09 146.728Z" fill="#818285"/>
<path d="M110.574 156.628C149.145 156.628 180.414 125.371 180.414 86.8129C180.414 48.2552 149.145 16.998 110.574 16.998C72.0026 16.998 40.7344 48.2552 40.7344 86.8129C40.7344 125.371 72.0026 156.628 110.574 156.628Z" fill="#595A5C"/>
<path d="M87.7988 152.825C87.7988 152.825 110.576 163.292 133.352 152.825C133.352 152.825 110.576 161.312 87.7988 152.825Z" fill="#818285"/>
<path d="M87.0855 105.32C92.3547 105.32 96.6261 98.6393 96.6261 90.3983C96.6261 82.1574 92.3547 75.4768 87.0855 75.4768C81.8164 75.4768 77.5449 82.1574 77.5449 90.3983C77.5449 98.6393 81.8164 105.32 87.0855 105.32Z" fill="white"/>
<path d="M87.0859 104.813C90.3608 104.813 93.0156 100.662 93.0156 95.5412C93.0156 90.4206 90.3608 86.2695 87.0859 86.2695C83.8111 86.2695 81.1562 90.4206 81.1562 95.5412C81.1562 100.662 83.8111 104.813 87.0859 104.813Z" fill="#231F20"/>
<path d="M83.0523 92.185C84.0994 92.185 84.9483 90.8608 84.9483 89.2273C84.9483 87.5938 84.0994 86.2695 83.0523 86.2695C82.0051 86.2695 81.1562 87.5938 81.1562 89.2273C81.1562 90.8608 82.0051 92.185 83.0523 92.185Z" fill="white"/>
<path d="M133.642 105.32C138.911 105.32 143.183 98.6393 143.183 90.3983C143.183 82.1574 138.911 75.4768 133.642 75.4768C128.373 75.4768 124.102 82.1574 124.102 90.3983C124.102 98.6393 128.373 105.32 133.642 105.32Z" fill="white"/>
<path d="M133.906 104.813C137.181 104.813 139.836 100.662 139.836 95.5412C139.836 90.4206 137.181 86.2695 133.906 86.2695C130.631 86.2695 127.977 90.4206 127.977 95.5412C127.977 100.662 130.631 104.813 133.906 104.813Z" fill="#231F20"/>
<path d="M129.873 92.185C130.92 92.185 131.769 90.8608 131.769 89.2273C131.769 87.5938 130.92 86.2695 129.873 86.2695C128.825 86.2695 127.977 87.5938 127.977 89.2273C127.977 90.8608 128.825 92.185 129.873 92.185Z" fill="white"/>
<path d="M100.092 128.849C101.868 127.738 103.895 127.09 105.986 126.966C108.59 126.783 111.19 127.371 113.461 128.656C113.707 128.967 113.884 129.328 113.977 129.713C114.071 130.099 114.08 130.5 114.005 130.889C113.715 131.631 113.22 132.275 112.579 132.747C111.938 133.219 111.176 133.5 110.382 133.557C109.438 133.676 108.481 133.53 107.616 133.135C106.806 132.781 106.168 132.121 105.841 131.3C105.643 131.79 105.341 132.231 104.955 132.591C104.569 132.952 104.109 133.224 103.607 133.388C102.625 133.736 101.565 133.795 100.551 133.557C100 133.388 99.5138 133.055 99.1576 132.602C98.8014 132.149 98.5924 131.597 98.5586 131.022C98.6211 130.564 98.7931 130.127 99.0601 129.748C99.327 129.37 99.6811 129.062 100.092 128.849V128.849Z" fill="#818285"/>
<path d="M59.707 134.113C75.2627 139.747 91.6406 142.781 108.183 143.094C126.575 143.418 144.87 140.374 162.166 134.113C159.304 137.36 141.805 156.555 112.76 157.328C81.6021 158.149 62.3398 137.094 59.707 134.113Z" fill="#383D42"/>
<path d="M108.643 150.652C118.701 150.652 126.855 144.025 126.855 135.851C126.855 127.677 118.701 121.05 108.643 121.05C98.5853 121.05 90.4316 127.677 90.4316 135.851C90.4316 144.025 98.5853 150.652 108.643 150.652Z" stroke="#383D42" stroke-width="7" stroke-miterlimit="10"/>
<path d="M197.781 219.223C195.196 220.443 192.293 220.819 189.482 220.298C186.672 219.776 184.098 218.383 182.124 216.316C180.15 214.249 178.877 211.614 178.486 208.784C178.094 205.953 178.604 203.072 179.943 200.547C190.192 188.121 200.453 175.706 210.727 163.304C212.772 162.315 215.019 161.81 217.291 161.829C219.563 161.847 221.801 162.389 223.83 163.412C225.657 164.441 227.242 165.852 228.475 167.547C229.709 169.243 230.563 171.184 230.979 173.239C222.835 190.474 211.585 206.062 197.793 219.223H197.781Z" fill="#684650"/>
<path d="M74.417 146.318L104.536 174.084L144.474 146.318C154.891 149.075 164.472 154.348 172.373 161.673C180.274 168.999 186.253 178.153 189.786 188.33C192.612 209.512 194.012 230.86 193.976 252.229C193.876 289.554 189.418 326.739 180.692 363.03C157.519 371.235 132.918 374.64 108.386 373.04C83.8539 371.44 59.9042 364.868 37.9937 353.722C41.0129 335.324 57.8599 231.791 55.6861 206.209C55.5247 203.147 54.7441 200.149 53.3915 197.396C44.6238 180.35 15.8691 184.117 14.4199 177.646C13.5021 173.553 23.3205 165.26 74.417 146.318Z" fill="#767F53"/>
<path d="M39.0078 220.31C39.7573 217.633 41.4078 215.297 43.6806 213.696C45.9534 212.095 48.7093 211.326 51.4831 211.521C53.8226 211.795 56.0286 212.755 57.8231 214.281C59.6176 215.806 60.9203 217.828 61.5671 220.093L59.1759 251.336C59.1686 251.749 59.0096 252.144 58.7291 252.447C57.8233 253.376 55.4563 252.954 52.896 251.239C51.7281 250.42 50.6184 249.52 49.5749 248.547C40.1068 239.614 39.044 226.491 39.0078 220.31Z" fill="#595A5C"/>
<path d="M2.85012 201.018C1.65505 198.42 1.30925 195.512 1.86183 192.706C2.41442 189.9 3.83729 187.34 5.92837 185.389C8.01944 183.437 10.6724 182.194 13.5104 181.836C16.3485 181.477 19.2273 182.022 21.7381 183.392L58.6324 214.588C59.5941 216.646 60.0703 218.897 60.0242 221.168C59.9782 223.439 59.4111 225.669 58.3668 227.686C57.3147 229.498 55.8865 231.064 54.1783 232.278C52.4702 233.492 50.5216 234.326 48.4639 234.724C41.2169 231.192 34.2523 227.107 27.6315 222.507C18.6398 216.233 10.3336 209.03 2.85012 201.018V201.018Z" fill="#684650"/>
<path d="M88.9204 188.958H74.9355V347.795H88.9204V188.958Z" fill="#4B583A"/>
<path d="M148.881 189.453H134.896V348.29H148.881V189.453Z" fill="#4B583A"/>
<path d="M122.893 13.1347C130.888 13.5935 136.685 25.5089 134.837 33.2232C133.062 40.684 124.475 43.3279 125.453 46.9134C126.13 49.4365 130.924 50.2454 134.475 50.5351C126.335 54.7122 122.579 54.1568 120.695 52.6719C116.734 49.4848 120.695 41.6981 115.2 34.7081C112.241 30.9174 110.031 31.0864 109.343 28.177C107.978 22.4184 115.405 12.7001 122.893 13.1347Z" fill="black" stroke="#838B91" stroke-width="0.5" stroke-miterlimit="10"/>
<path d="M109.343 28.2011C110.937 25.9677 114.089 20.9576 112.435 17.3359C109.826 11.5773 97.2302 13.0019 93.112 13.4606C87.0737 14.1367 61.3624 18.0964 48.561 42.1326C43.7396 51.4047 41.5234 61.8101 42.1483 72.2413C45.7713 65.686 52.0029 56.6437 62.4855 52.4546C71.0962 49.0139 76.3979 51.2473 85.4312 48.3017C91.7836 46.1769 100.575 41.2876 109.343 28.2011Z" fill="black" stroke="#838B91" stroke-width="0.5" stroke-miterlimit="10"/>
<path d="M131.021 17.8913C131.71 17.4446 139.741 12.3018 148.75 16.2012C151.929 17.6397 154.669 19.8966 156.689 22.7412C158.709 25.5857 159.937 28.9157 160.247 32.3903C160.782 35.0244 161.525 37.6119 162.469 40.1288C163.894 43.9074 165.307 47.674 168.508 51.2354C171.227 54.2765 174.653 56.6024 178.483 58.008C174.278 59.1368 169.899 59.4644 165.573 58.9738C146.419 56.7404 135.852 38.6318 134.198 35.6499C133.135 29.7344 132.076 23.8149 131.021 17.8913Z" fill="black" stroke="#838B91" stroke-width="0.5" stroke-miterlimit="10"/>
<path d="M173.083 58.7444C172.419 60.0965 167.636 70.3581 172.539 81.5371C175.4 87.9204 180.664 92.9179 187.189 95.4446" fill="black"/>
<path d="M173.083 58.7444C172.419 60.0965 167.636 70.3581 172.539 81.5371C175.4 87.9204 180.664 92.9179 187.189 95.4446" stroke="#838B91" stroke-width="0.5" stroke-miterlimit="10"/>
<path d="M39.2378 67.7988C41.5476 71.7661 42.7099 76.2966 42.5951 80.8853C42.2959 87.5256 39.4193 93.7877 34.5762 98.3421" fill="black"/>
<path d="M39.2378 67.7988C41.5476 71.7661 42.7099 76.2966 42.5951 80.8853C42.2959 87.5256 39.4193 93.7877 34.5762 98.3421" stroke="#838B91" stroke-width="0.5" stroke-miterlimit="10"/>
<path d="M36.4355 110.571C41.2905 113.751 45.2655 118.102 47.993 123.223C51.5142 130.008 52.8153 137.728 51.7126 145.292" fill="black"/>
<path d="M36.4355 110.571C41.2905 113.751 45.2655 118.102 47.993 123.223C51.5142 130.008 52.8153 137.728 51.7126 145.292" stroke="#838B91" stroke-width="0.5" stroke-miterlimit="10"/>
<path d="M29.3591 105.767C25.8062 113.631 25.4085 122.559 28.248 130.708Z" fill="black"/>
<path d="M29.3591 105.767C25.8062 113.631 25.4085 122.559 28.248 130.708" stroke="#838B91" stroke-width="0.5" stroke-miterlimit="10"/>
<path d="M51.0371 51.5614C53.2471 47.2274 60.6985 33.8994 76.6035 27.0302C83.8316 23.9205 91.6998 22.5875 99.5493 23.1429" fill="black"/>
<path d="M51.0371 51.5614C53.2471 47.2274 60.6985 33.8994 76.6035 27.0302C83.8316 23.9205 91.6998 22.5875 99.5493 23.1429" stroke="#838B91" stroke-width="0.5" stroke-miterlimit="10"/>
<path d="M27.5 65.022C30.3146 67.1528 32.4364 70.0676 33.5987 73.4002C36.944 83.1789 29.9757 91.9797 29.5289 92.5351" fill="black"/>
<path d="M27.5 65.022C30.3146 67.1528 32.4364 70.0676 33.5987 73.4002C36.944 83.1789 29.9757 91.9797 29.5289 92.5351" stroke="#838B91" stroke-width="0.5" stroke-miterlimit="10"/>
<path d="M118.727 19.8469C121.593 21.5953 123.678 24.3791 124.548 27.6216C125.296 30.6277 124.985 33.8001 123.666 36.6035" fill="black"/>
<path d="M118.727 19.8469C121.593 21.5953 123.678 24.3791 124.548 27.6216C125.296 30.6277 124.985 33.8001 123.666 36.6035" stroke="#838B91" stroke-width="0.5" stroke-miterlimit="10"/>
<path d="M142.263 24.6277C141.984 29.8807 143.302 35.0951 146.043 39.5854C149.309 44.8006 154.375 48.6367 160.282 50.3661" fill="black"/>
<path d="M142.263 24.6277C141.984 29.8807 143.302 35.0951 146.043 39.5854C149.309 44.8006 154.375 48.6367 160.282 50.3661" stroke="#838B91" stroke-width="0.5" stroke-miterlimit="10"/>
<path d="M177.709 67.7141C181.426 69.6109 184.321 72.8012 185.849 76.6839C187.323 80.519 187.426 84.7458 186.139 88.6477" fill="black"/>
<path d="M177.709 67.7141C181.426 69.6109 184.321 72.8012 185.849 76.6839C187.323 80.519 187.426 84.7458 186.139 88.6477" stroke="#838B91" stroke-width="0.5" stroke-miterlimit="10"/>
<path d="M165.801 23.1428C168.481 26.2749 170.196 30.1156 170.74 34.2012C171.161 37.6413 170.747 41.1321 169.532 44.3782" fill="black"/>
<path d="M165.801 23.1428C168.481 26.2749 170.196 30.1156 170.74 34.2012C171.161 37.6413 170.747 41.1321 169.532 44.3782" stroke="#838B91" stroke-width="0.5" stroke-miterlimit="10"/>
<path d="M83.8615 8.77662C79.1034 8.57484 74.4107 9.94057 70.5046 12.6639C68.4532 14.1554 66.6827 15.9989 65.2754 18.1086" fill="black"/>
<path d="M83.8615 8.77662C79.1034 8.57484 74.4107 9.94057 70.5046 12.6639C68.4532 14.1554 66.6827 15.9989 65.2754 18.1086" stroke="#838B91" stroke-width="0.5" stroke-miterlimit="10"/>
</g>
<defs>
<clipPath id="clip0_132_346">
<rect width="250" height="414" fill="white"/>
</clipPath>
</defs>
</svg>
