<svg width="247" height="415" viewBox="0 0 247 415" fill="none" xmlns="http://www.w3.org/2000/svg">
<g clip-path="url(#clip0_132_406)">
<path d="M109.474 166.653C148.587 166.653 180.294 136.63 180.294 99.5953C180.294 62.5606 148.587 32.5381 109.474 32.5381C70.3615 32.5381 38.6543 62.5606 38.6543 99.5953C38.6543 136.63 70.3615 166.653 109.474 166.653Z" fill="#FEF087" stroke="#FBE248" stroke-miterlimit="10"/>
<path d="M91.0232 39.8843C89.3912 41.2322 77.199 51.2874 77.1855 68.082C77.2856 76.8853 80.5613 85.3567 86.4106 91.9396" fill="#FEF087"/>
<path d="M91.0232 39.8843C89.3912 41.2322 77.199 51.2874 77.1855 68.082C77.2856 76.8853 80.5613 85.3567 86.4106 91.9396" stroke="#FBE248" stroke-miterlimit="10"/>
<path d="M102.42 61.3018C110.199 75.6384 113.488 91.9804 111.861 108.208C110.886 117.06 108.404 125.68 104.524 133.697" fill="#FEF087"/>
<path d="M102.42 61.3018C110.199 75.6384 113.488 91.9804 111.861 108.208C110.886 117.06 108.404 125.68 104.524 133.697" stroke="#FBE248" stroke-miterlimit="10"/>
<path d="M59.3427 69.7129C48.1486 79.485 43.9137 93.9748 48.4858 105.769C52.1677 115.204 60.3138 119.814 63.1326 121.229" fill="#FEF087"/>
<path d="M59.3427 69.7129C48.1486 79.485 43.9137 93.9748 48.4858 105.769C52.1677 115.204 60.3138 119.814 63.1326 121.229" stroke="#FBE248" stroke-miterlimit="10"/>
<path d="M159.942 97.9106C163.399 102.622 165.547 108.164 166.168 113.973C166.789 119.783 165.86 125.653 163.476 130.988C157.204 144.628 143.65 148.402 141.762 148.888" fill="#FEF087"/>
<path d="M159.942 97.9106C163.399 102.622 165.547 108.164 166.168 113.973C166.789 119.783 165.86 125.653 163.476 130.988C157.204 144.628 143.65 148.402 141.762 148.888" stroke="#FBE248" stroke-miterlimit="10"/>
<path d="M121.693 37.7412C125.119 41.9466 139.226 60.197 136.61 85.1867C135.589 94.7472 132.357 103.939 127.169 112.037" fill="#FEF087"/>
<path d="M121.693 37.7412C125.119 41.9466 139.226 60.197 136.61 85.1867C135.589 94.7472 132.357 103.939 127.169 112.037" stroke="#FBE248" stroke-miterlimit="10"/>
<path d="M94.5576 114.988C91.2655 124.199 90.4243 134.106 92.1164 143.739C93.0805 149.023 94.8164 154.136 97.2684 158.916" fill="#FEF087"/>
<path d="M94.5576 114.988C91.2655 124.199 90.4243 134.106 92.1164 143.739C93.0805 149.023 94.8164 154.136 97.2684 158.916" stroke="#FBE248" stroke-miterlimit="10"/>
<path d="M67.1521 86.7905C63.8079 101.228 64.8456 116.334 70.1327 130.179C72.893 137.155 76.7393 143.651 81.5292 149.427" fill="#FEF087"/>
<path d="M67.1521 86.7905C63.8079 101.228 64.8456 116.334 70.1327 130.179C72.893 137.155 76.7393 143.651 81.5292 149.427" stroke="#FBE248" stroke-miterlimit="10"/>
<path d="M128.477 126.701C130.794 132.183 131.36 138.247 130.095 144.062C129.02 148.915 126.695 153.403 123.352 157.082" fill="#FEF087"/>
<path d="M128.477 126.701C130.794 132.183 131.36 138.247 130.095 144.062C129.02 148.915 126.695 153.403 123.352 157.082" stroke="#FBE248" stroke-miterlimit="10"/>
<path d="M119.791 113.371C120.602 122.057 120.23 130.812 118.685 139.398C117.661 145.129 116.117 150.755 114.072 156.206" fill="#FEF087"/>
<path d="M119.791 113.371C120.602 122.057 120.23 130.812 118.685 139.398C117.661 145.129 116.117 150.755 114.072 156.206" stroke="#FBE248" stroke-miterlimit="10"/>
<path d="M109.758 42.5933C115.562 48.8273 119.756 56.3825 121.977 64.6035C124.198 72.8244 124.379 81.4628 122.503 89.7692" fill="#FEF087"/>
<path d="M109.758 42.5933C115.562 48.8273 119.756 56.3825 121.977 64.6035C124.198 72.8244 124.379 81.4628 122.503 89.7692" stroke="#FBE248" stroke-miterlimit="10"/>
<path d="M142.853 56.1528C146.589 63.2966 156.246 84.1753 150.716 109.569C148.794 118.348 145.304 126.709 140.412 134.249" fill="#FEF087"/>
<path d="M142.853 56.1528C146.589 63.2966 156.246 84.1753 150.716 109.569C148.794 118.348 145.304 126.709 140.412 134.249" stroke="#FBE248" stroke-miterlimit="10"/>
<path d="M160.211 62.6636C166.322 70.1299 170.589 78.9296 172.665 88.3502C174.741 97.7708 174.568 107.548 172.16 116.889" fill="#FEF087"/>
<path d="M160.211 62.6636C166.322 70.1299 170.589 78.9296 172.665 88.3502C174.741 97.7708 174.568 107.548 172.16 116.889" stroke="#FBE248" stroke-miterlimit="10"/>
<path d="M79.6404 101.711C77.3267 114.812 79.3236 128.309 85.3319 140.18Z" fill="#FEF087"/>
<path d="M79.6404 101.711C77.3267 114.812 79.3236 128.309 85.3319 140.18" stroke="#FBE248" stroke-miterlimit="10"/>
<path d="M90.2148 65.6421C92.656 68.7422 99.8041 78.447 99.1702 91.9393C98.9455 96.6227 97.8429 101.222 95.9198 105.499" fill="#FEF087"/>
<path d="M90.2148 65.6421C92.656 68.7422 99.8041 78.447 99.1702 91.9393C98.9455 96.6227 97.8429 101.222 95.9198 105.499" stroke="#FBE248" stroke-miterlimit="10"/>
<path d="M70.9551 51.5435C70.4291 52.0691 65.5603 57.1641 66.909 64.0114C67.4612 66.813 68.8759 69.3719 70.9551 71.3304" fill="#FEF087"/>
<path d="M70.9551 51.5435C70.4291 52.0691 65.5603 57.1641 66.909 64.0114C67.4612 66.813 68.8759 69.3719 70.9551 71.3304" stroke="#FBE248" stroke-miterlimit="10"/>
<path d="M114.141 279.309C114.935 273.879 117.484 268.859 121.4 265.013C125.316 261.168 130.384 258.708 135.829 258.01C141.275 257.312 146.8 258.414 151.56 261.147C156.321 263.881 160.055 268.096 162.195 273.149C162.195 278.298 161.979 282.584 161.804 285.886C161.588 290.146 161.331 293.381 161.008 297.478C161.008 297.95 160.495 304.002 159.942 309.609C158.845 320.464 157.497 330.825 155.896 340.691C154.613 344.548 152.052 347.852 148.636 350.058C145.221 352.263 141.154 353.238 137.109 352.822C133.122 352.275 129.429 350.423 126.608 347.555C123.787 344.687 121.997 340.965 121.518 336.971C119.063 317.75 116.604 298.53 114.141 279.309Z" fill="#595A5C"/>
<path d="M133.076 411.738C133.212 412.232 133.482 412.68 133.855 413.031C134.229 413.383 134.692 413.626 135.193 413.733C135.861 413.819 136.538 413.666 137.103 413.301C137.669 412.936 138.086 412.382 138.282 411.738C143.845 395.804 148.377 379.528 151.85 363.012C154.008 352.728 155.653 342.902 156.88 333.615C157.217 321.484 147.237 312.21 137.176 313.208C128.247 314.097 120.654 322.94 121.086 333.615C125.078 359.656 129.075 385.697 133.076 411.738Z" fill="#595A5C"/>
<path d="M104.511 280.536C103.715 275.107 101.164 270.088 97.2469 266.244C93.3299 262.4 88.2621 259.942 82.8168 259.246C77.3715 258.549 71.8478 259.652 67.0884 262.387C62.329 265.121 58.5953 269.336 56.457 274.389C56.457 279.538 56.6728 283.824 56.8347 287.113C57.0505 291.386 57.3067 294.607 57.6304 298.718C57.6304 299.177 58.1564 305.229 58.7093 310.849C59.7883 321.632 61.1505 332.065 62.7554 341.932C64.0321 345.792 66.5916 349.101 70.009 351.308C73.4264 353.514 77.4962 354.486 81.5428 354.063C85.5318 353.51 89.2244 351.65 92.0413 348.774C94.8582 345.898 96.6399 342.169 97.1067 338.171C99.5883 318.968 102.056 299.756 104.511 280.536Z" fill="#595A5C"/>
<path d="M85.5754 412.965C85.4369 413.459 85.1668 413.907 84.794 414.261C84.4212 414.615 83.9595 414.861 83.458 414.973C82.7875 415.054 82.1099 414.897 81.5431 414.53C80.9763 414.163 80.5562 413.609 80.356 412.965C74.8201 397.028 70.3152 380.753 66.869 364.239C64.6976 353.968 63.0657 344.142 61.8384 334.855C61.5012 322.724 71.4816 313.437 81.5428 314.448C90.4712 315.337 98.0643 324.166 97.6328 334.855C93.5957 360.887 89.5766 386.924 85.5754 412.965Z" fill="#595A5C"/>
<path d="M133.075 180.94C131.648 179.726 130.632 178.099 130.168 176.283C129.705 174.468 129.816 172.554 130.486 170.804C131.112 169.452 132.049 168.267 133.221 167.346C134.393 166.425 135.767 165.795 137.229 165.507C147.682 171.694 158.606 178.608 169.841 186.305C181.075 194.001 191.258 201.536 200.726 208.976C202.168 211.206 202.9 213.82 202.826 216.474C202.752 219.128 201.876 221.697 200.312 223.844C198.748 225.99 196.571 227.613 194.066 228.498C191.562 229.383 188.848 229.49 186.281 228.803C181.224 224.868 144.512 191.022 133.075 180.94Z" fill="#595A5C"/>
<path d="M197.894 229.423C195.439 230.587 192.679 230.947 190.007 230.453C187.335 229.959 184.887 228.636 183.011 226.671C181.135 224.707 179.927 222.201 179.557 219.511C179.188 216.82 179.677 214.082 180.954 211.685L210.181 176.344C212.123 175.407 214.254 174.93 216.411 174.948C218.567 174.967 220.69 175.481 222.616 176.452C224.341 177.432 225.835 178.771 226.998 180.377C228.162 181.984 228.967 183.821 229.359 185.765C221.626 202.13 210.941 216.93 197.84 229.423H197.894Z" fill="#E9EAF6"/>
<path d="M217.248 192.896C214.829 192.473 212.62 191.258 210.968 189.441C209.317 187.625 208.317 185.311 208.127 182.864C207.937 180.417 208.567 177.977 209.918 175.927C211.269 173.878 213.264 172.336 215.589 171.545L245.355 171.775C245.744 171.75 246.128 171.87 246.434 172.112C247.378 172.92 247.135 175.185 245.679 177.719C244.982 178.879 244.202 179.987 243.345 181.035C235.482 190.604 223.115 192.451 217.248 192.896Z" fill="#E9EAF6"/>
<path d="M73.5041 188.973C75.0494 187.913 76.2288 186.401 76.8807 184.644C77.5326 182.887 77.6251 180.972 77.1455 179.161C76.6692 177.752 75.8662 176.475 74.8021 175.435C73.738 174.395 72.4429 173.621 71.0225 173.176C59.9632 178.217 48.3644 183.959 36.3745 190.389C24.3846 196.818 13.4871 203.261 3.26403 209.65C1.58902 211.712 0.579162 214.233 0.367796 216.881C0.15643 219.528 0.753498 222.177 2.08016 224.479C3.40682 226.78 5.40068 228.625 7.79846 229.77C10.1962 230.915 12.8852 231.307 15.5102 230.893C20.9454 227.523 61.0556 197.775 73.5041 188.973Z" fill="#595A5C"/>
<path d="M75.9453 160.884C77.294 159.172 89.095 144.237 109.663 144.278C130.23 144.318 141.816 159.105 143.137 160.87C150.463 181.949 155.699 203.696 158.769 225.798C161.499 245.396 162.519 265.195 161.817 284.97C160.468 286.224 147.885 297.424 131.485 293.974C124.803 292.491 118.745 288.979 114.14 283.919C112.769 284.643 111.241 285.022 109.69 285.022C108.138 285.022 106.61 284.643 105.239 283.919C100.403 288.872 94.2007 292.274 87.4227 293.691C71.1169 296.98 58.6415 286.709 56.9422 285.267C55.185 242.978 61.6523 200.751 75.9857 160.924L75.9453 160.884Z" fill="#595A5C"/>
<path d="M75.9442 160.884C75.4586 160.735 69.6323 178.123 65.1546 197.667C63.0911 206.577 61.4996 215.069 60.2993 223.075C59.4631 228.682 57.9661 239.641 57.1838 253.766C56.3072 269.415 56.496 285.213 56.9545 285.226C57.4131 285.24 56.5095 258.592 61.6345 223.978C67.0293 187.087 76.5376 161.045 75.9442 160.884Z" fill="#818285"/>
<path d="M143.258 161.261C143.73 161.126 149.085 177.867 153.616 197.411C155.693 206.307 157.271 214.812 158.472 222.819C159.321 228.426 160.805 239.371 161.601 253.51C162.464 269.146 162.275 284.943 161.816 284.956C161.358 284.97 162.261 258.336 157.136 223.722C151.688 186.817 142.665 161.436 143.258 161.261Z" fill="#818285"/>
<path d="M110.122 170.427C146.747 170.427 176.437 140.573 176.437 103.747C176.437 66.9205 146.747 37.0669 110.122 37.0669C73.497 37.0669 43.8066 66.9205 43.8066 103.747C43.8066 140.573 73.497 170.427 110.122 170.427Z" fill="#595A5C"/>
<path d="M109.891 170.319C107.64 170.362 105.388 170.272 103.148 170.049C98.0256 169.545 92.9869 168.399 88.1504 166.639C95.3027 168.26 102.611 169.092 109.945 169.119C117.405 169.143 124.844 168.32 132.118 166.666C127.935 168.22 123.585 169.283 119.157 169.834C116.087 170.248 112.988 170.41 109.891 170.319V170.319Z" fill="#818285"/>
<path d="M82.1895 124.14C83.7494 123.902 85.3365 123.902 86.8964 124.14L85.5477 122.995C85.5477 122.995 82.5941 123.332 82.1895 124.14Z" fill="#E9EAF6"/>
<path d="M70.5234 98.2476C70.5234 98.2476 71.1708 101.159 78.3054 103.828C78.3054 103.828 82.6752 105.85 84.4555 96.8728C84.4555 96.8728 77.9008 97.358 70.8471 90.2412C70.8471 90.2412 70.6448 95.4575 80.3689 99.4607C80.3689 99.4607 80.9354 99.946 80.3689 100.31C76.9501 100.709 73.4941 99.9854 70.5234 98.2476V98.2476Z" fill="#E9EAF6"/>
<path d="M87.152 124.127C92.1203 124.127 96.1478 117.839 96.1478 110.082C96.1478 102.325 92.1203 96.0371 87.152 96.0371C82.1838 96.0371 78.1562 102.325 78.1562 110.082C78.1562 117.839 82.1838 124.127 87.152 124.127Z" fill="white"/>
<path d="M147.628 98.2476C147.628 98.2476 147.007 101.159 139.859 103.787C139.859 103.787 135.489 105.809 133.709 96.8323C133.709 96.8323 140.264 97.3175 147.304 90.2007C147.304 90.2007 147.506 95.417 137.863 99.4202C137.863 99.4202 137.297 99.9054 137.863 100.269C141.251 100.666 144.676 99.9568 147.628 98.2476V98.2476Z" fill="#E9EAF6"/>
<path d="M136.353 124.14C134.789 123.902 133.197 123.902 131.633 124.14L132.982 122.995C132.982 122.995 135.935 123.332 136.353 124.14Z" fill="#E9EAF6"/>
<path d="M131.011 124.127C135.98 124.127 140.007 117.839 140.007 110.082C140.007 102.325 135.98 96.0371 131.011 96.0371C126.043 96.0371 122.016 102.325 122.016 110.082C122.016 117.839 126.043 124.127 131.011 124.127Z" fill="white"/>
<path d="M87.3408 124.14C91.2364 124.14 94.3945 119.108 94.3945 112.899C94.3945 106.691 91.2364 101.658 87.3408 101.658C83.4452 101.658 80.2871 106.691 80.2871 112.899C80.2871 119.108 83.4452 124.14 87.3408 124.14Z" fill="#231F20"/>
<path d="M83.0928 107.238C84.076 107.238 84.8731 105.989 84.8731 104.448C84.8731 102.907 84.076 101.658 83.0928 101.658C82.1096 101.658 81.3125 102.907 81.3125 104.448C81.3125 105.989 82.1096 107.238 83.0928 107.238Z" fill="white"/>
<path d="M130.959 124.14C134.906 124.14 138.107 119.108 138.107 112.899C138.107 106.691 134.906 101.658 130.959 101.658C127.011 101.658 123.811 106.691 123.811 112.899C123.811 119.108 127.011 124.14 130.959 124.14Z" fill="#231F20"/>
<path d="M127.21 107.238C128.193 107.238 128.99 105.989 128.99 104.448C128.99 102.907 128.193 101.658 127.21 101.658C126.227 101.658 125.43 102.907 125.43 104.448C125.43 105.989 126.227 107.238 127.21 107.238Z" fill="white"/>
<path opacity="0.57" d="M78.8314 135.288C83.4198 135.288 87.1394 134.31 87.1394 133.104C87.1394 131.898 83.4198 130.92 78.8314 130.92C74.243 130.92 70.5234 131.898 70.5234 133.104C70.5234 134.31 74.243 135.288 78.8314 135.288Z" fill="#F7B1C4"/>
<path opacity="0.57" d="M141.398 135.288C145.986 135.288 149.706 134.31 149.706 133.104C149.706 131.898 145.986 130.92 141.398 130.92C136.809 130.92 133.09 131.898 133.09 133.104C133.09 134.31 136.809 135.288 141.398 135.288Z" fill="#F7B1C4"/>
<path d="M93.2363 140.895C94.3816 141.739 95.5951 142.488 96.8643 143.132C97.4982 143.469 98.213 143.739 98.7795 144.049C99.3459 144.359 100.128 144.574 100.762 144.803C103.424 145.745 106.233 146.201 109.057 146.151C111.881 146.183 114.687 145.699 117.338 144.723C118.674 144.251 119.976 143.688 121.235 143.038C122.503 142.404 123.676 141.582 124.931 140.895C123.784 141.73 122.638 142.62 121.424 143.388C120.182 144.115 118.888 144.751 117.553 145.289C116.865 145.545 116.205 145.841 115.503 146.043L113.386 146.542C112.68 146.699 111.963 146.803 111.241 146.852C110.523 146.957 109.796 147.003 109.07 146.987C106.158 146.992 103.27 146.448 100.56 145.383C97.8655 144.345 95.3836 142.824 93.2363 140.895Z" fill="white"/>
<path d="M75.8379 161.099C80.6555 167.232 86.2448 172.718 92.4673 177.422C97.6858 181.357 103.31 184.724 109.245 187.464C122.741 181.834 134.538 172.789 143.475 161.22C148.373 175.736 152.364 190.542 155.424 205.552C157.93 217.864 159.811 230.293 161.062 242.794L58.0352 242.538C59.1552 214.563 65.1714 186.999 75.811 161.099H75.8379Z" fill="#A2CDEE"/>
<path d="M79.4521 192.937C86.4582 189.981 88.2954 178.489 83.5555 167.269C78.8156 156.05 69.2936 149.351 62.2874 152.307C55.2812 155.264 53.444 166.755 58.1839 177.975C62.9238 189.195 72.4459 195.893 79.4521 192.937Z" fill="#E9EAF6"/>
<path d="M158.272 176.728C163.012 165.508 161.175 154.016 154.169 151.06C147.163 148.104 137.641 154.802 132.901 166.022C128.161 177.242 129.998 188.733 137.004 191.69C144.01 194.646 153.532 187.947 158.272 176.728Z" fill="#E9EAF6"/>
<path d="M108.812 190.011V228.129" stroke="#E9EAF6" stroke-miterlimit="10"/>
<path d="M60.8802 216.201L108.179 233.561L157.892 217.993C161.628 229.936 169.922 256.354 180.644 290.348C201.198 355.572 214.227 396.521 204.26 402.222C198.015 405.781 190.193 391.143 170.691 391.668C155.235 392.073 152.065 401.467 136.488 400.982C121.396 400.524 120.722 391.547 106.655 391.048C86.8426 390.293 81.5826 407.748 64.9937 404.716C52.4913 402.424 48.661 391.237 38.2626 393.528C31.5191 394.984 29.9951 400.268 22.7121 400.982C22.7121 400.982 14.3772 401.764 6.36592 394.593C-12.1651 378.028 14.593 313.585 25.5039 287.329C35.6705 262.846 47.4898 239.082 60.8802 216.201V216.201Z" fill="#A2CDEE"/>
<path d="M108.178 233.561L60.8793 216.201C56.0435 215.379 51.0718 216.093 46.6629 218.242C42.2539 220.39 38.6294 223.865 36.2988 228.179C33.9681 232.492 33.0485 237.427 33.6691 242.29C34.2897 247.152 36.4193 251.699 39.7587 255.289C42.9281 256.812 60.3668 264.724 80.5702 257.365C92.2994 252.942 102.081 244.508 108.178 233.561Z" fill="#E9EAF6"/>
<path d="M108.18 233.562L157.448 216.174C166.349 215.756 174.711 219.678 178.878 226.593C184.651 236.163 181.67 250.343 170.611 258.322C158.944 262.037 146.351 261.6 134.97 257.086C123.589 252.573 114.123 244.26 108.18 233.562V233.562Z" fill="#E9EAF6"/>
<path d="M16.7644 391.426C14.5367 391.49 12.3582 390.764 10.6144 389.377C-1.94199 378.486 26.2727 327.091 36.8735 308.571" stroke="#E9EAF6" stroke-miterlimit="10"/>
<path d="M71.359 269.577C64.4552 281.969 58.8162 295.024 54.5273 308.544C47.2369 331.608 43.908 355.74 44.6819 379.915" stroke="#E9EAF6" stroke-miterlimit="10"/>
<path d="M105.833 258.12L103.77 370.507" stroke="#E9EAF6" stroke-miterlimit="10"/>
<path d="M171.904 294.621C195.587 356.623 204.615 389.026 198.986 391.83C196.999 392.818 193.169 390.087 187.495 383.635" stroke="#E9EAF6" stroke-miterlimit="10"/>
<path d="M85.3046 301.185C73.5685 328.278 69.4555 358.058 73.4091 387.315" stroke="#E9EAF6" stroke-miterlimit="10"/>
<path d="M130.446 278.621C135.894 302.555 137.42 327.214 134.964 351.636C133.847 362.546 131.927 373.358 129.219 383.985" stroke="#E9EAF6" stroke-miterlimit="10"/>
<path d="M154.25 328.668C156.742 338.165 157.85 347.97 157.541 357.783C157.281 365.988 156.04 374.133 153.846 382.045" stroke="#E9EAF6" stroke-miterlimit="10"/>
<path d="M16.1847 258.282C17.7633 256.159 20.0279 254.648 22.5943 254.005C25.1607 253.361 27.8708 253.624 30.2651 254.75C32.2473 255.785 33.8788 257.383 34.954 259.342C36.0292 261.302 36.5 263.536 36.3072 265.762L23.6565 292.72C23.5096 293.082 23.2366 293.379 22.8877 293.556C21.7683 294.068 19.8127 292.909 18.1133 290.523C17.3469 289.408 16.6661 288.236 16.0768 287.019C10.6685 275.791 14.1616 263.795 16.1847 258.282Z" fill="#E9EAF6"/>
<path d="M0.0800781 217.306C0.663634 214.655 2.06739 212.255 4.09231 210.446C6.11724 208.637 8.66056 207.511 11.3617 207.228C14.0628 206.945 16.7847 207.518 19.1413 208.867C21.498 210.217 23.3698 212.273 24.4915 214.745C27.8632 229.653 31.2394 244.56 34.6202 259.468C34.1765 261.572 33.2566 263.547 31.9311 265.241C30.6055 266.935 28.9095 268.303 26.9731 269.24C25.1406 270.017 23.162 270.391 21.1721 270.335C19.1822 270.279 17.2276 269.795 15.4417 268.917C11.9682 262.098 9.02387 255.024 6.63474 247.755C3.38319 237.864 1.18611 227.658 0.0800781 217.306V217.306Z" fill="#E9EAF6"/>
<path d="M57.7247 51.2198L152.619 52.7834C155.842 35.7057 148.06 18.5875 132.577 8.77495C117.094 -1.03764 93.9506 -3.40992 76.2962 7.75056C61.1099 17.3475 53.773 34.4656 57.7247 51.2198Z" fill="#FEF087" stroke="#FBE248" stroke-width="0.5" stroke-miterlimit="10"/>
<path d="M106.17 36.4873C107.343 39.0348 101.948 43.5098 95.7983 49.1844C56.6861 85.146 47.1104 114.193 40.5018 111.376C33.556 108.397 33.9471 71.1549 56.6457 50.4514C74.907 33.6972 103.85 31.3519 106.17 36.4873Z" fill="#FEF087" stroke="#FBE248" stroke-width="0.5" stroke-miterlimit="10"/>
<path d="M172.512 96.6165C179.808 88.8796 169.005 63.1216 151.917 48.2679C133.952 32.6594 103.324 24.1273 90.3626 36.757C87.9405 39.2047 86.1317 42.1901 85.084 45.4696C84.0363 48.7491 83.7793 52.2297 84.334 55.6273C85.305 60.938 89.1893 68.8501 121.855 82.9759C151.904 96.0234 166.942 102.52 172.512 96.6165Z" fill="#FEF087" stroke="#FBE248" stroke-width="0.5" stroke-miterlimit="10"/>
<path d="M40.7715 103.787C42.7509 94.3138 46.8499 85.4111 52.7614 77.746C55.0306 74.8288 57.5584 72.1221 60.3141 69.6587" fill="#FEF087"/>
<path d="M40.7715 103.787C42.7509 94.3138 46.8499 85.4111 52.7614 77.746C55.0306 74.8288 57.5584 72.1221 60.3141 69.6587" stroke="#FBE248" stroke-width="3" stroke-miterlimit="10"/>
<path d="M93.666 39.52C100.728 45.6416 108.625 50.729 117.12 54.6298C124.435 57.9882 132.135 60.4371 140.048 61.9218" fill="#FEF087"/>
<path d="M93.666 39.52C100.728 45.6416 108.625 50.729 117.12 54.6298C124.435 57.9882 132.135 60.4371 140.048 61.9218" stroke="#FBE248" stroke-width="3" stroke-miterlimit="10"/>
<path d="M98.0781 54.2524C109.684 63.5502 122.519 71.2021 136.219 76.9912C148.172 82.0581 160.666 85.7394 173.457 87.963" fill="#FEF087"/>
<path d="M98.0781 54.2524C109.684 63.5502 122.519 71.2021 136.219 76.9912C148.172 82.0581 160.666 85.7394 173.457 87.963" stroke="#FBE248" stroke-width="3" stroke-miterlimit="10"/>
<path d="M90.4297 55.1558C94.4429 60.26 99.1981 64.7352 104.537 68.4324C108.996 71.5042 113.856 73.9488 118.982 75.6975" fill="#FEF087"/>
<path d="M90.4297 55.1558C94.4429 60.26 99.1981 64.7352 104.537 68.4324C108.996 71.5042 113.856 73.9488 118.982 75.6975" stroke="#FBE248" stroke-width="3" stroke-miterlimit="10"/>
<path d="M89.7557 3.58545C87.0544 9.71952 86.2376 16.5174 87.409 23.1163C87.8963 25.6321 88.6842 28.0803 89.7557 30.4083" fill="#FEF087"/>
<path d="M89.7557 3.58545C87.0544 9.71952 86.2376 16.5174 87.409 23.1163C87.8963 25.6321 88.6842 28.0803 89.7557 30.4083" stroke="#FBE248" stroke-width="3" stroke-miterlimit="10"/>
<path d="M73.3415 14.5303C68.4606 18.5295 65.2167 24.1789 64.2244 30.4083C63.7621 33.8132 64.0287 37.2773 65.0066 40.5714" fill="#FEF087"/>
<path d="M73.3415 14.5303C68.4606 18.5295 65.2167 24.1789 64.2244 30.4083C63.7621 33.8132 64.0287 37.2773 65.0066 40.5714" stroke="#FBE248" stroke-width="3" stroke-miterlimit="10"/>
<path d="M131.713 13.479C136.497 16.6895 140.502 20.9295 143.433 25.888C146.364 30.8466 148.148 36.3979 148.652 42.135" fill="#FEF087"/>
<path d="M131.713 13.479C136.497 16.6895 140.502 20.9295 143.433 25.888C146.364 30.8466 148.148 36.3979 148.652 42.135" stroke="#FBE248" stroke-width="3" stroke-miterlimit="10"/>
<path d="M104.348 0.728027L104.617 13.2229" stroke="#FBE248" stroke-width="3" stroke-miterlimit="10"/>
<path d="M116.596 3.58545C118.948 8.25997 120.028 13.4714 119.725 18.6952C119.525 21.8239 118.823 24.9003 117.648 27.8069" fill="#FEF087"/>
<path d="M116.596 3.58545C118.948 8.25997 120.028 13.4714 119.725 18.6952C119.525 21.8239 118.823 24.9003 117.648 27.8069" stroke="#FBE248" stroke-width="3" stroke-miterlimit="10"/>
<path d="M42.9421 111.214C44.5127 120.816 48.1578 129.96 53.6238 138.01C56.9711 142.928 60.9731 147.368 65.5193 151.206C64.6619 151.546 63.7224 151.621 62.8219 151.422C60.583 150.883 58.7758 148.456 58.56 145.343C55.7947 144.598 53.3818 142.901 51.7479 140.55C50.114 138.199 49.3644 135.347 49.6316 132.497C47.0508 130.839 45.1178 128.346 44.1559 125.435C43.4538 123.228 43.3468 120.875 43.8457 118.614C42.6859 116.902 40.0289 112.737 41.1483 111.497C41.4181 111.228 41.9171 111.026 42.9421 111.214Z" fill="#FEF087" stroke="#FBE248" stroke-width="0.75" stroke-miterlimit="10"/>
<path d="M75.0141 47.1763C64.7962 53.6449 55.8317 61.9053 48.5527 71.5595Z" fill="#FEF087"/>
<path d="M75.0141 47.1763C64.7962 53.6449 55.8317 61.9053 48.5527 71.5595" stroke="#FBE248" stroke-miterlimit="10"/>
<path d="M122.865 41.7847C126.911 42.4856 141.059 45.4374 150.999 58.148C154.839 63.0999 157.558 68.8252 158.97 74.9291" fill="#FEF087"/>
<path d="M122.865 41.7847C126.911 42.4856 141.059 45.4374 150.999 58.148C154.839 63.0999 157.558 68.8252 158.97 74.9291" stroke="#FBE248" stroke-miterlimit="10"/>
</g>
<defs>
<clipPath id="clip0_132_406">
<rect width="247" height="415" fill="white"/>
</clipPath>
</defs>
</svg>
