<svg width="250" height="417" viewBox="0 0 250 417" fill="none" xmlns="http://www.w3.org/2000/svg">
<g clip-path="url(#clip0_132_482)">
<path d="M109.524 165.377C156.348 165.377 194.306 130.244 194.306 86.9045C194.306 43.5654 156.348 8.43213 109.524 8.43213C62.7003 8.43213 24.7422 43.5654 24.7422 86.9045C24.7422 130.244 62.7003 165.377 109.524 165.377Z" fill="#C9BC98" stroke="#B79B58" stroke-miterlimit="10"/>
<path d="M100.808 14.7925C90.8628 35.5128 85.2692 58.0451 84.3708 81.0035C83.4724 103.962 87.2882 126.861 95.5836 148.293" fill="#C9BC98"/>
<path d="M100.808 14.7925C90.8628 35.5128 85.2692 58.0451 84.3708 81.0035C83.4724 103.962 87.2882 126.861 95.5836 148.293" stroke="#B79B58" stroke-miterlimit="10"/>
<path d="M109.939 34.9834C115.747 52.6477 118.826 71.0924 119.069 89.6825C119.331 111.187 115.799 132.569 108.633 152.85" fill="#C9BC98"/>
<path d="M109.939 34.9834C115.747 52.6477 118.826 71.0924 119.069 89.6825C119.331 111.187 115.799 132.569 108.633 152.85" stroke="#B79B58" stroke-miterlimit="10"/>
<path d="M100.148 54.5161C91.2353 80.9613 91.4674 109.627 100.807 135.925Z" fill="#C9BC98"/>
<path d="M100.148 54.5161C91.2353 80.9613 91.4674 109.627 100.807 135.925" stroke="#B79B58" stroke-miterlimit="10"/>
<path d="M79.3388 22.6152C64.9816 52.5785 63.1074 87.0015 74.1269 118.342Z" fill="#C9BC98"/>
<path d="M79.3388 22.6152C64.9816 52.5785 63.1074 87.0015 74.1269 118.342" stroke="#B79B58" stroke-miterlimit="10"/>
<path d="M124.293 24.5649C130.721 42.3171 134.025 61.0456 134.058 79.922C134.079 96.9406 131.439 113.858 126.234 130.064" fill="#C9BC98"/>
<path d="M124.293 24.5649C130.721 42.3171 134.025 61.0456 134.058 79.922C134.079 96.9406 131.439 113.858 126.234 130.064" stroke="#B79B58" stroke-miterlimit="10"/>
<path d="M138.635 147.647C148.513 126.475 153.211 103.262 152.342 79.9221C151.637 62.6815 147.88 45.7016 141.247 29.7681" fill="#C9BC98"/>
<path d="M138.635 147.647C148.513 126.475 153.211 103.262 152.342 79.9221C151.637 62.6815 147.88 45.7016 141.247 29.7681" stroke="#B79B58" stroke-miterlimit="10"/>
<path d="M57.746 48.0093C50.2236 61.8699 46.1767 77.3434 45.9514 93.1061C45.726 108.869 49.3291 124.451 56.4522 138.521" fill="#C9BC98"/>
<path d="M57.746 48.0093C50.2236 61.8699 46.1767 77.3434 45.9514 93.1061C45.726 108.869 49.3291 124.451 56.4522 138.521" stroke="#B79B58" stroke-miterlimit="10"/>
<path d="M164.083 52.5664C171.515 76.8267 171.058 102.814 162.777 126.798Z" fill="#C9BC98"/>
<path d="M164.083 52.5664C171.515 76.8267 171.058 102.814 162.777 126.798" stroke="#B79B58" stroke-miterlimit="10"/>
<path d="M35.5676 64.2886C31.5234 70.667 29.4863 78.1088 29.7191 85.6541C29.9519 93.1993 32.4439 100.502 36.8736 106.62" fill="#C9BC98"/>
<path d="M35.5676 64.2886C31.5234 70.667 29.4863 78.1088 29.7191 85.6541C29.9519 93.1993 32.4439 100.502 36.8736 106.62" stroke="#B79B58" stroke-miterlimit="10"/>
<path d="M109.522 165.376C95.5836 165.723 81.7668 162.709 69.243 156.591C60.6282 152.335 52.7891 146.668 46.0519 139.824C44.4163 141.128 31.4049 151.753 31.6368 169.373C31.8442 178.464 35.3485 187.171 41.4991 193.878C38.2036 195.596 26.7667 202.054 21.7745 215.738C16.5138 230.116 20.4319 246.846 31.7223 258.995C23.0073 269.157 20.5051 282.732 25.4241 293.857C29.8182 303.909 38.7162 308.284 41.4991 309.502C29.6351 315.997 22.2994 327.415 22.8608 339.076C23.2129 344.769 25.2474 350.231 28.7074 354.77C32.8666 358.775 36.11 363.63 38.2158 369.002C40.9796 376.215 41.615 384.068 40.0466 391.63C50.135 387.778 59.3053 381.863 66.9691 374.264C74.6329 366.666 80.621 357.552 84.5491 347.508C86.631 342.79 87.1774 337.54 86.1115 332.496C83.353 320.25 71.4034 315.059 67.9858 313.816L67.0948 313.511C67.9248 312.987 83.9266 302.325 83.1943 283.95C82.7004 275.506 79.0451 267.555 72.9536 261.676C87.8081 256.314 97.5972 242.837 97.4507 228.459C97.292 212.411 84.8055 202.675 83.1943 201.445C92.0494 198.566 99.5737 192.607 104.396 184.653C107.8 178.801 109.571 172.144 109.522 165.376V165.376Z" fill="#C9BC98" stroke="#B79B58" stroke-miterlimit="10"/>
<path d="M109.522 165.377C101.106 174.984 90.6032 182.546 78.8145 187.486C67.0258 192.425 54.2628 194.611 41.499 193.878C40.4738 197.606 34.4929 220.685 48.5784 241.68C54.6347 250.548 63.1048 257.503 72.9901 261.724C75.5259 269.91 75.1813 278.716 72.0136 286.68C64.2141 305.737 42.7196 309.356 41.499 309.502L67.1313 313.511C57.2031 308.009 48.782 300.155 42.6095 290.64C36.437 281.125 32.7024 270.241 31.7344 258.946C35.2497 258.678 57.9647 256.509 72.5995 236.745C80.0373 226.502 83.7804 214.046 83.2186 201.408C72.686 198.501 63.3085 192.42 56.3658 183.995C41.4136 165.389 45.3805 143.26 46.003 139.861" fill="#C9BC98"/>
<path d="M109.522 165.377C101.106 174.984 90.6032 182.546 78.8145 187.486C67.0258 192.425 54.2628 194.611 41.499 193.878C40.4738 197.606 34.4929 220.685 48.5784 241.68C54.6347 250.548 63.1048 257.503 72.9901 261.724C75.5259 269.91 75.1813 278.716 72.0136 286.68C64.2141 305.737 42.7196 309.356 41.499 309.502L67.1313 313.511C57.2031 308.009 48.782 300.155 42.6095 290.64C36.437 281.125 32.7024 270.241 31.7344 258.946C35.2497 258.678 57.9647 256.509 72.5995 236.745C80.0373 226.502 83.7804 214.046 83.2186 201.408C72.686 198.501 63.3085 192.42 56.3658 183.995C41.4136 165.389 45.3805 143.26 46.003 139.861" stroke="#B79B58" stroke-miterlimit="10"/>
<path d="M41.4994 309.502C50.0408 316.622 56.1146 326.25 58.8561 337.016C66.0697 367.065 41.1332 390.631 40.0469 391.63C45.4296 387.487 63.8483 372.244 68.6574 345.826C70.5767 335.074 70.0427 324.029 67.095 313.511" fill="#C9BC98"/>
<path d="M41.4994 309.502C50.0408 316.622 56.1146 326.25 58.8561 337.016C66.0697 367.065 41.1332 390.631 40.0469 391.63C45.4296 387.487 63.8483 372.244 68.6574 345.826C70.5767 335.074 70.0427 324.029 67.095 313.511" stroke="#B79B58" stroke-miterlimit="10"/>
<path d="M114.43 274.251C115.266 268.539 117.951 263.258 122.076 259.212C126.201 255.167 131.538 252.58 137.273 251.847C143.008 251.114 148.827 252.274 153.839 255.151C158.852 258.028 162.784 262.464 165.035 267.781C165.035 273.191 164.815 277.76 164.632 281.184C164.413 285.669 164.144 289.068 163.79 293.37C163.79 293.857 163.253 300.23 162.667 306.127C161.52 317.533 160.092 328.451 158.468 338.82C157.125 342.885 154.431 346.369 150.832 348.696C147.234 351.022 142.947 352.052 138.683 351.615C134.467 351.044 130.56 349.091 127.578 346.063C124.595 343.034 122.705 339.102 122.205 334.884C119.617 314.673 117.025 294.462 114.43 274.251Z" fill="#595A5C"/>
<path d="M134.374 413.551C134.515 414.074 134.799 414.548 135.193 414.92C135.587 415.292 136.077 415.548 136.608 415.659C137.313 415.75 138.028 415.588 138.624 415.202C139.221 414.816 139.661 414.231 139.867 413.551C145.722 396.791 150.492 379.672 154.147 362.301C156.418 351.492 158.151 341.159 159.445 331.387C159.799 318.593 149.289 308.869 138.695 309.917C129.296 310.855 121.289 320.14 121.741 331.387L134.374 413.551Z" fill="#595A5C"/>
<path d="M104.298 275.543C103.458 269.835 100.771 264.559 96.6478 260.518C92.5243 256.477 87.1902 253.893 81.4587 253.16C75.7273 252.427 69.9129 253.585 64.9022 256.458C59.8915 259.331 55.9593 263.761 53.7051 269.072C53.7051 274.495 53.9248 279.052 54.1079 282.476C54.3276 286.96 54.5961 290.36 54.9379 294.661C54.9379 295.161 55.4871 301.521 56.073 307.419C57.2204 318.836 58.6484 329.742 60.2718 340.112C61.6154 344.176 64.3094 347.66 67.9078 349.987C71.5061 352.314 75.7927 353.344 80.0575 352.906C84.2727 352.337 88.1786 350.384 91.1598 347.355C94.1409 344.326 96.0278 340.393 96.5232 336.176C99.1189 315.957 101.711 295.746 104.298 275.543Z" fill="#595A5C"/>
<path d="M84.3549 414.855C84.2011 415.466 83.8474 416.008 83.3498 416.395C82.8523 416.782 82.2395 416.993 81.6086 416.993C80.9777 416.993 80.3648 416.782 79.8673 416.395C79.3698 416.008 79.0161 415.466 78.8623 414.855C73.0088 398.09 68.2387 380.967 64.5814 363.592C62.2501 352.784 60.5779 342.402 59.2841 332.654C58.9301 319.86 69.4393 310.136 80.034 311.184C89.4325 312.122 97.4395 321.419 96.9879 332.654L84.3549 414.855Z" fill="#595A5C"/>
<path d="M137.474 165.023C136.206 163.513 135.438 161.647 135.276 159.683C135.114 157.719 135.567 155.754 136.571 154.057C139.146 149.902 144.138 149.755 144.48 149.743C154.245 157.993 164.388 167.07 174.702 177.026C185.016 186.981 194.231 196.522 202.775 205.941C203.882 208.505 204.184 211.344 203.643 214.083C203.101 216.823 201.741 219.334 199.742 221.286C197.743 223.239 195.198 224.541 192.443 225.021C189.687 225.501 186.851 225.136 184.308 223.975C179.755 219.004 147.58 177.477 137.474 165.023Z" fill="#A7DCDE"/>
<path d="M218.68 187.785C216.133 187.341 213.806 186.063 212.066 184.152C210.327 182.242 209.274 179.807 209.074 177.233C208.874 174.659 209.538 172.092 210.961 169.936C212.385 167.78 214.486 166.159 216.935 165.328L248.28 165.572C248.69 165.554 249.093 165.683 249.415 165.937C250.403 166.778 250.147 169.166 248.621 171.823C247.896 173.044 247.08 174.209 246.18 175.308C237.88 185.385 224.857 187.335 218.68 187.785Z" fill="#595A5C"/>
<path d="M77.0311 166.278C78.6567 165.164 79.8982 163.576 80.5863 161.731C81.2744 159.886 81.3755 157.874 80.8759 155.97C80.3755 154.491 79.5336 153.15 78.4184 152.055C77.3031 150.961 75.9456 150.144 74.4556 149.67C62.8113 154.97 50.6054 160.978 37.9724 167.765C25.3393 174.552 13.8048 181.303 3.06368 188.029C1.30291 190.199 0.242291 192.851 0.021641 195.636C-0.199009 198.42 0.430666 201.205 1.82766 203.625C3.22465 206.045 5.32338 207.985 7.84718 209.191C10.371 210.396 13.2014 210.809 15.9652 210.376C21.6898 206.83 63.922 175.539 77.0311 166.278Z" fill="#A7DCDE"/>
<path d="M74.2113 149.67C75.5906 147.867 88.065 132.16 109.682 132.209C131.298 132.257 143.541 147.842 144.932 149.67C152.643 171.823 158.158 194.678 161.398 217.907C164.276 238.558 165.346 259.421 164.596 280.258C163.168 281.574 149.949 293.369 132.665 289.726C125.615 288.173 119.219 284.478 114.356 279.149C112.915 279.913 111.308 280.313 109.675 280.313C108.043 280.313 106.436 279.913 104.994 279.149C99.8904 284.354 93.3593 287.936 86.2219 289.446C69.0483 292.894 55.9148 282.135 54.1205 280.575C52.2777 236.054 59.1006 191.598 74.2113 149.67V149.67Z" fill="#595A5C"/>
<path d="M74.212 149.67C73.6994 149.524 67.5721 167.813 62.7874 188.37C60.6147 197.74 58.9547 206.648 57.6853 215.104C56.7943 221.002 55.2442 232.529 54.3897 247.395C53.4743 263.845 53.6818 280.465 54.1578 280.477C54.6339 280.49 53.694 252.451 59.0402 216.054C64.8379 177.245 74.8345 149.877 74.212 149.67Z" fill="#818285"/>
<path d="M145.092 150.072C145.604 149.938 151.195 167.533 156.016 188.09C158.188 197.46 159.861 206.367 161.118 214.824C162.009 220.722 163.559 232.249 164.413 247.115C165.329 263.564 165.134 280.185 164.658 280.197C164.182 280.209 165.109 252.171 159.775 215.774C153.977 176.965 144.469 150.255 145.092 150.072Z" fill="#818285"/>
<path d="M110.207 159.71C148.78 159.71 180.049 128.303 180.049 89.5605C180.049 50.8178 148.78 19.4106 110.207 19.4106C71.6345 19.4106 40.3652 50.8178 40.3652 89.5605C40.3652 128.303 71.6345 159.71 110.207 159.71Z" fill="#595A5C"/>
<path d="M109.963 159.625C102.136 159.762 94.3511 158.448 87.0039 155.75C94.5284 157.466 102.221 158.34 109.939 158.358C117.798 158.377 125.634 157.514 133.301 155.787C125.85 158.586 117.919 159.891 109.963 159.625V159.625Z" fill="#818285"/>
<path d="M164.778 260.238L54.2422 259.543C55.0105 221.977 61.7846 184.774 74.3086 149.341C74.8212 150.243 86.3435 169.593 109.107 169.897C116.386 169.982 123.555 168.12 129.869 164.506C136.184 160.891 141.414 155.655 145.017 149.341C151.314 167.53 156.147 186.192 159.469 205.149C162.643 223.35 164.418 241.767 164.778 260.238V260.238Z" fill="#5DBEC4"/>
<path d="M158.787 201.567L109.475 228.874L60.3221 201.445C57.3683 218.114 54.9271 235.746 53.3281 254.426C49.0565 304.911 51.321 355.736 60.0658 405.643L158.53 405.765C168.069 356.602 170.731 306.355 166.44 256.461C164.838 238.043 162.283 219.721 158.787 201.567V201.567Z" fill="#5DBEC4"/>
<path d="M61.4929 194.962L58.5879 210.949L109.852 237.756V221.452L61.4929 194.962Z" fill="#A7DCDE"/>
<path d="M157.639 195.438L160.593 211.278C143.7 220.133 126.787 228.967 109.854 237.781V221.477L157.639 195.438Z" fill="#A7DCDE"/>
<path d="M39.0586 223.561C39.8042 220.883 41.4555 218.546 43.7318 216.947C46.0081 215.348 48.769 214.585 51.5452 214.787C53.8792 215.059 56.0806 216.014 57.8724 217.532C59.6642 219.05 60.9663 221.062 61.615 223.317L59.2104 254.548C59.1981 254.957 59.0427 255.349 58.771 255.656C57.8556 256.583 55.4877 256.168 52.9366 254.438C51.7656 253.622 50.6559 252.722 49.6166 251.745C40.1083 242.85 39.0586 229.739 39.0586 223.561Z" fill="#595A5C"/>
<path d="M80.791 111.019C82.4338 110.774 84.1038 110.774 85.7466 111.019L84.2941 109.8C84.2941 109.8 81.2182 110.178 80.791 111.019Z" fill="#A7DCDE"/>
<path d="M68.5117 83.7847C68.5117 83.7847 69.1952 86.8432 76.6896 89.6579C76.6896 89.6579 81.3034 91.7903 83.1709 82.3468C83.1709 82.3468 76.2624 82.8586 68.8535 75.3647C68.8535 75.3647 68.6338 80.8602 78.8623 85.1129C78.8623 85.1129 79.4604 85.6246 78.8623 86.0024C78.8257 85.9536 72.9424 86.7579 68.5117 83.7847Z" fill="#A7DCDE"/>
<path d="M86.0147 111.019C91.2458 111.019 95.4864 104.401 95.4864 96.2381C95.4864 88.075 91.2458 81.4575 86.0147 81.4575C80.7836 81.4575 76.543 88.075 76.543 96.2381C76.543 104.401 80.7836 111.019 86.0147 111.019Z" fill="white"/>
<path d="M149.704 83.7847C149.704 83.7847 149.033 86.8432 141.526 89.6579C141.526 89.6579 136.912 91.7903 135.045 82.3468C135.045 82.3468 141.953 82.8586 149.362 75.3647C149.362 75.3647 149.582 80.8602 139.354 85.1129C139.354 85.1129 138.755 85.6246 139.354 86.0024C139.39 85.9536 145.249 86.7579 149.704 83.7847Z" fill="#A7DCDE"/>
<path d="M137.829 111.019C136.182 110.775 134.508 110.775 132.861 111.019L134.314 109.8C134.314 109.8 137.39 110.178 137.829 111.019Z" fill="#A7DCDE"/>
<path d="M132.202 111.019C137.433 111.019 141.674 104.401 141.674 96.2381C141.674 88.075 137.433 81.4575 132.202 81.4575C126.971 81.4575 122.73 88.075 122.73 96.2381C122.73 104.401 126.971 111.019 132.202 111.019Z" fill="white"/>
<path d="M86.2102 111.019C90.3088 111.019 93.6314 105.727 93.6314 99.199C93.6314 92.6712 90.3088 87.3794 86.2102 87.3794C82.1116 87.3794 78.7891 92.6712 78.7891 99.199C78.7891 105.727 82.1116 111.019 86.2102 111.019Z" fill="#231F20"/>
<path d="M81.743 93.2526C82.7811 93.2526 83.6227 91.9379 83.6227 90.316C83.6227 88.6942 82.7811 87.3794 81.743 87.3794C80.7049 87.3794 79.8633 88.6942 79.8633 90.316C79.8633 91.9379 80.7049 93.2526 81.743 93.2526Z" fill="white"/>
<path d="M132.152 111.019C136.311 111.019 139.683 105.727 139.683 99.199C139.683 92.6712 136.311 87.3794 132.152 87.3794C127.993 87.3794 124.621 92.6712 124.621 99.199C124.621 105.727 127.993 111.019 132.152 111.019Z" fill="#231F20"/>
<path d="M128.198 93.2526C129.236 93.2526 130.078 91.9379 130.078 90.316C130.078 88.6942 129.236 87.3794 128.198 87.3794C127.16 87.3794 126.318 88.6942 126.318 90.316C126.318 91.9379 127.16 93.2526 128.198 93.2526Z" fill="white"/>
<path opacity="0.57" d="M77.2633 122.765C82.0967 122.765 86.0149 121.734 86.0149 120.462C86.0149 119.19 82.0967 118.159 77.2633 118.159C72.4299 118.159 68.5117 119.19 68.5117 120.462C68.5117 121.734 72.4299 122.765 77.2633 122.765Z" fill="#F7B1C4"/>
<path opacity="0.57" d="M143.15 122.765C147.983 122.765 151.902 121.734 151.902 120.462C151.902 119.19 147.983 118.159 143.15 118.159C138.317 118.159 134.398 119.19 134.398 120.462C134.398 121.734 138.317 122.765 143.15 122.765Z" fill="#F7B1C4"/>
<path d="M92.4219 128.638C93.6204 129.556 94.8943 130.371 96.2301 131.075C96.8892 131.429 97.5849 131.721 98.2441 132.05C98.9032 132.379 99.6355 132.598 100.343 132.854C103.145 133.86 106.105 134.356 109.083 134.316C112.063 134.335 115.021 133.806 117.81 132.757L118.872 132.403C119.221 132.267 119.564 132.112 119.897 131.94L121.923 130.978C123.254 130.295 124.487 129.43 125.793 128.687C124.572 129.564 123.351 130.503 122.131 131.295L120.117 132.355C119.789 132.545 119.451 132.715 119.104 132.866L118.042 133.281C117.334 133.549 116.626 133.841 115.894 134.061L113.672 134.585C112.928 134.745 112.174 134.851 111.414 134.901C110.659 135.012 109.895 135.057 109.132 135.035C106.07 135.052 103.034 134.486 100.185 133.366C97.3281 132.28 94.6965 130.677 92.4219 128.638Z" fill="white"/>
<path d="M197.735 222.476C195.149 223.699 192.244 224.078 189.43 223.558C186.617 223.039 184.04 221.647 182.064 219.582C180.088 217.516 178.814 214.881 178.424 212.052C178.034 209.223 178.547 206.343 179.89 203.821L210.673 166.632C212.622 165.627 214.779 165.092 216.973 165.069C219.166 165.046 221.334 165.537 223.304 166.501C225.273 167.465 226.989 168.876 228.314 170.621C229.639 172.366 230.537 174.397 230.934 176.55C222.787 193.764 211.532 209.333 197.735 222.476V222.476Z" fill="#A7DCDE"/>
<path d="M2.84451 204.296C1.65383 201.701 1.31149 198.797 1.86602 195.997C2.42054 193.196 3.8438 190.641 5.93412 188.693C8.02443 186.745 10.6758 185.503 13.5125 185.144C16.3492 184.784 19.2273 185.324 21.7391 186.689L58.5886 217.846C59.5506 219.9 60.0267 222.148 59.9802 224.415C59.9336 226.682 59.3656 228.908 58.32 230.921C57.27 232.731 55.8429 234.296 54.1352 235.509C52.4275 236.722 50.4789 237.555 48.4211 237.952C41.1689 234.437 34.2027 230.363 27.5857 225.766C18.6103 219.492 10.318 212.296 2.84451 204.296V204.296Z" fill="#A7DCDE"/>
<path d="M115.674 45.7305C135.799 53.172 153.682 65.6304 167.622 81.9204C175.825 91.6159 182.474 102.521 187.334 114.248C189.893 110.806 191.731 106.885 192.74 102.719C193.748 98.5534 193.907 94.2274 193.205 89.9991C188.589 77.4889 180.488 66.5561 169.856 58.4883C146.799 41.2464 120.837 44.9019 115.674 45.7305Z" fill="#C9BC98" stroke="#B79B58" stroke-miterlimit="10"/>
<path d="M115.674 45.7307C112.178 39.0266 108.136 32.6201 103.59 26.5757C100.759 22.8348 99.062 21.0192 98.5616 17.6927C97.6461 11.3442 101.576 3.21673 107.85 1.07214C112.366 -0.475369 117.053 1.97384 126.415 6.87227C130.992 9.25904 135.386 11.9797 139.561 15.0119C138.837 19.0508 137.516 22.9601 135.643 26.6122C131.199 34.948 124.203 41.647 115.674 45.7307V45.7307Z" fill="#C9BC98" stroke="#B79B58" stroke-miterlimit="10"/>
<path d="M115.674 45.7306C116.15 42.599 119.336 23.444 133.018 16.8884C149.252 9.15082 176.959 20.5439 190.313 50.3366L115.674 45.7306Z" fill="#C9BC98" stroke="#B79B58" stroke-miterlimit="10"/>
<path d="M115.674 45.7309C122.265 33.363 130.113 29.3053 134.227 27.7822C161.678 17.5832 203.568 52.981 199.809 77.3757C198.934 82.1523 196.632 86.553 193.205 89.9995C184.043 77.6774 172.424 67.3828 159.081 59.7639C145.737 52.1451 130.958 47.3671 115.674 45.7309V45.7309Z" fill="#C9BC98" stroke="#B79B58" stroke-miterlimit="10"/>
<path d="M115.674 45.7307C122.619 33.2287 134.813 27.453 143.589 30.5846C146.111 31.5355 148.388 33.0381 150.253 34.9822C152.118 36.9262 153.524 39.2623 154.366 41.8193C156.808 49.8127 150.705 54.3334 153.426 62.8752C155.465 69.2724 160.481 71.7094 159.529 73.1716C158.382 74.9019 149.765 73.5494 144.541 68.0173C137.937 61.1205 141.721 53.0418 136.106 47.8997C131.444 43.647 123.742 43.8664 115.674 45.7307Z" fill="#C9BC98" stroke="#B79B58" stroke-miterlimit="10"/>
<path d="M119.482 4.14258C117.506 5.1492 115.75 6.53963 114.319 8.23236C112.887 9.9251 111.808 11.8861 111.146 14.0004C110.508 16.2913 110.365 18.6911 110.725 21.0414C111.084 23.3918 111.939 25.6393 113.233 27.6355" fill="#C9BC98"/>
<path d="M119.482 4.14258C117.506 5.1492 115.75 6.53963 114.319 8.23236C112.887 9.9251 111.808 11.8861 111.146 14.0004C110.508 16.2913 110.365 18.6911 110.725 21.0414C111.084 23.3918 111.939 25.6393 113.233 27.6355" stroke="#B79B58" stroke-miterlimit="10"/>
<path d="M115.675 45.7309L98.8677 10.199C85.307 5.98294 73.8701 8.52963 70.5623 14.8294C67.6695 20.3736 71.6975 27.5628 72.6251 29.2322C82.6217 47.0834 112.477 45.9015 115.675 45.7309Z" fill="#C9BC98" stroke="#B79B58" stroke-miterlimit="10"/>
<path d="M115.675 45.7306L69.5734 24.6016C50.4956 28.2571 37.9969 35.9703 38.1677 43.1108C38.3142 48.8378 46.6264 54.0774 53.6081 55.9661C64.154 58.72 70.8428 53.3585 87.5892 49.2887C96.789 47.0615 106.209 45.8681 115.675 45.7306V45.7306Z" fill="#C9BC98" stroke="#B79B58" stroke-miterlimit="10"/>
<path d="M56.7939 57.1724C53.12 62.5372 49.8558 68.1704 47.0292 74.0245C40.5128 87.6922 36.3848 102.371 34.8234 117.428C27.8641 107.309 24.6476 95.0876 25.7255 82.8601C26.8033 70.6326 32.1083 59.1602 40.731 50.4097L56.7939 57.1724Z" fill="#C9BC98" stroke="#B79B58" stroke-miterlimit="10"/>
<path d="M41.5 35.751C46.4623 41.3935 53.0197 45.4037 60.3092 47.2538C76.2622 51.1652 88.9685 42.5503 91.0069 41.1612" fill="#C9BC98"/>
<path d="M41.5 35.751C46.4623 41.3935 53.0197 45.4037 60.3092 47.2538C76.2622 51.1652 88.9685 42.5503 91.0069 41.1612" stroke="#B79B58" stroke-miterlimit="10"/>
<path d="M77.1289 15.4386C78.4349 15.4386 87.4917 15.3168 93.2406 22.3354C95.213 24.7781 96.5355 27.6785 97.0855 30.7675" fill="#C9BC98"/>
<path d="M77.1289 15.4386C78.4349 15.4386 87.4917 15.3168 93.2406 22.3354C95.213 24.7781 96.5355 27.6785 97.0855 30.7675" stroke="#B79B58" stroke-miterlimit="10"/>
<path d="M53.7051 29.9995C55.9045 33.7728 59.271 36.7317 63.2989 38.4316C65.8739 39.4446 68.626 39.933 71.393 39.8681C74.16 39.8032 76.886 39.1864 79.4106 38.0539" fill="#C9BC98"/>
<path d="M53.7051 29.9995C55.9045 33.7728 59.271 36.7317 63.2989 38.4316C65.8739 39.4446 68.626 39.933 71.393 39.8681C74.16 39.8032 76.886 39.1864 79.4106 38.0539" stroke="#B79B58" stroke-miterlimit="10"/>
<path d="M44.1246 59.9019C40.6082 63.313 37.7493 67.34 35.6904 71.7824C32.2654 79.3435 31.1939 87.7572 32.6145 95.9333" fill="#C9BC98"/>
<path d="M44.1246 59.9019C40.6082 63.313 37.7493 67.34 35.6904 71.7824C32.2654 79.3435 31.1939 87.7572 32.6145 95.9333" stroke="#B79B58" stroke-miterlimit="10"/>
<path d="M163.461 44.561C169.39 46.0779 174.986 48.6809 179.963 52.2377C187.717 57.8592 193.708 65.5682 197.234 74.4634" fill="#C9BC98"/>
<path d="M163.461 44.561C169.39 46.0779 174.986 48.6809 179.963 52.2377C187.717 57.8592 193.708 65.5682 197.234 74.4634" stroke="#B79B58" stroke-miterlimit="10"/>
<path d="M167.305 72.9277C176.408 78.2246 183.239 86.6834 186.492 96.6888Z" fill="#C9BC98"/>
<path d="M167.305 72.9277C176.408 78.2246 183.239 86.6834 186.492 96.6888" stroke="#B79B58" stroke-miterlimit="10"/>
</g>
<defs>
<clipPath id="clip0_132_482">
<rect width="250" height="417" fill="white"/>
</clipPath>
</defs>
</svg>
