<svg width="250" height="424" viewBox="0 0 250 424" fill="none" xmlns="http://www.w3.org/2000/svg">
<path d="M73.6347 155.16C76.2061 152.284 87.7679 139.918 106.897 138.279C130.766 136.237 146.43 152.588 148.344 154.649C153.767 161.307 156.831 169.573 157.06 178.156C157.325 196.666 143.476 207.973 141.71 209.376C143.211 210.358 154.321 217.974 155.529 231.891C156.51 243.806 149.905 255.545 138.638 261.561C139.904 262.229 150.837 268.176 152.967 281.004C153.724 285.92 153.123 290.95 151.228 295.55C149.334 300.149 146.219 304.144 142.22 307.101C143.771 308.299 151.181 314.266 151.946 323.993C152.781 334.573 145.4 345.271 133.524 349.57C147.549 358.599 148.943 367.609 149.228 370.279C149.934 378.464 143.967 386.748 132.042 403.295C128.754 407.859 125.869 411.54 123.857 414.043C119.774 409.355 116.013 404.397 112.599 399.203C104.62 387.111 100.134 380.3 100.311 371.574C100.38 368.453 101.165 359.424 111.058 349.57C96.9643 347.607 86.7864 337.576 85.9914 326.544C85.3436 317.642 91.0165 310.939 92.636 309.153C91.2423 308.034 81.0546 299.554 80.8583 285.097C80.6816 271.356 89.6916 262.857 91.0951 261.542C83.5597 255.972 78.4343 247.737 76.7656 238.516C74.2138 223.637 82.0459 212.743 83.42 210.888C76.0488 203.863 71.1216 194.662 69.3606 184.633C67.5997 174.605 69.0975 164.275 73.6347 155.16V155.16Z" fill="#1C1B17" stroke="#6B6867" stroke-miterlimit="10"/>
<path d="M73.6328 155.16C75.9295 162.03 84.2621 184.211 107.415 198.344C117.823 204.647 129.559 208.431 141.688 209.396C140.384 221.491 135.407 232.897 127.427 242.079C117.978 252.665 105.092 259.573 91.0441 261.581C93.3301 273.763 99.5932 284.843 108.852 293.085C118.111 301.326 129.843 306.262 142.208 307.121C141.234 314.918 138.574 322.41 134.415 329.076C128.746 338.025 120.615 345.148 110.997 349.589H133.503C138.07 371.551 134.624 394.422 123.786 414.062" stroke="#6B6867" stroke-miterlimit="10"/>
<path d="M148.352 154.649C144.449 169.485 136.157 182.795 124.562 192.839C112.967 202.882 98.6094 209.19 83.3691 210.937C83.9777 215.059 87.7269 237.878 108.357 251.854C117.342 257.857 127.827 261.226 138.626 261.581C138.469 264.888 137.134 285.283 119.978 298.877C112.092 304.997 102.54 308.589 92.5753 309.182C94.251 319.379 99.1144 328.784 106.467 336.045C113.82 343.306 123.285 348.051 133.503 349.599C133.405 352.681 132.629 367.835 120.449 378.405C116.019 382.208 110.758 384.918 105.089 386.316" stroke="#6B6867" stroke-miterlimit="10"/>
<path d="M109.133 166.162C156.378 166.162 194.678 130.806 194.678 87.1928C194.678 43.5793 156.378 8.22363 109.133 8.22363C61.8877 8.22363 23.5879 43.5793 23.5879 87.1928C23.5879 130.806 61.8877 166.162 109.133 166.162Z" fill="#1C1B17" stroke="#6B6867" stroke-miterlimit="10"/>
<path d="M88.4159 25.8511C78.1739 48.6693 74.0441 73.7595 76.4322 98.6566C78.1036 115.126 82.6444 131.177 89.8489 146.081" stroke="#6B6867" stroke-miterlimit="10"/>
<path d="M145.89 31.1211C168.385 54.7451 175.334 87.4477 163.615 113.506C153.8 135.393 134.171 145.119 127.693 147.995" stroke="#6B6867" stroke-miterlimit="10"/>
<path d="M48.6548 84.2876C46.2695 97.8963 47.845 111.904 53.1939 124.643C58.5427 137.381 67.4396 148.315 78.8253 156.141" stroke="#6B6867" stroke-miterlimit="10"/>
<path d="M122.423 22.0132C126.633 26.7046 141.336 44.2337 142.052 70.8806C142.916 102.759 123.09 123.35 119.537 126.923" stroke="#6B6867" stroke-miterlimit="10"/>
<path d="M108.053 52.1934C104.029 58.1509 89.6901 80.921 93.6748 111.592C95.8524 127.643 102.513 142.753 112.892 155.189" stroke="#6B6867" stroke-miterlimit="10"/>
<path d="M114.463 280.906C115.315 275.514 117.787 270.508 121.55 266.553C125.314 262.598 130.191 259.882 135.535 258.764C147.46 256.418 159.846 262.857 165.068 274.419C165.068 279.846 164.842 284.41 164.665 287.835C164.439 292.33 164.174 295.687 163.831 300.055C163.831 300.545 163.281 306.925 162.692 312.814C161.554 324.248 160.131 335.172 158.492 345.565C157.151 349.637 154.459 353.128 150.862 355.459C147.265 357.79 142.979 358.822 138.715 358.383C134.498 357.814 130.59 355.857 127.606 352.822C124.623 349.787 122.734 345.846 122.236 341.62L114.463 280.906Z" fill="#595A5C"/>
<path d="M134.406 420.451C134.558 421.064 134.911 421.608 135.408 421.997C135.905 422.385 136.518 422.596 137.149 422.596C137.78 422.596 138.393 422.385 138.89 421.997C139.387 421.608 139.74 421.064 139.892 420.451C145.748 403.661 150.522 386.512 154.182 369.111C156.459 358.315 158.177 347.921 159.472 338.135C159.836 325.327 149.314 315.562 138.724 316.631C129.322 317.613 121.323 326.878 121.774 338.135L134.406 420.451Z" fill="#595A5C"/>
<path d="M104.325 282.192C103.472 276.801 100.999 271.797 97.2354 267.844C93.4719 263.892 88.5955 261.177 83.2532 260.059C71.3283 257.714 58.9127 264.152 53.7207 275.714C53.7207 281.141 53.9464 285.705 54.1231 289.131C54.3488 293.626 54.6138 296.982 54.9574 301.35C54.9574 301.841 55.507 308.22 56.0959 314.109C57.2344 325.543 58.6575 336.467 60.2867 346.861C61.6219 350.941 64.3123 354.442 67.9115 356.783C71.5106 359.123 75.802 360.162 80.0732 359.728C84.2902 359.159 88.1978 357.203 91.1799 354.168C94.1619 351.132 96.0486 347.191 96.5423 342.964C99.1465 322.733 101.741 302.475 104.325 282.192Z" fill="#595A5C"/>
<path d="M84.4297 421.747C84.2775 422.359 83.9247 422.903 83.4276 423.292C82.9305 423.681 82.3175 423.892 81.6865 423.892C81.0554 423.892 80.4425 423.681 79.9453 423.292C79.4482 422.903 79.0954 422.359 78.9433 421.747C73.0704 404.958 68.2808 387.809 64.604 370.406C62.3269 359.61 60.6094 349.216 59.3138 339.431C58.9507 326.623 69.4721 316.857 80.0621 317.927C89.4646 318.908 97.4636 328.173 97.0121 339.431L84.4297 421.747Z" fill="#595A5C"/>
<path d="M137.498 171.482C136.232 169.967 135.465 168.097 135.304 166.129C135.142 164.161 135.593 162.191 136.595 160.489C139.186 156.318 144.172 156.171 144.516 156.161C154.33 164.435 164.42 173.523 174.735 183.485C185.05 193.447 194.296 203.115 202.825 212.458C203.934 215.029 204.239 217.875 203.697 220.622C203.156 223.369 201.795 225.888 199.794 227.846C197.793 229.803 195.245 231.109 192.487 231.589C189.728 232.07 186.889 231.703 184.344 230.537C179.79 225.561 147.617 183.956 137.498 171.482Z" fill="#595A5C"/>
<path d="M197.817 229.035C195.236 230.248 192.339 230.62 189.536 230.098C186.732 229.576 184.163 228.186 182.191 226.126C180.22 224.065 178.945 221.438 178.547 218.614C178.149 215.79 178.648 212.912 179.974 210.387C190.234 197.955 200.493 185.523 210.753 173.091C211.313 172.806 217.525 169.793 223.856 173.199C225.681 174.227 227.265 175.636 228.5 177.329C229.734 179.022 230.59 180.961 231.011 183.014C222.866 200.259 211.614 215.856 197.817 229.025V229.035Z" fill="#595A5C"/>
<path d="M218.715 194.291C216.17 193.843 213.846 192.563 212.108 190.652C210.369 188.74 209.315 186.305 209.111 183.73C208.906 181.154 209.563 178.583 210.978 176.421C212.393 174.26 214.486 172.629 216.929 171.786L248.277 172.031C248.688 172.01 249.092 172.139 249.415 172.394C250.397 173.238 250.151 175.633 248.62 178.283C247.889 179.508 247.065 180.676 246.157 181.777C237.913 191.896 224.888 193.859 218.715 194.291Z" fill="#595A5C"/>
<path d="M77.0587 172.738C78.6787 171.626 79.9165 170.042 80.6032 168.201C81.29 166.361 81.3923 164.353 80.8962 162.452C79.532 157.731 74.7718 156.249 74.448 156.151C62.8371 161.412 50.5884 167.428 37.9568 174.23C25.3253 181.031 13.8323 187.794 3.08517 194.526C1.32474 196.701 0.264217 199.358 0.0432638 202.147C-0.17769 204.936 0.451292 207.726 1.84737 210.151C3.24345 212.575 5.34115 214.52 7.86421 215.729C10.3873 216.938 13.2173 217.355 15.9817 216.924C21.7135 213.361 63.9462 182.013 77.0587 172.738Z" fill="#595A5C"/>
<path d="M74.2319 156.102C75.6158 154.296 88.0903 138.563 109.712 138.612C131.334 138.661 143.563 154.267 144.967 156.102C152.678 178.312 158.191 201.224 161.426 224.511C164.304 245.166 165.374 266.032 164.625 286.873C163.192 288.189 149.962 300.006 132.698 296.354C125.658 294.793 119.274 291.09 114.423 285.755C112.981 286.519 111.374 286.918 109.742 286.918C108.109 286.918 106.502 286.519 105.06 285.755C99.9574 290.97 93.4238 294.556 86.2844 296.06C69.1184 299.525 55.9765 288.699 54.1804 287.227C52.3347 242.634 59.1439 198.106 74.2319 156.102V156.102Z" fill="#595A5C"/>
<path d="M74.232 156.102C73.7314 155.955 67.5972 174.279 62.8175 194.87C60.6386 204.263 58.9799 213.214 57.7138 221.645C56.8207 227.533 55.2503 239.105 54.4161 254.033C53.5033 270.512 53.7094 287.168 54.1805 287.177C54.7989 287.177 53.7192 259.117 59.0879 222.646C64.8589 183.721 74.8601 156.279 74.232 156.102Z" fill="#818285"/>
<path d="M145.124 156.504C145.635 156.367 151.268 173.994 156.048 194.595C158.227 203.978 159.886 212.929 161.152 221.37C162.045 227.258 163.615 238.82 164.45 253.758C165.362 270.237 165.156 286.893 164.685 286.902C164.067 286.902 165.146 258.842 159.778 222.371C154.007 183.446 144.506 156.681 145.124 156.504Z" fill="#818285"/>
<path d="M110.232 166.162C148.81 166.162 180.083 134.699 180.083 95.8886C180.083 57.0777 148.81 25.6152 110.232 25.6152C71.6544 25.6152 40.3809 57.0777 40.3809 95.8886C40.3809 134.699 71.6544 166.162 110.232 166.162Z" fill="#595A5C"/>
<path d="M109.998 166.054C107.603 166.095 105.207 166 102.823 165.769C97.4282 165.24 92.122 164.03 87.0312 162.167C102.268 165.636 118.09 165.636 133.327 162.167C125.877 164.963 117.951 166.27 109.998 166.015V166.054Z" fill="#818285"/>
<path d="M164.83 266.861L54.2676 266.115C55.034 228.485 61.8098 191.22 74.3387 155.729C74.849 156.622 86.3715 176.006 109.132 176.34C116.414 176.422 123.585 174.554 129.902 170.93C136.218 167.306 141.45 162.057 145.054 155.729C151.35 173.946 156.181 192.637 159.501 211.624C162.687 229.873 164.469 248.339 164.83 266.861V266.861Z" fill="#91D5DB"/>
<path d="M158.814 208.09L109.505 235.444L60.3432 207.963C58.3802 218.563 55.3082 237.407 53.3551 261.031C51.8829 278.845 41.3222 406.672 76.8024 417.242C81.2423 418.429 85.9583 418.012 90.121 416.064C118.78 403.07 109.348 322.245 109.947 322.245C110.545 322.245 101.81 399.566 131.539 414.298C133.846 415.436 137.546 417.242 141.903 416.369C167.579 411.059 170.994 320.273 166.44 263.072C164.993 244.61 162.447 226.25 158.814 208.09V208.09Z" fill="#91D5DB"/>
<path d="M61.5223 201.515L58.627 217.483L109.948 244.376V228.034L61.5223 201.515Z" fill="#595A5C"/>
<path d="M157.666 201.946L160.611 217.866L109.928 244.365V228.024L157.666 201.946Z" fill="#595A5C"/>
<path d="M2.86828 210.829C1.66135 208.228 1.30648 205.312 1.85428 202.498C2.40209 199.683 3.82459 197.113 5.91893 195.155C8.01327 193.197 10.6725 191.95 13.5174 191.592C16.3622 191.234 19.2475 191.783 21.7616 193.162L58.6551 224.363C58.9397 224.932 61.8743 231.174 58.3999 237.466C57.3521 239.282 55.9252 240.852 54.2163 242.068C52.5075 243.284 50.5568 244.118 48.4969 244.513C41.2425 240.987 34.2756 236.898 27.6602 232.283C18.6662 226.022 10.3564 218.83 2.86828 210.829V210.829Z" fill="#595A5C"/>
<path d="M39.0371 230.115C39.7862 227.437 41.4385 225.1 43.7138 223.5C45.9892 221.901 48.7477 221.138 51.5214 221.341C53.8584 221.618 56.0615 222.579 57.8546 224.103C59.6476 225.627 60.951 227.647 61.6011 229.909L59.2358 261.169C59.2295 261.58 59.0723 261.975 58.7941 262.278C57.8814 263.21 55.516 262.798 52.9642 261.09C51.7958 260.274 50.6872 259.375 49.6468 258.401C40.1364 249.44 39.0764 236.308 39.0371 230.115Z" fill="#595A5C"/>
<path d="M80.8184 117.383C82.4616 117.14 84.1316 117.14 85.7748 117.383L84.3222 116.186C84.3222 116.186 81.2502 116.539 80.8184 117.383Z" fill="#91D5DB"/>
<path d="M68.5312 90.0979C68.5312 90.0979 69.2183 93.1699 76.7265 95.9867C76.7265 95.9867 81.3296 98.1165 83.2042 88.6551C83.2042 88.6551 76.3339 89.1655 68.8748 81.6572C68.8748 81.6572 68.6588 87.1633 78.8956 91.3836C78.8956 91.3836 79.4943 91.894 78.8956 92.2767C78.8563 92.2767 72.9675 93.0816 68.5312 90.0979Z" fill="#91D5DB"/>
<path d="M86.0396 117.383C91.2704 117.383 95.5108 110.752 95.5108 102.573C95.5108 94.393 91.2704 87.7622 86.0396 87.7622C80.8088 87.7622 76.5684 94.393 76.5684 102.573C76.5684 110.752 80.8088 117.383 86.0396 117.383Z" fill="white"/>
<path d="M149.735 90.0979C149.735 90.0979 149.058 93.1699 141.55 95.9867C141.55 95.9867 136.947 98.1165 135.072 88.6551C135.072 88.6551 141.943 89.1655 149.402 81.6572C149.402 81.6572 149.608 87.1633 139.381 91.3836C139.381 91.3836 138.782 91.894 139.381 92.2767C139.391 92.2767 145.28 93.0816 149.735 90.0979Z" fill="#91D5DB"/>
<path d="M137.851 117.383C136.208 117.14 134.538 117.14 132.895 117.383L134.347 116.186C134.347 116.186 137.429 116.539 137.851 117.383Z" fill="#91D5DB"/>
<path d="M132.237 117.383C137.468 117.383 141.708 110.752 141.708 102.573C141.708 94.393 137.468 87.7622 132.237 87.7622C127.006 87.7622 122.766 94.393 122.766 102.573C122.766 110.752 127.006 117.383 132.237 117.383Z" fill="white"/>
<path d="M86.2344 117.383C90.3378 117.383 93.6642 112.079 93.6642 105.536C93.6642 98.9937 90.3378 93.6899 86.2344 93.6899C82.1311 93.6899 78.8047 98.9937 78.8047 105.536C78.8047 112.079 82.1311 117.383 86.2344 117.383Z" fill="#231F20"/>
<path d="M81.7692 99.5788C82.8099 99.5788 83.6536 98.2605 83.6536 96.6344C83.6536 95.0082 82.8099 93.6899 81.7692 93.6899C80.7284 93.6899 79.8848 95.0082 79.8848 96.6344C79.8848 98.2605 80.7284 99.5788 81.7692 99.5788Z" fill="white"/>
<path d="M132.178 117.383C136.341 117.383 139.716 112.079 139.716 105.536C139.716 98.9937 136.341 93.6899 132.178 93.6899C128.015 93.6899 124.641 98.9937 124.641 105.536C124.641 112.079 128.015 117.383 132.178 117.383Z" fill="#231F20"/>
<path d="M128.234 99.5788C129.275 99.5788 130.118 98.2605 130.118 96.6344C130.118 95.0082 129.275 93.6899 128.234 93.6899C127.193 93.6899 126.35 95.0082 126.35 96.6344C126.35 98.2605 127.193 99.5788 128.234 99.5788Z" fill="white"/>
<path opacity="0.57" d="M77.286 129.151C82.1211 129.151 86.0407 128.118 86.0407 126.845C86.0407 125.571 82.1211 124.538 77.286 124.538C72.4509 124.538 68.5312 125.571 68.5312 126.845C68.5312 128.118 72.4509 129.151 77.286 129.151Z" fill="#F7B1C4"/>
<path opacity="0.57" d="M143.181 129.151C148.016 129.151 151.935 128.118 151.935 126.845C151.935 125.571 148.016 124.538 143.181 124.538C138.345 124.538 134.426 125.571 134.426 126.845C134.426 128.118 138.345 129.151 143.181 129.151Z" fill="#F7B1C4"/>
<path d="M92.4473 135.04C93.6237 135.958 94.882 136.766 96.2063 137.454C96.8639 137.817 97.5509 138.112 98.1692 138.436C98.7876 138.759 99.5629 138.995 100.26 139.25C103.069 140.267 106.037 140.772 109.024 140.742C112.012 140.751 114.976 140.212 117.769 139.152L118.829 138.799C119.183 138.671 119.516 138.485 119.811 138.328L121.833 137.346C123.167 136.649 124.404 135.795 125.7 135.02C124.463 135.864 123.265 136.806 121.98 137.591L120.017 138.651C119.673 138.818 119.359 139.024 119.035 139.162L117.966 139.564C117.259 139.829 116.552 140.124 115.826 140.34L113.608 140.85C112.865 141.016 112.11 141.124 111.35 141.174C110.597 141.283 109.835 141.329 109.073 141.311C106.019 141.319 102.99 140.757 100.142 139.653C97.3248 138.581 94.7196 137.02 92.4473 135.04V135.04Z" fill="white"/>
<path d="M176.619 54.7848C179.112 51.7128 150.571 5.23028 108.897 6.07434C68.2938 6.89878 41.6665 52.1152 44.3656 55.3442C46.7898 58.2886 72.1903 26.2632 110.929 26.2436C149.206 26.224 174.45 57.4347 176.619 54.7848Z" fill="#5BC6D0" stroke="#05AFAB" stroke-miterlimit="10"/>
<path d="M110.557 23.672C121.333 23.672 130.068 18.5967 130.068 12.336C130.068 6.0753 121.333 1 110.557 1C99.7806 1 91.0449 6.0753 91.0449 12.336C91.0449 18.5967 99.7806 23.672 110.557 23.672Z" fill="#DCBB26" stroke="#EDD673" stroke-miterlimit="10"/>
<path d="M110.705 21.8073C119.546 21.8073 126.713 17.646 126.713 12.5128C126.713 7.37957 119.546 3.21826 110.705 3.21826C101.864 3.21826 94.6973 7.37957 94.6973 12.5128C94.6973 17.646 101.864 21.8073 110.705 21.8073Z" fill="#3887C8"/>
<path d="M110.3 22.6708C104.804 29.0601 108.828 45.2446 118.309 53.5675C132.531 66.1303 151.13 54.0975 165.518 64.3637C173.007 69.7127 180.525 81.932 178.071 113.104C181.323 107.625 183.675 101.66 185.039 95.437C186.862 86.5452 186.748 77.365 184.706 68.521C182.664 59.677 178.74 51.3767 173.203 44.1846C154.908 20.8943 118.888 12.6892 110.3 22.6708Z" fill="#1C1B17" stroke="#6B6867" stroke-miterlimit="10"/>
<path d="M111.753 21.4834C117.25 27.8728 113.226 44.0573 103.754 52.3802C89.5623 64.9135 71.1106 52.9985 56.5358 63.1763C48.8999 68.5254 41.0874 80.8036 43.1485 112.397C39.8578 106.974 37.4866 101.045 36.131 94.8484C30.0851 66.9943 47.4866 44.6756 48.8607 42.9875C67.4105 19.972 103.195 11.5313 111.753 21.4834Z" fill="#1C1B17" stroke="#6B6867" stroke-miterlimit="10"/>
<path d="M102.175 27.3132C89.6913 26.3421 77.237 29.5247 66.7499 36.3658C56.2628 43.2069 48.3312 53.3228 44.1895 65.1391" fill="#1C1B17"/>
<path d="M102.175 27.3132C89.6913 26.3421 77.237 29.5247 66.7499 36.3658C56.2628 43.2069 48.3312 53.3228 44.1895 65.1391" stroke="#6B6867" stroke-miterlimit="10"/>
<path d="M120.244 37.4028C122.227 41.1318 124.945 44.4204 128.233 47.0703C143.377 59.1228 164.695 51.6636 166.913 50.849" fill="#1C1B17"/>
<path d="M120.244 37.4028C122.227 41.1318 124.945 44.4204 128.233 47.0703C143.377 59.1228 164.695 51.6636 166.913 50.849" stroke="#6B6867" stroke-miterlimit="10"/>
<path d="M105.952 34.8608C104.26 38.3028 101.903 41.3758 99.0176 43.9025C96.1321 46.4293 92.7749 48.3598 89.1397 49.5829C82.792 51.5537 75.9565 51.2553 69.8047 48.7388" fill="#1C1B17"/>
<path d="M105.952 34.8608C104.26 38.3028 101.903 41.3758 99.0176 43.9025C96.1321 46.4293 92.7749 48.3598 89.1397 49.5829C82.792 51.5537 75.9565 51.2553 69.8047 48.7388" stroke="#6B6867" stroke-miterlimit="10"/>
<path d="M128.234 26.8911C140.776 29.7967 152.357 35.8887 161.856 44.5781C171.355 53.2676 178.452 64.2606 182.461 76.4947" fill="#1C1B17"/>
<path d="M128.234 26.8911C140.776 29.7967 152.357 35.8887 161.856 44.5781C171.355 53.2676 178.452 64.2606 182.461 76.4947" stroke="#6B6867" stroke-miterlimit="10"/>
</svg>
