<svg width="161" height="444" viewBox="0 0 161 444" fill="none" xmlns="http://www.w3.org/2000/svg">
<g clip-path="url(#clip0_132_1439)">
<path d="M85.4844 288.057C87.4762 276.117 96.5355 266.668 107.987 264.419C120.721 261.919 133.948 268.785 139.532 281.133C139.482 286.965 139.29 291.806 139.107 295.464C138.857 300.255 138.573 303.888 138.207 308.504C138.165 309.029 137.623 315.836 136.998 322.143C135.781 334.358 134.256 346.023 132.514 357.138C129.381 366.212 120.571 371.903 111.379 370.819C102.186 369.736 95.0187 362.354 93.7936 352.922C91.0266 331.298 88.2569 309.676 85.4844 288.057Z" fill="#595A5C"/>
<path d="M106.785 437.059C106.94 437.616 107.243 438.12 107.663 438.517C108.084 438.913 108.604 439.187 109.169 439.309C109.922 439.405 110.684 439.232 111.322 438.82C111.959 438.409 112.431 437.785 112.653 437.059C118.907 419.13 124.002 400.817 127.904 382.234C130.338 370.669 132.18 359.613 133.563 349.164C133.947 335.483 122.729 325.076 111.403 326.209C101.402 327.209 92.8173 337.141 93.3007 349.164C97.7734 378.46 102.268 407.758 106.785 437.059Z" fill="#595A5C"/>
<path d="M74.6664 289.44C72.6745 277.5 63.6236 268.051 52.1641 265.802C39.4294 263.302 26.2031 270.176 20.6191 282.516C20.6775 288.348 20.8608 293.189 21.0525 296.847C21.2942 301.638 21.5859 305.271 21.9526 309.887C21.9943 310.42 22.5277 317.219 23.1611 323.535C24.3779 335.741 25.903 347.406 27.6449 358.529C30.7785 367.611 39.5794 373.294 48.7721 372.211C57.9647 371.127 65.1404 363.745 66.3655 354.322C69.1269 332.68 71.8939 311.053 74.6664 289.44Z" fill="#595A5C"/>
<path d="M53.3385 437.584C53.1829 438.139 52.8787 438.642 52.4587 439.037C52.0386 439.432 51.5187 439.704 50.9549 439.826C50.2085 439.914 49.4547 439.738 48.8244 439.329C48.1942 438.919 47.7272 438.302 47.5046 437.584C41.2475 419.8 36.1502 401.628 32.2446 383.184C29.8111 371.711 27.9692 360.746 26.5857 350.372C26.2024 336.799 37.4202 326.476 48.7464 327.592C58.7891 328.584 67.3316 338.424 66.8482 350.372C62.3589 379.446 57.8556 408.516 53.3385 437.584Z" fill="#595A5C"/>
<path d="M56.1649 166.183C56.7358 164.154 56.6632 161.998 55.9572 160.012C55.2512 158.026 53.9465 156.307 52.2228 155.093C47.8724 152.169 42.9552 154.21 42.6218 154.36C36.7295 166.692 30.8373 179.973 25.1783 194.212C19.5611 208.294 14.7189 221.85 10.5352 234.731C10.6069 237.546 11.4696 240.283 13.0245 242.63C14.5794 244.978 16.7638 246.84 19.3277 248.004C22.22 249.241 25.4271 249.541 28.4988 248.863C31.5705 248.185 34.3526 246.561 36.4545 244.222C38.7047 237.381 51.7894 182.764 56.1649 166.183Z" fill="#ED2224"/>
<path d="M10.5347 234.731C12.4361 232.341 15.0421 230.61 17.983 229.783C20.924 228.957 24.0505 229.078 26.919 230.128C29.7875 231.178 32.2524 233.105 33.9639 235.635C35.6754 238.164 36.5467 241.169 36.4541 244.221C32.4703 260.952 28.4922 277.686 24.5195 294.422C24.1111 294.956 19.5857 300.771 11.9099 300.488C9.67382 300.364 7.4905 299.761 5.50767 298.721C3.52485 297.68 1.7888 296.225 0.417022 294.456C0.0966721 274.096 3.52635 253.85 10.5347 234.731V234.731Z" fill="#ED2224"/>
<path d="M0.416066 294.456C1.23603 291.6 3.01976 289.115 5.46424 287.425C7.90872 285.734 10.8632 284.942 13.8258 285.182C16.3209 285.497 18.6673 286.542 20.5699 288.186C22.4725 289.83 23.8463 292 24.5186 294.423L21.7266 327.751C21.7127 328.191 21.5411 328.61 21.2432 328.934C20.2598 329.917 17.7345 329.451 15.0176 327.609C13.7763 326.727 12.6008 325.755 11.5005 324.701C1.4245 315.095 0.407732 301.072 0.416066 294.456Z" fill="white" stroke="black" stroke-miterlimit="10"/>
<path d="M104.836 166.009C104.265 163.979 104.337 161.823 105.044 159.837C105.75 157.851 107.054 156.132 108.778 154.919C113.12 151.994 118.046 154.035 118.379 154.185C124.271 166.517 130.147 179.806 135.822 194.038C141.44 208.119 146.282 221.675 150.466 234.557C150.414 237.543 149.46 240.444 147.728 242.877C145.996 245.311 143.567 247.163 140.762 248.19C137.957 249.217 134.906 249.371 132.012 248.631C129.117 247.892 126.515 246.294 124.546 244.047C122.296 237.206 109.178 182.589 104.836 166.009Z" fill="#ED2224"/>
<path d="M150.465 234.556C148.564 232.166 145.958 230.435 143.017 229.609C140.076 228.782 136.949 228.903 134.081 229.953C131.212 231.004 128.747 232.93 127.036 235.46C125.324 237.99 124.453 240.994 124.546 244.047C128.529 260.777 132.508 277.511 136.48 294.247C136.889 294.781 141.414 300.596 149.09 300.313C151.326 300.189 153.509 299.586 155.492 298.546C157.475 297.505 159.211 296.051 160.583 294.281C160.717 285.67 160.182 277.062 158.983 268.535C157.349 256.94 154.494 245.551 150.465 234.556V234.556Z" fill="#ED2224"/>
<path d="M160.583 294.281C159.896 291.607 158.339 289.238 156.157 287.547C153.975 285.856 151.293 284.938 148.532 284.938C145.771 284.938 143.088 285.856 140.907 287.547C138.725 289.238 137.168 291.607 136.48 294.281L139.272 327.609C139.284 328.049 139.456 328.47 139.756 328.792C140.739 329.784 143.265 329.317 145.981 327.467C147.225 326.59 148.4 325.621 149.498 324.568C159.575 314.952 160.591 300.888 160.583 294.281Z" fill="white" stroke="black" stroke-miterlimit="10"/>
<path d="M42.5047 154.802C43.9799 152.877 57.2979 136.08 80.392 136.138C103.336 136.188 116.554 152.844 118.046 154.802C126.276 178.516 132.163 202.979 135.623 227.841C138.693 249.896 139.836 272.177 139.04 294.431C137.515 295.839 123.388 308.445 104.936 304.554C97.4191 302.89 90.6029 298.937 85.4259 293.239C83.7862 294.1 81.951 294.519 80.1003 294.456C78.464 294.396 76.8626 293.965 75.4165 293.198C69.982 298.76 63.0223 302.59 55.4144 304.204C37.0792 307.895 23.0444 296.339 21.1275 294.714C19.1468 247.134 26.4063 199.621 42.5047 154.802V154.802Z" fill="#595A5C"/>
<path d="M42.5055 154.802C41.9638 154.652 35.4131 174.215 30.3126 196.204C27.9873 206.202 26.2121 215.784 24.8537 224.791C23.9036 231.099 22.2284 243.43 21.345 259.328C20.3615 276.925 20.5782 294.697 21.0866 294.714C21.745 294.714 20.5949 264.718 26.3538 225.808C32.5045 184.297 43.1972 154.977 42.5055 154.802Z" fill="#818285"/>
<path d="M118.238 155.243C118.779 155.085 124.797 173.915 129.905 195.904C132.231 205.902 134.014 215.484 135.364 224.491C136.314 230.798 137.99 243.13 138.881 259.028C139.865 276.625 139.64 294.406 139.131 294.414C138.473 294.414 139.631 264.418 133.873 225.508C127.722 183.997 117.579 155.426 118.238 155.243Z" fill="#818285"/>
<path d="M81.2263 164.533C122.426 164.533 155.826 130.941 155.826 89.5031C155.826 48.0649 122.426 14.4727 81.2263 14.4727C40.0262 14.4727 6.62695 48.0649 6.62695 89.5031C6.62695 130.941 40.0262 164.533 81.2263 164.533Z" fill="#595A5C"/>
<path d="M80.9748 164.417C72.6114 164.56 64.2943 163.147 56.4473 160.251C72.7194 163.958 89.6157 163.973 105.894 160.293C101.216 162.044 96.3537 163.254 91.4009 163.9C87.9451 164.353 84.4584 164.525 80.9748 164.417V164.417Z" fill="#818285"/>
<path d="M52.8555 110.333C54.5656 110.078 56.3042 110.078 58.0143 110.333L56.4975 109.092C56.4975 109.092 53.3389 109.458 52.8555 110.333Z" fill="#60C8D4"/>
<path d="M40.0879 81.9792C40.0879 81.9792 40.7963 85.1704 48.5971 88.095C48.5971 88.095 53.3893 90.3113 55.3395 80.4711C55.3395 80.4711 48.1554 81.0044 40.4463 73.2056C40.4463 73.2056 40.2212 78.9214 50.864 83.3124C50.864 83.3124 51.4807 83.8456 50.814 84.2372C50.839 84.2372 44.6967 85.0788 40.0879 81.9792Z" fill="#60C8D4"/>
<path d="M58.29 110.333C63.7259 110.333 68.1326 103.443 68.1326 94.944C68.1326 86.4447 63.7259 79.5547 58.29 79.5547C52.854 79.5547 48.4473 86.4447 48.4473 94.944C48.4473 103.443 52.854 110.333 58.29 110.333Z" fill="white"/>
<path d="M124.513 81.9792C124.513 81.9792 123.804 85.1704 116.004 88.095C116.004 88.095 111.22 90.3113 109.27 80.4711C109.27 80.4711 116.445 81.0044 124.163 73.2056C124.163 73.2056 124.379 78.9214 113.745 83.3124C113.745 83.3124 113.12 83.8456 113.787 84.2372C113.787 84.2372 119.904 85.0788 124.513 81.9792Z" fill="#60C8D4"/>
<path d="M112.154 110.333C110.447 110.077 108.711 110.077 107.004 110.333L108.512 109.092C108.512 109.092 111.679 109.458 112.154 110.333Z" fill="#60C8D4"/>
<path d="M106.319 110.333C111.755 110.333 116.162 103.443 116.162 94.944C116.162 86.4447 111.755 79.5547 106.319 79.5547C100.883 79.5547 96.4766 86.4447 96.4766 94.944C96.4766 103.443 100.883 110.333 106.319 110.333Z" fill="white"/>
<path d="M58.4987 110.333C62.761 110.333 66.2162 104.823 66.2162 98.0267C66.2162 91.23 62.761 85.7202 58.4987 85.7202C54.2365 85.7202 50.7812 91.23 50.7812 98.0267C50.7812 104.823 54.2365 110.333 58.4987 110.333Z" fill="#231F20"/>
<path d="M53.855 91.836C54.9367 91.836 55.8136 90.4669 55.8136 88.7781C55.8136 87.0893 54.9367 85.7202 53.855 85.7202C52.7734 85.7202 51.8965 87.0893 51.8965 88.7781C51.8965 90.4669 52.7734 91.836 53.855 91.836Z" fill="white"/>
<path d="M106.262 110.333C110.589 110.333 114.096 104.823 114.096 98.0267C114.096 91.23 110.589 85.7202 106.262 85.7202C101.935 85.7202 98.4277 91.23 98.4277 98.0267C98.4277 104.823 101.935 110.333 106.262 110.333Z" fill="#231F20"/>
<path d="M102.152 91.836C103.234 91.836 104.11 90.4669 104.11 88.7781C104.11 87.0893 103.234 85.7202 102.152 85.7202C101.07 85.7202 100.193 87.0893 100.193 88.7781C100.193 90.4669 101.07 91.836 102.152 91.836Z" fill="white"/>
<path opacity="0.57" d="M49.1888 122.565C54.2151 122.565 58.2898 121.491 58.2898 120.165C58.2898 118.84 54.2151 117.766 49.1888 117.766C44.1625 117.766 40.0879 118.84 40.0879 120.165C40.0879 121.491 44.1625 122.565 49.1888 122.565Z" fill="#F7B1C4"/>
<path opacity="0.57" d="M117.687 122.565C122.713 122.565 126.788 121.491 126.788 120.165C126.788 118.84 122.713 117.766 117.687 117.766C112.661 117.766 108.586 118.84 108.586 120.165C108.586 121.491 112.661 122.565 117.687 122.565Z" fill="#F7B1C4"/>
<path d="M6.12507 84.5123C25.9348 70.6709 49.1704 62.5423 73.2904 61.0158C116.061 58.4579 146.781 78.0133 156.266 84.6039C156.924 79.1214 159.658 51.6589 140.556 27.7875C117.053 -1.5748 80.7911 -0.191671 75.6573 0.0999516C72.9153 0.249929 28.1523 3.47445 10.7672 40.4439C1.9663 59.1577 4.60824 77.1717 6.12507 84.5123Z" fill="#ED2224"/>
<path d="M6.12648 84.5123C5.10225 84.11 4.18614 83.4741 3.45111 82.6554C2.71608 81.8367 2.18244 80.8576 1.89271 79.7963C1.61756 78.5651 1.69352 77.2815 2.11195 76.0913C2.53038 74.9012 3.27447 73.8523 4.25962 73.064C27.0977 58.285 53.8532 50.7128 81.0511 51.3309C108.249 51.9491 134.633 60.7289 156.775 76.5301C157.6 76.8686 158.298 77.4563 158.773 78.2111C159.247 78.9659 159.473 79.85 159.42 80.7397C159.366 81.6294 159.036 82.4802 158.476 83.1731C157.915 83.866 157.151 84.3662 156.292 84.6039C145.741 77.8299 116.538 61.0325 76.1421 62.4906C51.2548 63.4458 27.078 71.05 6.12648 84.5123V84.5123Z" fill="#CE2827"/>
<path d="M94.5774 79.2295C93.4107 75.0635 95.4109 70.8975 99.5113 68.8228C101.367 67.9551 103.4 67.5341 105.448 67.5934C107.496 67.6527 109.502 68.1908 111.304 69.1644C112.554 69.8189 113.653 70.728 114.53 71.833C115.407 72.938 116.043 74.2144 116.396 75.5801C112.768 74.0199 108.77 73.5257 104.87 74.1553C100.989 74.7161 97.3854 76.4926 94.5774 79.2295Z" fill="black"/>
<path d="M66.5235 79.3214C67.6903 75.1554 65.6901 70.9893 61.598 68.9146C59.7427 68.045 57.7091 67.6229 55.6609 67.6822C53.6126 67.7416 51.6069 68.2807 49.8051 69.2563C48.5539 69.9091 47.454 70.8176 46.5767 71.9229C45.6995 73.0281 45.0645 74.3055 44.7129 75.672C48.3381 74.1003 52.3357 73.5918 56.2391 74.2055C60.1223 74.7801 63.7231 76.5713 66.5235 79.3214V79.3214Z" fill="black"/>
<path d="M80.942 48.4759C88.2191 48.4759 94.1184 43.3653 94.1184 37.0609C94.1184 30.7566 88.2191 25.646 80.942 25.646C73.6649 25.646 67.7656 30.7566 67.7656 37.0609C67.7656 43.3653 73.6649 48.4759 80.942 48.4759Z" fill="white"/>
<path d="M81.5165 130.497C79.6011 129.561 77.5812 128.856 75.4992 128.398C68.1901 126.773 63.8314 128.856 59.4309 127.114C57.6141 126.398 55.2638 124.815 54.047 120.89C46.4212 121.724 42.2208 126.073 43.2626 129.222C44.3043 132.372 50.0633 133.513 50.3466 133.572C49.6716 136.621 51.8635 139.638 55.7305 141.004C57.6271 141.675 59.6524 141.902 61.6505 141.668C63.6486 141.434 65.5665 140.745 67.2567 139.654C70.007 143.495 75.5909 145.895 81.6249 145.812C87.4588 145.728 92.7177 143.354 95.3596 139.654C99.7518 142.154 105.652 142.154 109.211 139.954C110.311 139.322 111.198 138.379 111.762 137.243C112.326 136.107 112.54 134.829 112.378 133.572C112.911 133.463 118.17 132.355 119.354 129.447C120.646 126.273 116.795 121.724 109.211 120.44C108.894 124.332 107.094 126.006 105.511 126.814C100.885 129.181 94.4262 126.04 85.9587 128.623C84.4144 129.085 82.9249 129.713 81.5165 130.497Z" fill="black"/>
<path d="M81.5762 133.746C93.3456 133.746 102.887 127.002 102.887 118.682C102.887 110.362 93.3456 103.618 81.5762 103.618C69.8067 103.618 60.2656 110.362 60.2656 118.682C60.2656 127.002 69.8067 133.746 81.5762 133.746Z" fill="#818285"/>
<path d="M138.997 271.234L22.3184 270.451C23.133 230.744 30.2849 191.421 43.5039 153.969C44.0456 154.919 56.2135 175.374 80.2327 175.699C87.9166 175.788 95.4843 173.82 102.151 169.999C108.817 166.178 114.34 160.643 118.145 153.969C124.776 173.193 129.859 192.917 133.347 212.952C136.718 232.206 138.607 251.691 138.997 271.234V271.234Z" fill="#CE2827"/>
<path d="M132.647 209.227L80.5997 238.089L28.7193 209.135C26.6691 220.275 23.4021 240.131 21.3352 265.102C19.7851 283.891 8.64225 418.779 46.0878 429.935C52.2134 431.76 57.8307 429.735 60.1476 428.686C90.384 414.938 80.4413 329.676 81.0747 329.676C81.7081 329.676 72.5072 411.263 103.885 426.803C106.311 428.011 110.219 429.944 114.82 428.994C141.914 423.395 145.523 327.601 140.731 267.243C139.188 247.761 136.488 228.389 132.647 209.227V209.227Z" fill="#145CA6"/>
<path d="M78.9254 434.485C75.3167 444.433 53.2477 444.041 50.5891 443.991C46.322 443.908 27.6284 443.575 24.2447 434.485C20.686 424.861 34.4458 405.772 51.2225 405.564C68.2659 405.372 82.4591 424.761 78.9254 434.485Z" fill="#744831"/>
<path d="M140.19 433.268C136.573 443.217 114.513 442.817 111.854 442.775C107.579 442.692 88.8851 442.358 85.5098 433.268C81.9261 423.636 95.6858 404.539 112.463 404.347C129.523 404.164 143.716 423.553 140.19 433.268Z" fill="#744831"/>
<path d="M48.2306 232.098C52.4883 232.098 55.9398 226.033 55.9398 218.55C55.9398 211.068 52.4883 205.002 48.2306 205.002C43.973 205.002 40.5215 211.068 40.5215 218.55C40.5215 226.033 43.973 232.098 48.2306 232.098Z" fill="#FEE025"/>
<path d="M114.82 233.498C119.078 233.498 122.53 227.433 122.53 219.95C122.53 212.468 119.078 206.402 114.82 206.402C110.563 206.402 107.111 212.468 107.111 219.95C107.111 227.433 110.563 233.498 114.82 233.498Z" fill="#FEE025"/>
</g>
<defs>
<clipPath id="clip0_132_1439">
<rect width="161" height="444" fill="white"/>
</clipPath>
</defs>
</svg>
