<svg width="248" height="404" viewBox="0 0 248 404" fill="none" xmlns="http://www.w3.org/2000/svg">
<path d="M21.4234 125.485C19.6979 140.963 27.0471 154.882 27.9931 154.591C28.6168 154.372 26.9536 147.99 27.7228 137.574C28.3673 129.476 30.2176 123.021 30.7477 123.146C31.2779 123.271 28.7727 131.462 31.2571 141.046C32.5461 146.056 34.2508 147.699 34.2404 152.481C34.2404 153.822 34.2404 159.165 31.5274 161.836C27.9099 165.454 22.1719 161.597 21.7561 162.876C21.3403 164.154 26.8392 170.454 31.2571 168.78C37.2134 166.524 37.9411 151.108 38.7831 151.285C39.4171 151.451 39.9369 160.256 36.1427 168.437C33.2633 174.622 30.6126 174.674 27.9931 179.196C21.0284 191.358 27.8891 212.293 28.544 212.179C28.9182 212.106 27.1927 204.902 29.3548 195.162C29.9473 192.46 32.7644 180.89 37.4941 180.609C38.3297 180.578 39.1533 180.817 39.8424 181.291C40.5315 181.764 41.0495 182.448 41.3194 183.239C42.2966 186.535 37.6812 190.225 35.0824 195.194C28.097 208.27 35.3735 229.372 36.413 229.164C37.4525 228.956 34.0222 204.799 38.8766 202.657C39.3583 202.462 39.892 202.436 40.3904 202.583C40.8889 202.73 41.3226 203.042 41.6209 203.468C42.941 205.474 40.3215 209.196 39.8329 213.967C38.9494 222.709 45.6541 230.983 46.6313 230.36C47.6084 229.736 43.2633 221.701 46.018 215.744C47.6812 212.137 51.5897 210.027 52.9722 211.389C55.1655 213.551 51.2882 224.726 49.2612 230.557C45.623 241.035 42.3901 245.63 43.388 246.961C44.3859 248.291 49.8225 245.235 53.8974 240.245C61.5169 230.89 59.3235 221.68 63.8869 215.942C64.387 215.293 64.9911 214.731 65.6749 214.279C67.5668 213.042 70.8724 211.846 72.7019 213.374C74.9576 215.235 74.5106 220.578 73.0969 224.102C70.4566 230.703 63.9181 232.231 64.3235 233.624C64.6562 234.788 69.6977 235.433 73.5854 232.512C80.0303 227.657 78.2632 216.805 81.9014 216.015C84.7185 215.412 88.9804 221.067 88.1384 224.663C87.2964 228.26 82.1405 228.437 82.286 229.705C82.4939 231.545 93.7725 233.863 97.8785 228.021C100.02 225.006 99.4274 220.952 100.259 220.89C101.569 220.796 101.122 230.921 106.652 237.522C110.81 242.511 117.047 243.925 117.878 242.563C118.71 241.202 113.658 238.094 113.481 232.48C113.305 226.867 118.201 220.588 121.288 221.275C124.157 221.898 123.221 227.969 127.629 235.277C133.034 244.227 142.359 248.281 143.221 247.044C143.689 246.378 141.537 244.57 139.323 239.767C138.357 237.688 133.263 226.607 137.369 220.162C138.724 218.196 140.749 216.792 143.065 216.212C147.567 214.757 153.221 215.994 155.903 219.601C161.517 227.148 153.055 243.561 154.438 244.247C155.602 244.83 163.793 234.424 163.221 221.846C162.847 213.78 160.571 206.503 161.028 206.337C161.485 206.171 162.639 213.541 167.972 218.458C171.09 221.327 174.541 222.356 174.729 221.981C174.916 221.607 171.361 220.069 169.23 215.9C168.897 215.245 165.779 208.977 168.564 205.37C170.394 202.99 174.261 202.46 175.997 204.268C178.689 207.065 175.685 214.819 176.35 215.048C177.015 215.277 180.508 209.674 180.914 202.158C181.184 197.501 180.207 193.26 182.078 191.981C182.909 191.41 183.876 191.628 185.685 190.495C186.724 189.84 187.286 189.456 187.41 188.894C187.972 186.483 179.094 184.57 176.839 178.551C173.855 170.537 183.824 158.083 185.155 158.801C185.851 159.185 184.011 163.26 186.007 166.296C186.891 167.636 187.857 167.792 188.824 168.499C193.512 171.982 191.745 184.258 191.735 184.258C193.227 176.979 192.829 169.438 190.581 162.356C187.556 152.896 181.901 146.42 182.192 146.15C182.92 145.485 194.51 158.686 194.988 158.156C195.165 157.959 193.429 156.285 193.783 154.435C194.136 152.585 196.194 152.356 196.568 150.724C196.943 149.092 195.061 146.909 194.489 146.285C189.427 140.713 184.812 127.574 187.119 124.57C188.668 122.574 193.71 124.57 196.61 126.961C201.132 130.703 202.795 137.356 201.953 142.262C201.558 144.549 200.602 146.524 200.778 146.628C200.955 146.732 202.795 144.206 203.554 141.046C204.791 135.849 203.855 131.077 202.4 126.431C198.46 113.884 194.51 114.643 193.866 107.813C193.013 98.8633 198.98 94.2999 196.808 88.0629C195.581 84.5078 192.369 83.5515 191.194 83.0941C178.72 78.2812 172.119 43.1358 162.213 26.0049C148.554 2.20035 122.369 2.55378 109.053 2.76168C109.053 2.76168 70.4566 3.31262 43.492 43.5204C39.9057 48.8634 35.0928 56.2231 33.3049 67.5016C31.4546 79.1856 34.8226 82.5951 33.2945 94.1543C31.2155 110.225 23.0451 111.046 21.4234 125.485Z" fill="#EB5B27" stroke="#E94A24" stroke-miterlimit="10"/>
<path d="M76.1951 29.8613C64.8581 34.4837 55.7955 43.382 50.9665 54.6326C47.1376 63.5453 45.6526 73.2894 46.6526 82.9381" stroke="#E94A24" stroke-miterlimit="10"/>
<path d="M34.9875 101.68C30.1704 107.636 26.8963 114.687 25.4553 122.21C24.6914 126.192 24.426 130.253 24.6652 134.3" stroke="#E94A24" stroke-miterlimit="10"/>
<path d="M42.1394 111.95C37.8847 116.169 35.2187 121.729 34.5927 127.688C34.0745 132.51 34.8271 137.384 36.7756 141.825" stroke="#E94A24" stroke-miterlimit="10"/>
<path d="M43.9261 98.2603C47.0932 107.803 48.3093 117.885 47.502 127.907C46.9123 135.187 45.2375 142.338 42.5332 149.123" stroke="#E94A24" stroke-miterlimit="10"/>
<path d="M100.27 16.7637C85.3178 29.1881 75.3278 46.5711 72.1199 65.7448C69.6256 80.5172 70.8984 95.6801 75.8205 109.83" stroke="#E94A24" stroke-miterlimit="10"/>
<path d="M58.7504 86.6387C54.1734 101.535 52.9138 117.253 55.0602 132.688C56.1293 140.155 58.0367 147.478 60.7463 154.518" stroke="#E94A24" stroke-miterlimit="10"/>
<path d="M130.121 14.144C140.568 18.8794 148.951 27.2299 153.728 37.6575C158 46.9471 159.763 57.1936 158.842 67.3767" stroke="#E94A24" stroke-miterlimit="10"/>
<path d="M116.194 19.6948C127.849 38.5289 132.964 60.6822 130.747 82.7196C129.15 97.7635 123.983 112.208 115.674 124.85" stroke="#E94A24" stroke-miterlimit="10"/>
<path d="M106.245 34.3936C93.6806 62.4596 88.2116 93.1853 90.3203 123.863C91.6274 142.343 95.7497 160.515 102.545 177.751" stroke="#E94A24" stroke-miterlimit="10"/>
<path d="M177.045 77.8237C178.282 81.1917 180.465 85.4744 184.436 87.6158C187.804 89.4453 190.61 88.7177 191.546 90.8902C192.409 92.8964 190.766 95.2769 188.427 100.36C186.658 104.177 185.137 108.104 183.874 112.117" stroke="#E94A24" stroke-miterlimit="10"/>
<path d="M171.641 110.807C172.155 119.722 174.892 128.367 179.603 135.953C183.082 141.477 187.744 146.16 193.252 149.664" stroke="#E94A24" stroke-miterlimit="10"/>
<path d="M138.938 117.99C143.135 128.197 145.719 138.995 146.599 149.996C147.787 164.796 145.948 179.683 141.193 193.748" stroke="#E94A24" stroke-miterlimit="10"/>
<path d="M110.508 114.071C106.145 130.948 105.753 148.607 109.364 165.661C112.088 178.476 117.201 190.664 124.437 201.586" stroke="#E94A24" stroke-miterlimit="10"/>
<path d="M125.008 137.252C127.418 148.358 129.223 159.588 130.413 170.89C132.027 186.291 132.5 201.791 131.827 217.262" stroke="#E94A24" stroke-miterlimit="10"/>
<path d="M144.625 73.5825C155.376 90.6189 162.358 109.758 165.103 129.715C167.553 147.221 166.877 165.023 163.107 182.293" stroke="#E94A24" stroke-miterlimit="10"/>
<path d="M51.5059 236.441C55.6358 228.792 58.6796 220.605 60.5495 212.116C62.2338 204.497 63.0085 196.706 62.8572 188.904" stroke="#E94A24" stroke-miterlimit="10"/>
<path d="M54.7793 182.283C51.1215 184.268 48.1119 187.263 46.1099 190.911C41.6712 198.874 43.0746 207.242 43.4176 209.04" stroke="#E94A24" stroke-miterlimit="10"/>
<path d="M49.385 154.217C49.5826 155.256 50.8403 162.668 46.4952 169.248C45.1002 171.417 43.1972 173.214 40.9511 174.482C38.705 175.75 36.1837 176.451 33.6055 176.524" stroke="#E94A24" stroke-miterlimit="10"/>
<path d="M74.0215 131.888C80.7682 142.228 84.5009 154.244 84.8011 166.587C85.2182 179.92 81.6692 193.078 74.6036 204.393" stroke="#E94A24" stroke-miterlimit="10"/>
<path d="M91.734 191.576C92.1706 192.47 98.6986 206.347 97.1186 216.108C96.7202 218.661 95.8758 221.124 94.6238 223.385C93.4476 225.319 91.8702 226.978 89.998 228.25" stroke="#E94A24" stroke-miterlimit="10"/>
<path d="M114.042 199.798C109.772 205.9 107.429 213.142 107.317 220.588C107.234 226.265 108.435 231.886 110.83 237.033" stroke="#E94A24" stroke-miterlimit="10"/>
<path d="M147.492 199.123C148.959 199.102 150.413 199.397 151.757 199.987C153.1 200.577 154.301 201.448 155.278 202.543C156.709 204.275 157.706 206.323 158.185 208.518C158.664 210.713 158.612 212.991 158.033 215.162" stroke="#E94A24" stroke-miterlimit="10"/>
<path d="M110.861 57.564C105.628 65.6453 101.834 74.5711 99.6447 83.9464C97.1379 94.6007 96.5919 105.622 98.0335 116.472" stroke="#E94A24" stroke-miterlimit="10"/>
<path d="M132.234 31.7949C134.528 32.4872 136.564 33.8445 138.085 35.6951C139.606 37.5456 140.544 39.806 140.779 42.1899C141.047 45.4867 140.096 48.7673 138.108 51.4102" stroke="#E94A24" stroke-miterlimit="10"/>
<path d="M113.127 262.709C113.959 257.059 116.615 251.836 120.69 247.836C124.766 243.836 130.037 241.278 135.702 240.551C141.366 239.825 147.112 240.97 152.065 243.812C157.018 246.655 160.907 251.038 163.137 256.295C163.137 261.659 162.919 266.17 162.742 269.559C162.513 273.998 162.254 277.355 161.911 281.628C161.911 282.116 161.37 288.416 160.788 294.258C159.665 305.557 158.252 316.357 156.63 326.627C155.312 330.659 152.655 334.119 149.101 336.433C145.546 338.747 141.307 339.777 137.087 339.351C132.912 338.78 129.046 336.836 126.098 333.824C123.151 330.813 121.29 326.905 120.809 322.719C118.252 302.719 115.691 282.716 113.127 262.709Z" fill="#595A5C"/>
<path d="M132.834 400.619C132.977 401.134 133.257 401.6 133.646 401.967C134.034 402.333 134.516 402.586 135.038 402.698C135.734 402.788 136.44 402.628 137.029 402.248C137.619 401.867 138.055 401.29 138.261 400.619C144.049 384.023 148.764 367.072 152.377 349.871C154.622 339.174 156.327 328.935 157.574 319.268C157.928 306.607 147.533 296.971 137.065 298.021C127.782 298.946 119.872 308.135 120.319 319.268C124.498 346.378 128.669 373.495 132.834 400.619Z" fill="#595A5C"/>
<path d="M103.106 263.988C102.274 258.338 99.618 253.115 95.5425 249.115C91.467 245.115 86.1955 242.556 80.5312 241.83C74.867 241.104 69.1205 242.249 64.1675 245.091C59.2145 247.933 55.3264 252.317 53.0957 257.574C53.0957 262.938 53.314 267.459 53.4907 270.838C53.7194 275.277 53.9793 278.634 54.3223 282.917C54.3223 283.405 54.8525 289.694 55.4346 295.536C56.5676 306.836 57.9813 317.636 59.5926 327.906C60.9173 331.932 63.5788 335.384 67.1354 337.689C70.692 339.994 74.9298 341.013 79.1455 340.578C83.3116 340.013 87.1714 338.078 90.1168 335.079C93.0621 332.079 94.9257 328.184 95.4137 324.008C97.9847 304.008 100.549 284.001 103.106 263.988Z" fill="#595A5C"/>
<path d="M83.3966 401.897C83.2514 402.411 82.9698 402.875 82.5818 403.241C82.1938 403.607 81.7138 403.861 81.1929 403.976C80.4971 404.064 79.7927 403.903 79.2034 403.523C78.6141 403.143 78.1776 402.567 77.9705 401.897C72.1824 385.305 67.4672 368.357 63.8541 351.16C61.6088 340.453 59.904 330.214 58.6566 320.546C58.2408 307.885 68.6358 298.249 79.1243 299.299C88.4174 300.224 96.328 309.424 95.881 320.546C91.7161 347.636 87.5546 374.753 83.3966 401.897Z" fill="#595A5C"/>
<path d="M135.892 154.57C134.641 153.073 133.883 151.225 133.723 149.28C133.563 147.336 134.009 145.389 134.998 143.707C137.555 139.549 142.482 139.435 142.825 139.435C152.482 147.606 162.493 156.587 172.69 166.462C182.888 176.337 192.025 185.807 200.445 195.09C201.54 197.629 201.841 200.44 201.306 203.153C200.772 205.866 199.428 208.354 197.451 210.288C195.475 212.222 192.958 213.511 190.234 213.986C187.51 214.461 184.706 214.099 182.191 212.948C177.69 208.011 145.882 166.899 135.892 154.57Z" fill="#595A5C"/>
<path d="M195.507 211.493C192.952 212.714 190.076 213.098 187.289 212.589C184.503 212.08 181.949 210.704 179.99 208.658C178.031 206.612 176.769 203.999 176.382 201.193C175.995 198.387 176.504 195.531 177.836 193.031L208.252 156.212C208.813 155.932 214.946 152.959 221.204 156.327C223.009 157.341 224.575 158.733 225.794 160.406C227.014 162.08 227.859 163.996 228.272 166.025C220.236 183.065 209.129 198.478 195.507 211.493V211.493Z" fill="#595A5C"/>
<path d="M216.152 177.106C213.639 176.66 211.345 175.392 209.63 173.5C207.916 171.609 206.879 169.202 206.681 166.657C206.484 164.112 207.137 161.573 208.539 159.44C209.941 157.307 212.012 155.699 214.427 154.871L245.404 155.11C245.81 155.088 246.21 155.218 246.526 155.474C247.566 156.306 247.254 158.676 245.747 161.306C245.004 162.499 244.177 163.638 243.273 164.715C235.133 174.726 222.254 176.649 216.152 177.106Z" fill="#595A5C"/>
<path d="M76.1624 155.807C77.773 154.707 79.0028 153.135 79.6823 151.306C80.3618 149.478 80.4576 147.484 79.9565 145.599C78.6052 140.942 73.9067 139.466 73.574 139.362C62.0668 144.622 50.0086 150.558 37.5242 157.283C25.0399 164.009 13.6781 170.693 3.05448 177.346C1.31255 179.494 0.262624 182.119 0.043152 184.876C-0.17632 187.633 0.444973 190.392 1.8251 192.788C3.20522 195.185 5.27935 197.107 7.77396 198.301C10.2686 199.495 13.0665 199.905 15.7987 199.476C21.464 195.963 63.1998 164.976 76.1624 155.807Z" fill="#595A5C"/>
<path d="M73.3663 139.372C74.7384 137.584 87.0669 122.096 108.429 122.096C129.79 122.096 141.89 137.574 143.273 139.383C150.887 161.32 156.336 183.951 159.541 206.95C162.363 227.365 163.407 247.986 162.659 268.582C161.245 269.892 148.169 281.555 131.1 277.937C124.145 276.39 117.838 272.73 113.044 267.459C111.539 268.275 109.849 268.69 108.137 268.665C106.625 268.612 105.145 268.21 103.813 267.49C98.7733 272.637 92.3191 276.171 85.2685 277.646C68.3039 281.066 55.3102 270.37 53.5431 268.862C51.7225 224.824 58.4544 180.849 73.3663 139.372V139.372Z" fill="#595A5C"/>
<path d="M73.3661 139.372C72.8671 139.227 66.8069 157.335 62.0875 177.688C59.9358 186.961 58.2934 195.807 57.0356 204.144C56.1624 209.986 54.6136 221.399 53.7924 236.108C52.8776 252.397 53.0855 268.852 53.5533 268.863C54.021 268.873 53.0959 241.139 58.4285 205.09C64.1042 166.67 73.9898 139.549 73.3661 139.372Z" fill="#818285"/>
<path d="M143.481 139.767C143.98 139.632 149.551 157.054 154.271 177.408C156.423 186.68 158.065 195.536 159.323 203.873C160.196 209.715 161.755 221.118 162.576 235.838C163.481 252.127 163.283 268.582 162.805 268.592C162.327 268.603 163.262 240.859 157.94 204.809C152.202 166.389 142.816 139.944 143.481 139.767Z" fill="#818285"/>
<path d="M108.948 149.321C147.069 149.321 177.971 118.227 177.971 79.8717C177.971 41.5162 147.069 10.4229 108.948 10.4229C70.8283 10.4229 39.9258 41.5162 39.9258 79.8717C39.9258 118.227 70.8283 149.321 108.948 149.321Z" fill="#595A5C"/>
<path d="M108.708 149.206C100.971 149.339 93.2766 148.035 86.0156 145.36C101.07 148.782 116.7 148.782 131.754 145.36C127.426 146.982 122.927 148.101 118.344 148.697C115.151 149.128 111.928 149.298 108.708 149.206V149.206Z" fill="#818285"/>
<path d="M2.84635 193.447C1.65604 190.874 1.30928 187.99 1.8556 185.208C2.40192 182.426 3.81337 179.888 5.88839 177.956C7.96342 176.024 10.5959 174.797 13.4099 174.45C16.2238 174.103 19.0754 174.655 21.5573 176.025L58.0229 206.867C58.2932 207.418 61.1414 213.593 57.763 219.809C56.7245 221.603 55.3129 223.153 53.6235 224.355C51.9342 225.557 50.0066 226.381 47.971 226.774C31.0114 218.529 15.7149 207.232 2.84635 193.447V193.447Z" fill="#595A5C"/>
<path d="M79.873 101.109C81.4993 100.864 83.1532 100.864 84.7795 101.109L83.3346 99.9238C83.3346 99.9238 80.2992 100.267 79.873 101.109Z" fill="#E2BB59"/>
<path d="M67.7324 74.1442C67.7324 74.1442 68.4081 77.1795 75.8301 79.9654C75.8301 79.9654 80.3727 82.0444 82.2334 72.6889C82.2334 72.6889 75.4039 73.1982 68.0755 65.7866C68.0755 65.7866 67.8676 71.2128 77.9715 75.3916C77.9715 75.3916 78.564 75.8905 77.9715 76.2752C77.9299 76.2959 72.1191 77.0964 67.7324 74.1442Z" fill="#E2BB59"/>
<path d="M85.0391 101.109C90.206 101.109 94.3946 94.5559 94.3946 86.4726C94.3946 78.3892 90.206 71.8364 85.0391 71.8364C79.8722 71.8364 75.6836 78.3892 75.6836 86.4726C75.6836 94.5559 79.8722 101.109 85.0391 101.109Z" fill="white"/>
<path d="M147.991 74.1442C147.991 74.1442 147.316 77.1795 139.894 79.9654C139.894 79.9654 135.351 82.0444 133.49 72.6889C133.49 72.6889 140.32 73.1982 147.648 65.7866C147.648 65.7866 147.866 71.2128 137.752 75.3916C137.752 75.3916 137.16 75.8905 137.752 76.2752C137.794 76.2959 143.605 77.0964 147.991 74.1442Z" fill="#E2BB59"/>
<path d="M136.203 101.109C134.577 100.864 132.923 100.864 131.297 101.109L132.731 99.9238C132.731 99.9238 135.819 100.267 136.203 101.109Z" fill="#E2BB59"/>
<path d="M130.695 101.109C135.862 101.109 140.051 94.5559 140.051 86.4726C140.051 78.3892 135.862 71.8364 130.695 71.8364C125.528 71.8364 121.34 78.3892 121.34 86.4726C121.34 94.5559 125.528 101.109 130.695 101.109Z" fill="white"/>
<path d="M85.2353 101.109C89.2885 101.109 92.5742 95.8683 92.5742 89.404C92.5742 82.9396 89.2885 77.6992 85.2353 77.6992C81.1822 77.6992 77.8965 82.9396 77.8965 89.404C77.8965 95.8683 81.1822 101.109 85.2353 101.109Z" fill="#231F20"/>
<path d="M80.8197 83.5204C81.8473 83.5204 82.6804 82.2173 82.6804 80.6098C82.6804 79.0023 81.8473 77.6992 80.8197 77.6992C79.792 77.6992 78.959 79.0023 78.959 80.6098C78.959 82.2173 79.792 83.5204 80.8197 83.5204Z" fill="white"/>
<path d="M130.632 101.109C134.743 101.109 138.075 95.8683 138.075 89.404C138.075 82.9396 134.743 77.6992 130.632 77.6992C126.522 77.6992 123.189 82.9396 123.189 89.404C123.189 95.8683 126.522 101.109 130.632 101.109Z" fill="#231F20"/>
<path d="M126.734 83.5204C127.761 83.5204 128.594 82.2173 128.594 80.6098C128.594 79.0023 127.761 77.6992 126.734 77.6992C125.706 77.6992 124.873 79.0023 124.873 80.6098C124.873 82.2173 125.706 83.5204 126.734 83.5204Z" fill="white"/>
<path opacity="0.57" d="M76.381 112.73C81.1575 112.73 85.0297 111.711 85.0297 110.454C85.0297 109.196 81.1575 108.177 76.381 108.177C71.6045 108.177 67.7324 109.196 67.7324 110.454C67.7324 111.711 71.6045 112.73 76.381 112.73Z" fill="#F7B1C4"/>
<path opacity="0.57" d="M141.506 112.73C146.283 112.73 150.155 111.711 150.155 110.454C150.155 109.196 146.283 108.177 141.506 108.177C136.73 108.177 132.857 109.196 132.857 110.454C132.857 111.711 136.73 112.73 141.506 112.73Z" fill="#F7B1C4"/>
<path d="M91.3711 118.551C92.5499 119.453 93.8056 120.25 95.1237 120.932C95.7786 121.285 96.4542 121.576 97.1195 121.909C97.7848 122.241 98.4917 122.46 99.1985 122.709C101.974 123.713 104.907 124.209 107.858 124.175C110.805 124.188 113.729 123.66 116.485 122.616L117.525 122.262C117.878 122.138 118.201 121.95 118.564 121.805L120.571 120.838C121.88 120.162 123.097 119.3 124.386 118.551L122.577 119.851C121.98 120.304 121.359 120.724 120.716 121.108L118.731 122.148C118.398 122.314 118.076 122.512 117.691 122.647L116.652 123.052C115.955 123.312 115.259 123.603 114.573 123.822L112.369 124.331C111.632 124.491 110.886 124.598 110.134 124.653C109.391 124.762 108.639 124.804 107.889 124.778C104.856 124.793 101.848 124.236 99.0218 123.135C96.2179 122.077 93.6266 120.525 91.3711 118.551V118.551Z" fill="white"/>
<path d="M162.731 248.821L53.459 248.083C54.2251 210.895 60.9205 174.066 73.2926 138.988C73.802 139.871 85.1949 159.029 107.69 159.341C114.884 159.421 121.969 157.576 128.21 153.998C134.452 150.419 139.623 145.237 143.188 138.988C149.41 156.991 154.183 175.463 157.461 194.227C160.608 212.264 162.37 230.515 162.731 248.821Z" fill="#1B6470"/>
<path d="M156.786 190.703L108.054 217.73L59.4787 190.62C56.5369 207.064 54.1461 224.58 52.566 243.073C48.3414 293.047 50.5774 343.358 59.2188 392.76L156.537 392.885C165.96 344.214 168.591 294.472 164.354 245.079C162.771 226.835 160.245 208.685 156.786 190.703V190.703Z" fill="#1B6470"/>
<path d="M60.6321 184.237L57.7734 200.058L108.48 226.628V210.485L60.6321 184.237Z" fill="#E2BB59"/>
<path d="M155.642 184.664L158.574 200.391L108.48 226.587V210.443L155.642 184.664Z" fill="#E2BB59"/>
<path d="M38.5859 212.532C39.3204 209.871 40.957 207.548 43.2155 205.961C45.474 204.374 48.214 203.621 50.9664 203.832C53.2784 204.103 55.4586 205.052 57.2325 206.559C59.0064 208.067 60.2947 210.065 60.9351 212.303L58.5443 243.197C58.5375 243.6 58.3862 243.988 58.1181 244.289C57.2137 245.214 54.8749 244.798 52.3489 243.114C51.1921 242.306 50.0944 241.417 49.0641 240.453C39.6774 231.617 38.6275 218.634 38.5859 212.532Z" fill="#595A5C"/>
<path d="M165.87 92.855C160.495 94.0486 155.711 97.0955 152.357 101.462C149.63 105.13 148.092 109.545 147.949 114.113C148.427 117.674 148.02 121.297 146.764 124.664C143.812 132.304 138.001 132.98 136.099 138.375C132.45 148.686 147.908 163.323 149.051 162.574C149.956 162.023 142.887 151.535 145.247 149.601C147.606 147.668 157.721 155.703 158.199 155.09C158.479 154.705 154.041 152.179 151.847 147.106C150.434 143.832 149.904 139.404 151.338 138.624C152.378 138.042 155.111 139.31 162.263 147.855C167.662 139.821 170.842 130.503 171.483 120.845C172.124 111.187 170.202 101.532 165.912 92.855H165.87Z" fill="#EB5B27" stroke="#E94A24" stroke-miterlimit="10"/>
<path d="M175.831 36.2545C179.303 39.6328 189.292 49.3521 188.014 61.7222C187.151 70.1005 181.777 73.614 177.754 88.7491C176.669 92.2903 177.016 96.1158 178.72 99.404C179.043 99.9965 181.725 104.851 185.446 104.861C189.458 104.861 191.631 99.2792 192.826 99.6638C194.24 100.121 193.596 108.707 188.98 110.059C183.294 111.701 175.706 101.306 171.662 103.042C169.687 103.905 169.365 107.398 170.696 109.809C173.128 114.196 180.841 114.622 180.644 115.527C180.446 116.431 172.265 117.606 165.893 114.487C156.704 109.976 156.07 98.8946 155.945 96.8156C155.155 82.9695 166.153 80.5787 168.138 64.5912C168.772 59.4665 170.082 48.874 162.359 41.2025C155.082 33.926 143.648 33.1568 144.084 29.768C144.396 27.4707 149.947 25.7867 154.344 25.61C164.459 25.1838 172.026 32.5538 175.831 36.2545Z" fill="#EB5B27" stroke="#E94A24" stroke-miterlimit="10"/>
<path d="M104.043 9.7367C109.604 2.55377 119.989 -0.772619 127.483 1.94047C135.914 4.9862 134.583 13.4789 143.731 17.1587C152.566 20.7138 158.512 14.6847 163.71 19.0818C167.785 22.5121 167.577 29.1025 167.359 35.9217C167.182 41.1191 167.036 45.9736 163.866 50.3915C159.656 56.2438 154.334 55.589 153.544 59.7469C152.702 64.1336 158.388 65.9839 158.242 72.4184C158.242 73.697 157.889 78.25 154.147 80.7344C150.404 83.2188 145.831 81.8779 145.248 81.6804C153.211 75.381 154.458 71.1191 153.939 68.3124C153.117 63.853 147.754 62.6368 147.889 58.6555C148.024 54.6742 153.533 54.2272 156.205 48.6347C159.095 42.5848 157.078 33.8115 153.086 32.273C149.095 30.7346 145.945 37.6056 139.874 36.8988C133.045 36.0984 132.598 26.8676 125.966 25.246C117.016 23.0735 109.781 37.8759 104.043 35.641C98.9908 33.7387 96.7766 19.1857 104.043 9.7367Z" fill="#EB5B27" stroke="#E94A24" stroke-miterlimit="10"/>
<path d="M72.3683 47.6371C75.8818 44.5913 78.3455 40.662 77.3683 37.8034C76.069 33.9469 68.2415 31.265 58.6574 34.6849C43.9069 41.1922 38.9069 48.6038 37.119 54.4354C34.8217 61.8574 38.2624 65.9634 34.7697 76.0777C31.4641 85.5995 26.5681 87.1276 27.4932 92.3459C28.751 99.7575 39.2084 99.9966 42.9609 108.063C44.8736 112.221 45.4973 119.404 37.2437 132.335C49.8944 120.994 52.3164 112.741 51.2769 106.816C49.8632 98.7388 41.7863 93.77 43.8029 90.0174C46.0067 85.8594 56.4848 90.4124 60.5908 85.3501C64.0212 81.1089 59.884 75.4748 61.0794 66.6391C62.1293 58.531 67.2436 52.2109 72.3683 47.6371Z" fill="#EB5B27" stroke="#E94A24" stroke-miterlimit="10"/>
<path d="M104.042 35.7135C108.12 31.0226 110.526 25.1105 110.882 18.9048C111.09 14.1129 110.04 9.35005 107.836 5.08988C86.36 -1.72922 77.0253 1.39967 72.4723 5.4641C67.202 10.1626 68.5014 15.963 60.3206 23.7593C52.9609 30.7655 47.8466 29.9235 46.2562 34.9651C43.9277 42.1168 53.1272 47.0232 52.7114 55.8694C52.4931 60.412 49.7073 67.1063 36.4121 74.9234C52.9193 70.4951 58.9172 64.2269 60.7364 58.4889C63.2312 50.6615 58.3455 42.6262 61.8798 40.1937C65.7467 37.5222 72.9816 46.2228 78.9899 43.5513C84.9982 40.8798 82.6906 29.3726 88.1167 27.1168C90.466 26.0981 95.019 26.7634 104.042 35.7135Z" fill="#EB5B27" stroke="#E94A24" stroke-miterlimit="10"/>
<path d="M53.2408 127.668C49.2654 128.456 45.5664 130.273 42.5132 132.938C38.9405 136.099 36.459 140.309 35.4238 144.965" fill="#EB5B27"/>
<path d="M53.2408 127.668C49.2654 128.456 45.5664 130.273 42.5132 132.938C38.9405 136.099 36.459 140.309 35.4238 144.965" stroke="#E94A24" stroke-miterlimit="10"/>
<path d="M58.0222 135.609C52.9264 136.757 48.2724 139.357 44.6231 143.094C36.6709 151.41 37.3466 161.971 37.5337 163.79" fill="#EB5B27"/>
<path d="M58.0222 135.609C52.9264 136.757 48.2724 139.357 44.6231 143.094C36.6709 151.41 37.3466 161.971 37.5337 163.79" stroke="#E94A24" stroke-miterlimit="10"/>
<path d="M63.4387 139.518C55.9439 141.129 53.2516 144.04 52.1393 146.296C49.447 151.743 54.1559 157.086 51.3805 163.416C49.6965 167.241 46.183 169.393 43.709 170.557" fill="#EB5B27"/>
<path d="M63.4387 139.518C55.9439 141.129 53.2516 144.04 52.1393 146.296C49.447 151.743 54.1559 157.086 51.3805 163.416C49.6965 167.241 46.183 169.393 43.709 170.557" stroke="#E94A24" stroke-miterlimit="10"/>
<path d="M155.186 110.807C158.74 114.458 161.057 119.135 161.807 124.175C162.444 128.786 161.722 133.482 159.728 137.689" fill="#EB5B27"/>
<path d="M155.186 110.807C158.74 114.458 161.057 119.135 161.807 124.175C162.444 128.786 161.722 133.482 159.728 137.689" stroke="#E94A24" stroke-miterlimit="10"/>
<path d="M151.444 123.832C148.414 127.021 146.555 131.144 146.173 135.526C145.972 138.253 146.377 140.99 147.358 143.541" fill="#EB5B27"/>
<path d="M151.444 123.832C148.414 127.021 146.555 131.144 146.173 135.526C145.972 138.253 146.377 140.99 147.358 143.541" stroke="#E94A24" stroke-miterlimit="10"/>
<path d="M139.706 139.695C138.998 141.793 138.83 144.035 139.217 146.215C139.604 148.395 140.533 150.443 141.921 152.169" fill="#EB5B27"/>
<path d="M186.298 117.148C186.522 121.851 186.173 126.563 185.259 131.181C183.765 138.696 180.824 145.849 176.6 152.241" fill="#EB5B27"/>
<path d="M186.298 117.148C186.522 121.851 186.173 126.563 185.259 131.181C183.765 138.696 180.824 145.849 176.6 152.241" stroke="#E94A24" stroke-miterlimit="10"/>
<path d="M175.579 132.678C172.301 136.614 169.714 141.078 167.929 145.88C165.798 151.639 164.875 157.774 165.216 163.905" fill="#EB5B27"/>
<path d="M175.579 132.678C172.301 136.614 169.714 141.078 167.929 145.88C165.798 151.639 164.875 157.774 165.216 163.905" stroke="#E94A24" stroke-miterlimit="10"/>
<path d="M102.066 17.1069C101.639 16.7223 94.103 10.2358 84.5085 12.9489C81.0738 13.9445 78.0042 15.9205 75.6759 18.6347C73.3476 21.3489 71.8618 24.6834 71.4004 28.2296" fill="#EB5B27"/>
<path d="M102.066 17.1069C101.639 16.7223 94.103 10.2358 84.5085 12.9489C81.0738 13.9445 78.0042 15.9205 75.6759 18.6347C73.3476 21.3489 71.8618 24.6834 71.4004 28.2296" stroke="#E94A24" stroke-miterlimit="10"/>
<path d="M61.8482 31.0358C60.0041 31.0133 58.195 31.54 56.6512 32.5489C55.1073 33.5578 53.8986 35.0032 53.1788 36.7011C52.7333 37.9954 52.5833 39.3731 52.7398 40.733C52.8963 42.0928 53.3553 43.4004 54.0831 44.5597" fill="#EB5B27"/>
<path d="M61.8482 31.0358C60.0041 31.0133 58.195 31.54 56.6512 32.5489C55.1073 33.5578 53.8986 35.0032 53.1788 36.7011C52.7333 37.9954 52.5833 39.3731 52.7398 40.733C52.8963 42.0928 53.3553 43.4004 54.0831 44.5597" stroke="#E94A24" stroke-miterlimit="10"/>
<path d="M114.062 23.8322C114.218 23.1566 115.871 16.6389 121.62 14.4768C127.368 12.3146 135.299 15.3395 138.948 22.5537" fill="#EB5B27"/>
<path d="M114.062 23.8322C114.218 23.1566 115.871 16.6389 121.62 14.4768C127.368 12.3146 135.299 15.3395 138.948 22.5537" stroke="#E94A24" stroke-miterlimit="10"/>
<path d="M143.615 31.4726C143.615 30.5267 143.969 25.745 147.17 23.8323C151.058 21.5038 158.553 23.8323 162.95 31.2543" fill="#EB5B27"/>
<path d="M143.615 31.4726C143.615 30.5267 143.969 25.745 147.17 23.8323C151.058 21.5038 158.553 23.8323 162.95 31.2543" stroke="#E94A24" stroke-miterlimit="10"/>
<path d="M173.47 46.6079C177.134 53.6863 178.5 61.7311 177.378 69.6224C175.993 78.501 171.587 86.6299 164.904 92.6369" fill="#EB5B27"/>
<path d="M173.47 46.6079C177.134 53.6863 178.5 61.7311 177.378 69.6224C175.993 78.501 171.587 86.6299 164.904 92.6369" stroke="#E94A24" stroke-miterlimit="10"/>
<path d="M51.3701 73.749C47.1134 74.9363 43.3497 77.4576 40.6321 80.9424C38.6335 83.578 37.3289 86.6733 36.8379 89.9444" fill="#EB5B27"/>
<path d="M51.3701 73.749C47.1134 74.9363 43.3497 77.4576 40.6321 80.9424C38.6335 83.578 37.3289 86.6733 36.8379 89.9444" stroke="#E94A24" stroke-miterlimit="10"/>
<path d="M42.2129 98.562C43.4134 99.0351 44.4873 99.7811 45.3497 100.741C46.2121 101.701 46.8393 102.848 47.1817 104.092C47.5604 105.942 47.2341 107.866 46.2669 109.487" fill="#EB5B27"/>
<path d="M42.2129 98.562C43.4134 99.0351 44.4873 99.7811 45.3497 100.741C46.2121 101.701 46.8393 102.848 47.1817 104.092C47.5604 105.942 47.2341 107.866 46.2669 109.487" stroke="#E94A24" stroke-miterlimit="10"/>
<path d="M30.4236 106.015C31.8947 107.074 33.0908 108.47 33.9118 110.086C34.7328 111.702 35.1549 113.491 35.1427 115.304C35.1305 117.117 34.6843 118.9 33.8416 120.505C32.9989 122.11 31.7841 123.489 30.2988 124.529" fill="#EB5B27"/>
<path d="M30.4236 106.015C31.8947 107.074 33.0908 108.47 33.9118 110.086C34.7328 111.702 35.1549 113.491 35.1427 115.304C35.1305 117.117 34.6843 118.9 33.8416 120.505C32.9989 122.11 31.7841 123.489 30.2988 124.529" stroke="#E94A24" stroke-miterlimit="10"/>
</svg>
