<svg width="251" height="416" viewBox="0 0 251 416" fill="none" xmlns="http://www.w3.org/2000/svg">
<path d="M200.22 81.4717C200.584 84.4158 200.337 84.3767 200.623 85.7315C201.262 88.7147 202.343 89.835 201.848 93.196C200.545 102.419 190.749 105.155 191.817 110.509C192.664 114.847 199.451 115.107 199.399 118.325C199.399 121.92 190.892 122.09 184.222 130.609C182.4 132.905 181.106 135.573 180.432 138.425C179.845 140.927 179.22 145.916 180.966 146.815C183.35 148.039 188.039 140.64 189.368 141.5C190.697 142.36 188.521 152.82 183.141 154.357C178.217 155.764 174.218 148.743 169.58 150.449C166.519 151.583 165.672 155.556 164.695 157.992C159.263 170.693 130.942 177.897 109.982 170.003C94.05 164.049 87.5105 151.426 77.6621 154.931C72.9854 156.598 68.5433 161.561 63.8405 159.672C60.7922 158.461 60.4275 155.543 57.6006 155.204C53.1715 154.67 50.2925 161.366 48.104 160.506C45.1729 159.373 48.2733 146.554 45.9415 145.708C43.6097 144.861 39.1024 159.099 33.2012 158.839C28.7981 158.643 24.0823 150.462 25.6065 144.587C26.9092 139.376 32.8625 136.498 32.654 136.211C32.4456 135.924 26.7659 142.008 22.6233 140.679C17.8685 139.155 15.5627 127.978 17.7382 118.859C19.575 111.225 24.9942 106.418 23.7045 105.168C22.9881 104.464 20.6693 105.363 19.2233 106.666C17.4125 108.294 17.3734 110.157 15.9665 115.277C14.7681 119.641 14.1558 121.79 13.6608 121.79C12.6837 121.712 11.355 113.166 13.6608 104.555C14.8287 100.357 16.7103 96.3913 19.2233 92.8312C23.444 86.8518 25.4241 87.7507 26.9613 84.1683C29.9835 77.1728 22.6103 72.6786 24.5252 63.5858C26.1536 55.7696 33.2142 51.4446 32.1069 50.181C31.4686 49.4515 28.6808 50.4546 26.7007 52.1481C22.011 56.1604 22.7926 63.2731 22.011 63.2471C21.2294 63.221 19.8616 57.8278 21.8417 52.4998C22.8061 50.0705 24.2862 47.8793 26.1796 46.0775C28.65 43.5514 31.5877 41.5295 34.8295 40.1242C39.3629 37.9748 40.1315 39.3687 42.7629 37.3756C50.7485 31.305 53.9661 23.5279 58.6428 17.2489C60.2711 15.0865 68.2436 4.41741 79.2514 1.61661C92.0048 -1.64012 95.7174 9.00289 113.682 10.2795C130.721 11.491 133.222 2.34612 148.932 4.97756C151.382 5.3814 168.473 8.48181 176.289 22.0168C180.666 29.5464 178.425 33.8322 180.132 39.8898C180.726 41.7429 181.53 43.5218 182.529 45.1917C187.245 53.7374 192.143 54.2064 199.36 63.234C203.854 68.8617 204.805 72.2487 205.105 73.5253C205.862 76.8715 205.813 80.3498 204.961 83.6733C204.427 85.7315 203.463 88.1545 202.994 88.0634C202.33 87.9331 203.359 83.1392 201.783 76.2479C201.639 75.6617 201.535 75.2318 201.483 75.0755C200.18 70.4379 197.875 65.8785 197.08 66.113C196.285 66.3475 196.22 70.6073 197.849 74.1376C198.737 75.6992 199.399 77.3791 199.816 79.1269C199.998 79.7782 200.076 80.3123 200.22 81.4717Z" fill="black" stroke="#232222" stroke-miterlimit="10"/>
<path d="M75.2148 25.7427C64.5573 38.2052 57.6097 53.4075 55.1618 69.6218C52.7139 85.8362 54.8638 102.412 61.3672 117.465" stroke="#232222" stroke-width="0.5" stroke-miterlimit="10"/>
<path d="M160.994 40.9189C167.178 56.8967 170.069 73.9593 169.494 91.0823C168.918 108.205 164.889 125.035 157.646 140.562" stroke="#232222" stroke-width="0.5" stroke-miterlimit="10"/>
<path d="M110.191 26.3677C105.044 34.5539 101.891 43.8345 100.986 53.462C100.081 63.0896 101.449 72.7952 104.981 81.7973" stroke="#232222" stroke-width="0.5" stroke-miterlimit="10"/>
<path d="M124.701 44.8789C127.541 55.4145 128.858 66.3028 128.609 77.2118C128.294 92.4684 124.951 107.51 118.773 121.464" stroke="#232222" stroke-width="0.5" stroke-miterlimit="10"/>
<path d="M81.816 60.7197C76.3085 70.215 72.9304 80.7939 71.9156 91.7238C70.6402 106.833 73.8531 121.982 81.1517 135.273" stroke="#232222" stroke-width="0.5" stroke-miterlimit="10"/>
<path d="M39.5841 64.667C36.7312 70.3207 30.1917 85.2105 33.6438 103.605C34.9229 110.367 37.3788 116.853 40.8998 122.767" stroke="#232222" stroke-width="0.5" stroke-miterlimit="10"/>
<path d="M138.564 23.7627C145.729 36.0883 149.825 49.9563 150.505 64.1968C151.185 78.4373 148.43 92.6325 142.473 105.585" stroke="#232222" stroke-width="0.5" stroke-miterlimit="10"/>
<path d="M133.95 125.373C134.749 131.526 133.583 137.774 130.618 143.225C127.654 148.676 123.044 153.051 117.445 155.725" stroke="#232222" stroke-width="0.5" stroke-miterlimit="10"/>
<path d="M96.9951 95.0327C92.668 102.468 90.839 111.094 91.7769 119.645C92.7148 128.197 96.3701 136.222 102.206 142.542" stroke="#232222" stroke-width="0.5" stroke-miterlimit="10"/>
<path d="M187.831 120.461C184.056 123.198 180.956 126.76 178.764 130.875C176.572 134.99 175.347 139.55 175.182 144.21" stroke="#232222" stroke-width="0.5" stroke-miterlimit="10"/>
<path d="M153.963 159.503C155.884 159.067 157.672 158.173 159.174 156.897C161.64 154.689 163.172 151.624 163.46 148.326" stroke="#232222" stroke-width="0.5" stroke-miterlimit="10"/>
<path d="M152.307 152.247C160.578 148.32 166.977 141.303 170.127 132.707" stroke="#232222" stroke-width="0.5" stroke-miterlimit="10"/>
<path d="M187.283 102.093C185.692 112.284 181.165 121.791 174.256 129.45" stroke="#232222" stroke-width="0.5" stroke-miterlimit="10"/>
<path d="M36.6404 138.308C35.4684 139.194 34.4863 140.306 33.7523 141.579C33.0183 142.851 32.5475 144.258 32.3676 145.716C32.1878 147.174 32.3027 148.653 32.7055 150.066C33.1083 151.479 33.7908 152.796 34.7124 153.94" stroke="#232222" stroke-width="0.5" stroke-miterlimit="10"/>
<path d="M42.6584 126.818C43.8368 130.116 44.1586 133.66 43.5935 137.116C43.0284 140.573 41.5951 143.829 39.4277 146.58" stroke="#232222" stroke-width="0.5" stroke-miterlimit="10"/>
<path d="M114.436 272.876C115.272 267.156 117.957 261.867 122.08 257.815C126.203 253.763 131.537 251.17 137.271 250.432C143.004 249.694 148.822 250.852 153.836 253.728C158.851 256.604 162.787 261.041 165.045 266.363C165.045 271.795 164.811 276.354 164.641 279.78C164.407 284.275 164.146 287.675 163.795 292C163.795 292.495 163.261 298.865 162.674 304.766C161.528 316.204 160.069 327.133 158.467 337.516C157.126 341.587 154.434 345.077 150.837 347.409C147.241 349.74 142.955 350.772 138.692 350.334C134.477 349.765 130.572 347.81 127.591 344.777C124.61 341.744 122.722 337.805 122.226 333.582C119.62 313.355 117.024 293.12 114.436 272.876Z" fill="#595A5C"/>
<path d="M134.382 412.408C134.526 412.929 134.809 413.401 135.202 413.773C135.594 414.145 136.081 414.403 136.609 414.518C137.314 414.607 138.027 414.444 138.623 414.058C139.219 413.672 139.659 413.087 139.866 412.408C145.738 395.62 150.525 378.471 154.196 361.069C156.475 350.243 158.195 339.887 159.485 330.104C159.849 317.285 149.337 307.541 138.746 308.596C129.34 309.534 121.342 318.836 121.811 330.104L134.382 412.408Z" fill="#595A5C"/>
<path d="M104.315 274.179C103.478 268.459 100.793 263.17 96.6705 259.118C92.5477 255.065 87.2128 252.473 81.4793 251.735C75.7458 250.997 69.9283 252.154 64.9138 255.031C59.8993 257.907 55.963 262.344 53.7051 267.665C53.7051 273.085 53.9265 277.657 54.1089 281.083C54.3304 285.564 54.6039 288.899 54.9426 293.289C54.9426 293.784 55.4898 300.155 56.076 306.069C57.2224 317.507 58.6249 328.423 60.2837 338.819C61.6267 342.888 64.319 346.377 67.915 348.708C71.5111 351.039 75.7953 352.073 80.0586 351.637C84.275 351.067 88.1818 349.11 91.1632 346.074C94.1445 343.039 96.0308 339.097 96.5246 334.871C99.1213 314.645 101.718 294.414 104.315 274.179Z" fill="#595A5C"/>
<path d="M84.3719 413.698C84.2237 414.315 83.8719 414.865 83.3732 415.258C82.8746 415.651 82.2582 415.864 81.6232 415.864C80.9883 415.864 80.3719 415.651 79.8732 415.258C79.3746 414.865 79.0228 414.315 78.8746 413.698C73.0068 396.908 68.2204 379.76 64.5449 362.359C62.2652 351.533 60.5457 341.177 59.243 331.393C58.8912 318.588 69.404 308.844 79.9949 309.899C89.4003 310.837 97.3989 320.138 96.9299 331.393L84.3719 413.698Z" fill="#595A5C"/>
<path d="M137.481 163.463C136.213 161.951 135.444 160.084 135.281 158.117C135.118 156.151 135.567 154.182 136.569 152.482C137.456 151.189 138.636 150.124 140.012 149.373C141.388 148.621 142.922 148.205 144.489 148.157C154.259 156.416 164.394 165.509 174.699 175.513C185.003 185.518 194.239 195.054 202.785 204.485C203.89 207.054 204.191 209.898 203.649 212.642C203.107 215.385 201.746 217.901 199.747 219.856C197.748 221.812 195.203 223.116 192.448 223.598C189.693 224.079 186.857 223.715 184.313 222.554C179.792 217.538 147.59 175.943 137.481 163.463Z" fill="#595A5C"/>
<path d="M197.796 221.016C195.21 222.237 192.305 222.612 189.493 222.09C186.681 221.568 184.105 220.174 182.129 218.106C180.154 216.038 178.879 213.401 178.485 210.568C178.092 207.736 178.599 204.851 179.936 202.323L210.719 165.079C212.766 164.092 215.013 163.589 217.285 163.609C219.558 163.629 221.795 164.172 223.824 165.196C225.653 166.222 227.239 167.63 228.473 169.326C229.707 171.021 230.561 172.963 230.976 175.018C222.824 192.252 211.577 207.843 197.796 221.016Z" fill="#595A5C"/>
<path d="M218.68 186.273C216.14 185.818 213.823 184.533 212.091 182.619C210.36 180.706 209.313 178.272 209.113 175.699C208.913 173.126 209.573 170.56 210.988 168.403C212.404 166.245 214.495 164.618 216.934 163.776L248.277 164.023C248.688 163.992 249.095 164.123 249.41 164.388C250.4 165.235 250.153 167.619 248.616 170.289C247.887 171.515 247.064 172.682 246.154 173.781C237.881 183.863 224.855 185.817 218.68 186.273Z" fill="#595A5C"/>
<path d="M77.0499 164.727C78.6783 163.609 79.9207 162.015 80.6065 160.163C81.2923 158.311 81.3878 156.292 80.8798 154.383C80.37 152.894 79.5137 151.546 78.3813 150.452C77.2488 149.358 75.8727 148.549 74.3663 148.091C62.7202 153.406 50.514 159.412 37.8909 166.225C25.2678 173.038 13.8301 179.773 3.08291 186.508C1.32335 188.682 0.263559 191.339 0.0430888 194.127C-0.177381 196.916 0.451802 199.705 1.8478 202.129C3.24379 204.553 5.34114 206.498 7.86369 207.706C10.3862 208.915 13.2157 209.332 15.9796 208.901C21.7114 205.345 63.9317 174.002 77.0499 164.727Z" fill="#595A5C"/>
<path d="M74.2743 148.092C75.577 146.294 88.0699 130.583 109.695 130.583C131.319 130.583 143.565 146.216 144.945 148.066C152.652 170.27 158.163 193.177 161.398 216.457C164.274 237.111 165.346 257.977 164.603 278.817C163.17 280.12 149.948 291.948 132.674 288.301C125.652 286.726 119.284 283.028 114.436 277.71C112.901 278.504 111.188 278.894 109.46 278.843C107.929 278.792 106.431 278.387 105.083 277.658C99.9822 282.873 93.4497 286.459 86.3112 287.962C69.0636 291.453 55.9585 280.628 54.1738 279.091C52.3563 234.536 59.1821 190.051 74.2743 148.092V148.092Z" fill="#595A5C"/>
<path d="M74.2759 148.091C73.7679 147.948 67.6452 166.329 62.8643 186.859C60.6888 196.239 58.9563 205.201 57.7578 213.63C56.8589 219.544 55.2957 231.086 54.462 245.963C53.4328 262.442 53.6934 279.09 54.1754 279.09C54.6574 279.09 53.7064 251.043 59.0996 214.568C64.8444 175.708 74.8491 148.274 74.2759 148.091Z" fill="#818285"/>
<path d="M145.102 148.495C145.61 148.352 151.237 165.991 156.018 186.586C158.194 195.966 159.926 204.915 161.125 213.357C162.011 219.258 163.587 230.8 164.421 245.689C165.332 262.169 165.137 278.817 164.655 278.83C164.173 278.843 165.124 250.77 159.731 214.308C153.986 175.435 144.476 148.678 145.102 148.495Z" fill="#818285"/>
<path d="M110.216 158.148C148.786 158.148 180.054 126.694 180.054 87.8939C180.054 49.0936 148.786 17.6396 110.216 17.6396C71.6462 17.6396 40.3789 49.0936 40.3789 87.8939C40.3789 126.694 71.6462 158.148 110.216 158.148Z" fill="#595A5C"/>
<path d="M109.982 158.044C107.586 158.085 105.189 157.989 102.804 157.758C97.4114 157.226 92.1068 156.018 87.0156 154.162C102.256 157.61 118.073 157.61 133.313 154.162C128.931 155.798 124.377 156.93 119.739 157.536C116.506 157.967 113.243 158.137 109.982 158.044V158.044Z" fill="#818285"/>
<path d="M164.799 258.834L54.252 258.091C54.7835 221.031 61.5523 184.324 74.2744 149.512C75.3816 151.127 87.3013 167.945 109.082 168.31C131.41 168.687 143.995 151.375 145.011 149.955C151.301 167.409 156.124 185.357 159.431 203.613C162.755 221.838 164.55 240.309 164.799 258.834V258.834Z" fill="white"/>
<path d="M158.794 200.082L109.448 227.425L60.3361 199.952C57.34 216.561 54.943 234.317 53.3407 253.036C49.0691 303.6 51.3371 354.504 60.0886 404.488L158.533 404.605C168.068 355.365 170.733 305.041 166.454 255.069C164.846 236.62 162.289 218.267 158.794 200.082V200.082Z" fill="#1293A9"/>
<path d="M61.5066 193.503L58.6406 209.461L109.941 236.349V220.013L61.5066 193.503Z" fill="#36BACE"/>
<path d="M157.649 193.933L160.619 209.852L109.918 236.349V220.013L157.649 193.933Z" fill="#36BACE"/>
<path d="M2.87458 202.805C1.68348 200.206 1.34077 197.298 1.89505 194.493C2.44932 191.689 3.87244 189.13 5.9626 187.18C8.05276 185.229 10.7039 183.986 13.54 183.627C16.3762 183.268 19.2534 183.811 21.7636 185.179L58.6559 216.444C59.6151 218.504 60.0892 220.756 60.0418 223.028C59.9943 225.3 59.4267 227.531 58.3823 229.549C57.3335 231.363 55.9064 232.93 54.1981 234.144C52.4898 235.358 50.5402 236.19 48.4819 236.583C41.2308 233.051 34.2625 228.966 27.6388 224.364C18.6478 218.07 10.347 210.843 2.87458 202.805V202.805Z" fill="#595A5C"/>
<path d="M39.0254 222.098C39.7706 219.418 41.4211 217.078 43.6963 215.477C45.9714 213.877 48.7308 213.114 51.5052 213.318C53.8453 213.589 56.0524 214.548 57.8472 216.074C59.642 217.599 60.9439 219.623 61.588 221.889L59.2302 253.154C59.2179 253.568 59.0612 253.964 58.7873 254.274C57.8754 255.199 55.5045 254.782 52.9512 253.076C51.7845 252.277 50.6786 251.393 49.6423 250.431C40.1327 241.417 39.1036 228.286 39.0254 222.098Z" fill="#595A5C"/>
<path d="M80.7871 109.376C82.4324 109.13 84.1051 109.13 85.7504 109.376L84.3044 108.177C84.3044 108.177 81.23 108.529 80.7871 109.376Z" fill="#E35A97"/>
<path d="M68.5156 82.0972C68.5156 82.0972 69.206 85.1716 76.7096 87.9854C76.7096 87.9854 81.3081 90.1218 83.223 80.6512C83.223 80.6512 76.3188 81.1593 68.8934 73.6558C68.8934 73.6558 68.6719 79.1662 78.9111 83.3869C78.9111 83.3869 79.4973 83.8949 78.9111 84.2727C78.833 84.2727 72.9708 85.0804 68.5156 82.0972Z" fill="#E35A97"/>
<path d="M86.0233 109.388C91.2538 109.388 95.4939 102.757 95.4939 94.5768C95.4939 86.3965 91.2538 79.7651 86.0233 79.7651C80.7929 79.7651 76.5527 86.3965 76.5527 94.5768C76.5527 102.757 80.7929 109.388 86.0233 109.388Z" fill="white"/>
<path d="M149.714 82.0972C149.714 82.0972 149.037 85.1716 141.533 87.9854C141.533 87.9854 136.921 90.1218 135.02 80.6512C135.02 80.6512 141.937 81.1593 149.349 73.6558C149.349 73.6558 149.558 79.1662 139.331 83.3869C139.331 83.3869 138.732 83.8949 139.331 84.2727C139.41 84.2727 145.285 85.0804 149.714 82.0972Z" fill="#E35A97"/>
<path d="M137.832 109.376C136.187 109.13 134.514 109.13 132.869 109.376L134.328 108.177C134.328 108.177 137.403 108.529 137.832 109.376Z" fill="#E35A97"/>
<path d="M132.219 109.388C137.449 109.388 141.689 102.757 141.689 94.5768C141.689 86.3965 137.449 79.7651 132.219 79.7651C126.988 79.7651 122.748 86.3965 122.748 94.5768C122.748 102.757 126.988 109.388 132.219 109.388Z" fill="white"/>
<path d="M86.2203 109.375C90.3212 109.375 93.6456 104.074 93.6456 97.5339C93.6456 90.994 90.3212 85.6924 86.2203 85.6924C82.1194 85.6924 78.7949 90.994 78.7949 97.5339C78.7949 104.074 82.1194 109.375 86.2203 109.375Z" fill="#231F20"/>
<path d="M81.7645 91.5806C82.8006 91.5806 83.6404 90.2624 83.6404 88.6365C83.6404 87.0105 82.8006 85.6924 81.7645 85.6924C80.7285 85.6924 79.8887 87.0105 79.8887 88.6365C79.8887 90.2624 80.7285 91.5806 81.7645 91.5806Z" fill="white"/>
<path d="M132.166 109.375C136.325 109.375 139.696 104.074 139.696 97.5339C139.696 90.994 136.325 85.6924 132.166 85.6924C128.008 85.6924 124.637 90.994 124.637 97.5339C124.637 104.074 128.008 109.375 132.166 109.375Z" fill="#231F20"/>
<path d="M128.22 91.5806C129.256 91.5806 130.096 90.2624 130.096 88.6365C130.096 87.0105 129.256 85.6924 128.22 85.6924C127.184 85.6924 126.344 87.0105 126.344 88.6365C126.344 90.2624 127.184 91.5806 128.22 91.5806Z" fill="white"/>
<path opacity="0.57" d="M77.2697 121.139C82.1045 121.139 86.0238 120.107 86.0238 118.833C86.0238 117.56 82.1045 116.527 77.2697 116.527C72.435 116.527 68.5156 117.56 68.5156 118.833C68.5156 120.107 72.435 121.139 77.2697 121.139Z" fill="#F7B1C4"/>
<path opacity="0.57" d="M143.149 121.139C147.983 121.139 151.903 120.107 151.903 118.833C151.903 117.56 147.983 116.527 143.149 116.527C138.314 116.527 134.395 117.56 134.395 118.833C134.395 120.107 138.314 121.139 143.149 121.139Z" fill="#F7B1C4"/>
<path d="M92.4355 127.027C93.6346 127.929 94.912 128.723 96.2524 129.398C96.9038 129.763 97.5551 130.049 98.2716 130.388C98.9881 130.727 99.6525 130.935 100.356 131.182C106.012 133.16 112.177 133.128 117.812 131.091C119.227 130.591 120.603 129.986 121.929 129.281C123.231 128.603 124.534 127.73 125.837 126.988C124.625 127.874 123.427 128.812 122.137 129.593C120.827 130.366 119.459 131.036 118.047 131.599C117.343 131.86 116.64 132.159 115.91 132.381L113.682 132.902C112.936 133.069 112.179 133.178 111.416 133.228C110.657 133.343 109.89 133.386 109.123 133.358C106.066 133.368 103.034 132.803 100.187 131.691C97.3393 130.623 94.712 129.043 92.4355 127.027V127.027Z" fill="white"/>
<path d="M161.66 385.911H57.1445C58.1259 392.112 59.1073 398.317 60.0886 404.527L158.533 404.644L161.66 385.911Z" fill="#3E57A5"/>
<path d="M81.178 114.716C93.8117 114.716 104.053 104.475 104.053 91.8411C104.053 79.2074 93.8117 68.9658 81.178 68.9658C68.5444 68.9658 58.3027 79.2074 58.3027 91.8411C58.3027 104.475 68.5444 114.716 81.178 114.716Z" stroke="#4EB748" stroke-width="3" stroke-miterlimit="10"/>
<path d="M140.075 114.977C152.708 114.977 162.95 104.736 162.95 92.1019C162.95 79.4682 152.708 69.2266 140.075 69.2266C127.441 69.2266 117.199 79.4682 117.199 92.1019C117.199 104.736 127.441 114.977 140.075 114.977Z" stroke="#4EB748" stroke-width="3" stroke-miterlimit="10"/>
<path d="M104.068 91.8414C104.699 90.7397 105.588 89.8081 106.66 89.1271C107.731 88.4462 108.952 88.0365 110.217 87.9333C111.662 87.8798 113.092 88.2494 114.33 88.9969C115.568 89.7444 116.561 90.8371 117.186 92.141" stroke="#4EB748" stroke-width="3" stroke-miterlimit="10"/>
<path d="M109.603 399.407C112.028 399.407 113.993 397.581 113.993 395.329C113.993 393.077 112.028 391.252 109.603 391.252C107.178 391.252 105.213 393.077 105.213 395.329C105.213 397.581 107.178 399.407 109.603 399.407Z" fill="#B04998"/>
<path d="M88.7338 399.199C91.1584 399.199 93.1239 397.373 93.1239 395.121C93.1239 392.869 91.1584 391.044 88.7338 391.044C86.3092 391.044 84.3438 392.869 84.3438 395.121C84.3438 397.373 86.3092 399.199 88.7338 399.199Z" fill="#B04998"/>
<path d="M70.8627 398.808C73.2873 398.808 75.2528 396.982 75.2528 394.73C75.2528 392.478 73.2873 390.653 70.8627 390.653C68.4382 390.653 66.4727 392.478 66.4727 394.73C66.4727 396.982 68.4382 398.808 70.8627 398.808Z" fill="#B04998"/>
<path d="M147.527 399.85C149.951 399.85 151.917 398.025 151.917 395.773C151.917 393.521 149.951 391.695 147.527 391.695C145.102 391.695 143.137 393.521 143.137 395.773C143.137 398.025 145.102 399.85 147.527 399.85Z" fill="#B04998"/>
<path d="M129.652 399.459C132.076 399.459 134.042 397.633 134.042 395.382C134.042 393.13 132.076 391.304 129.652 391.304C127.227 391.304 125.262 393.13 125.262 395.382C125.262 397.633 127.227 399.459 129.652 399.459Z" fill="#B04998"/>
<path d="M123.779 12.8719C130.292 13.2497 133.327 24.4138 135.685 32.9074C136.876 36.8066 137.205 40.9182 136.649 44.9573C136.397 46.7347 135.96 48.481 135.346 50.168C135.477 43.5113 133.549 40.5151 131.699 39.017C127.791 35.8645 122.45 37.8315 116.145 34.4054C113.898 33.2355 112.052 31.421 110.843 29.1947C110.601 28.791 110.425 28.3512 110.322 27.892C108.941 22.1341 116.34 12.4551 123.779 12.8719Z" fill="black" stroke="#232222" stroke-width="0.5" stroke-miterlimit="10"/>
<path d="M110.308 27.8918C111.728 25.7944 115.063 20.766 113.37 17.0273C110.764 11.2954 98.2322 12.7023 94.0897 13.1192C88.1233 13.7966 62.4733 17.7438 49.7069 41.7003C44.9139 50.9284 42.7081 61.2819 43.3237 71.6623C49.3936 64.4491 56.1807 57.8715 63.5806 52.0307C78.8872 39.9156 97.0598 30.8489 98.141 32.4903C98.7142 33.324 94.5326 37.2712 91.6276 39.5509C88.1551 42.2586 84.1651 44.227 79.9033 45.3348C79.9033 45.3348 100.33 42.6382 110.308 27.8918Z" fill="black" stroke="#232222" stroke-width="0.5" stroke-miterlimit="10"/>
<path d="M131.893 17.6269C132.583 17.171 140.582 12.0514 149.544 15.9465C152.715 17.3728 155.448 19.6194 157.461 22.4543C159.473 25.2893 160.693 28.61 160.995 32.0738C161.532 34.6951 162.277 37.2695 163.222 39.7727C164.468 43.8222 166.495 47.5884 169.189 50.8586C171.893 53.895 175.302 56.2211 179.115 57.6327C174.929 58.7623 170.566 59.0894 166.258 58.5966C147.225 56.33 136.7 38.2616 135.045 35.3305C134.003 29.4337 132.952 23.5325 131.893 17.6269Z" fill="black" stroke="#232222" stroke-width="0.5" stroke-miterlimit="10"/>
<path d="M173.788 58.3228C173.136 59.6254 168.369 69.9037 173.254 81.0548C176.088 87.3998 181.306 92.3743 187.779 94.9024" fill="black"/>
<path d="M173.788 58.3228C173.136 59.6254 168.369 69.9037 173.254 81.0548C176.088 87.3998 181.306 92.3743 187.779 94.9024" stroke="#232222" stroke-width="0.5" stroke-miterlimit="10"/>
<path d="M40.4052 67.3506C42.7022 71.3006 43.861 75.8094 43.7531 80.3775C43.456 86.9928 40.5913 93.2316 35.7676 97.7685" fill="black"/>
<path d="M40.4052 67.3506C42.7022 71.3006 43.861 75.8094 43.7531 80.3775C43.456 86.9928 40.5913 93.2316 35.7676 97.7685" stroke="#232222" stroke-width="0.5" stroke-miterlimit="10"/>
<path d="M37.6816 109.975C42.5132 113.146 46.4689 117.483 49.1844 122.585C52.6948 129.345 53.9935 137.036 52.8971 144.574" fill="black"/>
<path d="M37.6816 109.975C42.5132 113.146 46.4689 117.483 49.1844 122.585C52.6948 129.345 53.9935 137.036 52.8971 144.574" stroke="#232222" stroke-width="0.5" stroke-miterlimit="10"/>
<path d="M30.621 105.194C27.0847 113.032 26.6884 121.928 29.5137 130.049Z" fill="black"/>
<path d="M30.621 105.194C27.0847 113.032 26.6884 121.928 29.5137 130.049" stroke="#232222" stroke-width="0.5" stroke-miterlimit="10"/>
<path d="M52.207 51.119C54.4086 46.8071 61.86 33.5196 77.6877 26.6674C84.8874 23.5591 92.7266 22.219 100.55 22.7594" fill="black"/>
<path d="M52.207 51.119C54.4086 46.8071 61.86 33.5196 77.6877 26.6674C84.8874 23.5591 92.7266 22.219 100.55 22.7594" stroke="#232222" stroke-width="0.5" stroke-miterlimit="10"/>
<path d="M28.7715 64.5889C31.5675 66.7138 33.6783 69.6127 34.842 72.9261C38.1769 82.6833 31.2857 91.5025 30.7907 92.0106" fill="black"/>
<path d="M28.7715 64.5889C31.5675 66.7138 33.6783 69.6127 34.842 72.9261C38.1769 82.6833 31.2857 91.5025 30.7907 92.0106" stroke="#232222" stroke-width="0.5" stroke-miterlimit="10"/>
<path d="M119.646 19.5679C122.511 21.3291 124.584 24.1298 125.43 27.384C126.187 30.3769 125.883 33.5394 124.571 36.3335" fill="black"/>
<path d="M119.646 19.5679C122.511 21.3291 124.584 24.1298 125.43 27.384C126.187 30.3769 125.883 33.5394 124.571 36.3335" stroke="#232222" stroke-width="0.5" stroke-miterlimit="10"/>
<path d="M143.096 24.3354C142.821 29.573 144.134 34.7716 146.861 39.2513C150.108 44.4454 155.153 48.262 161.034 49.9725" fill="black"/>
<path d="M143.096 24.3354C142.821 29.573 144.134 34.7716 146.861 39.2513C150.108 44.4454 155.153 48.262 161.034 49.9725" stroke="#232222" stroke-width="0.5" stroke-miterlimit="10"/>
<path d="M178.4 67.2725C182.099 69.1655 184.98 72.343 186.503 76.2089C187.973 80.0291 188.079 84.2395 186.803 88.1286" fill="black"/>
<path d="M178.4 67.2725C182.099 69.1655 184.98 72.343 186.503 76.2089C187.973 80.0291 188.079 84.2395 186.803 88.1286" stroke="#232222" stroke-width="0.5" stroke-miterlimit="10"/>
<path d="M166.531 22.8506C169.209 25.9724 170.92 29.8064 171.455 33.8844C171.89 37.3068 171.492 40.7835 170.296 44.0194" fill="black"/>
<path d="M166.531 22.8506C169.209 25.9724 170.92 29.8064 171.455 33.8844C171.89 37.3068 171.492 40.7835 170.296 44.0194" stroke="#232222" stroke-width="0.5" stroke-miterlimit="10"/>
<path d="M84.9162 8.54678C81.3034 8.35893 77.7036 9.11112 74.4683 10.7299C71.233 12.3487 68.4727 14.7788 66.457 17.7829" fill="black"/>
<path d="M84.9162 8.54678C81.3034 8.35893 77.7036 9.11112 74.4683 10.7299C71.233 12.3487 68.4727 14.7788 66.457 17.7829" stroke="#232222" stroke-width="0.5" stroke-miterlimit="10"/>
</svg>
