<svg width="246" height="401" viewBox="0 0 246 401" fill="none" xmlns="http://www.w3.org/2000/svg">
<path d="M216.902 172.94C213.994 186.907 199.639 192.015 202.499 201.437C204.04 206.545 208.673 206.438 209.39 211.207C210.757 220.163 196.324 233.171 184.189 232.085C177.976 231.533 176.687 227.694 171.53 228.635C163.98 230.011 163.495 238.831 155.818 240.266C149.76 241.419 147.841 236.389 142.248 237.678C134.911 239.413 135.57 248.863 127.845 252.353C122.378 254.825 119.829 251.083 107.325 249.338C90.3339 246.954 86.9705 252.731 77.6461 248.466C68.3216 244.201 70.5897 237.979 61.052 233.811C50.0992 228.964 43.3143 235.584 35.7345 229.934C30.3841 225.94 33.0302 222.102 27.011 214.425C18.6267 203.695 9.20536 205.702 7.37342 198.917C4.84361 189.515 21.4667 181.76 18.3553 172.455C16.7754 167.706 11.8515 167.958 6.92755 159.564C5.05759 156.346 3.71895 152.847 2.96321 149.202C1.02465 138.889 6.84032 134.663 9.9517 121.578C13.5283 106.554 7.70298 104.567 12.1326 91.7823C15.0404 83.4369 18.0355 82.7971 23.4828 72.3968C30.1224 59.6992 30.8493 50.714 32.6522 44.7723C40.1059 20.2399 79.7203 1.15484 114.75 2.44398C140.194 3.41326 168.555 15.2385 174.991 30.0781C176.654 34.3498 178.55 38.5272 180.671 42.5915C186.04 52.7689 188.522 53.6994 192.893 61.977C197.371 70.5067 200.473 76.4193 199.872 83.999C199.145 93.2266 193.64 95.7758 195.51 102.125C197.187 107.824 202.218 107.814 205.552 114.211C208.692 120.25 206.89 125.397 206.424 131.91C204.874 153.457 220.149 157.528 216.902 172.94Z" fill="#231D1C" stroke="#A27C74" stroke-miterlimit="10"/>
<path d="M28.3982 87.9634C24.4128 92.8529 21.8013 98.7155 20.8321 104.949C19.8628 111.182 20.5707 117.56 22.883 123.429" fill="#231D1C"/>
<path d="M28.3982 87.9634C24.4128 92.8529 21.8013 98.7155 20.8321 104.949C19.8628 111.182 20.5707 117.56 22.883 123.429" stroke="#A27C74" stroke-miterlimit="10"/>
<path d="M36.666 125.542C38.7112 128.79 44.8855 139.51 42.8597 153.429C42.0053 159.213 39.8909 164.739 36.666 169.616" fill="#231D1C"/>
<path d="M36.666 125.542C38.7112 128.79 44.8855 139.51 42.8597 153.429C42.0053 159.213 39.8909 164.739 36.666 169.616" stroke="#A27C74" stroke-miterlimit="10"/>
<path d="M23.9197 139.616C21.8842 142.999 19.4998 148.252 20.4788 154.088C21.6419 161.037 26.6821 163.354 28.0488 170.265C28.737 173.715 28.6498 179.046 24.2589 186.452" fill="#231D1C"/>
<path d="M23.9197 139.616C21.8842 142.999 19.4998 148.252 20.4788 154.088C21.6419 161.037 26.6821 163.354 28.0488 170.265C28.737 173.715 28.6498 179.046 24.2589 186.452" stroke="#A27C74" stroke-miterlimit="10"/>
<path d="M196.111 222.616C191.491 217.475 188.706 210.947 188.192 204.054C187.301 190.436 196.073 181.373 197.488 179.948" fill="#231D1C"/>
<path d="M196.111 222.616C191.491 217.475 188.706 210.947 188.192 204.054C187.301 190.436 196.073 181.373 197.488 179.948" stroke="#A27C74" stroke-miterlimit="10"/>
<path d="M175.795 51.7998C179.851 55.7549 182.999 60.5442 185.02 65.8362C187.042 71.1283 187.889 76.7965 187.504 82.4484" fill="#231D1C"/>
<path d="M175.795 51.7998C179.851 55.7549 182.999 60.5442 185.02 65.8362C187.042 71.1283 187.889 76.7965 187.504 82.4484" stroke="#A27C74" stroke-miterlimit="10"/>
<path d="M159.259 149.61C156.61 153.628 155.532 158.481 156.231 163.243C156.93 168.005 159.357 172.344 163.049 175.431" fill="#231D1C"/>
<path d="M159.259 149.61C156.61 153.628 155.532 158.481 156.231 163.243C156.93 168.005 159.357 172.344 163.049 175.431" stroke="#A27C74" stroke-miterlimit="10"/>
<path d="M37.6921 183.699C40.5188 187.77 42.1932 192.529 42.5385 197.473C42.8794 204.004 40.9211 210.448 37.0039 215.685" fill="#231D1C"/>
<path d="M37.6921 183.699C40.5188 187.77 42.1932 192.529 42.5385 197.473C42.8794 204.004 40.9211 210.448 37.0039 215.685" stroke="#A27C74" stroke-miterlimit="10"/>
<path d="M42.5186 47.3218C36.8911 55.3744 33.4479 64.7487 32.5254 74.5294Z" fill="#231D1C"/>
<path d="M42.5186 47.3218C36.8911 55.3744 33.4479 64.7487 32.5254 74.5294" stroke="#A27C74" stroke-miterlimit="10"/>
<path d="M184.402 111.381C188.193 115.956 190.794 121.396 191.972 127.219C193.4 134.529 192.561 142.101 189.569 148.921" fill="#231D1C"/>
<path d="M184.402 111.381C188.193 115.956 190.794 121.396 191.972 127.219C193.4 134.529 192.561 142.101 189.569 148.921" stroke="#A27C74" stroke-miterlimit="10"/>
<path d="M176.464 131.358C174.714 132.832 173.352 134.712 172.496 136.834C171.64 138.955 171.317 141.254 171.554 143.53C171.791 145.805 172.582 147.988 173.856 149.887C175.131 151.787 176.852 153.346 178.867 154.427C180.089 155.27 184.082 158.246 185.071 163.383C186.282 169.703 182.473 176.721 175.378 180.258" fill="#231D1C"/>
<path d="M176.464 131.358C174.714 132.832 173.352 134.712 172.496 136.834C171.64 138.955 171.317 141.254 171.554 143.53C171.791 145.805 172.582 147.988 173.856 149.887C175.131 151.787 176.852 153.346 178.867 154.427C180.089 155.27 184.082 158.246 185.071 163.383C186.282 169.703 182.473 176.721 175.378 180.258" stroke="#A27C74" stroke-miterlimit="10"/>
<path d="M94.9294 30.8345C97.8372 39.0346 100.561 51.2572 96.2766 63.7027C91.9924 76.1482 83.9959 79.5116 82.1834 89.8732C80.9524 96.9295 82.4935 107.834 96.9455 123.41" stroke="#A27C74" stroke-miterlimit="10"/>
<path d="M128.476 102.619C123.253 123.312 123.253 144.978 128.476 165.671C130.828 174.747 134.203 183.527 138.538 191.841" stroke="#A27C74" stroke-miterlimit="10"/>
<path d="M63.4082 34.188C65.2017 42.7902 65.6529 51.6182 64.7458 60.3585C62.371 82.555 52.2324 91.0168 54.0158 105.982C54.8494 113.019 58.5036 123.022 72.122 134.15" stroke="#A27C74" stroke-miterlimit="10"/>
<path d="M88.2591 148.902C86.0395 154.825 83.5387 164.236 86.2527 174.394C90.0426 188.594 100.928 192.675 102.352 204.587C103.012 210.151 101.781 218.855 90.944 230.758" stroke="#A27C74" stroke-miterlimit="10"/>
<path d="M128.475 38.8892C141.169 50.7406 149.472 66.5456 152.026 83.7238C154.581 100.902 151.236 118.439 142.539 133.471" stroke="#A27C74" stroke-miterlimit="10"/>
<path d="M58.707 167.687C61.0624 171.728 67.6438 184.251 64.7456 199.886C63.7195 205.363 61.671 210.598 58.707 215.317" stroke="#A27C74" stroke-miterlimit="10"/>
<path d="M119.082 185.802C121.99 190.765 129.599 205.256 126.458 223.362C125.426 229.26 123.383 234.936 120.42 240.14" stroke="#A27C74" stroke-miterlimit="10"/>
<path d="M110.361 60.3486C111.417 62.0546 118.881 74.5582 113.714 88.5255C111.575 94.1618 107.848 99.0571 102.984 102.619" stroke="#A27C74" stroke-miterlimit="10"/>
<path d="M153.299 194.516C146.63 201.572 144.197 210.761 147.26 218.002C148.561 220.966 150.649 223.517 153.299 225.378" fill="#231D1C"/>
<path d="M153.299 194.516C146.63 201.572 144.197 210.761 147.26 218.002C148.561 220.966 150.649 223.517 153.299 225.378" stroke="#A27C74" stroke-miterlimit="10"/>
<path d="M112.395 260.66C113.237 255.372 115.666 250.464 119.36 246.587C123.053 242.71 127.838 240.046 133.079 238.948C144.788 236.651 156.943 242.971 162.07 254.321C162.022 259.652 161.847 264.13 161.673 267.493C161.45 271.904 161.188 275.248 160.849 279.483C160.849 279.968 160.316 286.22 159.744 292.026C158.613 303.231 157.237 313.938 155.615 324.148C154.308 328.146 151.672 331.577 148.146 333.869C144.619 336.162 140.414 337.178 136.229 336.748C132.087 336.188 128.249 334.264 125.321 331.281C122.393 328.297 120.543 324.423 120.062 320.271C117.496 300.4 114.941 280.53 112.395 260.66Z" fill="#595A5C"/>
<path d="M131.964 397.638C132.11 398.243 132.455 398.781 132.944 399.166C133.433 399.55 134.037 399.759 134.659 399.759C135.281 399.759 135.885 399.55 136.373 399.166C136.862 398.781 137.207 398.243 137.353 397.638C143.105 381.156 147.79 364.32 151.379 347.236C153.618 336.574 155.256 326.445 156.584 316.839C156.933 304.239 146.61 294.691 136.229 295.728C127.002 296.649 119.15 305.78 119.596 316.839L131.964 397.638Z" fill="#595A5C"/>
<path d="M102.441 261.93C101.605 256.637 99.1782 251.724 95.4838 247.842C91.7894 243.961 87.0019 241.295 81.7567 240.199C70.0479 237.892 57.8931 244.212 52.7656 255.562C52.7656 260.893 52.9886 265.371 53.1533 268.734C53.386 273.144 53.6477 276.488 53.9869 280.724C53.9869 281.209 54.52 287.509 55.0919 293.267C56.2163 304.491 57.5926 315.211 59.221 325.427C60.5274 329.426 63.1632 332.856 66.69 335.149C70.2168 337.441 74.4221 338.457 78.6066 338.028C82.7478 337.465 86.5839 335.54 89.511 332.557C92.438 329.573 94.2896 325.701 94.7741 321.55C97.346 301.68 99.9016 281.807 102.441 261.93Z" fill="#595A5C"/>
<path d="M82.8705 398.879C82.7244 399.483 82.3792 400.021 81.8905 400.406C81.4017 400.791 80.7978 401 80.1759 401C79.5539 401 78.95 400.791 78.4612 400.406C77.9725 400.021 77.6273 399.483 77.4813 398.879C71.7307 382.396 67.0459 365.56 63.4558 348.476C61.2168 337.814 59.5787 327.676 58.2508 318.07C57.9019 305.469 68.2247 295.932 78.6056 296.959C87.8332 297.88 95.6843 307.02 95.2384 318.07L82.8705 398.879Z" fill="#595A5C"/>
<path d="M135.009 153.235C133.763 151.75 133.008 149.915 132.848 147.982C132.689 146.05 133.132 144.116 134.117 142.447C136.657 138.356 141.561 138.211 141.871 138.211C151.467 146.324 161.412 155.241 171.541 165.031C181.67 174.821 190.742 184.252 199.117 193.469C200.218 195.993 200.525 198.792 199.998 201.494C199.471 204.197 198.134 206.675 196.165 208.599C194.196 210.524 191.689 211.804 188.975 212.27C186.261 212.736 183.47 212.365 180.972 211.207C176.523 206.322 144.934 165.486 135.009 153.235Z" fill="#595A5C"/>
<path d="M194.223 209.734C191.685 210.933 188.834 211.303 186.075 210.792C183.315 210.28 180.786 208.913 178.847 206.884C176.908 204.855 175.657 202.267 175.271 199.487C174.886 196.707 175.385 193.876 176.698 191.395L206.92 154.824C207.473 154.543 213.56 151.587 219.782 154.931C221.581 155.947 223.14 157.339 224.352 159.012C225.565 160.684 226.403 162.598 226.81 164.624C218.813 181.55 207.766 196.858 194.223 209.782V209.734Z" fill="#595A5C"/>
<path d="M214.73 175.635C212.057 175.081 209.657 173.621 207.937 171.501C206.217 169.382 205.281 166.733 205.289 164.004C205.406 161.691 206.204 159.465 207.584 157.605C208.964 155.746 210.864 154.336 213.043 153.555L243.818 153.787C244.22 153.771 244.615 153.898 244.933 154.146C245.902 154.98 245.66 157.325 244.147 159.962C243.429 161.164 242.622 162.311 241.734 163.393C233.582 173.27 220.788 175.179 214.73 175.635Z" fill="#595A5C"/>
<path d="M75.6595 154.475C77.2583 153.38 78.479 151.816 79.154 149.999C79.8291 148.182 79.9255 146.201 79.43 144.327C78.0924 139.704 73.4108 138.24 73.0909 138.143C61.6631 143.358 49.6732 149.261 37.2761 155.939C24.879 162.617 13.6257 169.257 3.06058 175.867C1.31983 177.998 0.268051 180.608 0.0447616 183.351C-0.178528 186.093 0.437221 188.839 1.81034 191.224C3.18345 193.608 5.24904 195.519 7.73314 196.702C10.2172 197.886 13.0024 198.286 15.7194 197.851C21.3799 194.361 62.8069 163.577 75.6595 154.475Z" fill="#595A5C"/>
<path d="M72.906 138.143C74.263 136.379 86.4759 120.929 107.722 120.977C128.969 121.026 140.969 136.35 142.335 138.143C149.903 159.945 155.315 182.436 158.493 205.295C161.315 225.571 162.366 246.055 161.634 266.514C160.228 267.813 147.25 279.406 130.287 275.829C123.379 274.292 117.116 270.656 112.356 265.419C110.94 266.173 109.361 266.568 107.756 266.568C106.152 266.568 104.573 266.173 103.157 265.419C98.1543 270.539 91.7453 274.061 84.7409 275.538C67.8852 278.931 54.9841 268.307 53.2297 266.815C51.4113 223.056 58.0934 179.359 72.906 138.143V138.143Z" fill="#595A5C"/>
<path d="M72.9065 138.143C72.4122 138.008 66.393 155.988 61.7017 176.207C59.5595 185.415 57.9312 194.206 56.6808 202.494C55.8084 208.309 54.2673 219.621 53.4531 234.238C52.5517 250.415 52.7552 266.767 53.2205 266.776C53.6857 266.786 52.7649 239.229 58.0669 203.424C63.6984 165.283 73.5172 138.318 72.9065 138.143Z" fill="#818285"/>
<path d="M142.539 138.54C143.043 138.405 148.568 155.716 153.259 175.935C155.401 185.143 157.03 193.935 158.28 202.212C159.152 208.028 160.693 219.349 161.508 233.966C162.409 250.143 162.205 266.485 161.74 266.504C161.275 266.524 162.196 238.958 156.894 203.152C151.262 164.982 141.88 138.715 142.539 138.54Z" fill="#818285"/>
<path d="M108.237 148.03C146.105 148.03 176.803 117.145 176.803 79.0465C176.803 40.948 146.105 10.063 108.237 10.063C70.3683 10.063 39.6699 40.948 39.6699 79.0465C39.6699 117.145 70.3683 148.03 108.237 148.03Z" fill="#595A5C"/>
<path d="M108.014 147.923C105.662 147.955 103.309 147.858 100.967 147.632C95.6693 147.118 90.4581 145.932 85.459 144.104C92.8504 145.786 100.405 146.647 107.985 146.673C115.697 146.692 123.387 145.84 130.908 144.133C123.596 146.885 115.814 148.172 108.004 147.923H108.014Z" fill="#818285"/>
<path d="M161.836 246.877L53.2773 246.14C54.0391 209.2 60.6912 172.618 72.9828 137.775C73.4868 138.657 84.7983 157.684 107.14 157.994C114.287 158.076 121.326 156.244 127.526 152.689C133.727 149.134 138.863 143.984 142.402 137.775C148.586 155.658 153.328 174.006 156.583 192.646C159.718 210.562 161.474 228.692 161.836 246.877V246.877Z" fill="#D9463D"/>
<path d="M157.71 198.771L107.521 224.486L57.593 198.403C55.0232 212.289 53.2883 226.317 52.3977 240.411C50.4386 272.031 52.6876 303.772 59.0857 334.8L155.742 334.926C162.858 304.405 165.47 273.007 163.496 241.73C162.549 227.295 160.615 212.942 157.71 198.771V198.771Z" fill="#F3D6B3"/>
<path d="M60.4221 182.73L57.5918 198.403L107.994 224.797V208.755L60.4221 182.73Z" fill="#595A5C"/>
<path d="M154.8 183.146L157.708 198.771L107.945 224.796V208.755L154.8 183.146Z" fill="#595A5C"/>
<path d="M2.84688 191.861C1.67874 189.31 1.3426 186.457 1.88608 183.705C2.42956 180.953 3.82511 178.442 5.87506 176.527C7.92502 174.612 10.5255 173.391 13.3081 173.036C16.0907 172.681 18.9145 173.21 21.3795 174.549L57.6014 205.188C57.8728 205.741 60.7515 211.867 57.3397 218.051C56.3119 219.828 54.9149 221.365 53.2429 222.557C51.5708 223.749 49.6626 224.569 47.6469 224.961C30.8078 216.772 15.6211 205.551 2.84688 191.861V191.861Z" fill="#595A5C"/>
<path d="M38.3535 210.839C38.9647 208.378 40.3764 206.19 42.3667 204.619C44.357 203.047 46.813 202.182 49.3487 202.159C51.8843 202.135 54.3558 202.955 56.3747 204.49C58.3935 206.024 59.8452 208.186 60.5015 210.635L58.214 241.274C58.2034 241.68 58.0488 242.068 57.7778 242.369C56.8861 243.281 54.5598 242.874 52.0494 241.197C50.9038 240.391 49.8155 239.507 48.7926 238.551C39.4391 229.769 38.3923 216.887 38.3535 210.839Z" fill="#595A5C"/>
<path d="M79.3613 100.138C80.9681 99.9004 82.601 99.9004 84.2077 100.138L82.7732 98.9551C82.7732 98.9551 79.7878 99.304 79.3613 100.138Z" fill="#DE499A"/>
<path d="M67.3047 73.3565C67.3047 73.3565 67.9832 76.3709 75.3497 79.1721C75.3497 79.1721 79.8665 81.2658 81.7082 71.9704C81.7082 71.9704 74.9232 72.4744 67.6439 65.1079C67.6439 65.1079 67.4307 70.5068 77.4821 74.6553C77.4821 74.6553 78.0637 75.1496 77.4821 75.5276C77.4336 75.4889 71.6664 76.2837 67.3047 73.3565Z" fill="#DE499A"/>
<path d="M84.4907 100.138C89.6244 100.138 93.7861 93.6285 93.7861 85.5987C93.7861 77.569 89.6244 71.0596 84.4907 71.0596C79.357 71.0596 75.1953 77.569 75.1953 85.5987C75.1953 93.6285 79.357 100.138 84.4907 100.138Z" fill="white"/>
<path d="M147.028 73.3565C147.028 73.3565 146.36 76.3709 138.993 79.1721C138.993 79.1721 134.467 81.2658 132.625 71.9704C132.625 71.9704 139.41 72.4744 146.689 65.1079C146.689 65.1079 146.902 70.5068 136.851 74.6553C136.851 74.6553 136.269 75.1496 136.9 75.5276C136.9 75.4889 142.676 76.2837 147.028 73.3565Z" fill="#DE499A"/>
<path d="M135.358 100.138C133.751 99.9001 132.118 99.9001 130.512 100.138L131.946 98.9551C131.946 98.9551 134.932 99.304 135.358 100.138Z" fill="#DE499A"/>
<path d="M129.842 100.138C134.976 100.138 139.138 93.6285 139.138 85.5987C139.138 77.569 134.976 71.0596 129.842 71.0596C124.709 71.0596 120.547 77.569 120.547 85.5987C120.547 93.6285 124.709 100.138 129.842 100.138Z" fill="white"/>
<path d="M84.6933 100.138C88.7189 100.138 91.9822 94.9346 91.9822 88.5162C91.9822 82.0977 88.7189 76.8945 84.6933 76.8945C80.6677 76.8945 77.4043 82.0977 77.4043 88.5162C77.4043 94.9346 80.6677 100.138 84.6933 100.138Z" fill="#231F20"/>
<path d="M80.3026 82.6617C81.3197 82.6617 82.1442 81.3685 82.1442 79.7732C82.1442 78.178 81.3197 76.8848 80.3026 76.8848C79.2855 76.8848 78.4609 78.178 78.4609 79.7732C78.4609 81.3685 79.2855 82.6617 80.3026 82.6617Z" fill="white"/>
<path d="M129.784 100.138C133.869 100.138 137.18 94.9346 137.18 88.5162C137.18 82.0977 133.869 76.8945 129.784 76.8945C125.7 76.8945 122.389 82.0977 122.389 88.5162C122.389 94.9346 125.7 100.138 129.784 100.138Z" fill="#231F20"/>
<path d="M125.916 82.6617C126.933 82.6617 127.757 81.3685 127.757 79.7732C127.757 78.178 126.933 76.8848 125.916 76.8848C124.899 76.8848 124.074 78.178 124.074 79.7732C124.074 81.3685 124.899 82.6617 125.916 82.6617Z" fill="white"/>
<path opacity="0.57" d="M75.9023 111.691C80.6452 111.691 84.4901 110.676 84.4901 109.423C84.4901 108.171 80.6452 107.155 75.9023 107.155C71.1593 107.155 67.3145 108.171 67.3145 109.423C67.3145 110.676 71.1593 111.691 75.9023 111.691Z" fill="#F7B1C4"/>
<path opacity="0.57" d="M140.582 111.691C145.325 111.691 149.17 110.676 149.17 109.423C149.17 108.171 145.325 107.155 140.582 107.155C135.839 107.155 131.994 108.171 131.994 109.423C131.994 110.676 135.839 111.691 140.582 111.691Z" fill="#F7B1C4"/>
<path d="M90.7812 117.468C91.9467 118.374 93.1963 119.166 94.513 119.833C95.1527 120.192 95.8312 120.483 96.4515 120.802C97.0719 121.122 97.8182 121.355 98.5064 121.597C104.068 123.583 110.15 123.552 115.692 121.51L116.739 121.161C117.078 121.035 117.398 120.851 117.708 120.696L119.646 119.727C120.945 119.048 122.166 118.205 123.436 117.449C122.215 118.282 121.052 119.203 119.782 119.979L117.843 121.016C117.514 121.18 117.194 121.384 116.874 121.52L115.827 121.917C115.13 122.169 114.441 122.46 113.724 122.673L111.543 123.177C110.813 123.343 110.071 123.45 109.324 123.497C108.585 123.602 107.84 123.644 107.094 123.623C104.111 123.632 101.152 123.083 98.3707 122.004C95.5922 120.954 93.0224 119.418 90.7812 117.468V117.468Z" fill="white"/>
<path d="M38.3027 16.2761C38.4772 16.974 41.6952 29.1481 51.8048 31.7845C54.2784 32.4031 56.8643 32.4197 59.3458 31.833C59.8772 28.4401 59.1905 24.9686 57.4072 22.0336C53.8596 16.5281 46.1345 14.0758 38.3027 16.2761Z" fill="#1FA049" stroke="#85C770" stroke-width="0.75" stroke-miterlimit="10"/>
<path d="M42.248 18.7959L56.574 29.1963" stroke="#85C770" stroke-width="0.5" stroke-miterlimit="10"/>
<path d="M44.293 23.0317L47.7145 24.0398" stroke="#85C770" stroke-width="0.5" stroke-miterlimit="10"/>
<path d="M47.832 25.9102L53.3375 27.9941" stroke="#85C770" stroke-width="0.5" stroke-miterlimit="10"/>
<path d="M44.2656 18.2534L45.9134 20.2404" stroke="#85C770" stroke-width="0.5" stroke-miterlimit="10"/>
<path d="M47.25 19.9688L50.6328 24.1366" stroke="#85C770" stroke-width="0.5" stroke-miterlimit="10"/>
<path d="M51.6113 22.7119L55.217 27.4032" stroke="#85C770" stroke-width="0.5" stroke-miterlimit="10"/>
<path d="M54.1602 11.3129C54.1602 12.0302 54.6739 24.6114 63.9886 29.3318C66.2722 30.47 68.7941 31.0482 71.3455 31.0183C72.5886 27.8124 72.664 24.2714 71.5587 21.0154C69.2906 14.9283 62.273 10.8477 54.1602 11.3129Z" fill="#1FA049" stroke="#85C770" stroke-width="0.75" stroke-miterlimit="10"/>
<path d="M57.4648 14.6182L69.1931 27.8779" stroke="#85C770" stroke-width="0.5" stroke-miterlimit="10"/>
<path d="M58.543 19.2031L61.664 20.9284" stroke="#85C770" stroke-width="0.5" stroke-miterlimit="10"/>
<path d="M61.373 22.77L66.297 26.0074" stroke="#85C770" stroke-width="0.5" stroke-miterlimit="10"/>
<path d="M59.5508 14.5312L60.7236 16.8187" stroke="#85C770" stroke-width="0.5" stroke-miterlimit="10"/>
<path d="M62.0879 16.8477L64.4917 21.6456" stroke="#85C770" stroke-width="0.5" stroke-miterlimit="10"/>
<path d="M65.7539 20.4727L68.2546 25.8328" stroke="#85C770" stroke-width="0.5" stroke-miterlimit="10"/>
<path d="M31.7891 30.2821C32.138 30.9121 38.3995 41.8359 48.8387 41.7196C51.3914 41.6649 53.8939 41.0002 56.1373 39.781C55.7634 36.3743 54.198 33.2091 51.7174 30.8443C46.8807 26.4922 38.826 26.1239 31.7891 30.2821Z" fill="#1FA049" stroke="#85C770" stroke-width="0.75" stroke-miterlimit="10"/>
<path d="M36.2598 31.6875L52.786 38.0169" stroke="#85C770" stroke-width="0.5" stroke-miterlimit="10"/>
<path d="M39.3223 35.2544L42.8989 35.3416" stroke="#85C770" stroke-width="0.5" stroke-miterlimit="10"/>
<path d="M43.4883 37.1055L49.3524 37.6967" stroke="#85C770" stroke-width="0.5" stroke-miterlimit="10"/>
<path d="M38.0605 30.6406L40.1639 32.1333" stroke="#85C770" stroke-width="0.5" stroke-miterlimit="10"/>
<path d="M41.3848 31.5322L45.7271 34.6727" stroke="#85C770" stroke-width="0.5" stroke-miterlimit="10"/>
<path d="M46.3086 33.0444L51.0096 36.6405" stroke="#85C770" stroke-width="0.5" stroke-miterlimit="10"/>
<path d="M40.252 41.3316C40.8141 41.7774 50.8171 49.4153 60.4032 45.2668C62.7335 44.2323 64.7861 42.6613 66.3934 40.6821C64.7225 37.6767 62.0454 35.3566 58.833 34.1298C52.6878 31.9877 45.079 34.7889 40.252 41.3316Z" fill="#1FA049" stroke="#85C770" stroke-width="0.75" stroke-miterlimit="10"/>
<path d="M44.9141 40.8956L62.6034 40.3237" stroke="#85C770" stroke-width="0.5" stroke-miterlimit="10"/>
<path d="M49.1211 42.999L52.4457 41.6904" stroke="#85C770" stroke-width="0.5" stroke-miterlimit="10"/>
<path d="M53.6758 43.0958L59.317 41.3608" stroke="#85C770" stroke-width="0.5" stroke-miterlimit="10"/>
<path d="M46.1641 39.2378L48.6842 39.7903" stroke="#85C770" stroke-width="0.5" stroke-miterlimit="10"/>
<path d="M49.5762 38.7632L54.8006 39.9748" stroke="#85C770" stroke-width="0.5" stroke-miterlimit="10"/>
<path d="M54.7031 38.2588L60.4316 39.7418" stroke="#85C770" stroke-width="0.5" stroke-miterlimit="10"/>
<path d="M55.4492 49.0955C56.1665 49.0955 68.7574 49.3475 74.0012 40.3235C75.2653 38.1069 75.9861 35.6223 76.1045 33.0733C72.9795 31.6464 69.452 31.365 66.1404 32.2785C59.9176 34.1977 55.4492 40.9729 55.4492 49.0955Z" fill="#1FA049" stroke="#85C770" stroke-width="0.75" stroke-miterlimit="10"/>
<path d="M58.9395 45.9938L72.8486 35.0312" stroke="#85C770" stroke-width="0.5" stroke-miterlimit="10"/>
<path d="M63.5723 45.1794L65.472 42.1553" stroke="#85C770" stroke-width="0.5" stroke-miterlimit="10"/>
<path d="M67.3047 42.5528L70.8135 37.8228" stroke="#85C770" stroke-width="0.5" stroke-miterlimit="10"/>
<path d="M58.9688 43.9004L61.3241 42.8633" stroke="#85C770" stroke-width="0.5" stroke-miterlimit="10"/>
<path d="M61.4297 41.4963L66.3536 39.3833" stroke="#85C770" stroke-width="0.5" stroke-miterlimit="10"/>
<path d="M65.2598 38.0552L70.7556 35.855" stroke="#85C770" stroke-width="0.5" stroke-miterlimit="10"/>
<path d="M107.238 1C106.831 1.60095 99.9009 12.0982 104.699 21.3548C105.887 23.6131 107.599 25.5541 109.691 27.0154C112.569 25.1408 114.696 22.3136 115.7 19.0286C117.416 12.767 114.101 5.35206 107.238 1Z" fill="#1FA049" stroke="#85C770" stroke-width="0.75" stroke-miterlimit="10"/>
<path d="M107.994 5.62354L109.778 23.2256" stroke="#85C770" stroke-width="0.5" stroke-miterlimit="10"/>
<path d="M106.191 9.96582L107.723 13.1935" stroke="#85C770" stroke-width="0.5" stroke-miterlimit="10"/>
<path d="M106.404 14.5215L108.517 20.027" stroke="#85C770" stroke-width="0.5" stroke-miterlimit="10"/>
<path d="M109.739 6.75732L109.352 9.30653" stroke="#85C770" stroke-width="0.5" stroke-miterlimit="10"/>
<path d="M110.447 10.1304L109.594 15.4226" stroke="#85C770" stroke-width="0.5" stroke-miterlimit="10"/>
<path d="M111.298 15.2095L110.213 21.0251" stroke="#85C770" stroke-width="0.5" stroke-miterlimit="10"/>
<path d="M127.34 9.229C126.662 9.47132 114.866 13.8718 113.286 24.1947C112.92 26.7185 113.159 29.2934 113.984 31.7066C117.415 31.8904 120.802 30.861 123.551 28.7987C128.63 24.7375 130.316 16.7506 127.34 9.229Z" fill="#1FA049" stroke="#85C770" stroke-width="0.75" stroke-miterlimit="10"/>
<path d="M125.23 13.3584L116.303 28.6342" stroke="#85C770" stroke-width="0.5" stroke-miterlimit="10"/>
<path d="M121.216 15.8008L120.557 19.3096" stroke="#85C770" stroke-width="0.5" stroke-miterlimit="10"/>
<path d="M118.703 19.6099L117.172 25.2995" stroke="#85C770" stroke-width="0.5" stroke-miterlimit="10"/>
<path d="M125.965 15.3066L124.162 17.1386" stroke="#85C770" stroke-width="0.5" stroke-miterlimit="10"/>
<path d="M124.559 18.4468L120.75 22.2173" stroke="#85C770" stroke-width="0.5" stroke-miterlimit="10"/>
<path d="M122.253 23.0513L117.949 27.1125" stroke="#85C770" stroke-width="0.5" stroke-miterlimit="10"/>
<path d="M87.5144 5.68164C87.369 6.38921 85.13 18.7766 93.1944 25.4064C95.1662 27.01 97.4923 28.1199 99.9793 28.6438C101.887 25.7928 102.731 22.3617 102.364 18.9511C101.501 12.4957 95.5303 6.99017 87.5144 5.68164Z" fill="#1FA049" stroke="#85C770" stroke-width="0.75" stroke-miterlimit="10"/>
<path d="M90.0234 9.62646L98.5919 25.1155" stroke="#85C770" stroke-width="0.5" stroke-miterlimit="10"/>
<path d="M90.0723 14.3276L92.7475 16.6927" stroke="#85C770" stroke-width="0.5" stroke-miterlimit="10"/>
<path d="M92.0605 18.4375L96.1703 22.6636" stroke="#85C770" stroke-width="0.5" stroke-miterlimit="10"/>
<path d="M92.0801 9.99512L92.7198 12.4862" stroke="#85C770" stroke-width="0.5" stroke-miterlimit="10"/>
<path d="M94.0566 12.8154L95.3555 18.0108" stroke="#85C770" stroke-width="0.5" stroke-miterlimit="10"/>
<path d="M96.8379 17.1382L98.1173 22.9151" stroke="#85C770" stroke-width="0.5" stroke-miterlimit="10"/>
<path d="M70.7246 7.29066C70.7246 8.00793 70.7246 20.5988 79.8843 25.7069C82.1263 26.9208 84.6244 27.5852 87.1733 27.6455C88.5373 24.4905 88.7466 20.9559 87.7645 17.6619C85.7193 11.4779 78.8569 7.14527 70.7246 7.29066Z" fill="#1FA049" stroke="#85C770" stroke-width="0.75" stroke-miterlimit="10"/>
<path d="M73.9141 10.7412L85.148 24.408" stroke="#85C770" stroke-width="0.5" stroke-miterlimit="10"/>
<path d="M74.8164 15.355L77.8793 17.1869" stroke="#85C770" stroke-width="0.5" stroke-miterlimit="10"/>
<path d="M77.5215 19.0288L82.3194 22.4407" stroke="#85C770" stroke-width="0.5" stroke-miterlimit="10"/>
<path d="M76 10.7217L77.0856 13.0576" stroke="#85C770" stroke-width="0.5" stroke-miterlimit="10"/>
<path d="M78.4512 13.1353L80.6708 18.0204" stroke="#85C770" stroke-width="0.5" stroke-miterlimit="10"/>
<path d="M81.9805 16.8862L84.2874 22.3336" stroke="#85C770" stroke-width="0.5" stroke-miterlimit="10"/>
<path d="M64.4551 11.0997C64.4551 11.8267 64.4551 24.4079 73.6148 29.516C75.8565 30.7306 78.3548 31.395 80.9037 31.4546C82.2692 28.2889 82.4718 24.7425 81.4756 21.4419C79.4498 15.2676 72.5873 10.9447 64.4551 11.0997Z" fill="#1FA049" stroke="#85C770" stroke-width="0.75" stroke-miterlimit="10"/>
<path d="M67.6426 14.5312L78.8765 28.2078" stroke="#85C770" stroke-width="0.5" stroke-miterlimit="10"/>
<path d="M68.5449 19.145L71.6078 20.9866" stroke="#85C770" stroke-width="0.5" stroke-miterlimit="10"/>
<path d="M71.2402 22.8184L76.0479 26.2302" stroke="#85C770" stroke-width="0.5" stroke-miterlimit="10"/>
<path d="M69.7266 14.5117L70.8122 16.8477" stroke="#85C770" stroke-width="0.5" stroke-miterlimit="10"/>
<path d="M72.1797 16.9351L74.3993 21.8105" stroke="#85C770" stroke-width="0.5" stroke-miterlimit="10"/>
<path d="M75.707 20.686L78.0139 26.1334" stroke="#85C770" stroke-width="0.5" stroke-miterlimit="10"/>
<path d="M144.293 8.57959C143.566 8.57959 131.004 9.33563 126.449 18.7279C125.353 21.0319 124.821 23.5637 124.898 26.1138C128.129 27.2845 131.669 27.2845 134.901 26.1138C140.949 23.7682 144.894 16.6828 144.293 8.57959Z" fill="#1FA049" stroke="#85C770" stroke-width="0.75" stroke-miterlimit="10"/>
<path d="M141.037 11.9434L128 23.9139" stroke="#85C770" stroke-width="0.5" stroke-miterlimit="10"/>
<path d="M136.482 13.0967L134.814 16.2565" stroke="#85C770" stroke-width="0.5" stroke-miterlimit="10"/>
<path d="M132.963 15.9946L129.822 20.9767" stroke="#85C770" stroke-width="0.5" stroke-miterlimit="10"/>
<path d="M141.172 14.0269L138.904 15.2385" stroke="#85C770" stroke-width="0.5" stroke-miterlimit="10"/>
<path d="M138.896 16.6055L134.146 19.0868" stroke="#85C770" stroke-width="0.5" stroke-miterlimit="10"/>
<path d="M135.339 20.3271L130.027 22.9345" stroke="#85C770" stroke-width="0.5" stroke-miterlimit="10"/>
<path d="M158.92 9.7915C158.203 9.7915 145.631 10.5475 141.076 19.9398C139.98 22.2438 139.448 24.7756 139.525 27.3257C142.754 28.5089 146.298 28.5089 149.528 27.3257C155.576 24.9898 159.521 17.8947 158.92 9.7915Z" fill="#1FA049" stroke="#85C770" stroke-width="0.75" stroke-miterlimit="10"/>
<path d="M155.664 13.1548L142.627 25.1254" stroke="#85C770" stroke-width="0.5" stroke-miterlimit="10"/>
<path d="M151.109 14.3081L149.441 17.468" stroke="#85C770" stroke-width="0.5" stroke-miterlimit="10"/>
<path d="M147.59 17.2061L144.449 22.1978" stroke="#85C770" stroke-width="0.5" stroke-miterlimit="10"/>
<path d="M155.799 15.2388L153.531 16.4504" stroke="#85C770" stroke-width="0.5" stroke-miterlimit="10"/>
<path d="M153.523 17.8267L148.773 20.308" stroke="#85C770" stroke-width="0.5" stroke-miterlimit="10"/>
<path d="M149.966 21.5488L144.654 24.1465" stroke="#85C770" stroke-width="0.5" stroke-miterlimit="10"/>
<path d="M175.282 16.7796C174.594 16.547 162.565 12.8153 155.005 20.017C153.167 21.7855 151.781 23.9694 150.963 26.3852C153.563 28.6303 156.872 29.8865 160.307 29.9327C166.772 29.8261 172.995 24.5823 175.282 16.7796Z" fill="#1FA049" stroke="#85C770" stroke-width="0.75" stroke-miterlimit="10"/>
<path d="M171.047 18.7861L154.637 25.416" stroke="#85C770" stroke-width="0.5" stroke-miterlimit="10"/>
<path d="M166.374 18.2627L163.709 20.6374" stroke="#85C770" stroke-width="0.5" stroke-miterlimit="10"/>
<path d="M162.06 19.7461L157.369 23.3033" stroke="#85C770" stroke-width="0.5" stroke-miterlimit="10"/>
<path d="M170.446 20.7827L167.887 21.122" stroke="#85C770" stroke-width="0.5" stroke-miterlimit="10"/>
<path d="M167.401 22.4019L162.08 23.061" stroke="#85C770" stroke-width="0.5" stroke-miterlimit="10"/>
<path d="M162.768 24.6406L156.875 25.2125" stroke="#85C770" stroke-width="0.5" stroke-miterlimit="10"/>
<path d="M180.72 27.8876C180.099 27.5096 169.253 21.1027 160.239 26.4046C158.049 27.7088 156.201 29.5165 154.85 31.6775C156.868 34.4591 159.802 36.4396 163.137 37.2702C169.495 38.6563 176.717 34.9634 180.72 27.8876Z" fill="#1FA049" stroke="#85C770" stroke-width="0.75" stroke-miterlimit="10"/>
<path d="M176.144 28.8765L158.648 31.5711" stroke="#85C770" stroke-width="0.5" stroke-miterlimit="10"/>
<path d="M171.715 27.3062L168.574 29.0024" stroke="#85C770" stroke-width="0.5" stroke-miterlimit="10"/>
<path d="M167.178 27.752L161.789 30.1461" stroke="#85C770" stroke-width="0.5" stroke-miterlimit="10"/>
<path d="M175.098 30.6793L172.529 30.4272" stroke="#85C770" stroke-width="0.5" stroke-miterlimit="10"/>
<path d="M171.763 31.5611L166.432 30.9893" stroke="#85C770" stroke-width="0.5" stroke-miterlimit="10"/>
<path d="M166.743 32.6762L160.879 31.8911" stroke="#85C770" stroke-width="0.5" stroke-miterlimit="10"/>
<path d="M178.326 44.1815C177.909 43.5902 170.465 33.4418 160.103 34.7213C157.577 35.0603 155.166 35.9901 153.066 37.4353C153.821 40.7874 155.732 43.7664 158.465 45.8486C163.758 49.6385 171.851 49.0957 178.326 44.1815Z" fill="#1FA049" stroke="#85C770" stroke-width="0.75" stroke-miterlimit="10"/>
<path d="M173.733 43.2801L156.605 38.8408" stroke="#85C770" stroke-width="0.5" stroke-miterlimit="10"/>
<path d="M170.29 40.0815L166.732 40.4014" stroke="#85C770" stroke-width="0.5" stroke-miterlimit="10"/>
<path d="M165.938 38.7046L160.045 38.7724" stroke="#85C770" stroke-width="0.5" stroke-miterlimit="10"/>
<path d="M172.053 44.5205L169.805 43.2798" stroke="#85C770" stroke-width="0.5" stroke-miterlimit="10"/>
<path d="M168.652 44.0163L163.99 41.3799" stroke="#85C770" stroke-width="0.5" stroke-miterlimit="10"/>
<path d="M163.591 43.0572L158.521 40.0137" stroke="#85C770" stroke-width="0.5" stroke-miterlimit="10"/>
<path d="M70.416 49.1345C71.143 49.1345 83.7242 49.3865 88.9777 40.3626C90.2436 38.1473 90.9614 35.6614 91.0713 33.1124C87.9463 31.6855 84.4188 31.4041 81.1072 32.3175C74.8941 34.2367 70.4257 41.012 70.416 49.1345Z" fill="#1FA049" stroke="#85C770" stroke-width="0.75" stroke-miterlimit="10"/>
<path d="M73.9141 46.0227L87.8135 35.0698" stroke="#85C770" stroke-width="0.5" stroke-miterlimit="10"/>
<path d="M78.5469 45.2185L80.4467 42.1943" stroke="#85C770" stroke-width="0.5" stroke-miterlimit="10"/>
<path d="M82.2695 42.5919L85.7783 37.8618" stroke="#85C770" stroke-width="0.5" stroke-miterlimit="10"/>
<path d="M73.9336 43.939L76.2986 42.9019" stroke="#85C770" stroke-width="0.5" stroke-miterlimit="10"/>
<path d="M76.4062 41.5353L81.3302 39.4126" stroke="#85C770" stroke-width="0.5" stroke-miterlimit="10"/>
<path d="M80.2246 38.0943L85.7204 35.894" stroke="#85C770" stroke-width="0.5" stroke-miterlimit="10"/>
<path d="M161.352 50.7821C161.168 50.0842 157.804 37.9489 147.656 35.4869C145.178 34.8839 142.592 34.8839 140.115 35.4869C139.637 38.8893 140.371 42.3514 142.189 45.2669C145.795 50.7239 153.559 53.089 161.352 50.7821Z" fill="#1FA049" stroke="#85C770" stroke-width="0.75" stroke-miterlimit="10"/>
<path d="M157.38 48.3105L142.928 38.104" stroke="#85C770" stroke-width="0.5" stroke-miterlimit="10"/>
<path d="M155.287 44.1036L151.846 43.1343" stroke="#85C770" stroke-width="0.5" stroke-miterlimit="10"/>
<path d="M151.708 41.2734L146.174 39.2573" stroke="#85C770" stroke-width="0.5" stroke-miterlimit="10"/>
<path d="M155.374 48.8827L153.707 46.915" stroke="#85C770" stroke-width="0.5" stroke-miterlimit="10"/>
<path d="M152.369 47.2054L148.938 43.0859" stroke="#85C770" stroke-width="0.5" stroke-miterlimit="10"/>
<path d="M147.976 44.5207L144.303 39.8682" stroke="#85C770" stroke-width="0.5" stroke-miterlimit="10"/>
<path d="M163.408 26.7829C162.73 26.5309 150.866 22.3145 143.054 29.1964C141.15 30.8939 139.678 33.0204 138.76 35.3998C141.276 37.7315 144.532 39.104 147.958 39.2769C154.423 39.4804 160.811 34.4886 163.408 26.7829Z" fill="#1FA049" stroke="#85C770" stroke-width="0.75" stroke-miterlimit="10"/>
<path d="M159.105 28.6147L142.434 34.5758" stroke="#85C770" stroke-width="0.5" stroke-miterlimit="10"/>
<path d="M154.452 27.9072L151.689 30.1656" stroke="#85C770" stroke-width="0.5" stroke-miterlimit="10"/>
<path d="M150.081 29.2061L145.244 32.5791" stroke="#85C770" stroke-width="0.5" stroke-miterlimit="10"/>
<path d="M158.416 30.5825L155.848 30.8248" stroke="#85C770" stroke-width="0.5" stroke-miterlimit="10"/>
<path d="M155.315 32.085L149.975 32.5211" stroke="#85C770" stroke-width="0.5" stroke-miterlimit="10"/>
<path d="M150.585 34.1299L144.682 34.4594" stroke="#85C770" stroke-width="0.5" stroke-miterlimit="10"/>
<path d="M100.541 54.2133C101.113 53.7675 110.922 45.8775 109.177 35.5838C108.733 33.0707 107.693 30.7007 106.143 28.6729C102.823 29.5726 99.9238 31.6105 97.9529 34.4304C94.4345 39.8971 95.3456 48.0003 100.541 54.2133Z" fill="#1FA049" stroke="#85C770" stroke-width="0.75" stroke-miterlimit="10"/>
<path d="M101.238 49.5803L104.902 32.269" stroke="#85C770" stroke-width="0.5" stroke-miterlimit="10"/>
<path d="M104.274 45.9939L103.799 42.4561" stroke="#85C770" stroke-width="0.5" stroke-miterlimit="10"/>
<path d="M105.455 41.5934L105.125 35.7002" stroke="#85C770" stroke-width="0.5" stroke-miterlimit="10"/>
<path d="M99.9199 47.9617L101.064 45.6548" stroke="#85C770" stroke-width="0.5" stroke-miterlimit="10"/>
<path d="M100.27 44.5402L102.702 39.752" stroke="#85C770" stroke-width="0.5" stroke-miterlimit="10"/>
<path d="M101.006 39.4418L103.817 34.2368" stroke="#85C770" stroke-width="0.5" stroke-miterlimit="10"/>
<path d="M91.6232 51.7319C91.0611 51.286 81.252 43.3961 82.9967 33.1024C83.4421 30.5914 84.4787 28.2225 86.0208 26.1914C89.3433 27.1094 92.2363 29.1685 94.1918 32.0071C97.7297 37.4156 96.8283 45.48 91.6232 51.7319Z" fill="#1FA049" stroke="#85C770" stroke-width="0.75" stroke-miterlimit="10"/>
<path d="M90.9354 47.0989L87.2715 29.7876" stroke="#85C770" stroke-width="0.5" stroke-miterlimit="10"/>
<path d="M87.8926 43.5125L88.3675 39.9746" stroke="#85C770" stroke-width="0.5" stroke-miterlimit="10"/>
<path d="M86.709 39.112L87.0482 33.2188" stroke="#85C770" stroke-width="0.5" stroke-miterlimit="10"/>
<path d="M92.2531 45.4802L91.1094 43.1733" stroke="#85C770" stroke-width="0.5" stroke-miterlimit="10"/>
<path d="M91.8939 42.0587L89.4707 37.2705" stroke="#85C770" stroke-width="0.5" stroke-miterlimit="10"/>
<path d="M91.1683 36.9604L88.3574 31.7554" stroke="#85C770" stroke-width="0.5" stroke-miterlimit="10"/>
<path d="M136.774 52.2071C136.211 51.7612 126.402 43.8713 128.147 33.5775C128.596 31.0705 129.632 28.7055 131.171 26.6763C134.494 27.5928 137.388 29.6522 139.342 32.4919C142.88 37.9005 141.979 45.9552 136.774 52.2071Z" fill="#1FA049" stroke="#85C770" stroke-width="0.75" stroke-miterlimit="10"/>
<path d="M136.084 47.5735L132.42 30.2622" stroke="#85C770" stroke-width="0.5" stroke-miterlimit="10"/>
<path d="M133.041 43.9876L133.516 40.4497" stroke="#85C770" stroke-width="0.5" stroke-miterlimit="10"/>
<path d="M131.857 39.5871L132.197 33.7036" stroke="#85C770" stroke-width="0.5" stroke-miterlimit="10"/>
<path d="M137.404 45.9553L136.26 43.6484" stroke="#85C770" stroke-width="0.5" stroke-miterlimit="10"/>
<path d="M137.042 42.5334L134.619 37.7549" stroke="#85C770" stroke-width="0.5" stroke-miterlimit="10"/>
<path d="M136.317 37.435L133.506 32.23" stroke="#85C770" stroke-width="0.5" stroke-miterlimit="10"/>
<path d="M122.185 52.2458C122.757 51.8 132.566 43.91 130.821 33.6163C130.382 31.093 129.341 28.7125 127.787 26.6763C124.468 27.5956 121.579 29.6546 119.626 32.4919C116.079 37.9296 116.99 45.994 122.185 52.2458Z" fill="#1FA049" stroke="#85C770" stroke-width="0.75" stroke-miterlimit="10"/>
<path d="M122.883 47.6126L126.547 30.3013" stroke="#85C770" stroke-width="0.5" stroke-miterlimit="10"/>
<path d="M125.916 44.0261L125.441 40.4883" stroke="#85C770" stroke-width="0.5" stroke-miterlimit="10"/>
<path d="M127.099 39.6257L126.77 33.7422" stroke="#85C770" stroke-width="0.5" stroke-miterlimit="10"/>
<path d="M121.564 45.9939L122.708 43.687" stroke="#85C770" stroke-width="0.5" stroke-miterlimit="10"/>
<path d="M121.914 42.5725L124.337 37.7939" stroke="#85C770" stroke-width="0.5" stroke-miterlimit="10"/>
<path d="M122.65 37.4741L125.461 32.269" stroke="#85C770" stroke-width="0.5" stroke-miterlimit="10"/>
<path d="M115.701 49.5707C115.129 49.1249 105.32 41.235 107.065 30.9412C107.517 28.4306 108.557 26.0625 110.099 24.0303C113.419 24.9473 116.309 27.0068 118.26 29.8459C121.808 35.2642 120.897 43.3189 115.701 49.5707Z" fill="#1FA049" stroke="#85C770" stroke-width="0.75" stroke-miterlimit="10"/>
<path d="M115.002 44.947L111.348 27.626" stroke="#85C770" stroke-width="0.5" stroke-miterlimit="10"/>
<path d="M111.969 41.3605L112.444 37.813" stroke="#85C770" stroke-width="0.5" stroke-miterlimit="10"/>
<path d="M110.785 36.9504L111.115 31.0669" stroke="#85C770" stroke-width="0.5" stroke-miterlimit="10"/>
<path d="M116.321 43.3283L115.178 41.0117" stroke="#85C770" stroke-width="0.5" stroke-miterlimit="10"/>
<path d="M115.972 39.8972L113.549 35.1187" stroke="#85C770" stroke-width="0.5" stroke-miterlimit="10"/>
<path d="M115.237 34.8085L112.426 29.5938" stroke="#85C770" stroke-width="0.5" stroke-miterlimit="10"/>
<path d="M147.522 17.7588C146.795 17.7588 134.234 18.5148 129.668 27.9168C128.575 30.2214 128.047 32.7533 128.127 35.3027C131.359 36.4742 134.899 36.4742 138.13 35.3027C144.178 32.9571 148.123 25.8716 147.522 17.7588Z" fill="#1FA049" stroke="#85C770" stroke-width="0.75" stroke-miterlimit="10"/>
<path d="M144.263 21.1221L131.227 33.0927" stroke="#85C770" stroke-width="0.5" stroke-miterlimit="10"/>
<path d="M139.71 22.2852L138.043 25.4353" stroke="#85C770" stroke-width="0.5" stroke-miterlimit="10"/>
<path d="M136.191 25.1836L133.041 30.1657" stroke="#85C770" stroke-width="0.5" stroke-miterlimit="10"/>
<path d="M144.401 23.2061L142.123 24.4273" stroke="#85C770" stroke-width="0.5" stroke-miterlimit="10"/>
<path d="M142.124 25.7944L137.375 28.2758" stroke="#85C770" stroke-width="0.5" stroke-miterlimit="10"/>
<path d="M138.567 29.5161L133.256 32.1235" stroke="#85C770" stroke-width="0.5" stroke-miterlimit="10"/>
<path d="M47.3652 22.8861C47.5397 23.584 50.748 35.7581 60.8576 38.3945C63.3319 39.0082 65.9166 39.0248 68.3986 38.443C68.9342 35.0395 68.2438 31.5563 66.4503 28.6145C62.9221 23.1381 55.1873 20.6761 47.3652 22.8861Z" fill="#1FA049" stroke="#85C770" stroke-width="0.75" stroke-miterlimit="10"/>
<path d="M51.3105 25.3965L65.6268 35.7968" stroke="#85C770" stroke-width="0.5" stroke-miterlimit="10"/>
<path d="M53.3457 29.6421L56.7673 30.6501" stroke="#85C770" stroke-width="0.5" stroke-miterlimit="10"/>
<path d="M56.8848 32.5112L62.4 34.6049" stroke="#85C770" stroke-width="0.5" stroke-miterlimit="10"/>
<path d="M53.3281 24.854L54.9662 26.841" stroke="#85C770" stroke-width="0.5" stroke-miterlimit="10"/>
<path d="M56.3027 26.5791L59.6855 30.7373" stroke="#85C770" stroke-width="0.5" stroke-miterlimit="10"/>
<path d="M60.666 29.3223L64.2717 34.0136" stroke="#85C770" stroke-width="0.5" stroke-miterlimit="10"/>
<path d="M64.416 20.2692C64.6486 20.9477 68.9038 32.7923 79.2072 34.5079C81.7274 34.9024 84.3052 34.6931 86.7288 33.8973C86.95 30.466 85.9585 27.0662 83.9276 24.2917C79.9342 19.1642 72.0152 17.3904 64.416 20.2692Z" fill="#1FA049" stroke="#85C770" stroke-width="0.75" stroke-miterlimit="10"/>
<path d="M68.5645 22.4307L83.7337 31.5419" stroke="#85C770" stroke-width="0.5" stroke-miterlimit="10"/>
<path d="M70.957 26.4727L74.4561 27.1802" stroke="#85C770" stroke-width="0.5" stroke-miterlimit="10"/>
<path d="M74.7383 29.0312L80.4086 30.6306" stroke="#85C770" stroke-width="0.5" stroke-miterlimit="10"/>
<path d="M70.5234 21.7134L72.336 23.5453" stroke="#85C770" stroke-width="0.5" stroke-miterlimit="10"/>
<path d="M73.6445 23.1675L77.3762 27.0155" stroke="#85C770" stroke-width="0.5" stroke-miterlimit="10"/>
<path d="M78.2188 25.5229L82.2219 29.875" stroke="#85C770" stroke-width="0.5" stroke-miterlimit="10"/>
<path d="M85.682 13.6104C85.5463 14.3276 83.2976 26.7053 91.362 33.3449C93.3362 34.9446 95.6614 36.054 98.1469 36.5822C100.061 33.7339 100.905 30.3005 100.531 26.8895C99.6687 20.4244 93.7076 14.9286 85.682 13.6104Z" fill="#1FA049" stroke="#85C770" stroke-width="0.75" stroke-miterlimit="10"/>
<path d="M88.1934 17.5649L96.7715 33.0443" stroke="#85C770" stroke-width="0.5" stroke-miterlimit="10"/>
<path d="M88.2402 22.2661L90.9251 24.6312" stroke="#85C770" stroke-width="0.5" stroke-miterlimit="10"/>
<path d="M90.2383 26.3657L94.348 30.5918" stroke="#85C770" stroke-width="0.5" stroke-miterlimit="10"/>
<path d="M90.2461 17.9233L90.8955 20.4241" stroke="#85C770" stroke-width="0.5" stroke-miterlimit="10"/>
<path d="M92.2246 20.7441L93.5234 25.9492" stroke="#85C770" stroke-width="0.5" stroke-miterlimit="10"/>
<path d="M95.0059 25.0771L96.295 30.854" stroke="#85C770" stroke-width="0.5" stroke-miterlimit="10"/>
<path d="M111.582 16.3535C111.718 17.0611 113.967 29.4485 105.902 36.088C103.928 37.6878 101.603 38.7972 99.1175 39.3254C97.213 36.473 96.3693 33.043 96.7331 29.6326C97.5958 23.1675 103.557 17.6717 111.582 16.3535Z" fill="#1FA049" stroke="#85C770" stroke-width="0.75" stroke-miterlimit="10"/>
<path d="M109.07 20.3081L100.502 35.7875" stroke="#85C770" stroke-width="0.5" stroke-miterlimit="10"/>
<path d="M109.021 25.0093L106.346 27.3743" stroke="#85C770" stroke-width="0.5" stroke-miterlimit="10"/>
<path d="M107.026 29.1089L102.926 33.3349" stroke="#85C770" stroke-width="0.5" stroke-miterlimit="10"/>
<path d="M107.017 20.6665L106.367 23.1575" stroke="#85C770" stroke-width="0.5" stroke-miterlimit="10"/>
<path d="M105.037 23.4873L103.738 28.6923" stroke="#85C770" stroke-width="0.5" stroke-miterlimit="10"/>
<path d="M102.256 27.8198L100.977 33.5967" stroke="#85C770" stroke-width="0.5" stroke-miterlimit="10"/>
<path d="M97.7188 32.7829C96.0128 34.4888 89.6932 32.4921 89.3927 29.371C89.1697 27.0738 92.1454 24.2241 94.6268 24.6119C97.9514 25.1256 99.3762 31.1448 97.7188 32.7829Z" fill="#DE499A" stroke="#DBAACE" stroke-width="0.5" stroke-miterlimit="10"/>
<path d="M99.5715 32.8312C97.1774 32.4435 95.0256 26.2207 97.3713 24.1077C99.0869 22.5569 103.187 23.2644 104.311 25.4841C105.843 28.4307 101.878 33.1898 99.5715 32.8312Z" fill="#DE499A" stroke="#DBAACE" stroke-width="0.5" stroke-miterlimit="10"/>
<path d="M97.7106 33.4609C98.8834 35.5836 95.2971 41.1085 92.1857 40.556C89.9079 40.1489 87.9693 36.5142 89.0161 34.2363C90.3828 31.2219 96.5862 31.4351 97.7106 33.4609Z" fill="#DE499A" stroke="#DBAACE" stroke-width="0.5" stroke-miterlimit="10"/>
<path d="M98.1176 32.3558C100.521 31.9584 104.525 37.2022 102.964 39.9356C101.83 41.942 97.7493 42.5526 95.9465 40.8079C93.562 38.5011 95.8204 32.7339 98.1176 32.3558Z" fill="#DE499A" stroke="#DBAACE" stroke-width="0.5" stroke-miterlimit="10"/>
<path d="M98.0405 32.6272C98.3894 30.2234 104.593 27.9941 106.764 30.3203C108.325 32.0166 107.665 36.0875 105.455 37.2701C102.509 38.8403 97.7012 34.9244 98.0405 32.6272Z" fill="#DE499A" stroke="#DBAACE" stroke-width="0.5" stroke-miterlimit="10"/>
<path d="M97.9819 34.4497C99.3095 34.4497 100.386 33.5341 100.386 32.4046C100.386 31.275 99.3095 30.3594 97.9819 30.3594C96.6543 30.3594 95.5781 31.275 95.5781 32.4046C95.5781 33.5341 96.6543 34.4497 97.9819 34.4497Z" fill="#DBAACE" stroke="#DBAACE" stroke-width="0.5" stroke-miterlimit="10"/>
<path d="M69.455 30.0976C67.72 31.8036 61.4294 29.8359 61.1192 26.6761C60.8963 24.3789 63.872 21.5389 66.3436 21.9169C69.6295 22.4403 71.1028 28.4692 69.455 30.0976Z" fill="#DE499A" stroke="#DBAACE" stroke-width="0.5" stroke-miterlimit="10"/>
<path d="M71.3078 30.1464C68.904 29.7683 66.7619 23.5359 69.1075 21.4229C70.8134 19.8914 74.8844 20.5893 76.0475 22.7992C77.5984 25.7071 73.605 30.5535 71.3078 30.1464Z" fill="#DE499A" stroke="#DBAACE" stroke-width="0.5" stroke-miterlimit="10"/>
<path d="M69.4462 30.786C70.619 32.9185 67.0327 38.4433 63.9213 37.8812C61.6435 37.4741 59.7049 33.8393 60.7421 31.5615C62.0894 28.547 68.3218 28.7506 69.4462 30.786Z" fill="#DE499A" stroke="#DBAACE" stroke-width="0.5" stroke-miterlimit="10"/>
<path d="M69.8443 29.6713C72.2384 29.2739 76.2512 34.5177 74.6907 37.2607C73.5469 39.2671 69.476 39.8681 67.6731 38.1331C65.2887 35.8262 67.5568 30.0493 69.8443 29.6713Z" fill="#DE499A" stroke="#DBAACE" stroke-width="0.5" stroke-miterlimit="10"/>
<path d="M69.7661 29.9428C70.1247 27.539 76.3281 25.3193 78.4896 27.6359C80.0501 29.3418 79.391 33.4031 77.1811 34.5953C74.2442 36.1655 69.4365 32.2497 69.7661 29.9428Z" fill="#DE499A" stroke="#DBAACE" stroke-width="0.5" stroke-miterlimit="10"/>
<path d="M69.7183 31.7647C71.0459 31.7647 72.1221 30.849 72.1221 29.7195C72.1221 28.59 71.0459 27.6743 69.7183 27.6743C68.3907 27.6743 67.3145 28.59 67.3145 29.7195C67.3145 30.849 68.3907 31.7647 69.7183 31.7647Z" fill="#DBAACE" stroke="#DBAACE" stroke-width="0.5" stroke-miterlimit="10"/>
<path d="M125.209 32.4142C123.484 34.1201 117.193 32.1428 116.883 29.0024C116.66 26.7052 119.645 23.8555 122.117 24.2432C125.393 24.7375 126.866 30.7761 125.209 32.4142Z" fill="#DE499A" stroke="#DBAACE" stroke-width="0.5" stroke-miterlimit="10"/>
<path d="M127.032 32.4919C124.629 32.1041 122.486 25.8814 124.832 23.7684C126.548 22.2175 130.648 22.9251 131.772 25.1447C133.342 28.0623 129.368 32.8214 127.032 32.4919Z" fill="#DE499A" stroke="#DBAACE" stroke-width="0.5" stroke-miterlimit="10"/>
<path d="M125.21 33.1025C126.383 35.2252 122.787 40.7501 119.675 40.1976C117.407 39.7905 115.469 36.1557 116.506 33.8779C117.882 30.8537 124.124 31.067 125.21 33.1025Z" fill="#DE499A" stroke="#DBAACE" stroke-width="0.5" stroke-miterlimit="10"/>
<path d="M125.616 31.9877C128.01 31.5903 132.013 36.8341 130.462 39.5674C129.319 41.5738 125.248 42.1845 123.445 40.4398C121.051 38.1329 123.319 32.3657 125.616 31.9877Z" fill="#DE499A" stroke="#DBAACE" stroke-width="0.5" stroke-miterlimit="10"/>
<path d="M125.528 32.2591C125.877 29.8552 132.08 27.6259 134.251 29.9522C135.822 31.6484 135.162 35.7194 132.952 36.9019C130.006 38.4721 125.198 34.5562 125.528 32.2591Z" fill="#DE499A" stroke="#DBAACE" stroke-width="0.5" stroke-miterlimit="10"/>
<path d="M125.482 34.0816C126.81 34.0816 127.886 33.1659 127.886 32.0364C127.886 30.9069 126.81 29.9912 125.482 29.9912C124.154 29.9912 123.078 30.9069 123.078 32.0364C123.078 33.1659 124.154 34.0816 125.482 34.0816Z" fill="#DBAACE" stroke="#DBAACE" stroke-width="0.5" stroke-miterlimit="10"/>
<path d="M151.574 30.786C149.849 32.4919 143.558 30.5243 143.248 27.3741C143.025 25.0769 146.011 22.2369 148.482 22.6247C151.758 23.1287 153.203 29.1576 151.574 30.786Z" fill="#DE499A" stroke="#DBAACE" stroke-width="0.5" stroke-miterlimit="10"/>
<path d="M153.435 30.8343C151.031 30.4562 148.889 24.2238 151.234 22.1108C152.95 20.5696 157.05 21.2772 158.174 23.4968C159.706 26.4337 155.732 31.2026 153.435 30.8343Z" fill="#DE499A" stroke="#DBAACE" stroke-width="0.5" stroke-miterlimit="10"/>
<path d="M151.573 31.5225C152.746 33.6549 149.15 39.1798 146.039 38.6176C143.771 38.2202 141.832 34.5757 142.869 32.2979C144.245 29.235 150.449 29.4385 151.573 31.5225Z" fill="#DE499A" stroke="#DBAACE" stroke-width="0.5" stroke-miterlimit="10"/>
<path d="M151.98 30.3597C154.375 29.9623 158.378 35.2061 156.827 37.9492C155.683 39.9556 151.612 40.5662 149.809 38.8215C147.386 36.5147 149.683 30.7378 151.98 30.3597Z" fill="#DE499A" stroke="#DBAACE" stroke-width="0.5" stroke-miterlimit="10"/>
<path d="M151.893 30.6308C152.242 28.227 158.445 26.0074 160.617 28.3336C162.187 30.0299 161.528 34.0912 159.318 35.2834C156.371 36.8536 151.563 32.9377 151.893 30.6308Z" fill="#DE499A" stroke="#DBAACE" stroke-width="0.5" stroke-miterlimit="10"/>
<path d="M151.845 32.4531C153.173 32.4531 154.249 31.5375 154.249 30.408C154.249 29.2785 153.173 28.3628 151.845 28.3628C150.518 28.3628 149.441 29.2785 149.441 30.408C149.441 31.5375 150.518 32.4531 151.845 32.4531Z" fill="#DBAACE" stroke="#DBAACE" stroke-width="0.5" stroke-miterlimit="10"/>
</svg>
