<svg width="250" height="414" viewBox="0 0 250 414" fill="none" xmlns="http://www.w3.org/2000/svg">
<path d="M42.7946 50.0162C53.8332 29.6063 76.3818 10.5532 103.99 8.70195C135.588 6.59771 163.299 26.6397 176.339 49.0618C190.723 73.7951 175.131 84.4313 179.179 152.054C181.559 191.805 187.619 202.843 185.192 237.419C183.811 256.965 180.298 276.301 174.717 295.084H40.1154C34.2038 274.685 30.73 253.657 29.7668 232.44C28.2719 198.221 34.5846 190.298 37.4248 147.754C41.5872 84.9372 29.6633 74.3816 42.7946 50.0162Z" fill="#1C1B17" stroke="#6B6867" stroke-miterlimit="10"/>
<path d="M167.852 61.6299L156.744 275.146Z" fill="#1C1B17"/>
<path d="M167.852 61.6299L156.744 275.146" stroke="#6B6867" stroke-miterlimit="10"/>
<path d="M49.9121 61.6299C51.1923 121.468 54.1972 182.675 58.927 245.25C59.5632 253.843 60.2646 262.383 61.0312 270.869" fill="#1C1B17"/>
<path d="M49.9121 61.6299C51.1923 121.468 54.1972 182.675 58.927 245.25C59.5632 253.843 60.2646 262.383 61.0312 270.869" stroke="#6B6867" stroke-miterlimit="10"/>
<path d="M136.634 33.9185L131.08 283.724Z" fill="#1C1B17"/>
<path d="M136.634 33.9185L131.08 283.724" stroke="#6B6867" stroke-miterlimit="10"/>
<path d="M40.1953 208.236L48.5202 283.678Z" fill="#1C1B17"/>
<path d="M40.1953 208.236L48.5202 283.678" stroke="#6B6867" stroke-miterlimit="10"/>
<path d="M73.4961 38.8511C76.0334 98.8734 78.5784 158.896 81.1311 218.918Z" fill="#1C1B17"/>
<path d="M73.4961 38.8511C76.0334 98.8734 78.5784 158.896 81.1311 218.918" stroke="#6B6867" stroke-miterlimit="10"/>
<path d="M106.795 283.678L107.657 151.812Z" fill="#1C1B17"/>
<path d="M106.795 283.678L107.657 151.812" stroke="#6B6867" stroke-miterlimit="10"/>
<path d="M100.552 38.8511L94.3086 158.436Z" fill="#1C1B17"/>
<path d="M100.552 38.8511L94.3086 158.436" stroke="#6B6867" stroke-miterlimit="10"/>
<path d="M82.5218 287.955C81.1344 272.049 79.7469 256.154 78.3594 240.271Z" fill="#1C1B17"/>
<path d="M82.5218 287.955C81.1344 272.049 79.7469 256.154 78.3594 240.271" stroke="#6B6867" stroke-miterlimit="10"/>
<path d="M114.475 267.246C115.287 261.51 117.961 256.198 122.085 252.129C126.21 248.059 131.556 245.457 137.303 244.722C143.051 243.986 148.88 245.159 153.896 248.059C158.912 250.958 162.838 255.425 165.068 260.773C165.068 266.189 164.838 270.754 164.666 274.18C164.436 278.665 164.171 282.068 163.826 286.392C163.826 286.886 163.286 293.291 162.676 299.166C161.527 310.596 160.101 321.52 158.468 331.903C157.129 335.972 154.439 339.462 150.843 341.792C147.248 344.122 142.964 345.152 138.702 344.712C134.488 344.142 130.583 342.186 127.602 339.153C124.621 336.12 122.733 332.182 122.236 327.959C119.645 307.721 117.058 287.484 114.475 267.246Z" fill="#595A5C"/>
<path d="M134.403 406.735C134.557 407.346 134.911 407.887 135.408 408.274C135.904 408.661 136.516 408.871 137.146 408.871C137.775 408.871 138.387 408.661 138.883 408.274C139.38 407.887 139.734 407.346 139.888 406.735C145.751 389.951 150.521 372.806 154.169 355.406C156.469 344.586 158.171 334.237 159.47 324.452C159.826 311.654 149.305 301.903 138.773 302.961C129.378 303.904 121.375 313.206 121.835 324.452C126.005 351.872 130.195 379.3 134.403 406.735Z" fill="#595A5C"/>
<path d="M104.347 268.546C103.537 262.809 100.864 257.496 96.7408 253.425C92.6173 249.354 87.2708 246.75 81.5233 246.013C75.7758 245.277 69.9454 246.448 64.9284 249.347C59.9114 252.247 55.9854 256.713 53.7539 262.061C53.7539 267.488 53.9839 272.053 54.1564 275.48C54.3863 279.964 54.6623 283.368 54.9957 287.691C54.9957 288.186 55.5362 294.59 56.1456 300.455C57.2955 311.884 58.7098 322.808 60.3426 333.202C61.6838 337.273 64.3764 340.763 67.9737 343.093C71.5711 345.423 75.8568 346.453 80.12 346.012C84.3301 345.437 88.2297 343.479 91.2061 340.447C94.1824 337.414 96.0668 333.478 96.5629 329.258C99.1616 309.021 101.756 288.784 104.347 268.546Z" fill="#595A5C"/>
<path d="M84.4084 408.023C84.2631 408.641 83.9132 409.192 83.4154 409.587C82.9176 409.981 82.3011 410.196 81.666 410.196C81.031 410.196 80.4145 409.981 79.9167 409.587C79.4189 409.192 79.0689 408.641 78.9236 408.023C73.0664 391.241 68.2961 374.1 64.6425 356.705C62.3427 345.885 60.641 335.536 59.3531 325.751C58.9852 312.942 69.5063 303.202 80.0505 304.26C89.4563 305.192 97.4478 314.494 96.9993 325.751L84.4084 408.023Z" fill="#595A5C"/>
<path d="M137.497 157.873C136.229 156.361 135.462 154.492 135.301 152.525C135.141 150.558 135.594 148.59 136.6 146.892C139.187 142.729 144.166 142.58 144.511 142.568C154.273 150.836 164.403 159.92 174.718 169.889C185.032 179.858 194.265 189.436 202.797 198.842C203.929 201.411 204.25 204.264 203.718 207.021C203.185 209.777 201.825 212.305 199.818 214.268C197.812 216.231 195.254 217.536 192.486 218.007C189.719 218.478 186.874 218.094 184.33 216.906C179.777 211.928 147.604 170.349 137.497 157.873Z" fill="#595A5C"/>
<path d="M197.795 215.399C195.211 216.626 192.306 217.008 189.493 216.489C186.68 215.97 184.102 214.578 182.126 212.51C180.15 210.442 178.876 207.804 178.485 204.97C178.094 202.136 178.607 199.251 179.95 196.726L210.72 159.494C212.764 158.505 215.009 158 217.28 158.018C219.551 158.035 221.788 158.576 223.817 159.597C225.643 160.625 227.227 162.034 228.461 163.729C229.695 165.423 230.55 167.363 230.969 169.417C222.826 186.653 211.581 202.244 197.795 215.411V215.399Z" fill="#595A5C"/>
<path d="M218.675 180.674C215.951 180.111 213.505 178.623 211.753 176.462C210.001 174.301 209.05 171.601 209.063 168.819C209.18 166.47 209.989 164.208 211.388 162.317C212.788 160.427 214.715 158.992 216.928 158.194L248.261 158.424C248.676 158.402 249.086 158.533 249.411 158.792C250.4 159.643 250.147 162.035 248.618 164.691C247.883 165.9 247.061 167.053 246.157 168.141C237.866 178.271 224.85 180.214 218.675 180.674Z" fill="#595A5C"/>
<path d="M77.1291 159.137C78.7624 158.023 80.0093 156.428 80.6972 154.575C81.3852 152.721 81.4804 150.699 80.9696 148.789C79.6127 144.086 74.8524 142.591 74.5189 142.499C62.8364 147.811 50.6824 153.825 38.0341 160.632C25.3857 167.439 13.8871 174.2 3.14751 180.916C1.36274 183.083 0.281399 185.742 0.0478441 188.54C-0.185711 191.338 0.439628 194.14 1.84039 196.573C3.24114 199.006 5.35067 200.953 7.88737 202.156C10.4241 203.359 13.2672 203.759 16.0374 203.303C21.7751 199.739 63.9862 168.451 77.1291 159.137Z" fill="#595A5C"/>
<path d="M74.2659 142.511C75.6457 140.705 88.0642 124.975 109.727 125.033C131.391 125.09 143.568 140.671 144.97 142.511C152.674 164.708 158.182 187.608 161.413 210.881C164.285 231.527 165.358 252.383 164.621 273.214C163.184 274.537 149.961 286.334 132.701 282.701C125.664 281.134 119.283 277.432 114.43 272.099C112.989 272.865 111.382 273.266 109.75 273.266C108.118 273.266 106.511 272.865 105.07 272.099C99.9806 277.334 93.4483 280.937 86.3049 282.448C69.1491 285.897 56.0062 275.089 54.224 273.559C52.3903 229.019 59.1962 184.545 74.2659 142.591V142.511Z" fill="#595A5C"/>
<path d="M74.2661 142.511C73.7602 142.361 67.6315 160.678 62.8596 181.261C60.6748 190.644 59.0191 199.589 57.7542 208.029C56.8573 213.928 55.2935 225.473 54.4656 240.352C53.5343 256.829 53.7412 273.467 54.2242 273.479C54.7071 273.49 53.7642 245.434 59.1455 208.972C64.8948 170.119 74.887 142.683 74.2661 142.511Z" fill="#818285"/>
<path d="M145.119 142.913C145.625 142.775 151.259 160.402 156.031 180.985C158.216 190.367 159.871 199.313 161.148 207.742C162.033 213.652 163.597 225.196 164.436 240.076C165.356 256.541 165.149 273.191 164.666 273.203C164.183 273.214 165.126 245.158 159.745 208.696C153.996 169.831 144.498 143.085 145.119 142.913Z" fill="#818285"/>
<path d="M110.247 152.56C148.807 152.56 180.066 121.116 180.066 82.3273C180.066 43.5386 148.807 12.0942 110.247 12.0942C71.6868 12.0942 40.4277 43.5386 40.4277 82.3273C40.4277 121.116 71.6868 152.56 110.247 152.56Z" fill="#595A5C"/>
<path d="M110.015 152.457C107.62 152.498 105.224 152.402 102.84 152.169C97.4469 151.641 92.1422 150.432 87.0527 148.57C94.575 150.291 102.264 151.174 109.981 151.203C117.838 151.226 125.672 150.358 133.334 148.616C125.889 151.415 117.966 152.724 110.015 152.468V152.457Z" fill="#818285"/>
<path d="M164.815 253.218L54.3027 252.471C55.0701 214.842 61.8438 177.577 74.3677 142.085C74.8736 142.982 86.3951 162.357 109.151 162.667C116.426 162.751 123.592 160.886 129.904 157.267C136.216 153.648 141.445 148.406 145.049 142.085C151.341 160.295 156.17 178.978 159.491 197.956C162.678 216.214 164.457 234.689 164.815 253.218V253.218Z" fill="#BED288"/>
<path d="M158.769 194.473L109.521 223.782L60.3875 194.346C57.4093 212.18 54.9832 231.141 53.3964 251.206C49.1176 305.361 51.3722 359.835 60.1115 413.451L158.539 413.577C168.081 360.74 170.744 306.889 166.461 253.368C164.76 232.441 162.092 212.767 158.769 194.473Z" fill="#F4ECAC"/>
<path d="M61.5611 187.907L58.7324 203.855L110.004 230.739V214.399L61.5611 187.907Z" fill="#733744"/>
<path d="M157.62 188.332L160.586 204.246L109.912 230.693V214.353L157.62 188.332Z" fill="#733744"/>
<path d="M2.94041 197.198C1.74749 194.6 1.4032 191.693 1.95642 188.888C2.50965 186.084 3.93227 183.525 6.02231 181.575C8.11234 179.625 10.7636 178.383 13.5996 178.025C16.4356 177.667 19.3122 178.212 21.821 179.582L58.7313 210.766C59.6945 212.823 60.1716 215.074 60.1258 217.345C60.0799 219.616 59.5123 221.846 58.4668 223.863C57.4177 225.678 55.9909 227.247 54.2828 228.463C52.5747 229.679 50.6254 230.514 48.5666 230.911C41.3024 227.38 34.3213 223.293 27.6853 218.688C18.7057 212.413 10.4117 205.21 2.94041 197.198V197.198Z" fill="#595A5C"/>
<path d="M39.082 216.492C39.8265 213.812 41.4761 211.472 43.7505 209.871C46.0249 208.269 48.7837 207.505 51.5579 207.707C53.8953 207.981 56.0993 208.94 57.892 210.465C59.6846 211.989 60.9856 214.01 61.6307 216.274L59.2735 247.515C59.2741 247.939 59.1185 248.348 58.8365 248.665C57.9281 249.596 55.5594 249.171 53.0068 247.515C51.8363 246.699 50.7257 245.8 49.6837 244.824C40.1859 235.798 39.1855 222.678 39.082 216.492Z" fill="#595A5C"/>
<path d="M80.8418 103.806C82.4847 103.562 84.1547 103.562 85.7977 103.806L84.3488 102.656C84.3488 102.656 81.2672 102.909 80.8418 103.806Z" fill="#67A58C"/>
<path d="M68.5625 76.5434C68.5625 76.5434 69.2524 79.602 76.7495 82.4192C76.7495 82.4192 81.3489 84.5464 83.2231 75.0946C83.2231 75.0946 76.324 75.6006 68.9075 68.1035C68.9075 68.1035 68.7005 73.5998 78.9227 77.8198C78.9227 77.8198 79.5206 78.3257 78.9227 78.7167C78.8767 78.7627 73.0009 79.5216 68.5625 76.5434Z" fill="#67A58C"/>
<path d="M86.0629 103.806C91.2893 103.806 95.5262 97.1806 95.5262 89.0076C95.5262 80.8346 91.2893 74.209 86.0629 74.209C80.8365 74.209 76.5996 80.8346 76.5996 89.0076C76.5996 97.1806 80.8365 103.806 86.0629 103.806Z" fill="white"/>
<path d="M149.731 76.5434C149.731 76.5434 149.053 79.602 141.555 82.4192C141.555 82.4192 136.956 84.5464 135.07 75.0946C135.07 75.0946 141.969 75.6006 149.397 68.1035C149.397 68.1035 149.604 73.5998 139.382 77.8198C139.382 77.8198 138.784 78.3257 139.382 78.7167C139.417 78.7627 145.304 79.5216 149.731 76.5434Z" fill="#67A58C"/>
<path d="M137.854 103.806C136.211 103.562 134.541 103.562 132.898 103.806L134.347 102.656C134.347 102.656 137.429 102.909 137.854 103.806Z" fill="#67A58C"/>
<path d="M132.241 103.806C137.467 103.806 141.704 97.1806 141.704 89.0076C141.704 80.8346 137.467 74.209 132.241 74.209C127.014 74.209 122.777 80.8346 122.777 89.0076C122.777 97.1806 127.014 103.806 132.241 103.806Z" fill="white"/>
<path d="M86.2581 103.807C90.3605 103.807 93.6862 98.5092 93.6862 91.9746C93.6862 85.4399 90.3605 80.1426 86.2581 80.1426C82.1557 80.1426 78.8301 85.4399 78.8301 91.9746C78.8301 98.5092 82.1557 103.807 86.2581 103.807Z" fill="#231F20"/>
<path d="M81.7981 86.0181C82.8332 86.0181 83.6724 84.7002 83.6724 83.0745C83.6724 81.4488 82.8332 80.1309 81.7981 80.1309C80.763 80.1309 79.9238 81.4488 79.9238 83.0745C79.9238 84.7002 80.763 86.0181 81.7981 86.0181Z" fill="white"/>
<path d="M132.186 103.807C136.345 103.807 139.717 98.5092 139.717 91.9746C139.717 85.4399 136.345 80.1426 132.186 80.1426C128.026 80.1426 124.654 85.4399 124.654 91.9746C124.654 98.5092 128.026 103.807 132.186 103.807Z" fill="#231F20"/>
<path d="M128.239 86.0181C129.275 86.0181 130.114 84.7002 130.114 83.0745C130.114 81.4488 129.275 80.1309 128.239 80.1309C127.204 80.1309 126.365 81.4488 126.365 83.0745C126.365 84.7002 127.204 86.0181 128.239 86.0181Z" fill="white"/>
<path opacity="0.57" d="M77.3129 115.57C82.1456 115.57 86.0633 114.535 86.0633 113.258C86.0633 111.982 82.1456 110.947 77.3129 110.947C72.4802 110.947 68.5625 111.982 68.5625 113.258C68.5625 114.535 72.4802 115.57 77.3129 115.57Z" fill="#F7B1C4"/>
<path opacity="0.57" d="M143.178 115.57C148.011 115.57 151.929 114.535 151.929 113.258C151.929 111.982 148.011 110.947 143.178 110.947C138.345 110.947 134.428 111.982 134.428 113.258C134.428 114.535 138.345 115.57 143.178 115.57Z" fill="#F7B1C4"/>
<path d="M92.4688 121.457C93.6681 122.359 94.9412 123.159 96.2748 123.848C96.9302 124.205 97.6201 124.504 98.2985 124.826C98.9769 125.148 99.6783 125.389 100.38 125.642C103.186 126.65 106.149 127.148 109.13 127.114C112.11 127.124 115.067 126.594 117.858 125.55L118.915 125.194C119.272 125.067 119.594 124.872 119.939 124.722L121.962 123.756C123.296 123.066 124.527 122.204 125.837 121.457C124.619 122.33 123.411 123.262 122.123 124.044L120.123 125.113C119.778 125.286 119.456 125.493 119.099 125.631L118.041 126.033C117.329 126.297 116.627 126.596 115.903 126.815L113.672 127.332C112.915 127.499 112.146 127.607 111.372 127.654C110.612 127.77 109.842 127.816 109.073 127.792C106.017 127.799 102.986 127.234 100.138 126.125C97.3221 125.042 94.7241 123.461 92.4688 121.457V121.457Z" fill="white"/>
<path d="M58.7318 201.797C56.3286 216.848 54.3163 233.084 52.9825 250.401C51.3751 270.938 50.8148 291.543 51.3037 312.137L110.648 313.114C110.464 285.656 110.276 258.201 110.084 230.75L58.7318 201.797Z" fill="#2D4677"/>
<path d="M160.586 202.372C162.885 217.159 164.909 232.981 166.335 249.758C168.244 272.755 168.796 294.28 168.462 313.977L110.659 313.068C110.475 285.61 110.287 258.155 110.096 230.704L160.586 202.372Z" fill="#2D4677"/>
<path d="M107.487 20.1891C106.765 23.1749 105.791 26.0944 104.578 28.9165C101.123 36.7924 95.8929 43.7621 89.2964 49.2804C92.9185 48.3605 105.693 44.681 113.305 32.3086C115.721 28.3731 117.368 24.0146 118.158 19.4647C124.299 26.4439 131.212 32.7046 138.763 38.1268C148.623 45.2016 159.471 50.7847 170.959 54.6962L178.629 67.2641C178.629 71.806 178.629 79.74 178.272 89.5828C177.352 118.329 174.823 139.475 174.317 144.12C172.247 162.84 170.867 203.119 174.317 299.35C176.386 300.5 179.399 301.65 182.239 300.673C192.277 297.223 190.725 269.765 190.15 249.217C187.988 171.717 199.222 169.877 192.588 98.5056C190.92 80.5219 188.816 65.7578 187.252 55.8346C174.777 23.6502 145.156 1.95244 112.776 1.03255C73.6814 -0.1173 37.2886 29.3074 29.1246 71.3461C26.5374 85.0753 25.0081 95.2975 25.0426 104.807C25.5601 239.65 18.6724 295.257 36.6676 299.787C38.105 300.155 40.8761 300.489 45.0271 298.465C43.0723 233.786 43.8772 194.403 45.0271 170.049C45.326 163.714 46.2344 146.11 46.3379 122.112C46.4414 99.253 45.7745 80.6369 45.188 68.7244L54.7088 55.4896C65.897 50.3886 76.5835 44.2523 86.6288 37.1609C93.9587 31.9837 100.928 26.3133 107.487 20.1891Z" fill="#1C1B17" stroke="#6B6867" stroke-width="0.75" stroke-miterlimit="10"/>
<path d="M51.7402 37.5861C62.9076 24.8154 77.834 15.9112 94.3768 12.1514Z" fill="#1C1B17"/>
<path d="M51.7402 37.5861C62.9076 24.8154 77.834 15.9112 94.3768 12.1514" stroke="#6B6867" stroke-miterlimit="10"/>
<path d="M41.7035 69.0347C37.3921 90.912 35.9695 113.26 37.472 135.508Z" fill="#1C1B17"/>
<path d="M41.7035 69.0347C37.3921 90.912 35.9695 113.26 37.472 135.508" stroke="#6B6867" stroke-miterlimit="10"/>
<path d="M38.5861 56.3174C33.0695 69.1247 30.4053 82.9788 30.7786 96.9187Z" fill="#1C1B17"/>
<path d="M38.5861 56.3174C33.0695 69.1247 30.4053 82.9788 30.7786 96.9187" stroke="#6B6867" stroke-miterlimit="10"/>
<path d="M125.572 19.292C131.033 25.0295 137.006 30.2562 143.418 34.907C150.338 39.9286 157.732 44.2612 165.495 47.8429" fill="#1C1B17"/>
<path d="M125.572 19.292C131.033 25.0295 137.006 30.2562 143.418 34.907C150.338 39.9286 157.732 44.2612 165.495 47.8429" stroke="#6B6867" stroke-miterlimit="10"/>
<path d="M47.9453 47.6244C51.9074 47.0878 55.7982 46.1161 59.5473 44.7268C65.4952 42.5049 71.0063 39.255 75.8293 35.1255" fill="#1C1B17"/>
<path d="M47.9453 47.6244C51.9074 47.0878 55.7982 46.1161 59.5473 44.7268C65.4952 42.5049 71.0063 39.255 75.8293 35.1255" stroke="#6B6867" stroke-miterlimit="10"/>
<path d="M115.982 4.35547C122.401 4.8537 128.712 6.29099 134.714 8.62142C144.251 12.3532 152.801 18.2314 159.7 25.8002" fill="#1C1B17"/>
<path d="M115.982 4.35547C122.401 4.8537 128.712 6.29099 134.714 8.62142C144.251 12.3532 152.801 18.2314 159.7 25.8002" stroke="#6B6867" stroke-miterlimit="10"/>
<path d="M182.225 55.2021C184.286 67.5214 185.477 79.9707 185.789 92.4574C186.184 107.901 185.222 123.349 182.915 138.624" fill="#1C1B17"/>
<path d="M182.225 55.2021C184.286 67.5214 185.477 79.9707 185.789 92.4574C186.184 107.901 185.222 123.349 182.915 138.624" stroke="#6B6867" stroke-miterlimit="10"/>
<path d="M36.6426 210.547C32.3319 232.421 30.9092 254.765 32.4111 277.009Z" fill="#1C1B17"/>
<path d="M36.6426 210.547C32.3319 232.421 30.9092 254.765 32.4111 277.009" stroke="#6B6867" stroke-miterlimit="10"/>
<path d="M34.1938 145.189C29.8908 167.064 28.4759 189.408 29.9854 211.651Z" fill="#1C1B17"/>
<path d="M34.1938 145.189C29.8908 167.064 28.4759 189.408 29.9854 211.651" stroke="#6B6867" stroke-miterlimit="10"/>
<path d="M185.146 229.876C180.824 251.748 179.397 274.094 180.903 296.338Z" fill="#1C1B17"/>
<path d="M185.146 229.876C180.824 251.748 179.397 274.094 180.903 296.338" stroke="#6B6867" stroke-miterlimit="10"/>
<path d="M177.639 146.225C179.701 158.54 180.892 170.985 181.203 183.468C181.588 198.912 180.623 214.36 178.317 229.635" fill="#1C1B17"/>
<path d="M177.639 146.225C179.701 158.54 180.892 170.985 181.203 183.468C181.588 198.912 180.623 214.36 178.317 229.635" stroke="#6B6867" stroke-miterlimit="10"/>
</svg>
