<svg width="234" height="450" viewBox="0 0 234 450" fill="none" xmlns="http://www.w3.org/2000/svg">
<path d="M132.212 193.092C158.202 190.527 196.446 186.739 208.074 154.888C218.845 125.409 203.184 89.904 185.646 71.1347C155.189 38.5608 99.84 34.3674 67.6028 68.9175C45.1262 93.0178 31.9868 138.047 48.9959 167.623C67.0445 198.963 108.773 195.405 132.212 193.092Z" fill="#FDD800"/>
<path d="M130.162 308.937C131.011 303.587 133.463 298.621 137.193 294.697C140.923 290.774 145.756 288.078 151.05 286.967C162.861 284.644 175.115 291.035 180.304 302.507C180.255 307.886 180.082 312.417 179.909 315.82C179.678 320.274 179.418 323.648 179.071 327.938C179.071 328.429 178.542 334.753 177.955 340.614C176.829 351.961 175.414 362.787 173.796 373.111C172.466 377.152 169.797 380.617 166.23 382.93C162.664 385.242 158.415 386.265 154.188 385.826C150.003 385.272 146.121 383.336 143.157 380.324C140.193 377.312 138.317 373.397 137.824 369.197L130.162 308.937Z" fill="#595A5C"/>
<path d="M149.924 447.388C150.066 447.908 150.348 448.378 150.738 448.749C151.128 449.119 151.613 449.375 152.138 449.49C152.837 449.579 153.545 449.417 154.135 449.032C154.726 448.647 155.161 448.065 155.363 447.388C161.171 430.732 165.897 413.717 169.513 396.45C171.775 385.711 173.479 375.435 174.759 365.718C175.125 353.012 164.7 343.343 154.208 344.394C144.89 345.358 136.967 354.554 137.41 365.718C141.588 392.941 145.759 420.165 149.924 447.388Z" fill="#595A5C"/>
<path d="M120.132 310.229C119.287 304.875 116.836 299.905 113.106 295.978C109.375 292.05 104.541 289.352 99.2434 288.24C87.4324 285.916 75.1786 292.298 69.9902 303.77C70.0384 309.159 70.2116 313.69 70.3849 317.083C70.6159 321.537 70.8758 324.911 71.2224 329.21C71.2224 329.692 71.7518 336.016 72.339 341.887C73.4652 353.224 74.8802 364.059 76.4974 374.384C77.8305 378.423 80.5009 381.885 84.0666 384.198C87.6324 386.51 91.8796 387.533 96.1054 387.099C100.29 386.541 104.17 384.604 107.133 381.593C110.096 378.582 111.974 374.668 112.469 370.47L120.132 310.229Z" fill="#595A5C"/>
<path d="M100.37 447.889C100.224 448.404 99.9405 448.869 99.5503 449.234C99.1602 449.599 98.678 449.851 98.1557 449.962C97.4605 450.053 96.7557 449.894 96.1657 449.515C95.5757 449.136 95.1384 448.56 94.931 447.889C89.1299 431.362 84.4033 414.476 80.7809 397.337C78.5188 386.675 76.815 376.476 75.5347 366.845C75.169 354.226 85.5938 344.673 96.0861 345.637C105.404 346.601 113.326 355.72 112.883 366.845C108.706 393.857 104.534 420.871 100.37 447.889Z" fill="#595A5C"/>
<path d="M90.3207 185.091C91.6876 183.298 104.047 167.69 125.465 167.738C146.883 167.787 159.002 183.269 160.388 185.091C168.026 207.128 173.491 229.862 176.704 252.967C179.544 273.459 180.604 294.16 179.871 314.837C178.446 316.148 165.345 327.87 148.23 324.255C141.257 322.702 134.933 319.029 130.124 313.738C128.605 314.532 126.908 314.921 125.195 314.866C123.677 314.815 122.191 314.412 120.854 313.69C115.802 318.864 109.329 322.421 102.257 323.908C85.2478 327.35 72.224 316.611 70.4913 315.097C68.6535 270.886 75.3874 226.736 90.3207 185.091V185.091Z" fill="#595A5C"/>
<path d="M90.3196 185.091C89.8191 184.946 83.7355 203.118 79.0091 223.555C76.8529 232.867 75.1588 241.755 73.9459 250.123C73.0603 255.984 71.5105 267.475 70.6827 282.215C69.7201 298.603 69.98 315.078 70.4517 315.097C70.9234 315.116 69.9896 287.257 75.332 251.068C81.0306 212.517 90.9357 185.293 90.3196 185.091Z" fill="#818285"/>
<path d="M160.55 185.515C161.051 185.38 166.634 202.867 171.36 223.304C173.526 232.616 175.211 241.505 176.423 249.872C177.309 255.733 178.859 267.224 179.687 281.964C180.649 298.352 180.389 314.837 179.918 314.847C179.446 314.856 180.38 287.006 175.037 250.817C169.348 212.247 159.934 185.698 160.55 185.515Z" fill="#818285"/>
<path d="M96.0381 199.021C97.0876 197.367 97.5984 195.428 97.5001 193.472C97.4018 191.515 96.6993 189.638 95.4895 188.098C92.4092 184.339 87.4903 184.84 87.1534 184.879C78.6345 194.278 69.8267 204.544 61.0286 215.727C52.2305 226.909 44.3661 237.504 37.2141 247.848C36.4622 250.523 36.5385 253.364 37.4327 255.995C38.327 258.626 39.9971 260.924 42.2226 262.585C44.4481 264.245 47.1243 265.191 49.8976 265.296C52.6709 265.402 55.411 264.662 57.7558 263.175C61.5388 257.729 87.731 212.613 96.0381 199.021Z" fill="#595A5C"/>
<path d="M37.2141 247.848C39.536 246.208 42.316 245.344 45.1571 245.382C47.9981 245.419 50.7548 246.354 53.0332 248.054C55.3116 249.754 56.9951 252.132 57.8433 254.848C58.6915 257.563 58.6609 260.478 57.7558 263.175L33.691 304.705C33.1904 305.081 27.617 309.033 20.8693 306.739C18.9141 306.032 17.1338 304.911 15.649 303.454C14.1642 301.997 13.0096 300.238 12.2637 298.294C17.4199 280.088 25.8776 262.988 37.2141 247.848V247.848Z" fill="#595A5C"/>
<path d="M12.2932 298.294C13.7878 295.962 16.0446 294.222 18.678 293.371C21.3114 292.52 24.1582 292.611 26.7321 293.628C28.851 294.585 30.6413 296.146 31.8791 298.116C33.117 300.086 33.7474 302.378 33.6916 304.705L22.3138 333.625C22.1934 334.027 21.9295 334.37 21.5726 334.589C20.4367 335.206 18.319 334.117 16.3938 331.745C15.5254 330.632 14.7403 329.456 14.0451 328.227C7.7016 316.938 10.522 304.184 12.2932 298.294Z" fill="#595A5C"/>
<path d="M77.9024 185.842C84.6406 179.721 94.4783 180.107 99.6859 185.563C103.642 189.698 104.586 196.398 101.987 202.308C94.5994 218.018 86.1874 233.225 76.8051 247.828C65.0718 266.1 51.8556 283.372 37.2906 299.47C35.4041 301.842 32.7497 303.48 29.7858 304.101C26.822 304.721 23.7347 304.286 21.0571 302.87C18.3796 301.454 16.28 299.146 15.1208 296.344C13.9616 293.543 13.8157 290.424 14.7082 287.526C16.914 272.556 21.3666 258.005 27.915 244.367C39.3417 220.923 56.5454 200.781 77.9024 185.842V185.842Z" fill="#FDD800"/>
<path d="M166.009 183.944C156.951 170.447 140.79 162.311 123.655 162.793C98.4547 163.507 85.2768 182.498 84.3046 183.944C66.6797 220.17 57.0048 259.755 55.9305 300.039C54.8563 340.322 62.4076 380.368 78.0766 417.485C83.3549 420.894 89.5026 422.707 95.7835 422.707C102.064 422.707 108.212 420.894 113.49 417.485C117.787 402.536 120.953 387.284 122.962 371.858C127.034 340.374 124.502 314.471 124.964 314.461C125.427 314.451 124.878 340.557 130.432 372.302C132.933 386.565 136.429 400.636 140.895 414.41C146.099 419.152 152.9 421.752 159.935 421.688C165.652 421.585 171.196 419.705 175.799 416.309C186.007 379.863 190.648 342.079 189.564 304.242C188.316 263.125 180.359 222.489 166.009 183.944V183.944Z" fill="#FDD800"/>
<path d="M126.214 194.152C164.433 194.152 195.415 162.939 195.415 124.435C195.415 85.9312 164.433 54.7178 126.214 54.7178C87.9959 54.7178 57.0137 85.9312 57.0137 124.435C57.0137 162.939 87.9959 194.152 126.214 194.152Z" fill="#595A5C"/>
<path d="M125.975 194.056C123.603 194.088 121.232 193.991 118.871 193.767C113.527 193.242 108.27 192.041 103.229 190.19C118.324 193.636 134 193.636 149.096 190.19C141.721 192.974 133.872 194.284 125.994 194.046L125.975 194.056Z" fill="#818285"/>
<path d="M103.873 159.197C103.873 159.197 121.951 165.328 149.846 159.197C149.846 159.197 139.258 175.875 126.86 175.585C126.86 175.576 113.297 175.952 103.873 159.197Z" fill="white"/>
<path d="M99.8984 143.793C101.494 143.551 103.116 143.551 104.711 143.793L103.306 142.636C103.306 142.636 100.312 142.973 99.8984 143.793Z" fill="#60C8D4"/>
<path d="M88.0586 117.446C88.0586 117.446 88.7132 120.406 95.9519 123.124C95.9519 123.124 100.389 125.187 102.199 116.048C102.199 116.048 95.5379 116.54 88.3859 109.3C88.3859 109.3 88.1741 114.612 98.0118 118.69C98.0118 118.69 98.5797 119.181 98.0118 119.557C98.0022 119.538 92.3325 120.329 88.0586 117.446Z" fill="#60C8D4"/>
<path d="M104.932 143.802C109.972 143.802 114.057 137.397 114.057 129.496C114.057 121.595 109.972 115.19 104.932 115.19C99.8922 115.19 95.8066 121.595 95.8066 129.496C95.8066 137.397 99.8922 143.802 104.932 143.802Z" fill="white"/>
<path d="M166.365 117.446C166.365 117.446 165.711 120.406 158.472 123.124C158.472 123.124 154.034 125.187 152.225 116.048C152.225 116.048 158.886 116.54 166.038 109.3C166.038 109.3 166.25 114.612 156.412 118.69C156.412 118.69 155.844 119.181 156.46 119.557C156.422 119.538 162.091 120.329 166.365 117.446Z" fill="#60C8D4"/>
<path d="M154.911 143.793C153.315 143.551 151.693 143.551 150.098 143.793L151.493 142.636C151.493 142.636 154.487 142.973 154.911 143.793Z" fill="#60C8D4"/>
<path d="M149.491 143.802C154.53 143.802 158.616 137.397 158.616 129.496C158.616 121.595 154.53 115.19 149.491 115.19C144.451 115.19 140.365 121.595 140.365 129.496C140.365 137.397 144.451 143.802 149.491 143.802Z" fill="white"/>
<path d="M105.125 143.802C109.08 143.802 112.286 138.679 112.286 132.359C112.286 126.04 109.08 120.917 105.125 120.917C101.169 120.917 97.9629 126.04 97.9629 132.359C97.9629 138.679 101.169 143.802 105.125 143.802Z" fill="#231F20"/>
<path d="M100.821 126.604C101.821 126.604 102.631 125.331 102.631 123.76C102.631 122.19 101.821 120.917 100.821 120.917C99.8219 120.917 99.0117 122.19 99.0117 123.76C99.0117 125.331 99.8219 126.604 100.821 126.604Z" fill="white"/>
<path d="M149.434 143.802C153.447 143.802 156.701 138.679 156.701 132.359C156.701 126.04 153.447 120.917 149.434 120.917C145.42 120.917 142.166 126.04 142.166 132.359C142.166 138.679 145.42 143.802 149.434 143.802Z" fill="#231F20"/>
<path d="M145.63 126.604C146.629 126.604 147.44 125.331 147.44 123.76C147.44 122.19 146.629 120.917 145.63 120.917C144.631 120.917 143.82 122.19 143.82 123.76C143.82 125.331 144.631 126.604 145.63 126.604Z" fill="white"/>
<path opacity="0.57" d="M96.4908 155.158C101.153 155.158 104.933 154.161 104.933 152.931C104.933 151.702 101.153 150.705 96.4908 150.705C91.8284 150.705 88.0488 151.702 88.0488 152.931C88.0488 154.161 91.8284 155.158 96.4908 155.158Z" fill="#F7B1C4"/>
<path opacity="0.57" d="M160.042 155.158C164.704 155.158 168.483 154.161 168.483 152.931C168.483 151.702 164.704 150.705 160.042 150.705C155.379 150.705 151.6 151.702 151.6 152.931C151.6 154.161 155.379 155.158 160.042 155.158Z" fill="#F7B1C4"/>
<path d="M54.2029 145.21C58.6885 129.456 67.914 115.469 80.623 105.155C93.332 94.8413 108.907 88.7014 125.226 87.5717C141.545 86.4421 157.815 90.3776 171.82 98.8423C185.825 107.307 196.884 119.889 203.492 134.876C205.47 129.581 206.657 124.023 207.015 118.381C208.632 91.6397 190.391 71.9739 186.059 67.2888C167.491 47.3049 137.737 36.9707 108.946 43.8151C76.7565 51.479 60.7678 77.0638 57.264 82.6647C51.9023 91.2541 43.1716 105.213 45.5589 123.25C46.6648 131.151 49.6273 138.678 54.2029 145.21V145.21Z" fill="#FDD800"/>
<path d="M157.933 51.6907C162.341 58.728 198.631 50.7267 219.182 26.4722C225.653 18.7311 230.422 9.71116 233.178 0.000488281C221.755 0.885814 210.587 3.8419 200.219 8.72478C175.047 20.6881 153.774 45.068 157.933 51.6907Z" fill="#FDD800"/>
<path d="M233.179 0.000639538C224.01 -0.0419526 214.956 2.04342 206.727 6.09318C207.994 8.11026 209.015 10.2722 209.768 12.5328C213.33 23.1369 209.961 32.8348 208.324 36.7487C213.927 32.6311 218.846 27.6534 222.898 21.9994C227.647 15.3624 231.133 7.90456 233.179 0.000639538V0.000639538Z" fill="black"/>
<path d="M82.86 66.3054C79.6931 74.0175 42.5851 72.2437 18.2411 51.7681C10.5651 45.2263 4.35004 37.1397 0 28.0342C11.4071 26.981 22.9104 28.0098 33.9507 31.0708C60.7781 38.619 85.8441 59.0753 82.86 66.3054Z" fill="#FDD800"/>
<path d="M0 28.034C9.02979 26.4407 18.3056 26.9687 27.097 29.5764C26.1878 31.7705 25.5416 34.0648 25.1718 36.4113C23.4488 47.4492 28.4061 56.453 30.6682 60.0391C24.4542 56.9203 18.7694 52.8407 13.8228 47.9505C8.03533 42.2162 3.34984 35.4651 0 28.034H0Z" fill="black"/>
<path d="M160.835 60.1477C161.842 56.2566 159.563 52.2987 155.744 51.3076C151.926 50.3165 148.014 52.6674 147.007 56.5585C146 60.4496 148.279 64.4075 152.098 65.3986C155.916 66.3897 159.828 64.0388 160.835 60.1477Z" fill="black"/>
<path d="M152.946 61.5816C155.467 62.16 157.527 60.1741 158.076 60.8682C158.442 61.3213 157.807 62.5167 157.114 63.2108C155.285 65.0038 152.301 64.0495 152.118 63.9916C151.935 63.9338 149.451 63.3457 148.749 61.2827C148.489 60.5405 148.354 59.3547 148.835 59.0655C149.557 58.6703 150.578 61.0514 152.946 61.5816Z" fill="#70491D"/>
<path d="M155.349 56.0234C155.725 54.5701 154.799 53.0724 153.281 52.6784C151.763 52.2843 150.227 53.1431 149.851 54.5965C149.475 56.0498 150.401 57.5475 151.919 57.9415C153.437 58.3356 154.972 57.4768 155.349 56.0234Z" fill="white"/>
<path d="M93.1001 69.109C96.8483 67.8777 98.8726 63.7833 97.6217 59.9638C96.3707 56.1444 92.3181 54.0462 88.5699 55.2775C84.8217 56.5087 82.7973 60.6031 84.0483 64.4226C85.2993 68.242 89.3519 70.3402 93.1001 69.109Z" fill="black"/>
<path d="M92.0246 65.351C89.5411 66.0837 87.3657 64.2328 86.8555 64.9558C86.5186 65.4378 87.2309 66.5946 87.9721 67.2405C89.8973 68.9179 92.8524 67.7707 93.0161 67.7032C93.1797 67.6357 95.6343 66.8838 96.2023 64.8112C96.414 64.0593 96.4718 62.8832 95.9809 62.6036C95.23 62.2276 94.3348 64.6666 92.0246 65.351Z" fill="#70491D"/>
<path d="M92.8102 61.6592C94.3004 61.1697 95.1296 59.6164 94.6624 58.1898C94.1951 56.7632 92.6083 56.0035 91.1181 56.4931C89.628 56.9826 88.7987 58.5359 89.266 59.9625C89.7332 61.3891 91.32 62.1488 92.8102 61.6592Z" fill="white"/>
<path d="M123.328 61.7936C124.538 61.2914 125.845 61.0645 127.153 61.1295C128.462 61.1946 129.739 61.5498 130.894 62.1696C130.638 63.0641 130.142 63.8711 129.46 64.5025C128.789 65.1245 127.96 65.5483 127.063 65.7268C126.071 65.4566 125.181 64.9001 124.502 64.1266C123.926 63.4574 123.522 62.6561 123.328 61.7936Z" fill="black"/>
<path d="M107.377 72.5326C109.654 74.5129 112.505 75.7091 115.511 75.9451C121.768 76.3404 126.013 71.9445 126.841 71.0576C127.505 71.9059 130.922 76.0512 136.524 76.3693C139.879 76.4877 143.151 75.307 145.659 73.0724C145.149 73.9593 143.003 77.4876 139.066 78.4034C135.129 79.3192 131.682 76.9188 130.893 76.3018C128.4 74.3738 128.467 72.5904 126.898 72.3687C124.53 72.0409 123.857 75.9259 119.689 77.9117C118.606 78.478 117.416 78.8085 116.196 78.8816C114.977 78.9547 113.756 78.7687 112.613 78.3359C109.244 76.9188 107.743 73.4387 107.377 72.5326Z" fill="black"/>
<path d="M185.521 82.4454C187.179 77.2302 185.147 71.9262 180.983 70.5985C176.819 69.2708 172.099 72.4223 170.441 77.6376C168.783 82.8528 170.815 88.1568 174.979 89.4845C179.143 90.8122 183.863 87.6607 185.521 82.4454Z" fill="#EF3A24"/>
<path d="M73.7862 96.2025C77.7252 94.3074 78.9999 88.7718 76.6334 83.8384C74.2668 78.9051 69.1552 76.442 65.2162 78.3372C61.2772 80.2323 60.0025 85.7679 62.369 90.7012C64.7356 95.6346 69.8472 98.0977 73.7862 96.2025Z" fill="#EF3A24"/>
<path d="M154.197 201.623C153.256 199.906 152.868 197.939 153.087 195.992C153.306 194.046 154.121 192.214 155.419 190.749C158.731 187.192 163.611 187.992 163.938 188.06C171.861 197.97 179.975 208.757 188.109 220.431C196.243 232.105 203.386 243.24 209.883 254.008C210.47 256.721 210.222 259.549 209.172 262.118C208.122 264.688 206.319 266.878 204.001 268.401C201.683 269.924 198.959 270.708 196.187 270.649C193.415 270.59 190.727 269.692 188.475 268.073C185 262.356 161.647 215.698 154.197 201.623Z" fill="#595A5C"/>
<path d="M209.846 254.008C207.626 252.237 204.905 251.214 202.07 251.084C199.235 250.953 196.432 251.722 194.059 253.281C191.686 254.84 189.865 257.109 188.856 259.765C187.847 262.421 187.7 265.328 188.438 268.073L209.846 310.971C210.317 311.376 215.621 315.675 222.513 313.796C224.507 313.212 226.352 312.206 227.923 310.845C229.494 309.484 230.755 307.801 231.62 305.91C227.608 287.416 220.227 269.821 209.846 254.008V254.008Z" fill="#595A5C"/>
<path d="M231.629 305.91C230.283 303.498 228.145 301.628 225.578 300.615C223.011 299.603 220.173 299.512 217.546 300.358C215.361 301.166 213.463 302.605 212.093 304.492C210.723 306.379 209.941 308.63 209.846 310.962L219.404 340.547C219.507 340.941 219.75 341.284 220.088 341.511C221.185 342.196 223.37 341.241 225.43 338.995C226.366 337.937 227.225 336.812 228 335.631C235.075 324.805 233.035 311.897 231.629 305.91Z" fill="#595A5C"/>
<path d="M175.365 192.658C169.069 186.083 159.222 185.775 153.649 190.855C149.413 194.711 148.008 201.315 150.183 207.398C164.32 243.892 183.784 278.085 207.939 308.86C209.655 311.357 212.188 313.175 215.1 314.002C218.012 314.829 221.121 314.611 223.89 313.387C226.659 312.164 228.915 310.01 230.268 307.299C231.621 304.587 231.986 301.488 231.301 298.535C230.149 283.447 226.725 268.62 221.146 254.557C211.382 230.365 195.626 209.063 175.365 192.658V192.658Z" fill="#FDD800"/>
</svg>
