<svg width="248" height="377" viewBox="0 0 248 377" fill="none" xmlns="http://www.w3.org/2000/svg">
<g clip-path="url(#clip0_132_1086)">
<path d="M167.224 69.3967C169.463 74.3438 188.543 117.446 183.473 159.275C181.717 173.745 177.043 188.438 180.419 211.616C182.039 222.747 184.228 226.94 181.433 229.97C171.998 240.26 136.334 203.911 98.3211 214.361C88.1068 217.169 82.6163 222.005 71.5982 220.459C56.8703 218.381 49.6733 207.312 40.2009 211.084C38.1112 211.944 36.2569 213.29 34.7922 215.011C33.3275 216.732 32.2947 218.778 31.7797 220.978C30.5431 227.471 35.8852 233.346 35.4895 233.618C35.0938 233.89 24.5085 224.713 19.5497 212.531C9.00154 186.558 32.3733 169.045 37.3691 125.337C40.9305 94.0584 30.0979 93.1802 35.3906 69.4338C42.3403 38.3407 69.5702 0.742141 101.326 1.31107C136.606 1.92946 158.135 49.3853 167.224 69.3967Z" fill="#1C1B17" stroke="#6B6867" stroke-width="0.75" stroke-miterlimit="10"/>
<path d="M80.9857 27.2097C69.2846 34.1273 60.407 44.9615 55.9238 57.7954C51.4406 70.6292 51.6407 84.6355 56.4887 97.336" stroke="#6B6867" stroke-width="0.75" stroke-miterlimit="10"/>
<path d="M57.0567 129.864C58.0583 145.126 54.4474 155.243 50.7871 161.773C43.1573 175.378 31.8548 179.62 27.4277 194.82C25.811 200.566 25.4233 206.588 26.2901 212.494" stroke="#6B6867" stroke-width="0.75" stroke-miterlimit="10"/>
<path d="M111.195 17.5503C113.434 18.9231 166.842 52.6876 163.615 106.451C162.452 125.894 154.316 140.871 148.231 149.739" stroke="#6B6867" stroke-width="0.75" stroke-miterlimit="10"/>
<path d="M103.789 89.9275C108.169 110.72 109.13 132.088 106.633 153.19C105.08 166.172 102.217 178.964 98.0879 191.369" stroke="#6B6867" stroke-width="0.75" stroke-miterlimit="10"/>
<path d="M163.615 148.626C160.647 155.948 154.093 175.155 160.758 197.071C162.814 203.77 165.892 210.111 169.884 215.87" stroke="#6B6867" stroke-width="0.75" stroke-miterlimit="10"/>
<path d="M86.1175 46.0459C69.174 86.3081 66.555 131.166 78.6979 173.127" stroke="#6B6867" stroke-width="0.75" stroke-miterlimit="10"/>
<path d="M130.56 110.446C136.374 129.876 137.161 150.465 132.847 170.282C130.382 181.242 126.351 191.789 120.877 201.598" stroke="#6B6867" stroke-width="0.75" stroke-miterlimit="10"/>
<path d="M104.357 40.3445C107.189 41.7297 122.239 49.4473 127.717 67.1335C130.246 75.4968 130.246 84.4213 127.717 92.7846" stroke="#6B6867" stroke-width="0.75" stroke-miterlimit="10"/>
<path d="M107.424 242.734C108.219 237.368 110.745 232.41 114.617 228.612C118.489 224.815 123.496 222.387 128.875 221.698C134.254 221.009 139.711 222.097 144.415 224.796C149.119 227.495 152.813 231.657 154.934 236.649C154.934 241.744 154.724 246.036 154.563 249.252C154.34 253.469 154.093 256.672 153.772 260.717C153.772 261.187 153.265 267.16 152.708 272.714C151.632 283.449 150.297 293.739 148.763 303.473C147.505 307.291 144.979 310.565 141.606 312.751C138.232 314.937 134.213 315.905 130.214 315.494C126.257 314.961 122.59 313.125 119.791 310.277C116.992 307.428 115.221 303.729 114.757 299.762L107.424 242.734Z" fill="#595A5C"/>
<path d="M126.133 373.76C126.278 374.334 126.61 374.844 127.077 375.208C127.544 375.572 128.119 375.77 128.712 375.77C129.304 375.77 129.879 375.572 130.346 375.208C130.813 374.844 131.145 374.334 131.29 373.76C136.787 357.984 141.269 341.873 144.707 325.525C146.834 315.358 148.417 305.637 149.653 296.448C149.987 284.414 140.107 275.274 130.165 276.263C121.348 277.141 113.829 285.873 114.262 296.448C118.236 322.264 122.193 348.034 126.133 373.76Z" fill="#595A5C"/>
<path d="M97.9144 243.958C97.1303 238.586 94.6101 233.618 90.7385 229.812C86.8669 226.006 81.8566 223.572 76.4723 222.881C71.0881 222.19 65.6257 223.28 60.9188 225.985C56.212 228.69 52.5192 232.86 50.4043 237.861C50.4043 242.956 50.6145 247.248 50.7753 250.464C50.9979 254.681 51.2452 257.884 51.5667 261.941C51.5667 262.399 52.0737 268.385 52.6302 273.926C53.706 284.661 55.0415 294.951 56.5749 304.685C57.8373 308.501 60.363 311.774 63.7352 313.962C67.1074 316.149 71.1246 317.122 75.1239 316.719C79.0813 316.185 82.7486 314.35 85.5474 311.501C88.3462 308.653 90.1173 304.953 90.5814 300.987L97.9144 243.958Z" fill="#595A5C"/>
<path d="M79.1416 374.972C79.0074 375.463 78.7419 375.907 78.3736 376.258C78.0053 376.609 77.5483 376.853 77.0517 376.963C76.3881 377.045 75.7169 376.89 75.156 376.526C74.5952 376.162 74.1806 375.611 73.985 374.972C68.4874 359.198 64.0099 343.086 60.5802 326.737C58.4409 316.558 56.8704 306.837 55.6338 297.647C55.2876 285.626 65.168 276.473 75.1103 277.463C83.9396 278.341 91.4458 287.085 91.0253 297.647C87.0847 323.43 83.1234 349.205 79.1416 374.972Z" fill="#595A5C"/>
<path d="M72.3164 141.18C73.8477 140.134 75.0164 138.638 75.661 136.899C76.3056 135.16 76.3943 133.263 75.9149 131.471C75.4432 130.08 74.6497 128.819 73.599 127.792C72.5482 126.764 71.2699 126 69.8679 125.56C58.9364 130.507 47.4731 136.196 35.6141 142.59C23.7551 148.984 12.9596 155.317 2.86897 161.637C1.21411 163.679 0.217078 166.175 0.00940158 168.795C-0.198275 171.415 0.393165 174.037 1.70569 176.314C3.01822 178.591 4.99017 180.417 7.36136 181.55C9.73256 182.684 12.3916 183.071 14.9876 182.662C20.3669 179.335 60.0122 149.887 72.3164 141.18Z" fill="#595A5C"/>
<path d="M2.67027 176.936C1.54832 174.496 1.2238 171.764 1.74282 169.129C2.26184 166.494 3.598 164.089 5.56144 162.257C7.52489 160.425 10.0157 159.258 12.6801 158.922C15.3445 158.587 18.0468 159.1 20.4031 160.388L55.0279 189.688C55.9348 191.618 56.3843 193.731 56.3414 195.863C56.2985 197.996 55.7644 200.089 54.7806 201.981C53.7971 203.685 52.4589 205.158 50.8566 206.3C49.2543 207.441 47.4254 208.225 45.4937 208.598C29.3907 200.767 14.8694 190.034 2.6579 176.936H2.67027Z" fill="#595A5C"/>
<path d="M69.6696 125.56C70.9062 123.865 82.6662 109.098 102.971 109.147C123.276 109.197 134.789 123.84 136.025 125.56C143.266 146.411 148.443 167.923 151.483 189.786C154.206 209.177 155.24 228.767 154.574 248.336C153.227 249.573 140.811 260.704 124.587 257.241C117.988 255.787 111.998 252.332 107.435 247.347C105.994 248.095 104.384 248.462 102.761 248.411C101.321 248.365 99.9106 247.983 98.6431 247.297C93.8563 252.198 87.7238 255.568 81.0215 256.981C64.9457 260.234 52.5798 250.068 50.8856 248.645C49.1571 206.802 55.5528 165.019 69.719 125.609L69.6696 125.56Z" fill="#595A5C"/>
<path d="M69.6701 125.56C69.1878 125.424 63.4871 142.627 58.9487 161.971C56.9084 170.777 55.3379 179.187 54.1507 187.103C53.3222 192.656 51.8507 203.49 51.0592 217.466C50.206 232.938 50.3915 248.584 50.8367 248.596C51.2818 248.608 50.4038 222.24 55.4739 187.993C60.8655 151.495 70.2513 125.733 69.6701 125.56Z" fill="#818285"/>
<path d="M136.211 125.943C136.693 125.807 141.973 142.368 146.462 161.699C148.502 170.517 150.073 178.927 151.26 186.843C152.089 192.384 153.573 203.23 154.352 217.206C155.217 232.678 155.019 248.312 154.574 248.324C154.129 248.336 155.007 221.98 149.949 187.721C144.545 151.235 135.629 126.153 136.211 125.943Z" fill="#818285"/>
<path d="M103.453 135.009C139.663 135.009 169.018 105.473 169.018 69.0381C169.018 32.6035 139.663 3.06738 103.453 3.06738C67.2429 3.06738 37.8887 32.6035 37.8887 69.0381C37.8887 105.473 67.2429 135.009 103.453 135.009Z" fill="#595A5C"/>
<path d="M103.232 134.91C100.987 134.949 98.7405 134.858 96.5052 134.638C91.4358 134.146 86.4494 133.011 81.666 131.261C95.9737 134.502 110.825 134.502 125.132 131.261C121.018 132.8 116.74 133.863 112.383 134.427C109.351 134.836 106.291 134.997 103.232 134.91V134.91Z" fill="#818285"/>
<path d="M75.8398 89.2102C77.3851 88.9765 78.9566 88.9765 80.5018 89.2102L79.1416 88.0847C79.1416 88.0847 76.2479 88.4186 75.8398 89.2102Z" fill="#E27626"/>
<path d="M64.3027 63.5961C64.3027 63.5961 64.9458 66.4778 71.982 69.1245C71.982 69.1245 76.3101 71.1158 78.0661 62.2356C78.0661 62.2356 71.5863 62.7179 64.6242 55.6682C64.6242 55.6682 64.4264 60.838 74.0224 64.7958C74.0224 64.7958 74.5912 65.2781 74.0224 65.6368C73.9977 65.6368 68.4824 66.4036 64.3027 63.5961Z" fill="#E27626"/>
<path d="M80.7505 89.2101C85.661 89.2101 89.6417 82.9862 89.6417 75.3086C89.6417 67.6309 85.661 61.407 80.7505 61.407C75.8401 61.407 71.8594 67.6309 71.8594 75.3086C71.8594 82.9862 75.8401 89.2101 80.7505 89.2101Z" fill="white"/>
<path d="M140.551 63.5961C140.551 63.5961 139.908 66.4778 132.859 69.1245C132.859 69.1245 128.544 71.1158 126.775 62.2356C126.775 62.2356 133.255 62.7179 140.23 55.6682C140.23 55.6682 140.427 60.838 130.819 64.7958C130.819 64.7958 130.263 65.2781 130.819 65.6368C130.856 65.6368 136.384 66.4036 140.551 63.5961Z" fill="#E27626"/>
<path d="M129.386 89.2102C127.845 88.9769 126.277 88.9769 124.736 89.2102L126.097 88.0847C126.097 88.0847 128.978 88.4186 129.386 89.2102Z" fill="#E27626"/>
<path d="M124.118 89.2101C129.028 89.2101 133.009 82.9862 133.009 75.3086C133.009 67.6309 129.028 61.407 124.118 61.407C119.207 61.407 115.227 67.6309 115.227 75.3086C115.227 82.9862 119.207 89.2101 124.118 89.2101Z" fill="white"/>
<path d="M80.9354 89.2102C84.7872 89.2102 87.9098 84.2322 87.9098 78.0914C87.9098 71.9507 84.7872 66.9727 80.9354 66.9727C77.0835 66.9727 73.9609 71.9507 73.9609 78.0914C73.9609 84.2322 77.0835 89.2102 80.9354 89.2102Z" fill="#231F20"/>
<path d="M76.7429 72.4888C77.7196 72.4888 78.5113 71.2539 78.5113 69.7307C78.5113 68.2075 77.7196 66.9727 76.7429 66.9727C75.7663 66.9727 74.9746 68.2075 74.9746 69.7307C74.9746 71.2539 75.7663 72.4888 76.7429 72.4888Z" fill="white"/>
<path d="M124.067 89.2102C127.974 89.2102 131.141 84.2322 131.141 78.0914C131.141 71.9507 127.974 66.9727 124.067 66.9727C120.161 66.9727 116.994 71.9507 116.994 78.0914C116.994 84.2322 120.161 89.2102 124.067 89.2102Z" fill="#231F20"/>
<path d="M120.358 72.4888C121.335 72.4888 122.127 71.2539 122.127 69.7307C122.127 68.2075 121.335 66.9727 120.358 66.9727C119.382 66.9727 118.59 68.2075 118.59 69.7307C118.59 71.2539 119.382 72.4888 120.358 72.4888Z" fill="white"/>
<path opacity="0.57" d="M72.5274 100.255C77.0623 100.255 80.7384 99.2858 80.7384 98.0904C80.7384 96.8951 77.0623 95.926 72.5274 95.926C67.9926 95.926 64.3164 96.8951 64.3164 98.0904C64.3164 99.2858 67.9926 100.255 72.5274 100.255Z" fill="#F7B1C4"/>
<path opacity="0.57" d="M134.381 100.255C138.916 100.255 142.592 99.2858 142.592 98.0904C142.592 96.8951 138.916 95.926 134.381 95.926C129.846 95.926 126.17 96.8951 126.17 98.0904C126.17 99.2858 129.846 100.255 134.381 100.255Z" fill="#F7B1C4"/>
<path d="M86.7598 105.783C87.8904 106.625 89.0901 107.37 90.3459 108.009C90.9642 108.343 91.5825 108.615 92.2503 108.925C92.918 109.234 93.5487 109.444 94.2041 109.679C96.8367 110.625 99.618 111.09 102.415 111.052C105.206 111.069 107.976 110.574 110.589 109.593C111.917 109.139 113.207 108.581 114.447 107.923C115.684 107.292 116.92 106.476 118.157 105.783C117.019 106.612 115.894 107.49 114.682 108.257C113.432 108.961 112.13 109.569 110.787 110.075C110.119 110.322 109.464 110.607 108.784 110.817L106.681 111.299C105.981 111.452 105.27 111.556 104.554 111.609C103.846 111.712 103.13 111.753 102.415 111.732C99.5329 111.764 96.671 111.248 93.9815 110.211C91.3242 109.188 88.8766 107.688 86.7598 105.783Z" fill="white"/>
<path d="M120.482 16.264L121.632 6.36962C117.391 4.58863 89.4809 -6.62911 64.7489 7.75483C56.9897 12.1704 50.4597 18.4591 45.7548 26.047C38.7061 37.6234 38.1991 48.7917 37.9271 57.4864C37.5414 72.3147 40.8071 87.0105 47.4365 100.279C45.7548 94.986 39.4852 72.971 50.7877 51.9455C58.7514 37.104 71.4018 30.2398 78.908 26.1707C91.6658 19.3003 105.998 15.8852 120.482 16.264V16.264Z" fill="#1C1B17" stroke="#6B6867" stroke-width="0.75" stroke-miterlimit="10"/>
<path d="M120.482 16.2639L121.632 6.36956C124.922 4.38669 128.675 3.30334 132.515 3.2281C151.768 3.11679 171.195 32.1073 181.805 74.7273C189.571 105.944 190.783 99.8218 201.591 122.863C216.096 153.895 222.613 159.967 221.723 174.735C221.438 179.682 220.177 188.562 224.654 197.962C227.127 203.119 232.073 210.02 236.352 209.278C241.162 208.45 241.904 198.629 243.945 198.864C246.517 199.149 250.771 215.301 243.66 222.982C237.477 229.673 222.935 229.574 211.199 219.111C206.253 223.106 205.585 230.094 208.862 233.952C210.247 235.446 212.059 236.475 214.051 236.9C216.043 237.325 218.118 237.125 219.992 236.327C215.826 240.005 210.791 242.56 205.363 243.748C202.333 244.403 190.523 246.481 181.682 239.58C174.732 234.163 175.239 227.608 169.984 226.185C164.728 224.763 159.151 229.586 155.07 233.928C154.045 211.729 151.399 189.634 147.156 167.821C144.213 152.67 140.688 138.645 136.917 125.869C157.939 111.027 169.439 87.021 165.965 64.3753C162.972 44.8957 149.802 32.2186 147.96 30.5489C140.263 23.3859 130.766 18.4485 120.482 16.2639V16.2639Z" fill="#1C1B17" stroke="#6B6867" stroke-width="0.75" stroke-miterlimit="10"/>
<path d="M148.119 123.469C152.695 131.069 156.47 139.122 159.385 147.5C164.94 163.791 167.906 180.851 168.177 198.061" fill="#1C1B17"/>
<path d="M148.119 123.469C152.695 131.069 156.47 139.122 159.385 147.5C164.94 163.791 167.906 180.851 168.177 198.061" stroke="#6B6867" stroke-width="0.75" stroke-miterlimit="10"/>
<path d="M155.713 110.075C160.263 114.557 164.137 119.678 167.213 125.275C170.834 131.879 173.317 139.045 174.559 146.474" fill="#1C1B17"/>
<path d="M155.713 110.075C160.263 114.557 164.137 119.678 167.213 125.275C170.834 131.879 173.317 139.045 174.559 146.474" stroke="#6B6867" stroke-width="0.75" stroke-miterlimit="10"/>
<path d="M174.361 92.0547C182.172 102.767 189.364 113.916 195.903 125.448C203.294 138.478 209.836 151.97 215.491 165.842" fill="#1C1B17"/>
<path d="M174.361 92.0547C182.172 102.767 189.364 113.916 195.903 125.448C203.294 138.478 209.836 151.97 215.491 165.842" stroke="#6B6867" stroke-width="0.75" stroke-miterlimit="10"/>
<path d="M192.762 219.432C195.162 206.344 195.579 192.968 193.999 179.756C192.525 166.602 188.798 153.799 182.98 141.91" fill="#1C1B17"/>
<path d="M192.762 219.432C195.162 206.344 195.579 192.968 193.999 179.756C192.525 166.602 188.798 153.799 182.98 141.91" stroke="#6B6867" stroke-width="0.75" stroke-miterlimit="10"/>
<path d="M120.47 11.8609C112.008 7.64189 102.531 5.88494 93.1185 6.79022C83.7064 7.6955 74.7378 11.2266 67.2344 16.9812" fill="#1C1B17"/>
<path d="M120.47 11.8609C112.008 7.64189 102.531 5.88494 93.1185 6.79022C83.7064 7.6955 74.7378 11.2266 67.2344 16.9812" stroke="#6B6867" stroke-width="0.75" stroke-miterlimit="10"/>
<path d="M42.4531 45.9596C43.3418 41.1723 45.0396 36.5715 47.4737 32.3548C50.8507 26.5611 55.5552 21.6524 61.2 18.0327" fill="#1C1B17"/>
<path d="M42.4531 45.9596C43.3418 41.1723 45.0396 36.5715 47.4737 32.3548C50.8507 26.5611 55.5552 21.6524 61.2 18.0327" stroke="#6B6867" stroke-width="0.75" stroke-miterlimit="10"/>
<path d="M42.4531 59.255C42.8736 55.8538 45.8167 34.3336 63.5495 23.7961C68.169 21.0812 73.2944 19.3388 78.6113 18.6758" fill="#1C1B17"/>
<path d="M42.4531 59.255C42.8736 55.8538 45.8167 34.3336 63.5495 23.7961C68.169 21.0812 73.2944 19.3388 78.6113 18.6758" stroke="#6B6867" stroke-width="0.75" stroke-miterlimit="10"/>
<path d="M121.471 8.44744C125.936 7.12556 130.672 7.01034 135.197 8.1135C140.874 9.54324 145.936 12.7712 149.628 17.3153" fill="#1C1B17"/>
<path d="M121.471 8.44744C125.936 7.12556 130.672 7.01034 135.197 8.1135C140.874 9.54324 145.936 12.7712 149.628 17.3153" stroke="#6B6867" stroke-width="0.75" stroke-miterlimit="10"/>
<path d="M151.941 26.1831C156.848 29.9368 161.038 34.5456 164.307 39.7879C168.694 46.9018 171.331 54.9555 171.999 63.287" fill="#1C1B17"/>
<path d="M151.941 26.1831C156.848 29.9368 161.038 34.5456 164.307 39.7879C168.694 46.9018 171.331 54.9555 171.999 63.287" stroke="#6B6867" stroke-width="0.75" stroke-miterlimit="10"/>
<path d="M205.275 161.414C202.89 160.987 200.714 159.78 199.088 157.983C197.462 156.186 196.479 153.9 196.292 151.483C196.106 149.067 196.726 146.657 198.056 144.631C199.387 142.605 201.352 141.078 203.643 140.29L233.062 140.512C233.45 140.495 233.832 140.618 234.138 140.859C235.065 141.65 234.83 143.901 233.396 146.4C232.699 147.543 231.927 148.638 231.083 149.677C223.317 159.151 211.087 160.981 205.275 161.414Z" fill="#595A5C"/>
<path d="M185.688 194.041C183.26 195.191 180.532 195.547 177.89 195.058C175.249 194.569 172.828 193.261 170.972 191.318C169.116 189.375 167.919 186.898 167.55 184.236C167.182 181.574 167.661 178.864 168.92 176.491L197.857 141.514C199.778 140.587 201.888 140.115 204.022 140.134C206.155 140.153 208.256 140.664 210.161 141.625C211.877 142.588 213.365 143.909 214.524 145.499C215.683 147.09 216.485 148.911 216.875 150.84C213.645 157.687 209.883 164.271 205.622 170.529C199.826 179.048 193.144 186.93 185.688 194.041Z" fill="#595A5C"/>
<path d="M129.051 139.993C127.862 138.571 127.143 136.816 126.993 134.969C126.842 133.122 127.267 131.273 128.21 129.678C129.041 128.466 130.146 127.468 131.435 126.763C132.724 126.058 134.161 125.667 135.63 125.621C144.805 133.388 154.302 141.922 163.997 151.272C173.692 160.623 182.361 169.664 190.362 178.482C191.4 180.891 191.685 183.558 191.178 186.132C190.671 188.706 189.397 191.066 187.523 192.902C185.649 194.737 183.263 195.962 180.679 196.415C178.096 196.868 175.436 196.527 173.049 195.438C168.758 190.776 138.499 151.718 129.051 139.993Z" fill="#595A5C"/>
<path d="M154.712 230.118L50.9238 229.426C51.6393 194.094 58.0016 159.104 69.7696 125.782C70.2519 126.623 81.0721 144.829 102.428 145.113C109.262 145.19 115.991 143.438 121.92 140.039C127.85 136.64 132.762 131.718 136.15 125.782C142.072 142.885 146.621 160.433 149.753 178.259C152.73 195.393 154.388 212.731 154.712 230.118V230.118Z" fill="#F7E6B9"/>
<path d="M150.767 184.122L102.774 208.709L55.0167 183.763C48.3771 217.242 47.9956 251.661 53.8914 285.279L150.767 288.594C155.39 267.797 157.236 246.478 156.257 225.196C155.618 211.371 153.781 197.629 150.767 184.122V184.122Z" fill="#F1C36D"/>
<path d="M57.7361 168.773L55.0156 183.763L103.181 209.019V193.682L57.7361 168.773Z" fill="#595A5C"/>
<path d="M147.984 169.181L150.766 184.122L103.182 209.019V193.682L147.984 169.181Z" fill="#595A5C"/>
<path d="M36.6152 195.055C37.307 192.529 38.8536 190.32 40.9914 188.807C43.1292 187.294 45.7258 186.569 48.3382 186.756C50.5327 187.017 52.6014 187.92 54.2844 189.353C55.9674 190.785 57.1898 192.683 57.7982 194.808L55.6465 224.194C55.6407 224.582 55.4959 224.955 55.2384 225.245C54.3728 226.124 52.1593 225.728 49.7603 224.12C48.6616 223.374 47.62 222.547 46.6441 221.646C37.654 213.199 36.6647 200.868 36.6152 195.055Z" fill="#595A5C"/>
</g>
<defs>
<clipPath id="clip0_132_1086">
<rect width="248" height="377" fill="white"/>
</clipPath>
</defs>
</svg>
