<svg width="250" height="381" viewBox="0 0 250 381" fill="none" xmlns="http://www.w3.org/2000/svg">
<path d="M56.2453 130.792C51.9706 117.492 49.7638 103.614 49.702 89.6442C49.6504 71.934 49.5782 48.1346 63.8 31.5391C89.7151 1.32029 152.95 6.8315 176.181 34.5424C181.001 40.291 186.935 50.3742 190.713 61.8817C195.212 75.6081 194.841 85.7017 195.409 94.7838C197.07 119.677 206.183 134.756 212.5 150.763C233.275 203.398 238.229 302.362 198.123 326.152C193.57 328.819 188.532 330.555 183.302 331.26C196.162 331.374 227.939 332.148 243.864 338.278C246.96 339.475 249.716 340.962 249.953 343.088C250.459 347.711 238.879 352.851 232.408 355.049C206.142 363.966 181.476 352.366 180.805 354.564C180.34 356.009 190.486 363.13 204.542 364.524C225.607 366.588 241.697 354.399 242.935 356.525C243.885 358.125 235.907 366.67 224.172 372.749C202.344 384.102 180.918 379.839 157.769 375.288C155.862 375.006 154.043 374.301 152.444 373.224C140.524 364.895 148.14 335.729 150.751 326.647C135.113 339.334 116.586 347.964 96.8121 351.772C77.0385 355.58 56.6308 354.447 37.3998 348.475C27.8326 348.878 15.2621 347.618 7.33588 339.238C-11.5715 319.247 11.526 271.803 15.9226 262.731C37.2038 218.765 64.0993 211.964 68.3204 179.981C71.0244 159.422 62.6544 141.567 56.2453 130.792Z" fill="#EEC41A" stroke="#ED9422" stroke-miterlimit="10"/>
<path d="M183.673 336.4C222.892 340.993 232.758 343.707 232.676 345.369C232.593 347.03 222.51 348.692 183.137 349.187" fill="#EEC41A"/>
<path d="M183.673 336.4C222.892 340.993 232.758 343.707 232.676 345.369C232.593 347.03 222.51 348.692 183.137 349.187" stroke="#ED9422" stroke-miterlimit="10"/>
<path d="M167.068 324.831C167.615 333.768 165.623 339.951 163.518 344.099C158.832 353.285 151.226 357.052 152.619 362.346C153.424 365.442 156.747 367.001 159.09 368.126C167.15 371.965 175.324 368.611 177.192 367.796" fill="#EEC41A"/>
<path d="M167.068 324.831C167.615 333.768 165.623 339.951 163.518 344.099C158.832 353.285 151.226 357.052 152.619 362.346C153.424 365.442 156.747 367.001 159.09 368.126C167.15 371.965 175.324 368.611 177.192 367.796" stroke="#ED9422" stroke-miterlimit="10"/>
<path d="M169.555 356.99C180.373 364.785 193.268 369.183 206.595 369.622Z" fill="#EEC41A"/>
<path d="M169.555 356.99C180.373 364.785 193.268 369.183 206.595 369.622" stroke="#ED9422" stroke-miterlimit="10"/>
<path d="M176.533 341.065C169.058 345.036 163.147 351.42 159.762 359.178Z" fill="#EEC41A"/>
<path d="M176.533 341.065C169.058 345.036 163.147 351.42 159.762 359.178" stroke="#ED9422" stroke-miterlimit="10"/>
<path d="M17.0273 331.075C21.0299 289.793 40.0502 251.418 70.4779 223.234Z" fill="#EEC41A"/>
<path d="M17.0273 331.075C21.0299 289.793 40.0502 251.418 70.4779 223.234" stroke="#ED9422" stroke-miterlimit="10"/>
<path d="M166.223 113.382C174.159 125.557 180.735 138.567 185.832 152.177C193.451 172.517 197.707 193.962 198.433 215.67" fill="#EEC41A"/>
<path d="M166.223 113.382C174.159 125.557 180.735 138.567 185.832 152.177C193.451 172.517 197.707 193.962 198.433 215.67" stroke="#ED9422" stroke-miterlimit="10"/>
<path d="M83.078 166.791C88.4023 178.877 91.3123 191.888 91.6441 205.091C91.9998 220.378 88.8987 235.548 82.5723 249.47" fill="#EEC41A"/>
<path d="M83.078 166.791C88.4023 178.877 91.3123 191.888 91.6441 205.091C91.9998 220.378 88.8987 235.548 82.5723 249.47" stroke="#ED9422" stroke-miterlimit="10"/>
<path d="M37.3998 348.475C35.1974 335.232 36.0328 321.662 39.8427 308.789C43.6527 295.917 50.3378 284.078 59.3931 274.167" fill="#EEC41A"/>
<path d="M37.3998 348.475C35.1974 335.232 36.0328 321.662 39.8427 308.789C43.6527 295.917 50.3378 284.078 59.3931 274.167" stroke="#ED9422" stroke-miterlimit="10"/>
<path d="M143.043 189.465C146.139 193.253 170.908 224.339 161.692 265.054C154.612 296.15 132.247 312.869 126.416 316.956" fill="#EEC41A"/>
<path d="M143.043 189.465C146.139 193.253 170.908 224.339 161.692 265.054C154.612 296.15 132.247 312.869 126.416 316.956" stroke="#ED9422" stroke-miterlimit="10"/>
<path d="M109.789 147.14C115.981 158.493 129.285 186.545 125.91 223.234C124.231 241.087 118.913 258.407 110.284 274.125" fill="#EEC41A"/>
<path d="M109.789 147.14C115.981 158.493 129.285 186.545 125.91 223.234C124.231 241.087 118.913 258.407 110.284 274.125" stroke="#ED9422" stroke-miterlimit="10"/>
<path d="M94.6676 257.468C80.9688 277.209 74.3921 301.023 76.0182 324.996Z" fill="#EEC41A"/>
<path d="M94.6676 257.468C80.9688 277.209 74.3921 301.023 76.0182 324.996" stroke="#ED9422" stroke-miterlimit="10"/>
<path d="M132.969 117.913C148.66 133.1 161.171 151.26 169.772 171.332C187.668 213.347 182.859 251.472 179.845 267.572" fill="#EEC41A"/>
<path d="M132.969 117.913C148.66 133.1 161.171 151.26 169.772 171.332C187.668 213.347 182.859 251.472 179.845 267.572" stroke="#ED9422" stroke-miterlimit="10"/>
<path d="M205.534 266.065C206.226 269.027 210.086 286.655 198.981 302.848C193.421 310.822 185.469 316.822 176.275 319.98" fill="#EEC41A"/>
<path d="M205.534 266.065C206.226 269.027 210.086 286.655 198.981 302.848C193.421 310.822 185.469 316.822 176.275 319.98" stroke="#ED9422" stroke-miterlimit="10"/>
<path d="M88.0014 22.6118C75.613 34.0168 66.4065 48.4499 61.2873 64.4916C56.168 80.5334 55.3123 97.6314 58.8044 114.104" stroke="#ED9422" stroke-miterlimit="10"/>
<path d="M155.654 31.374C158.224 32.5506 170.826 38.6604 176.089 53.2744C178.635 60.473 178.973 68.2679 177.059 75.6598" stroke="#ED9422" stroke-miterlimit="10"/>
<path d="M109.913 27.4832C107.725 29.8775 89.3645 50.653 94.7622 78.7044C98.4673 97.973 111.193 109.305 115.269 112.649" stroke="#ED9422" stroke-miterlimit="10"/>
<path d="M75.3477 83.4519C80.2603 88.9838 93.9248 105.848 94.3273 130.163C94.4545 138.281 93.1371 146.357 90.4364 154.014" stroke="#ED9422" stroke-miterlimit="10"/>
<path d="M130.348 22.158C142.488 32.8656 150.498 47.4854 152.986 63.481C155.475 79.4766 152.285 95.8387 143.971 109.728" stroke="#ED9422" stroke-miterlimit="10"/>
<path d="M123.041 53.7595C127.249 65.1748 129.871 77.1136 130.833 89.2418C132.116 105.818 130.299 122.488 125.477 138.399" stroke="#ED9422" stroke-miterlimit="10"/>
<path d="M69.9923 118.005C68.8896 125.326 69.3896 132.798 71.4578 139.906C72.8743 144.737 75.0068 149.329 77.7844 153.529" stroke="#ED9422" stroke-miterlimit="10"/>
<path d="M121.926 244.536C122.647 239.609 124.961 235.052 128.514 231.562C132.068 228.073 136.665 225.841 141.605 225.208C146.545 224.576 151.556 225.576 155.874 228.058C160.192 230.54 163.58 234.366 165.52 238.953C165.52 243.628 165.324 247.56 165.169 250.512C164.973 254.382 164.746 257.313 164.447 261.039C164.447 261.462 163.982 266.953 163.477 272.041C162.445 281.887 161.258 291.309 159.854 300.257C158.697 303.764 156.377 306.771 153.279 308.779C150.18 310.787 146.488 311.677 142.815 311.3C139.181 310.81 135.814 309.123 133.244 306.507C130.675 303.891 129.049 300.494 128.624 296.852C126.395 279.417 124.162 261.978 121.926 244.536Z" fill="#595A5C"/>
<path d="M139.098 364.803C139.23 365.33 139.534 365.798 139.962 366.133C140.39 366.468 140.918 366.649 141.462 366.649C142.005 366.649 142.533 366.468 142.961 366.133C143.39 365.798 143.694 365.33 143.825 364.803C148.871 350.336 152.984 335.561 156.138 320.568C158.098 311.28 159.585 302.322 160.699 293.89C161.009 282.857 151.947 274.456 142.824 275.374C134.722 276.179 127.838 284.188 128.22 293.89C131.839 317.489 135.465 341.127 139.098 364.803Z" fill="#595A5C"/>
<path d="M113.194 245.661C112.467 240.738 110.15 236.187 106.598 232.702C103.046 229.216 98.4515 226.987 93.5153 226.354C88.579 225.72 83.571 226.718 79.2537 229.193C74.9364 231.669 71.5463 235.487 69.5996 240.067C69.5996 244.743 69.7957 248.675 69.9402 251.627C70.1363 255.497 70.3737 258.428 70.6626 262.154C70.6626 262.577 71.1374 268.067 71.6947 273.155C72.7268 283.012 73.9033 292.424 75.3069 301.372C76.464 304.881 78.7855 307.888 81.8864 309.897C84.9873 311.905 88.6815 312.794 92.3566 312.415C95.9886 311.922 99.3534 310.235 101.921 307.619C104.488 305.003 106.112 301.607 106.537 297.966C108.739 280.531 110.958 263.096 113.194 245.661Z" fill="#595A5C"/>
<path d="M96.0103 365.834C95.8879 366.284 95.644 366.692 95.3054 367.012C94.9668 367.333 94.5465 367.554 94.0906 367.651C93.4918 367.716 92.889 367.57 92.3861 367.238C91.8832 366.907 91.5115 366.41 91.335 365.834C86.261 351.382 82.1241 336.617 78.9503 321.631C76.9894 312.343 75.5032 303.384 74.3886 294.952C74.079 283.92 83.1405 275.529 92.2639 276.437C100.355 277.242 107.249 285.261 106.857 294.952C103.259 318.6 99.6431 342.228 96.0103 365.834Z" fill="#595A5C"/>
<path d="M141.773 150.278C140.684 148.973 140.024 147.364 139.884 145.67C139.743 143.976 140.129 142.28 140.988 140.814C141.752 139.7 142.767 138.781 143.953 138.134C145.138 137.486 146.46 137.128 147.81 137.088C156.232 144.209 164.953 152.043 173.839 160.629C182.725 169.216 190.692 177.493 198.041 185.585C198.992 187.795 199.252 190.241 198.787 192.602C198.321 194.963 197.153 197.127 195.434 198.811C193.715 200.495 191.527 201.62 189.158 202.037C186.788 202.454 184.348 202.144 182.157 201.148C178.204 196.865 150.483 161.022 141.773 150.278Z" fill="#FCDAC8"/>
<path d="M211.726 169.929C209.537 169.537 207.539 168.43 206.047 166.781C204.555 165.132 203.652 163.034 203.481 160.816C203.31 158.599 203.88 156.387 205.101 154.529C206.322 152.67 208.126 151.269 210.23 150.546L237.228 150.753C237.583 150.735 237.932 150.849 238.209 151.073C239.065 151.795 238.838 153.859 237.517 156.15C236.907 157.206 236.217 158.214 235.453 159.164C228.27 167.854 217.052 169.536 211.726 169.929Z" fill="#595A5C"/>
<path d="M89.7059 151.362C91.1064 150.398 92.1752 149.025 92.7663 147.431C93.3574 145.837 93.442 144.099 93.0085 142.455C91.8422 138.399 87.7346 137.119 87.456 137.026C77.4243 141.609 66.9076 146.79 56.0297 152.652C45.1517 158.514 35.244 164.335 25.9864 170.135C24.4668 172.007 23.5504 174.295 23.3582 176.698C23.1661 179.101 23.7071 181.506 24.91 183.596C26.1129 185.685 27.921 187.361 30.0958 188.401C32.2705 189.442 34.7097 189.798 37.0913 189.424C42.0349 186.359 78.4151 159.35 89.7059 151.362Z" fill="#FCDAC8"/>
<path d="M87.2692 137.037C88.4663 135.478 99.2101 121.927 117.829 121.969C136.447 122.01 146.995 135.458 148.202 137.026C154.838 156.161 159.588 175.898 162.383 195.957C164.854 213.733 165.776 231.689 165.138 249.624C163.9 250.77 152.506 260.977 137.634 257.798C131.57 256.452 126.069 253.265 121.885 248.675C120.559 249.36 119.082 249.697 117.591 249.655C116.273 249.602 114.985 249.249 113.824 248.623C109.428 253.114 103.801 256.203 97.6517 257.499C82.8623 260.564 71.5405 251.276 70.0028 249.913C68.413 211.526 74.2765 173.194 87.2692 137.037V137.037Z" fill="#595A5C"/>
<path d="M87.2697 137.037C86.8362 136.913 81.5521 152.693 77.4341 170.434C75.5661 178.515 74.1315 186.256 73.0375 193.48C72.2738 198.568 70.9734 208.507 70.1994 221.346C69.415 235.547 69.5905 249.893 70.0033 249.903C70.4161 249.913 69.6008 225.722 74.2451 194.306C79.199 160.826 87.8064 137.181 87.2697 137.037Z" fill="#818285"/>
<path d="M148.336 137.387C148.779 137.264 153.63 152.445 157.748 170.197C159.616 178.278 161.051 185.987 162.145 193.253C162.908 198.351 164.209 208.29 164.983 221.119C165.767 235.31 165.592 249.655 165.189 249.666C164.787 249.676 165.581 225.495 160.937 194.079C155.983 160.588 147.799 137.532 148.336 137.387Z" fill="#818285"/>
<path d="M118.283 145.696C151.513 145.696 178.452 118.595 178.452 85.1652C178.452 51.7352 151.513 24.6348 118.283 24.6348C85.052 24.6348 58.1133 51.7352 58.1133 85.1652C58.1133 118.595 85.052 145.696 118.283 145.696Z" fill="#595A5C"/>
<path d="M118.076 145.613C116.009 145.643 113.942 145.561 111.884 145.365C107.237 144.913 102.666 143.872 98.2812 142.269C111.411 145.249 125.041 145.249 138.17 142.269C134.397 143.684 130.474 144.66 126.477 145.179C123.693 145.544 120.884 145.689 118.076 145.613V145.613Z" fill="#818285"/>
<path d="M165.313 232.441L70.0645 231.801C70.732 199.387 76.5713 167.289 87.3618 136.717C87.8056 137.501 97.6824 154.19 117.292 154.458C123.567 154.54 129.75 152.937 135.196 149.817C140.642 146.697 145.151 142.173 148.253 136.717C153.679 152.411 157.842 168.515 160.7 184.873C163.454 200.587 164.996 216.49 165.313 232.441V232.441Z" fill="#D17FB1"/>
<path d="M160.133 181.818L117.653 205.38L75.3384 181.715C72.7583 196.05 70.6941 211.314 69.2905 227.435C65.6042 270.998 67.5537 314.854 75.0907 357.919L159.916 358.022C168.128 315.595 170.42 272.235 166.728 229.179C165.349 213.289 163.148 197.48 160.133 181.818V181.818Z" fill="#D17FB1"/>
<path d="M76.3196 176.152L73.791 189.909L118.025 213.089V199.012L76.3196 176.152Z" fill="#FCDAC8"/>
<path d="M159.141 176.523L161.69 190.24L118.023 213.089V199.012L159.141 176.523Z" fill="#FCDAC8"/>
<path d="M56.9473 200.787C57.593 198.48 59.0162 196.466 60.9759 195.088C62.9357 193.709 65.3115 193.05 67.7014 193.222C69.7139 193.465 71.6104 194.296 73.1539 195.61C74.6975 196.924 75.8199 198.664 76.381 200.612L74.3169 227.528C74.3104 227.882 74.1788 228.222 73.9453 228.488C73.1506 229.293 71.1175 228.931 68.9192 227.456C67.9121 226.751 66.9568 225.975 66.0604 225.133C57.8968 217.434 56.9885 206.123 56.9473 200.787Z" fill="#595A5C"/>
<path d="M92.9453 103.691C94.3616 103.478 95.8018 103.478 97.218 103.691L95.9589 102.659C95.9589 102.659 93.3169 102.948 92.9453 103.691Z" fill="#CE79AE"/>
<path d="M82.3574 80.1803C82.3574 80.1803 82.9457 82.8224 89.4167 85.2478C89.4167 85.2478 93.3798 87.0848 95.0002 78.9315C95.0002 78.9315 89.0452 79.3753 82.6154 72.9043C82.6154 72.9043 82.4297 77.6415 91.2435 81.2846C91.2435 81.2846 91.7595 81.7181 91.2435 82.0484C91.2538 82.0174 86.1761 82.7502 82.3574 80.1803Z" fill="#CE79AE"/>
<path d="M97.4345 103.681C101.937 103.681 105.588 97.9694 105.588 90.9243C105.588 83.8792 101.937 78.168 97.4345 78.168C92.9316 78.168 89.2812 83.8792 89.2812 90.9243C89.2812 97.9694 92.9316 103.681 97.4345 103.681Z" fill="white"/>
<path d="M152.31 80.1803C152.31 80.1803 151.722 82.8224 145.261 85.2478C145.261 85.2478 141.298 87.0848 139.678 78.9315C139.678 78.9315 145.633 79.3753 152.062 72.9043C152.062 72.9043 152.248 77.6415 143.434 81.2846C143.434 81.2846 142.918 81.7181 143.434 82.0484C143.424 82.0174 148.492 82.7502 152.31 80.1803Z" fill="#CE79AE"/>
<path d="M142.072 103.691C140.655 103.478 139.215 103.478 137.799 103.691L139.058 102.659C139.058 102.659 141.7 102.948 142.072 103.691Z" fill="#CE79AE"/>
<path d="M137.231 103.681C141.734 103.681 145.385 97.9694 145.385 90.9243C145.385 83.8792 141.734 78.168 137.231 78.168C132.728 78.168 129.078 83.8792 129.078 90.9243C129.078 97.9694 132.728 103.681 137.231 103.681Z" fill="white"/>
<path d="M97.6117 103.68C101.146 103.68 104.01 99.1152 104.01 93.4836C104.01 87.8521 101.146 83.2869 97.6117 83.2869C94.0777 83.2869 91.2129 87.8521 91.2129 93.4836C91.2129 99.1152 94.0777 103.68 97.6117 103.68Z" fill="#231F20"/>
<path d="M93.7707 88.344C94.6656 88.344 95.3911 87.2119 95.3911 85.8154C95.3911 84.4189 94.6656 83.2869 93.7707 83.2869C92.8758 83.2869 92.1504 84.4189 92.1504 85.8154C92.1504 87.2119 92.8758 88.344 93.7707 88.344Z" fill="white"/>
<path d="M137.191 103.68C140.776 103.68 143.683 99.1152 143.683 93.4836C143.683 87.8521 140.776 83.2869 137.191 83.2869C133.606 83.2869 130.699 87.8521 130.699 93.4836C130.699 99.1152 133.606 103.68 137.191 103.68Z" fill="#231F20"/>
<path d="M133.784 88.344C134.679 88.344 135.405 87.2119 135.405 85.8154C135.405 84.4189 134.679 83.2869 133.784 83.2869C132.89 83.2869 132.164 84.4189 132.164 85.8154C132.164 87.2119 132.89 88.344 133.784 88.344Z" fill="white"/>
<path opacity="0.57" d="M89.9018 113.815C94.0684 113.815 97.4462 112.924 97.4462 111.823C97.4462 110.723 94.0684 109.832 89.9018 109.832C85.7352 109.832 82.3574 110.723 82.3574 111.823C82.3574 112.924 85.7352 113.815 89.9018 113.815Z" fill="#F7B1C4"/>
<path opacity="0.57" d="M146.654 113.815C150.82 113.815 154.198 112.924 154.198 111.823C154.198 110.723 150.82 109.832 146.654 109.832C142.487 109.832 139.109 110.723 139.109 111.823C139.109 112.924 142.487 113.815 146.654 113.815Z" fill="#F7B1C4"/>
<path d="M102.957 118.893C103.995 119.672 105.096 120.363 106.249 120.957C106.807 121.267 107.405 121.515 107.983 121.803C108.561 122.092 109.18 122.278 109.779 122.495C112.197 123.367 114.753 123.797 117.323 123.764C119.889 123.775 122.435 123.317 124.837 122.412L125.755 122.113C126.055 122 126.333 121.845 126.633 121.711L128.377 120.875C129.522 120.286 130.585 119.543 131.721 118.903C130.689 119.657 129.656 120.462 128.521 121.143L126.798 122.061C126.498 122.206 126.22 122.381 125.92 122.505L125.002 122.856C124.393 123.083 123.784 123.341 123.154 123.527L121.235 123.971C120.594 124.12 119.941 124.216 119.284 124.26C118.635 124.354 117.979 124.392 117.323 124.373C114.69 124.381 112.078 123.894 109.624 122.939C107.176 122.003 104.918 120.632 102.957 118.893V118.893Z" fill="white"/>
<path d="M193.737 199.858C191.509 200.916 189.005 201.244 186.58 200.796C184.155 200.349 181.933 199.148 180.23 197.365C178.527 195.582 177.43 193.307 177.094 190.864C176.758 188.421 177.201 185.935 178.359 183.758C187.194 173.038 196.028 162.343 204.863 151.671C206.626 150.821 208.561 150.387 210.519 150.403C212.477 150.419 214.404 150.885 216.153 151.764C217.731 152.649 219.101 153.863 220.169 155.323C221.238 156.783 221.98 158.455 222.346 160.227C215.319 175.074 205.629 188.506 193.758 199.858H193.737Z" fill="#FCDAC8"/>
<path d="M25.7984 184.191C24.7737 181.952 24.4795 179.447 24.9576 177.031C25.4356 174.615 26.6615 172.411 28.4618 170.731C30.2622 169.05 32.5455 167.979 34.9886 167.668C37.4316 167.357 39.9105 167.823 42.0741 168.999L73.8513 195.885C74.6849 197.657 75.0982 199.598 75.0588 201.557C75.0194 203.515 74.5285 205.438 73.6242 207.175C72.7224 208.739 71.4941 210.089 70.0229 211.135C68.5517 212.18 66.8724 212.896 65.0994 213.234C50.3254 206.051 37.0024 196.205 25.7984 184.191V184.191Z" fill="#FCDAC8"/>
<path d="M114.742 44.1304L115.31 11.961C98.0643 8.56553 86.1956 12.9931 81.252 15.2636C51.3222 28.9797 42.1988 70.0764 50.961 89.087C52.2717 91.9252 55.2234 98.3756 62.3137 102.205C67.2989 104.823 72.998 105.757 78.5583 104.867C76.4116 100.842 67.2056 82.5644 73.8624 61.2007C76.5956 52.4861 81.463 44.5925 88.0223 38.2373L114.742 44.1304Z" fill="#EEC41A" stroke="#ED9422" stroke-miterlimit="10"/>
<path d="M114.741 44.1304C110.583 42.5758 107.134 39.56 105.039 35.6468C103.919 33.412 103.261 30.974 103.105 28.4789C102.949 25.9837 103.298 23.4827 104.131 21.1257C105.545 17.5445 112.233 1.39268 124.122 0.0819644C130.377 -0.609517 135.207 3.12655 142.926 9.3086C169.481 30.5794 182.805 41.3025 185.055 47.1956C191.908 65.0296 185.117 83.2043 181.113 91.7497C175.674 74.5556 168.367 68.6006 162.319 66.5365C154.671 63.946 148.85 67.5685 143.835 63.8118C137.477 59.0953 138.375 47.0614 140.191 37.4426C135.721 36.5838 131.114 36.7369 126.71 37.8906C122.306 39.0443 118.216 41.1693 114.741 44.1097V44.1304Z" fill="#EEC41A" stroke="#ED9422" stroke-miterlimit="10"/>
<path d="M100.83 12.2705C101.796 12.8448 102.552 13.715 102.985 14.7522C103.418 15.7894 103.506 16.9385 103.235 18.0294" stroke="#ED9422" stroke-miterlimit="10"/>
<path d="M94.5234 12.9517C96.54 14.5224 98.1311 16.5731 99.1515 18.9167C100.172 21.2603 100.589 23.8222 100.365 26.3685" stroke="#ED9422" stroke-miterlimit="10"/>
<path d="M98.6525 37.1229C98.192 33.7605 97.0124 30.5369 95.194 27.6713C93.3757 24.8058 90.9613 22.3656 88.1152 20.517C84.1562 20.4673 80.2638 21.537 76.8863 23.6029C72.6145 26.3148 69.4492 30.4607 67.959 35.2962" stroke="#ED9422" stroke-miterlimit="10"/>
<path d="M86.7933 32.4785C79.4049 37.7269 73.3873 44.6755 69.2483 52.7379C59.3095 72.2852 64.4389 91.3577 65.8735 96.0845" stroke="#ED9422" stroke-miterlimit="10"/>
<path d="M62.9963 37.4119C57.2023 44.8167 53.6201 53.709 52.6632 63.0625C51.7063 72.416 53.4137 81.8494 57.5883 90.2741" stroke="#ED9422" stroke-miterlimit="10"/>
<path d="M129.523 13.437C125.736 14.4885 122.299 16.5298 119.563 19.3507C110.502 28.887 114.486 43.2017 114.764 44.1202C115.425 41.7671 118.645 31.333 128.676 26.4204C131.378 25.1157 134.295 24.3147 137.284 24.0569" stroke="#ED9422" stroke-miterlimit="10"/>
<path d="M147.729 13.2717C148.358 18.6901 151.083 35.9771 165.459 47.1956C168.695 49.7185 172.274 51.7655 176.09 53.2745" stroke="#ED9422" stroke-miterlimit="10"/>
<path d="M138.811 17.658C140.875 27.4625 146.737 47.0717 164.127 58.6721C166.226 60.0738 168.427 61.3157 170.712 62.3875" stroke="#ED9422" stroke-miterlimit="10"/>
<path d="M144.022 50.0234C143.898 50.4775 142.722 55.2457 145.869 58.8063C147.084 60.143 148.674 61.0819 150.431 61.5" stroke="#ED9422" stroke-miterlimit="10"/>
<path d="M178.111 59.1777C180.048 61.8197 181.48 64.7975 182.332 67.9606C183.71 73.2543 183.476 78.8386 181.662 83.9988" stroke="#ED9422" stroke-miterlimit="10"/>
</svg>
