<svg width="241" height="450" viewBox="0 0 241 450" fill="none" xmlns="http://www.w3.org/2000/svg">
<path d="M205.395 170.565C204.469 180.751 202.659 183.192 201.638 191.505C200.081 204.184 203.375 206.173 202.585 215.527C201.344 230.353 191.779 241.022 184.214 249.451C171.103 264.066 164.895 261.383 155.94 275.367C153.141 279.744 150.911 284.427 145.102 288.562C140.059 292.009 134.222 294.116 128.141 294.686C118.807 295.738 117.618 292.476 106.465 292.802C96.4897 293.097 96.0793 295.738 89.0294 294.686C86.6514 294.328 84.589 293.718 72.0676 287.615C63.4393 283.406 59.1252 281.301 57.9362 280.554C50.5706 275.819 48.3715 271.947 38.1439 260.762C25.433 246.862 25.9696 249.735 22.592 244.758C16.8258 236.203 15.5316 226.533 13.122 207.53C11.1228 191.441 10.1232 183.403 12.175 173.606C14.4057 162.968 17.0257 163.568 20.6559 150.047C23.7074 138.704 22.7604 135 25.3699 118.007C26.6609 109.279 28.41 100.624 30.61 92.08C37.7861 67.7421 71.6467 41.8468 109.169 43.6777C143.135 45.2876 170.493 69.1836 177.374 86.6716C178.921 90.5964 181.583 99.7191 188.454 111.872C193.168 120.29 194.894 121.279 198.345 128.834C201.961 136.582 204.347 144.847 205.416 153.33C206.019 159.06 206.012 164.837 205.395 170.565V170.565Z" fill="#3F2F2D" stroke="#8E6D66" stroke-width="0.5" stroke-miterlimit="10"/>
<path d="M45.6158 173.08C45.0891 181.656 42.992 190.063 39.4287 197.881C37.0506 203.079 35.4513 204.857 33.9992 208.93C31.8947 214.906 30.6426 224.166 35.7248 237.908" fill="#3F2F2D"/>
<path d="M45.6158 173.08C45.0891 181.656 42.992 190.063 39.4287 197.881C37.0506 203.079 35.4513 204.857 33.9992 208.93C31.8947 214.906 30.6426 224.166 35.7248 237.908" stroke="#8E6D66" stroke-miterlimit="10"/>
<path d="M54.8861 186.78C54.364 195.356 52.2704 203.762 48.7096 211.581C46.3316 216.779 44.7217 218.557 43.2696 222.63C41.1651 228.606 39.9235 237.866 45.0058 251.608" fill="#3F2F2D"/>
<path d="M54.8861 186.78C54.364 195.356 52.2704 203.762 48.7096 211.581C46.3316 216.779 44.7217 218.557 43.2696 222.63C41.1651 228.606 39.9235 237.866 45.0058 251.608" stroke="#8E6D66" stroke-miterlimit="10"/>
<path d="M174.85 174.775C175.374 183.349 177.463 191.754 181.016 199.576C183.404 204.774 185.004 206.552 186.456 210.624C188.56 216.601 189.802 225.86 184.73 239.602" fill="#3F2F2D"/>
<path d="M174.85 174.775C175.374 183.349 177.463 191.754 181.016 199.576C183.404 204.774 185.004 206.552 186.456 210.624C188.56 216.601 189.802 225.86 184.73 239.602" stroke="#8E6D66" stroke-miterlimit="10"/>
<path d="M165.582 188.475C166.104 197.05 168.198 205.457 171.759 213.276C174.137 218.474 175.747 220.252 177.199 224.324C179.303 230.301 180.545 239.56 175.462 253.302" fill="#3F2F2D"/>
<path d="M165.582 188.475C166.104 197.05 168.198 205.457 171.759 213.276C174.137 218.474 175.747 220.252 177.199 224.324C179.303 230.301 180.545 239.56 175.462 253.302" stroke="#8E6D66" stroke-miterlimit="10"/>
<path d="M81.3072 65.1113C73.6681 75.5863 68.4693 87.6376 66.0915 100.382C63.7137 113.127 64.2172 126.242 67.5651 138.767" stroke="#8E6D66" stroke-miterlimit="10"/>
<path d="M32.0641 127.866C34.7526 137.459 34.4849 147.639 31.2959 157.076C28.8306 164.189 24.7541 170.635 19.3848 175.911" stroke="#8E6D66" stroke-miterlimit="10"/>
<path d="M28.2232 181.625C24.5192 186.952 21.9051 192.96 20.5314 199.302C18.4935 209.1 19.4165 219.282 23.183 228.554" stroke="#8E6D66" stroke-miterlimit="10"/>
<path d="M108.92 178.594C112.415 193.06 114.094 207.906 113.919 222.787C113.747 237.306 111.811 251.751 108.152 265.802" stroke="#8E6D66" stroke-miterlimit="10"/>
<path d="M88.5581 154.772C75.5113 193.687 74.707 235.665 86.2537 275.051" stroke="#8E6D66" stroke-miterlimit="10"/>
<path d="M163.128 81.7576C162.964 90.3585 164.994 98.8595 169.028 106.458C173.062 114.056 178.966 120.5 186.183 125.183" stroke="#8E6D66" stroke-miterlimit="10"/>
<path d="M121.609 56.7778C133.466 69.4848 141.823 85.0503 145.864 101.953C149.905 118.856 149.491 136.519 144.664 153.214" stroke="#8E6D66" stroke-miterlimit="10"/>
<path d="M53.9727 74.8345C52.5522 75.7078 44.0818 81.0952 42.8297 90.9756C42.487 93.8043 42.7488 96.6734 43.5978 99.3934" stroke="#8E6D66" stroke-miterlimit="10"/>
<path d="M100.469 54.8523C105.632 71.4327 108.604 88.6177 109.307 105.969C109.92 121.295 108.758 136.64 105.846 151.699" stroke="#8E6D66" stroke-miterlimit="10"/>
<path d="M86.2544 92.1855C81.962 99.0395 79.6855 106.963 79.6855 115.05C79.6855 123.137 81.962 131.061 86.2544 137.915" stroke="#8E6D66" stroke-miterlimit="10"/>
<path d="M182.711 141.324C189.03 147.655 193.179 155.826 194.559 164.664C195.939 173.502 194.48 182.549 190.392 190.505" stroke="#8E6D66" stroke-miterlimit="10"/>
<path d="M97.0073 255.459C95.412 260.348 94.8954 265.525 95.493 270.633C96.0907 275.741 97.7883 280.659 100.469 285.048" stroke="#8E6D66" stroke-miterlimit="10"/>
<path d="M62.0429 223.945C60.5593 230.406 57.7709 246.831 65.8835 263.93C68.4338 269.289 71.8066 274.217 75.8796 278.534" stroke="#8E6D66" stroke-miterlimit="10"/>
<path d="M131.564 155.54C128.797 164.604 127.848 174.125 128.773 183.556C129.697 192.988 132.477 202.144 136.951 210.497" stroke="#8E6D66" stroke-miterlimit="10"/>
<path d="M117.757 75.6023C122.016 86.4422 124.733 97.826 125.828 109.421C127.637 129.284 124.753 149.295 117.41 167.84" stroke="#8E6D66" stroke-miterlimit="10"/>
<path d="M52.0465 117.113C47.9738 127.362 46.9079 138.561 48.9741 149.395C50.3341 156.216 52.9379 162.729 56.6553 168.608" stroke="#8E6D66" stroke-miterlimit="10"/>
<path d="M138.127 231.247C140.368 234.899 146.839 246.515 144.661 261.604C143.707 268.06 141.348 274.227 137.748 279.671" stroke="#8E6D66" stroke-miterlimit="10"/>
<path d="M94.7343 183.981C92.0517 202.434 91.6665 221.149 93.5874 239.697" stroke="#8E6D66" stroke-miterlimit="10"/>
<path d="M151.965 180.572C149.804 193.704 150.065 207.119 152.733 220.157C154.206 227.276 156.395 234.228 159.268 240.907" stroke="#8E6D66" stroke-miterlimit="10"/>
<path d="M161.949 125.951C166.22 135.208 168.198 145.357 167.715 155.54C167.495 159.694 166.854 163.815 165.8 167.84" stroke="#8E6D66" stroke-miterlimit="10"/>
<path d="M110.244 312.3C111.053 306.793 113.641 301.701 117.612 297.801C121.584 293.901 126.723 291.406 132.244 290.698C137.766 289.99 143.367 291.107 148.195 293.879C153.022 296.65 156.811 300.925 158.983 306.05C158.983 311.311 158.762 315.678 158.594 318.971C158.373 323.296 158.12 326.579 157.784 330.746C157.784 331.219 157.268 337.354 156.731 343.046C155.679 354.063 154.259 364.585 152.68 374.613C151.389 378.534 148.797 381.895 145.333 384.14C141.869 386.385 137.741 387.379 133.635 386.955C129.574 386.409 125.809 384.525 122.936 381.603C120.063 378.68 118.245 374.885 117.768 370.814C115.256 351.313 112.748 331.808 110.244 312.3Z" fill="#595A5C"/>
<path d="M129.456 446.69C129.597 447.193 129.872 447.647 130.252 448.005C130.632 448.363 131.103 448.61 131.613 448.721C132.294 448.811 132.985 448.656 133.563 448.284C134.141 447.912 134.569 447.347 134.769 446.69C140.41 430.517 145.004 413.998 148.522 397.236C150.721 386.808 152.373 376.833 153.625 367.405C153.973 355.062 143.84 345.677 133.633 346.697C124.573 347.602 116.871 356.557 117.313 367.405L129.456 446.69Z" fill="#595A5C"/>
<path d="M100.479 313.552C99.6705 308.045 97.0829 302.953 93.1109 299.053C89.1389 295.152 84.0006 292.658 78.4792 291.95C72.9578 291.242 67.3563 292.359 62.5288 295.131C57.7013 297.902 53.9125 302.177 51.7402 307.302C51.7402 312.563 51.9612 316.93 52.1296 320.223C52.3505 324.548 52.6136 327.82 52.9398 331.987C52.9398 332.461 53.4659 338.606 53.992 344.298C55.0442 355.304 56.4647 365.837 58.0325 375.865C59.3273 379.785 61.9222 383.146 65.3876 385.391C68.853 387.635 72.9811 388.629 77.0883 388.207C81.1533 387.666 84.9224 385.786 87.8012 382.866C90.6799 379.945 92.5046 376.149 92.9874 372.077C95.4917 352.555 97.989 333.046 100.479 313.552Z" fill="#595A5C"/>
<path d="M81.2768 447.942C81.1421 448.439 80.8753 448.89 80.5047 449.248C80.1342 449.605 79.6738 449.856 79.1723 449.973C78.4904 450.067 77.7972 449.914 77.2183 449.542C76.6393 449.169 76.2127 448.602 76.0157 447.942C70.3705 431.77 65.7733 415.251 62.2526 398.488C60.064 388.06 58.4014 378.085 57.1493 368.668C56.8021 356.325 66.935 346.939 77.1416 347.96C86.1907 348.865 93.893 357.819 93.4616 368.668C89.4 395.092 85.3384 421.517 81.2768 447.942Z" fill="#595A5C"/>
<path d="M132.436 206.878C131.226 205.427 130.492 203.638 130.336 201.755C130.18 199.872 130.608 197.986 131.562 196.356C134.056 192.336 138.854 192.147 139.191 192.147C148.598 200.112 158.352 208.867 168.295 218.452C178.239 228.038 187.13 237.308 195.338 246.357C196.406 248.832 196.699 251.573 196.178 254.217C195.657 256.862 194.347 259.287 192.42 261.172C190.493 263.056 188.04 264.313 185.384 264.775C182.728 265.237 179.995 264.884 177.545 263.761C173.167 258.995 142.169 218.926 132.436 206.878Z" fill="#595A5C"/>
<path d="M190.488 262.34C187.998 263.519 185.2 263.884 182.491 263.383C179.783 262.882 177.301 261.54 175.397 259.549C173.494 257.557 172.267 255.017 171.889 252.288C171.512 249.559 172.003 246.781 173.294 244.347L202.935 208.466C203.483 208.193 209.459 205.31 215.562 208.572C217.321 209.566 218.847 210.925 220.035 212.559C221.224 214.193 222.049 216.062 222.454 218.042C214.61 234.646 203.774 249.663 190.488 262.34V262.34Z" fill="#595A5C"/>
<path d="M210.646 228.88C208.194 228.45 205.954 227.216 204.28 225.373C202.605 223.53 201.592 221.183 201.399 218.7C201.206 216.218 201.845 213.742 203.214 211.662C204.584 209.582 206.606 208.018 208.963 207.214L239.151 207.446C239.531 207.439 239.902 207.561 240.203 207.793C241.161 208.614 240.919 210.95 239.446 213.486C238.737 214.661 237.942 215.783 237.068 216.842C229.134 226.565 216.592 228.438 210.646 228.88Z" fill="#595A5C"/>
<path d="M74.2265 208.13C75.7918 207.053 76.9852 205.518 77.6428 203.736C78.3004 201.953 78.3898 200.011 77.8987 198.176C76.5835 193.63 72.0063 192.199 71.6801 192.104C60.4739 197.218 48.71 203.016 36.5463 209.571C24.3826 216.127 13.3343 222.661 2.9804 229.111C1.28101 231.205 0.256529 233.765 0.0421886 236.453C-0.172152 239.141 0.433731 241.831 1.77985 244.168C3.12598 246.504 5.14905 248.378 7.582 249.541C10.015 250.704 12.7434 251.102 15.4072 250.682C20.9208 247.252 61.5998 217.063 74.2265 208.13Z" fill="#595A5C"/>
<path d="M71.5022 192.147C72.8385 190.411 84.8444 175.259 105.668 175.311C126.491 175.364 138.287 190.379 139.623 192.147C147.049 213.536 152.36 235.601 155.48 258.026C158.239 277.92 159.271 298.016 158.563 318.087C157.185 319.361 144.442 330.714 127.807 327.221C121.027 325.715 114.878 322.15 110.203 317.014C108.814 317.75 107.266 318.135 105.694 318.135C104.122 318.135 102.574 317.75 101.185 317.014C96.2737 321.988 90.0039 325.403 83.1608 326.831C66.6304 330.167 53.9721 319.739 52.2465 318.266C50.4684 275.378 57.0072 232.551 71.5022 192.147V192.147Z" fill="#595A5C"/>
<path d="M71.5017 192.147C71.0176 192.01 65.1147 209.656 60.5165 229.49C58.412 238.445 56.8547 247.104 55.592 255.28C54.7397 260.973 53.2245 272.116 52.4354 286.437C51.541 302.304 51.7409 318.34 52.2039 318.351C52.6669 318.361 51.762 291.329 56.9494 256.206C62.4736 218.705 72.1014 192.273 71.5017 192.147Z" fill="#818285"/>
<path d="M139.782 192.494C140.266 192.357 145.695 209.329 150.304 229.174C152.409 238.213 154.008 246.841 155.229 254.964C156.081 260.657 157.596 271.8 158.385 286.11C159.269 301.988 159.069 318.024 158.617 318.035C158.164 318.045 159.059 291.003 153.871 255.88C148.326 218.452 139.182 192.673 139.782 192.494Z" fill="#818285"/>
<path d="M106.173 201.795C143.324 201.795 173.442 171.494 173.442 134.116C173.442 96.7382 143.324 66.4373 106.173 66.4373C69.0215 66.4373 38.9043 96.7382 38.9043 134.116C38.9043 171.494 69.0215 201.795 106.173 201.795Z" fill="#595A5C"/>
<path d="M105.94 201.691C103.636 201.735 101.331 201.643 99.0374 201.417C93.8398 200.904 88.7277 199.737 83.8223 197.945C98.4991 201.284 113.739 201.284 128.416 197.945C124.198 199.524 119.813 200.615 115.347 201.196C112.23 201.617 109.084 201.782 105.94 201.691V201.691Z" fill="#818285"/>
<path d="M2.77943 244.81C1.62921 242.307 1.29678 239.505 1.82935 236.802C2.36192 234.099 3.73242 231.633 5.74628 229.753C7.76015 227.873 10.315 226.675 13.0482 226.329C15.7814 225.984 18.554 226.508 20.9724 227.828L56.506 257.879C56.769 258.426 59.5995 264.434 56.2535 270.506C55.2413 272.254 53.8654 273.765 52.2189 274.936C50.5724 276.107 48.6937 276.911 46.7098 277.293C30.1992 269.249 15.3081 258.239 2.77943 244.81V244.81Z" fill="#595A5C"/>
<path d="M37.5977 263.393C38.3186 260.811 39.9096 258.557 42.1013 257.014C44.293 255.47 46.9507 254.731 49.6246 254.922C51.8771 255.189 54.0007 256.115 55.7286 257.585C57.4564 259.055 58.7117 261.002 59.3366 263.182L57.0638 293.286C57.0491 293.677 56.8962 294.05 56.6324 294.339C55.759 295.244 53.4757 294.844 51.0135 293.192C49.8971 292.41 48.8418 291.545 47.8568 290.603C38.6709 281.996 37.6397 269.359 37.5977 263.393Z" fill="#595A5C"/>
<path d="M77.9004 154.814C79.484 154.578 81.0939 154.578 82.6775 154.814L81.2675 153.656C81.2675 153.656 78.2581 154.003 77.9004 154.814Z" fill="#34B98C"/>
<path d="M66.0195 128.54C66.0195 128.54 66.6719 131.496 73.9007 134.211C73.9007 134.211 78.3305 136.263 80.1404 127.151C80.1404 127.151 73.4903 127.645 66.3457 120.417C66.3457 120.417 66.1353 125.678 75.9946 129.771C75.9946 129.771 76.5628 130.265 75.9946 130.634C75.9525 130.634 70.281 131.423 66.0195 128.54Z" fill="#34B98C"/>
<path d="M82.874 154.814C87.9065 154.814 91.9862 148.43 91.9862 140.556C91.9862 132.682 87.9065 126.299 82.874 126.299C77.8414 126.299 73.7617 132.682 73.7617 140.556C73.7617 148.43 77.8414 154.814 82.874 154.814Z" fill="white"/>
<path d="M144.191 128.54C144.191 128.54 143.539 131.496 136.31 134.211C136.31 134.211 131.87 136.263 130.07 127.151C130.07 127.151 136.72 127.645 143.865 120.417C143.865 120.417 144.065 125.678 134.216 129.771C134.216 129.771 133.637 130.265 134.216 130.634C134.29 130.634 139.982 131.423 144.191 128.54Z" fill="#34B98C"/>
<path d="M132.771 154.814C131.188 154.578 129.578 154.578 127.994 154.814L129.394 153.656C129.394 153.656 132.361 154.003 132.771 154.814Z" fill="#34B98C"/>
<path d="M127.364 154.814C132.397 154.814 136.476 148.43 136.476 140.556C136.476 132.682 132.397 126.299 127.364 126.299C122.332 126.299 118.252 132.682 118.252 140.556C118.252 148.43 122.332 154.814 127.364 154.814Z" fill="white"/>
<path d="M83.0653 154.814C87.0169 154.814 90.2204 149.707 90.2204 143.408C90.2204 137.108 87.0169 132.001 83.0653 132.001C79.1136 132.001 75.9102 137.108 75.9102 143.408C75.9102 149.707 79.1136 154.814 83.0653 154.814Z" fill="#231F20"/>
<path d="M78.763 137.673C79.7625 137.673 80.5728 136.406 80.5728 134.842C80.5728 133.279 79.7625 132.012 78.763 132.012C77.7634 132.012 76.9531 133.279 76.9531 134.842C76.9531 136.406 77.7634 137.673 78.763 137.673Z" fill="white"/>
<path d="M127.31 154.814C131.314 154.814 134.56 149.707 134.56 143.408C134.56 137.108 131.314 132.001 127.31 132.001C123.306 132.001 120.061 137.108 120.061 143.408C120.061 149.707 123.306 154.814 127.31 154.814Z" fill="#231F20"/>
<path d="M123.513 137.673C124.512 137.673 125.323 136.406 125.323 134.842C125.323 133.279 124.512 132.012 123.513 132.012C122.513 132.012 121.703 133.279 121.703 134.842C121.703 136.406 122.513 137.673 123.513 137.673Z" fill="white"/>
<path opacity="0.57" d="M74.4478 166.146C79.1027 166.146 82.8762 165.152 82.8762 163.926C82.8762 162.7 79.1027 161.706 74.4478 161.706C69.793 161.706 66.0195 162.7 66.0195 163.926C66.0195 165.152 69.793 166.146 74.4478 166.146Z" fill="#F7B1C4"/>
<path opacity="0.57" d="M137.897 166.146C142.552 166.146 146.325 165.152 146.325 163.926C146.325 162.7 142.552 161.706 137.897 161.706C133.242 161.706 129.469 162.7 129.469 163.926C129.469 165.152 133.242 166.146 137.897 166.146Z" fill="#F7B1C4"/>
<path d="M89.041 171.818C90.1959 172.694 91.4246 173.469 92.7133 174.133C93.3446 174.48 94.0075 174.764 94.6494 175.08C95.2912 175.395 95.9857 175.616 96.6591 175.858C102.109 177.792 108.064 177.763 113.495 175.774L114.547 175.427C114.884 175.311 115.199 175.132 115.525 174.985L117.472 174.049C118.756 173.386 119.945 172.544 121.197 171.818C120.018 172.66 118.861 173.554 117.619 174.312L115.694 175.364C115.377 175.547 115.051 175.713 114.715 175.858L113.663 176.258C112.979 176.511 112.306 176.795 111.559 177.005L109.454 177.5C108.011 177.773 106.546 177.921 105.077 177.942C102.145 177.955 99.2364 177.42 96.5013 176.363C93.7612 175.31 91.2339 173.77 89.041 171.818Z" fill="white"/>
<path d="M158.68 299.031L52.2051 298.316C52.9509 262.07 59.4944 226.177 71.587 191.999C72.0816 192.873 83.1615 211.539 105.1 211.834C112.111 211.915 119.015 210.119 125.097 206.631C131.179 203.143 136.217 198.091 139.687 191.999C145.734 209.538 150.368 227.532 153.545 245.81C156.619 263.392 158.336 281.185 158.68 299.031V299.031Z" fill="#AA2323"/>
<path d="M152.891 242.432L105.394 268.738L58.0438 242.274C56.1814 252.481 53.1931 270.6 51.3096 293.391C49.8996 310.543 39.7351 433.653 73.9008 443.859C78.1774 444.997 82.7175 444.594 86.7275 442.723C114.317 430.202 105.247 352.358 105.825 352.358C106.404 352.358 97.9968 426.792 126.638 441.018C128.859 442.071 132.426 443.881 136.624 443.018C161.341 437.904 164.645 350.475 160.267 295.391C158.859 277.607 156.396 259.924 152.891 242.432V242.432Z" fill="#B18B2E"/>
<path d="M59.1907 236.098L56.4023 251.481L105.857 277.377V261.593L59.1907 236.098Z" fill="#7B4133"/>
<path d="M151.774 236.519L154.625 251.85L105.812 277.377V261.594L151.774 236.519Z" fill="#7B4133"/>
<path d="M107.403 85.3144C121.618 85.3144 133.141 72.5995 133.141 56.9149C133.141 41.2303 121.618 28.5154 107.403 28.5154C93.189 28.5154 81.666 41.2303 81.666 56.9149C81.666 72.5995 93.189 85.3144 107.403 85.3144Z" fill="#3F2F2D" stroke="#8E6D66" stroke-width="0.5" stroke-miterlimit="10"/>
<path d="M81.8643 52.948C81.0659 59.5066 82.4016 66.1479 85.6733 71.888C92.8179 83.9781 105.918 85.2092 107.36 85.3144C106.307 85.2407 104.908 85.1355 103.151 85.0724C95.7852 84.8199 72.4679 83.8729 61.63 92.0381C47.6354 102.581 58.9573 124.804 48.0037 154.898C40.9327 174.259 28.2008 186.991 19.2148 194.388C24.0053 181.372 27.4672 167.905 29.5477 154.193C33.7566 126.772 29.0952 119.901 35.9136 101.855C41.576 87.3475 50.8868 74.5465 62.9453 64.6908C68.7132 59.9692 75.0734 56.0215 81.8643 52.948V52.948Z" fill="#3F2F2D" stroke="#8E6D66" stroke-width="0.5" stroke-miterlimit="10"/>
<path d="M132.782 53.0847C133.58 59.6433 132.244 66.2847 128.973 72.0247C121.828 84.1253 108.728 85.3564 107.244 85.4616C108.296 85.388 109.696 85.2828 111.453 85.2196C118.819 84.925 142.199 84.0201 153.037 92.1854C167.032 102.708 155.689 124.994 166.716 155.045C173.787 174.417 186.519 187.138 195.505 194.546C190.717 181.529 187.255 168.063 185.172 154.351C180.963 126.919 185.624 120.048 178.858 102.003C173.169 87.4703 163.808 74.6617 151.69 64.8275C145.929 60.1016 139.572 56.1535 132.782 53.0847V53.0847Z" fill="#3F2F2D" stroke="#8E6D66" stroke-width="0.5" stroke-miterlimit="10"/>
<path d="M107.424 82.4207L107.803 34.4182" stroke="#8E6D66" stroke-width="0.5" stroke-miterlimit="10"/>
<path d="M92.9659 38.522C89.9134 44.0425 88.3544 50.264 88.443 56.5715C88.5316 62.8791 90.2647 69.0544 93.471 74.487" fill="#3F2F2D"/>
<path d="M92.9659 38.522C89.9134 44.0425 88.3544 50.264 88.443 56.5715C88.5316 62.8791 90.2647 69.0544 93.471 74.487" stroke="#8E6D66" stroke-width="0.5" stroke-miterlimit="10"/>
<path d="M121.767 38.0273C124.656 42.7633 126.34 48.1358 126.67 53.6739C127.05 61.618 124.691 69.4516 119.988 75.8653" fill="#3F2F2D"/>
<path d="M121.767 38.0273C124.656 42.7633 126.34 48.1358 126.67 53.6739C127.05 61.618 124.691 69.4516 119.988 75.8653" stroke="#8E6D66" stroke-width="0.5" stroke-miterlimit="10"/>
<path d="M96.1133 41.3735L102.774 48.8654" stroke="#8E6D66" stroke-width="0.5" stroke-miterlimit="10"/>
<path d="M93.3457 51.1382L103.405 61.692" stroke="#8E6D66" stroke-width="0.5" stroke-miterlimit="10"/>
<path d="M93.8516 65.5747L102.648 74.3923" stroke="#8E6D66" stroke-width="0.5" stroke-miterlimit="10"/>
<path d="M98.8789 35.0918L104.287 41.1105" stroke="#8E6D66" stroke-width="0.5" stroke-miterlimit="10"/>
<path d="M97.3652 77.6013L102.647 82.0207" stroke="#8E6D66" stroke-width="0.5" stroke-miterlimit="10"/>
<path d="M118.808 41.4365L112.137 48.9178" stroke="#8E6D66" stroke-width="0.5" stroke-miterlimit="10"/>
<path d="M121.567 51.1907L111.508 61.755" stroke="#8E6D66" stroke-width="0.5" stroke-miterlimit="10"/>
<path d="M121.073 65.6274L112.266 74.4556" stroke="#8E6D66" stroke-width="0.5" stroke-miterlimit="10"/>
<path d="M116.041 35.1443L110.633 41.163" stroke="#8E6D66" stroke-width="0.5" stroke-miterlimit="10"/>
<path d="M117.548 77.6648L112.266 82.0736" stroke="#8E6D66" stroke-width="0.5" stroke-miterlimit="10"/>
<path d="M77.9001 61.9548C69.2643 66.6908 61.6537 73.0926 55.5087 80.7896C49.3515 88.502 44.6777 97.2893 41.7246 106.706" fill="#3F2F2D"/>
<path d="M77.9001 61.9548C69.2643 66.6908 61.6537 73.0926 55.5087 80.7896C49.3515 88.502 44.6777 97.2893 41.7246 106.706" stroke="#8E6D66" stroke-miterlimit="10"/>
<path d="M49.0671 103.823C50.4768 116.084 49.6425 128.499 46.6049 140.461C44.303 149.465 40.7393 158.098 36.0195 166.104" fill="#3F2F2D"/>
<path d="M49.0671 103.823C50.4768 116.084 49.6425 128.499 46.6049 140.461C44.303 149.465 40.7393 158.098 36.0195 166.104" stroke="#8E6D66" stroke-miterlimit="10"/>
<path d="M39.4615 117.954C40.1006 124.832 40.1006 131.753 39.4615 138.631C38.0173 153.863 33.4961 168.643 26.1719 182.077" fill="#3F2F2D"/>
<path d="M39.4615 117.954C40.1006 124.832 40.1006 131.753 39.4615 138.631C38.0173 153.863 33.4961 168.643 26.1719 182.077" stroke="#8E6D66" stroke-miterlimit="10"/>
<path d="M138.232 61.6709C146.868 66.4113 154.479 72.8165 160.624 80.5162C166.78 88.2252 171.454 97.0089 174.408 106.422" fill="#3F2F2D"/>
<path d="M138.232 61.6709C146.868 66.4113 154.479 72.8165 160.624 80.5162C166.78 88.2252 171.454 97.0089 174.408 106.422" stroke="#8E6D66" stroke-miterlimit="10"/>
<path d="M167.022 103.507C165.599 115.766 166.419 128.181 169.442 140.146C171.75 149.171 175.328 157.822 180.07 165.841" fill="#3F2F2D"/>
<path d="M167.022 103.507C165.599 115.766 166.419 128.181 169.442 140.146C171.75 149.171 175.328 157.822 180.07 165.841" stroke="#8E6D66" stroke-miterlimit="10"/>
<path d="M176.628 117.639C175.983 124.516 175.983 131.438 176.628 138.315C178.07 153.544 182.591 168.322 189.917 181.751" fill="#3F2F2D"/>
<path d="M176.628 117.639C175.983 124.516 175.983 131.438 176.628 138.315C178.07 153.544 182.591 168.322 189.917 181.751" stroke="#8E6D66" stroke-miterlimit="10"/>
<path d="M1.88672 87.1347C36.0875 92.4711 70.6428 95.2147 105.257 95.342C141.47 95.4603 177.635 92.7159 213.415 87.1347C198.905 63.9331 182.88 53.0321 170.495 47.3816C154.512 40.0161 142.38 40.5001 127.354 29.557C117.09 21.8834 108.965 11.7073 103.753 0C100.838 9.47002 95.1769 22.2019 83.171 32.0507C71.5966 41.5208 61.1901 42.573 48.3003 48.0972C35.4106 53.6213 18.2172 64.3645 1.88672 87.1347Z" fill="#E58F30" stroke="#8E6D66" stroke-miterlimit="10"/>
</svg>
