<svg width="230" height="450" viewBox="0 0 230 450" fill="none" xmlns="http://www.w3.org/2000/svg">
<g clip-path="url(#clip0_132_1292)">
<path d="M162.108 208.724C161.361 207.007 161.164 205.101 161.544 203.268C161.924 201.435 162.863 199.764 164.23 198.487C167.698 195.386 172.274 196.593 172.584 196.681C179.238 206.822 186.018 217.805 192.723 229.648C199.377 241.365 205.255 252.711 210.467 263.54C210.785 266.175 210.298 268.845 209.07 271.197C207.843 273.55 205.931 275.474 203.589 276.718C201.246 277.961 198.582 278.464 195.949 278.161C193.315 277.858 190.834 276.762 188.835 275.02C186.047 269.276 167.956 222.787 162.108 208.724Z" fill="#595A5C"/>
<path d="M210.482 263.54C208.523 261.667 206.024 260.459 203.341 260.087C200.657 259.716 197.924 260.199 195.531 261.469C193.137 262.74 191.204 264.732 190.004 267.164C188.805 269.596 188.401 272.345 188.85 275.02L205.396 317.756C205.817 318.186 210.504 322.752 217.225 321.576C219.174 321.195 221.019 320.401 222.635 319.245C224.251 318.09 225.601 316.6 226.592 314.877C224.412 296.922 218.954 279.52 210.49 263.54H210.482Z" fill="#595A5C"/>
<path d="M226.585 314.877C225.658 312.61 224.005 310.716 221.886 309.491C219.768 308.267 217.303 307.781 214.878 308.11C212.454 308.44 210.207 309.566 208.491 311.311C206.775 313.057 205.687 315.324 205.396 317.756L211.88 346.77C211.94 347.156 212.14 347.507 212.442 347.755C213.425 348.495 215.592 347.792 217.75 345.838C218.736 344.92 219.653 343.93 220.493 342.877C228.182 333.166 227.391 320.694 226.585 314.877Z" fill="#595A5C"/>
<path d="M181.582 192.048C175.431 183.832 164.452 182.159 157.518 187.074C152.254 190.812 149.784 198.021 151.404 205.119C162.269 247.879 179.415 288.787 202.283 326.505C203.864 329.535 206.454 331.918 209.603 333.24C212.753 334.563 216.265 334.742 219.533 333.748C222.8 332.753 225.618 330.647 227.5 327.793C229.381 324.94 230.208 321.518 229.837 318.119C230.591 301.076 228.767 284.018 224.425 267.522C214.452 229.781 193.64 204.571 181.582 192.048Z" fill="#4C7BB8"/>
<path d="M87.8081 217.235C88.8869 215.706 89.466 213.879 89.466 212.006C89.466 210.134 88.8869 208.307 87.8081 206.777C85.0504 203.032 80.3336 203.261 80.0083 203.283C71.3953 211.832 62.5088 221.18 53.5114 231.409C44.5139 241.638 36.5072 251.394 29.1141 260.905C28.2581 263.418 28.1832 266.131 28.8991 268.688C29.6151 271.244 31.0884 273.523 33.1246 275.224C35.1608 276.925 37.6643 277.968 40.3047 278.216C42.9452 278.463 45.5985 277.904 47.9148 276.611C51.8997 271.533 79.1877 229.788 87.8081 217.235Z" fill="#595A5C"/>
<path d="M29.1722 260.875C31.4759 259.446 34.1705 258.78 36.8738 258.97C39.5771 259.161 42.1518 260.199 44.2325 261.937C46.3132 263.676 47.7944 266.026 48.4658 268.654C49.1372 271.283 48.9647 274.056 47.9729 276.581C39.6482 289.381 31.3137 302.181 22.9694 314.98C22.474 315.306 16.9514 318.807 10.6228 316.268C8.79349 315.494 7.15165 314.336 5.80851 312.871C4.46537 311.406 3.4523 309.67 2.83789 307.779C8.67341 290.662 17.5996 274.764 29.1722 260.875V260.875Z" fill="#595A5C"/>
<path d="M2.83868 307.779C4.38349 305.642 6.61883 304.107 9.16559 303.432C11.7124 302.758 14.4138 302.986 16.8117 304.078C18.8011 305.088 20.4475 306.666 21.5433 308.611C22.6392 310.556 23.1357 312.783 22.9701 315.01L10.6532 342.026C10.5167 342.387 10.2541 342.687 9.91389 342.87C8.79753 343.402 6.83096 342.255 5.11576 339.909C4.34443 338.797 3.65268 337.632 3.04568 336.423C-2.49916 325.343 0.849926 313.308 2.83868 307.779Z" fill="#595A5C"/>
<path d="M74.9 193.743C82.6184 186.971 93.7007 187.6 99.4747 193.847C103.851 198.584 104.783 206.148 101.737 212.765C93.0995 230.332 83.317 247.311 72.4529 263.592C58.8697 283.956 43.6352 303.166 26.9038 321.028C24.7291 323.645 21.7123 325.424 18.3709 326.058C15.0296 326.692 11.572 326.142 8.59139 324.502C5.6108 322.863 3.29302 320.236 2.03571 317.072C0.778405 313.909 0.659954 310.406 1.70068 307.164C4.47068 290.332 9.76998 274.017 17.4185 258.773C34.9623 223.867 60.5204 203.543 74.9 193.743Z" fill="#4C7BB8"/>
<path d="M127.613 199.716C153.488 197.451 191.726 194.106 203.325 165.972C214.156 139.712 195.319 107.596 180.939 91.9567C160.172 69.4264 134.17 65.5776 125.579 64.7042C125.686 62.8111 125.312 60.9218 124.493 59.2122C123.778 57.8298 122.773 56.6186 121.546 55.6617C120.32 54.7048 118.901 54.0248 117.388 53.6685C118.308 55.2286 118.606 57.0788 118.223 58.8495C117.842 60.5362 116.832 62.0134 115.399 62.9796C114.427 60.1452 112.469 57.7549 109.884 56.2442C108.431 55.4589 106.827 54.9968 105.179 54.8895C103.532 54.7822 101.881 55.0322 100.339 55.6225C102.527 56.131 104.536 57.2202 106.158 58.7755C107.517 60.0843 108.585 61.6657 109.292 63.4163C106.85 61.5928 103.921 60.5369 100.877 60.3827C97.8341 60.2285 94.8137 60.983 92.1995 62.5503C93.5788 62.2552 95.0038 62.2455 96.387 62.5217C97.7702 62.7979 99.0825 63.3542 100.243 64.1565C101.246 64.9045 102.101 65.8332 102.764 66.895C97.1307 68.5974 59.7732 80.5731 44.9648 119.246C42.4955 125.686 31.3319 154.833 44.5582 177.223C61.2888 205.526 104.398 201.751 127.613 199.716Z" fill="#4C7BB8"/>
<path d="M126.836 315.144C128.603 304.537 136.632 296.144 146.797 294.145C158.094 291.925 169.827 298.024 174.78 308.993C174.729 314.137 174.559 318.474 174.396 321.716C174.181 325.98 173.923 329.199 173.597 333.307C173.597 333.773 173.087 339.82 172.525 345.423C171.446 356.267 170.093 366.636 168.548 376.51C165.768 384.578 157.961 389.633 149.806 388.671C141.652 387.709 135.294 381.121 134.207 372.75C131.752 353.55 129.295 334.348 126.836 315.144Z" fill="#595A5C"/>
<path d="M145.734 447.498C145.885 448.07 146.22 448.576 146.688 448.937C147.157 449.297 147.731 449.493 148.322 449.493C148.912 449.493 149.487 449.297 149.955 448.937C150.423 448.576 150.758 448.07 150.909 447.498C156.46 431.574 160.982 415.309 164.446 398.803C166.605 388.53 168.239 378.708 169.466 369.426C169.806 357.273 159.855 348.028 149.808 349.028C140.936 349.923 133.321 358.746 133.75 369.426C137.737 395.45 141.732 421.474 145.734 447.498Z" fill="#595A5C"/>
<path d="M117.233 316.372C116.425 311.259 114.082 306.513 110.517 302.762C106.952 299.012 102.333 296.436 97.272 295.374C85.9753 293.153 74.2425 299.252 69.2891 310.221C69.3334 315.366 69.5035 319.703 69.6661 322.945C69.8879 327.208 70.1393 330.435 70.4646 334.536C70.4646 335.002 70.9821 341.049 71.5366 346.652C72.616 357.503 73.9689 367.865 75.5141 377.738C78.2939 385.799 86.1084 390.854 94.263 389.892C102.307 388.944 108.776 382.364 109.863 373.993C112.327 354.784 114.784 335.577 117.233 316.372Z" fill="#595A5C"/>
<path d="M98.3279 447.972C98.1884 448.464 97.9181 448.909 97.5457 449.26C97.1733 449.611 96.7129 449.853 96.2134 449.963C95.5468 450.047 94.8718 449.893 94.3068 449.529C93.7417 449.165 93.3227 448.614 93.1231 447.972C87.5827 432.184 83.0684 416.055 79.6085 399.684C77.4497 389.492 75.8158 379.744 74.5886 370.536C74.2485 358.472 84.1996 349.301 94.2469 350.293C103.119 351.181 110.734 359.915 110.305 370.536C106.322 396.338 102.33 422.15 98.3279 447.972Z" fill="#595A5C"/>
<path d="M88.7174 196.77C90.0186 195.06 101.84 180.139 122.319 180.183C142.68 180.235 154.398 195.031 155.729 196.77C163.027 217.837 168.249 239.568 171.321 261.652C174.04 281.242 175.055 301.032 174.352 320.798C172.992 322.056 160.46 333.255 144.099 329.798C137.438 328.308 131.397 324.799 126.799 319.747C125.43 320.468 123.905 320.841 122.358 320.833C120.811 320.825 119.29 320.437 117.928 319.703C113.11 324.647 106.935 328.05 100.184 329.48C83.9193 332.766 71.4619 322.5 69.7688 321.057C68.007 278.792 74.4418 236.585 88.7174 196.77V196.77Z" fill="#595A5C"/>
<path d="M88.7178 196.77C88.2372 196.637 82.4262 214.009 77.9016 233.549C75.8389 242.431 74.2568 250.942 73.0591 258.943C72.2163 264.546 70.7303 275.493 69.9392 289.615C69.0668 305.248 69.2665 321.042 69.7174 321.057C70.3015 321.057 69.2812 294.412 74.3825 259.846C79.846 222.972 89.3166 196.941 88.7178 196.77Z" fill="#818285"/>
<path d="M155.891 197.155C156.372 197.022 161.709 213.742 166.241 233.282C168.304 242.164 169.879 250.676 171.084 258.677C171.927 264.28 173.413 275.227 174.196 289.349C175.069 304.981 174.877 320.776 174.426 320.791C173.842 320.791 174.862 294.145 169.753 259.58C164.304 222.705 155.3 197.325 155.891 197.155Z" fill="#818285"/>
<path d="M123.059 205.415C159.607 205.415 189.234 175.575 189.234 138.764C189.234 101.954 159.607 72.1133 123.059 72.1133C86.5107 72.1133 56.8828 101.954 56.8828 138.764C56.8828 175.575 86.5107 205.415 123.059 205.415Z" fill="#595A5C"/>
<path d="M122.828 205.312C120.572 205.344 118.316 205.248 116.071 205.023C110.96 204.521 105.932 203.374 101.107 201.611C115.545 204.892 130.533 204.892 144.971 201.611C140.822 203.165 136.508 204.238 132.114 204.808C129.038 205.231 125.932 205.399 122.828 205.312V205.312Z" fill="#818285"/>
<path d="M101.691 171.99C101.691 171.99 118.977 177.852 145.651 171.99C145.651 171.99 135.5 187.933 123.671 187.651C123.671 187.651 110.704 187.999 101.691 171.99Z" fill="white"/>
<path d="M97.8926 157.268C99.4096 157.041 100.952 157.041 102.469 157.268L101.123 156.158C101.123 156.158 98.3288 156.483 97.8926 157.268Z" fill="#60C8D4"/>
<path d="M86.5664 132.08C86.5664 132.08 87.1948 134.915 94.1148 137.513C94.1148 137.513 98.3584 139.482 100.088 130.741C100.088 130.741 93.723 131.214 86.8769 124.287C86.8769 124.287 86.6847 129.364 96.1183 133.257C96.1183 133.257 96.6728 133.731 96.1183 134.086C96.1109 134.086 90.6548 134.834 86.5664 132.08Z" fill="#60C8D4"/>
<path d="M102.706 157.268C107.528 157.268 111.437 151.148 111.437 143.597C111.437 136.047 107.528 129.927 102.706 129.927C97.8837 129.927 93.9746 136.047 93.9746 143.597C93.9746 151.148 97.8837 157.268 102.706 157.268Z" fill="white"/>
<path d="M161.459 132.08C161.459 132.08 160.831 134.915 153.911 137.513C153.911 137.513 149.66 139.482 147.93 130.741C147.93 130.741 154.303 131.214 161.141 124.287C161.141 124.287 161.341 129.364 151.9 133.257C151.9 133.257 151.353 133.731 151.944 134.086C151.944 134.086 157.371 134.834 161.459 132.08Z" fill="#60C8D4"/>
<path d="M150.494 157.268C148.977 157.041 147.435 157.041 145.918 157.268L147.264 156.158C147.264 156.158 150.08 156.483 150.494 157.268Z" fill="#60C8D4"/>
<path d="M145.311 157.268C150.134 157.268 154.043 151.148 154.043 143.597C154.043 136.047 150.134 129.927 145.311 129.927C140.489 129.927 136.58 136.047 136.58 143.597C136.58 151.148 140.489 157.268 145.311 157.268Z" fill="white"/>
<path d="M102.889 157.268C106.67 157.268 109.735 152.374 109.735 146.336C109.735 140.298 106.67 135.404 102.889 135.404C99.108 135.404 96.043 140.298 96.043 146.336C96.043 152.374 99.108 157.268 102.889 157.268Z" fill="#231F20"/>
<path d="M98.7725 140.829C99.7321 140.829 100.51 139.613 100.51 138.113C100.51 136.613 99.7321 135.396 98.7725 135.396C97.813 135.396 97.0352 136.613 97.0352 138.113C97.0352 139.613 97.813 140.829 98.7725 140.829Z" fill="white"/>
<path d="M145.26 157.268C149.098 157.268 152.21 152.374 152.21 146.336C152.21 140.298 149.098 135.404 145.26 135.404C141.422 135.404 138.311 140.298 138.311 146.336C138.311 152.374 141.422 157.268 145.26 157.268Z" fill="#231F20"/>
<path d="M141.622 140.829C142.582 140.829 143.36 139.613 143.36 138.113C143.36 136.613 142.582 135.396 141.622 135.396C140.663 135.396 139.885 136.613 139.885 138.113C139.885 139.613 140.663 140.829 141.622 140.829Z" fill="white"/>
<path opacity="0.57" d="M94.6397 168.133C99.0984 168.133 102.713 167.179 102.713 166.002C102.713 164.824 99.0984 163.87 94.6397 163.87C90.1809 163.87 86.5664 164.824 86.5664 166.002C86.5664 167.179 90.1809 168.133 94.6397 168.133Z" fill="#F7B1C4"/>
<path opacity="0.57" d="M155.403 168.133C159.862 168.133 163.477 167.179 163.477 166.002C163.477 164.824 159.862 163.87 155.403 163.87C150.945 163.87 147.33 164.824 147.33 166.002C147.33 167.179 150.945 168.133 155.403 168.133Z" fill="#F7B1C4"/>
<path d="M163.389 191.855C149.708 198.256 134.745 201.436 119.646 201.152C104.548 200.869 89.7146 197.129 76.2829 190.22C47.2814 270.152 46.9912 357.701 75.4623 437.824C80.3391 441.3 86.1768 443.168 92.1633 443.168C98.1499 443.168 103.988 441.3 108.864 437.824C112.926 422.464 115.91 406.838 117.795 391.061C121.64 358.805 119.274 332.256 119.688 332.248C120.102 332.241 119.599 358.983 124.863 391.461C127.211 406.047 130.508 420.464 134.733 434.619C135.901 435.803 142.481 442.25 152.691 442.073C158.146 441.939 163.405 440.003 167.647 436.566C176.314 398.916 180.655 360.397 180.585 321.76C180.485 277.897 174.705 234.231 163.389 191.855V191.855Z" fill="#4C7BB8"/>
<path d="M117.935 332.086C136.46 332.086 151.478 304.164 151.478 269.72C151.478 235.277 136.46 207.354 117.935 207.354C99.4101 207.354 84.3926 235.277 84.3926 269.72C84.3926 304.164 99.4101 332.086 117.935 332.086Z" fill="#66CEF6"/>
<path d="M98.6543 106.308L109.493 103.2L106.853 115.694L98.6543 106.308Z" fill="white"/>
<path d="M109.514 103.2L120.699 101.764L116.212 113.717L109.514 103.2Z" fill="white"/>
<path d="M78.7949 117.056L88.2803 110.949L89.3523 123.673L78.7949 117.056Z" fill="white"/>
<path d="M88.3027 110.942L98.594 106.331L97.7438 119.076L88.3027 110.942Z" fill="white"/>
<path d="M62.7227 132.887L70.1306 124.383L74.7069 136.307L62.7227 132.887Z" fill="white"/>
<path d="M70.1465 124.368L78.7521 117.078L81.4801 129.549L70.1465 124.368Z" fill="white"/>
<path d="M55.3223 141.37L62.7302 132.858L67.3065 144.782L55.3223 141.37Z" fill="white"/>
<path d="M120.744 101.779L132.011 102.119L125.705 113.222L120.744 101.779Z" fill="white"/>
<path d="M132.033 102.119L143.123 104.147L135.227 114.176L132.033 102.119Z" fill="white"/>
<path d="M143.264 104.014L153.969 107.552L144.764 116.396L143.264 104.014Z" fill="white"/>
<path d="M153.99 107.559L164.038 112.666L153.613 120.031L153.99 107.559Z" fill="white"/>
<path d="M163.632 112.474L173.184 118.462L162.139 124.857L163.632 112.474Z" fill="white"/>
<path d="M173.198 118.477L181.744 125.841L169.863 130.497L173.198 118.477Z" fill="white"/>
<path d="M181.28 125.271L189.035 133.472L176.74 136.891L181.28 125.271Z" fill="white"/>
<path d="M155.003 9.26654C154.774 8.1563 153.983 4.04103 156.201 1.76135C159.158 -1.28809 167.054 -0.621949 174.277 5.69898C181.013 11.3556 186.331 18.5145 189.803 26.601C197.336 44.3647 193.041 60.5297 191.466 65.5998L181.064 66.34L187.54 75.3106C178.269 90.4542 167.084 98.2555 160.481 95.7241C159.099 95.1912 156.992 93.8368 155.306 89.8029C163.657 63.5839 163.548 35.398 154.996 9.24433L155.003 9.26654Z" fill="#AC83AE"/>
<path d="M41.5201 21.4642C46.6288 14.8028 54.4803 13.1819 58.1029 15.543C61.2819 17.6006 60.8162 22.4782 60.7422 23.174C61.3188 39.8768 65.79 56.213 73.7985 70.877C78.6271 79.6866 84.5929 87.8217 91.542 95.0727C94.2257 103.451 92.4957 106.427 90.9505 107.655C84.0971 113.073 61.452 99.3138 55.7519 95.7611C48.1493 90.2013 42.1172 82.7623 38.245 74.1707C34.9408 66.6432 33.5904 58.4017 34.3192 50.2119L42.0968 45.7709L34.5484 37.6292L41.5201 21.4642Z" fill="#AC83AE"/>
<path d="M44.4767 176.638C50.1915 138.942 78.3519 109.602 112.915 104.31C151.862 98.337 191.031 124.117 203.237 165.647C205.352 160.023 206.622 154.117 207.007 148.12C208.73 119.691 189.33 98.7811 184.732 93.8221C164.962 72.5352 133.305 61.5735 102.69 68.8344C68.4599 76.9761 51.4558 104.177 47.7296 110.128C42.0295 119.254 32.7512 134.101 35.287 153.271C36.4569 161.679 39.6067 169.689 44.4767 176.638V176.638Z" fill="#4C7BB8"/>
<path d="M121.188 99.0328C109.359 98.0632 102.284 92.8821 103.156 88.826C103.984 85.0216 111.747 82.6901 117.115 82.0906C124.744 81.2394 135.095 83.0454 137.032 87.1903C138.887 91.1649 132.921 97.1454 121.188 99.0328Z" fill="#1C4584"/>
<path d="M147.862 79.9368C142.606 85.1179 147.123 99.8766 147.751 102.008C152.734 104.281 159.499 104.784 165.391 103.296C172.563 101.475 175.165 97.5377 175.549 96.9234C175.723 93.7806 174.8 90.6751 172.94 88.1378C169.886 83.7856 165.317 81.6318 159.373 78.8192C157.355 77.8718 155.248 77.0132 152.86 77.3389C150.946 77.6056 149.181 78.5228 147.862 79.9368V79.9368Z" fill="#66CEF6"/>
<path d="M171.12 94.9617C170.95 95.7019 170.137 98.4109 166.004 100.424C165.265 100.802 159.727 103.385 154.22 102.126C150.671 101.305 149.259 99.3657 148.904 98.8254C147.026 93.1928 149.185 88.2115 154.434 86.3907C155.788 85.9504 157.196 85.7013 158.618 85.6506C161.148 85.3386 163.715 85.5374 166.167 86.2353C170.618 87.6712 172.717 91.1869 171.12 94.9617Z" fill="black"/>
<path d="M157.227 92.6362C159.298 92.5254 160.919 91.3468 160.847 90.0038C160.776 88.6609 159.038 87.6621 156.967 87.7729C154.896 87.8838 153.275 89.0623 153.347 90.4053C153.418 91.7482 155.156 92.7471 157.227 92.6362Z" fill="white"/>
<path d="M89.9372 81.2761C95.6669 84.703 95.5338 99.1213 95.4968 101.216C91.3871 104.631 86.2286 106.526 80.888 106.582C74.3673 106.656 71.1882 103.718 70.7077 103.251C69.7745 100.471 69.7745 97.4609 70.7077 94.6803C72.1863 90.0173 75.5428 86.9753 79.8752 83.0081C81.3538 81.6684 82.9211 80.3953 85.0503 80.0918C86.768 79.8939 88.5001 80.3136 89.9372 81.2761Z" fill="#66CEF6"/>
<path d="M73.9821 100.424C74.3 101.024 75.6677 103.311 79.6674 104.125C80.4067 104.273 85.7076 105.309 90.0178 102.845C91.7627 101.97 93.0915 100.44 93.7143 98.5887C93.9065 93.0449 90.8384 89.0555 85.9442 88.6632C84.7034 88.5832 83.4576 88.688 82.2476 88.9741C80.0231 89.3013 77.8935 90.0986 76.0004 91.313C72.5922 93.7037 71.7124 97.3897 73.9821 100.424Z" fill="black"/>
<path d="M85.1579 94.9973C86.936 94.6034 88.1563 93.2842 87.8837 92.0509C87.611 90.8177 85.9486 90.1373 84.1706 90.5313C82.3926 90.9252 81.1722 92.2444 81.4448 93.4777C81.7175 94.7109 83.3799 95.3913 85.1579 94.9973Z" fill="white"/>
</g>
<defs>
<clipPath id="clip0_132_1292">
<rect width="230" height="450" fill="white"/>
</clipPath>
</defs>
</svg>
