<svg width="250" height="436" viewBox="0 0 250 436" fill="none" xmlns="http://www.w3.org/2000/svg">
<path d="M109.099 180.793C151.162 180.793 185.262 146.694 185.262 104.63C185.262 62.5664 151.162 28.467 109.099 28.467C67.0349 28.467 32.9355 62.5664 32.9355 104.63C32.9355 146.694 67.0349 180.793 109.099 180.793Z" fill="#1C1B17" stroke="#6B6867" stroke-miterlimit="10"/>
<path d="M98.9588 37.5901C84.184 80.077 85.2717 126.474 102.021 168.222" stroke="#6B6867" stroke-miterlimit="10"/>
<path d="M162.035 62.1541C167.62 70.0588 171.341 79.1256 172.921 88.6741C175.144 103.304 172.394 118.256 165.111 131.137" stroke="#6B6867" stroke-miterlimit="10"/>
<path d="M40.0645 120.766C43.9165 137.021 53.4324 151.372 66.9062 161.247" stroke="#6B6867" stroke-miterlimit="10"/>
<path d="M49.8331 66.6191C42.9421 78.2051 40.0951 91.752 41.7395 105.132C43.1016 115.264 47.0403 124.878 53.1787 133.054" stroke="#6B6867" stroke-miterlimit="10"/>
<path d="M72.7228 45.967C66.7964 53.2063 63.2196 62.0813 62.4701 71.407C61.7205 80.7326 63.8339 90.065 68.5279 98.1579" stroke="#6B6867" stroke-miterlimit="10"/>
<path d="M78.5777 90.3472C74.8784 101.005 73.8273 112.403 75.5153 123.558C76.6686 130.952 79.0245 138.106 82.4895 144.738" stroke="#6B6867" stroke-miterlimit="10"/>
<path d="M58.7619 99.5603C57.1535 104.785 54.0395 117.575 59.3281 131.652C60.9491 135.964 63.2043 140.011 66.0192 143.657" stroke="#6B6867" stroke-miterlimit="10"/>
<path d="M113.758 114.911C118.423 127.292 120.235 140.567 119.059 153.745C118.356 161.286 116.664 168.701 114.028 175.8" stroke="#6B6867" stroke-miterlimit="10"/>
<path d="M101.752 85.8818C99.4752 99.1608 99.1933 112.705 100.915 126.067C101.915 133.83 103.594 141.49 105.934 148.959" stroke="#6B6867" stroke-miterlimit="10"/>
<path d="M130.498 40.3823C135.089 57.4153 137.62 74.9373 138.038 92.5731C138.426 109.253 136.928 125.924 133.573 142.268" stroke="#6B6867" stroke-miterlimit="10"/>
<path d="M109.01 40.0994C117.505 62.0878 117.602 86.4356 109.28 108.49" stroke="#6B6867" stroke-miterlimit="10"/>
<path d="M148.925 131.382C150.419 137.475 150.517 143.827 149.211 149.963C147.906 156.1 145.23 161.862 141.385 166.819" stroke="#6B6867" stroke-miterlimit="10"/>
<path d="M143.625 50.1489C147.457 55.6002 150 61.8507 151.064 68.4287C152.127 75.0066 151.682 81.7402 149.763 88.1211" stroke="#6B6867" stroke-miterlimit="10"/>
<path d="M159.809 89.5105C162.105 95.6672 163.04 102.248 162.552 108.8C162.063 115.353 160.162 121.722 156.979 127.47" stroke="#6B6867" stroke-miterlimit="10"/>
<path d="M165.087 141.457C164.635 146.078 162.876 150.474 160.017 154.132C157.65 157.124 154.607 159.514 151.139 161.106" stroke="#6B6867" stroke-miterlimit="10"/>
<path d="M75.7217 150.966C75.073 156.282 76.5532 161.638 79.8393 165.867C81.9465 168.418 84.6768 170.381 87.7657 171.567" stroke="#6B6867" stroke-miterlimit="10"/>
<path d="M114.426 292.419C115.264 286.699 117.949 281.411 122.073 277.36C126.197 273.309 131.532 270.718 137.266 269.981C143 269.245 148.817 270.404 153.83 273.282C158.843 276.16 162.778 280.599 165.034 285.921C165.034 291.351 164.802 295.919 164.635 299.342C164.403 303.833 164.133 307.23 163.786 311.566C163.786 312.055 163.245 318.424 162.653 324.331C161.521 335.77 160.08 346.694 158.459 357.091C157.126 361.172 154.438 364.673 150.84 367.014C147.242 369.355 142.951 370.394 138.681 369.959C134.469 369.383 130.568 367.423 127.591 364.388C124.614 361.353 122.731 357.415 122.236 353.193C119.62 332.922 117.016 312.664 114.426 292.419Z" fill="#595A5C"/>
<path d="M134.371 431.955C134.514 432.476 134.797 432.949 135.189 433.321C135.582 433.693 136.068 433.95 136.597 434.065C137.302 434.156 138.016 433.994 138.612 433.608C139.208 433.221 139.648 432.635 139.852 431.955C145.713 415.165 150.488 398.016 154.148 380.613C156.413 369.779 158.137 359.42 159.437 349.641C159.797 336.774 149.284 327.084 138.694 328.139C129.288 329.079 121.284 338.433 121.748 349.641L134.371 431.955Z" fill="#595A5C"/>
<path d="M104.288 293.706C103.44 287.991 100.746 282.709 96.6184 278.666C92.4903 274.623 87.1537 272.041 81.4217 271.312C75.6898 270.583 69.8768 271.748 64.8684 274.63C59.86 277.511 55.9309 281.951 53.6797 287.272C53.6797 292.702 53.9113 297.27 54.0914 300.693C54.3231 305.184 54.5804 308.581 54.9278 312.904C54.9278 313.406 55.4683 319.776 56.0602 325.682C57.2054 337.121 58.6337 348.046 60.255 358.443C61.5939 362.521 64.2857 366.021 67.8848 368.361C71.4838 370.701 75.7741 371.741 80.0453 371.31C84.2693 370.734 88.1807 368.766 91.1612 365.718C94.1417 362.67 96.0213 358.715 96.5029 354.48C99.0764 334.217 101.671 313.96 104.288 293.706Z" fill="#595A5C"/>
<path d="M84.3535 433.255C84.201 433.868 83.8477 434.413 83.3498 434.802C82.852 435.191 82.2382 435.402 81.6063 435.402C80.9743 435.402 80.3605 435.191 79.8627 434.802C79.3648 434.413 79.0115 433.868 78.859 433.255C72.9975 416.466 68.2266 399.317 64.5761 381.913C62.2985 371.079 60.5742 360.72 59.2746 350.941C58.9143 338.073 69.44 328.384 80.03 329.439C89.4233 330.379 97.4269 339.733 96.9766 350.941L84.3535 433.255Z" fill="#595A5C"/>
<path d="M137.458 182.993C136.192 181.479 135.426 179.609 135.264 177.642C135.103 175.674 135.555 173.705 136.558 172.004C137.445 170.71 138.625 169.644 140.003 168.893C141.38 168.142 142.916 167.726 144.484 167.681C154.251 175.942 164.377 185.039 174.697 194.999C185.017 204.958 194.256 214.583 202.787 223.976C203.877 226.544 204.167 229.381 203.617 232.116C203.068 234.85 201.706 237.355 199.708 239.302C197.711 241.25 195.172 242.548 192.425 243.028C189.677 243.508 186.848 243.146 184.309 241.991C179.754 237.063 147.572 195.462 137.458 182.993Z" fill="#595A5C"/>
<path d="M198.155 243.818C195.57 245.041 192.666 245.418 189.855 244.896C187.043 244.375 184.467 242.982 182.492 240.914C180.517 238.847 179.243 236.21 178.851 233.377C178.459 230.545 178.969 227.661 180.308 225.135L211.087 187.819C213.133 186.832 215.379 186.33 217.65 186.35C219.922 186.37 222.158 186.912 224.186 187.935C226.012 188.964 227.595 190.374 228.829 192.067C230.063 193.761 230.92 195.7 231.341 197.753C223.209 215.02 211.959 230.637 198.155 243.818V243.818Z" fill="#FEFBDF"/>
<path d="M218.668 207.686C215.944 207.122 213.499 205.631 211.749 203.469C209.999 201.306 209.052 198.604 209.069 195.822C209.182 193.472 209.989 191.208 211.388 189.316C212.788 187.424 214.716 185.99 216.931 185.194L248.276 185.425C248.684 185.409 249.085 185.536 249.408 185.786C250.399 186.635 250.155 189.028 248.623 191.692C247.886 192.917 247.06 194.087 246.153 195.192C237.879 205.28 224.844 207.223 218.668 207.686Z" fill="#FEFBDF"/>
<path d="M77.0206 184.254C78.6436 183.143 79.885 181.559 80.5757 179.717C81.2664 177.875 81.3729 175.865 80.8808 173.96C80.3803 172.479 79.5365 171.136 78.4184 170.043C77.3003 168.949 75.9395 168.136 74.447 167.668C62.8662 172.983 50.6035 178.992 37.9675 185.799C25.3316 192.606 13.8408 199.361 3.09642 206.091C1.33303 208.261 0.268984 210.915 0.0446037 213.703C-0.179776 216.491 0.446054 219.281 1.83956 221.705C3.23306 224.13 5.32878 226.075 7.85032 227.285C10.3719 228.494 13.2008 228.911 15.964 228.48C21.69 224.877 63.9214 193.532 77.0206 184.254Z" fill="#595A5C"/>
<path d="M74.201 167.617C75.5779 165.815 88.0594 150.078 109.677 150.13C131.294 150.181 143.531 165.789 144.934 167.617C152.64 189.826 158.152 212.737 161.392 236.02C164.262 256.674 165.334 277.538 164.596 298.377C163.154 299.663 149.927 311.514 132.658 307.86C125.621 306.3 119.239 302.601 114.386 297.27C112.943 298.034 111.335 298.433 109.703 298.433C108.07 298.433 106.462 298.034 105.019 297.27C99.9195 302.486 93.3849 306.069 86.2451 307.564C69.0797 311.025 55.942 300.204 54.1534 298.685C52.3068 254.111 59.1148 209.601 74.201 167.617V167.617Z" fill="#595A5C"/>
<path d="M74.2045 167.617C73.7027 167.475 67.5649 185.799 62.791 206.387C60.6164 215.767 58.9307 224.723 57.644 233.164C56.7561 239.07 55.1863 250.613 54.3499 265.5C53.4363 281.984 53.6422 298.634 54.1183 298.647C54.5944 298.66 53.655 270.583 59.0465 234.116C64.8241 195.231 74.835 167.797 74.2045 167.617Z" fill="#818285"/>
<path d="M145.091 168.029C145.606 167.874 151.229 185.516 156.016 206.104C158.19 215.497 159.876 224.44 161.163 232.881C162.051 238.787 163.62 250.33 164.444 265.217C165.37 281.701 165.165 298.351 164.688 298.364C164.212 298.377 165.152 270.3 159.76 233.833C153.97 194.922 144.474 168.196 145.091 168.029Z" fill="#818285"/>
<path d="M110.193 177.679C148.767 177.679 180.038 146.218 180.038 107.409C180.038 68.6005 148.767 37.1396 110.193 37.1396C71.6184 37.1396 40.3477 68.6005 40.3477 107.409C40.3477 146.218 71.6184 177.679 110.193 177.679Z" fill="#595A5C"/>
<path d="M109.961 177.576C107.564 177.606 105.167 177.507 102.781 177.28C97.3863 176.754 92.0808 175.544 86.9922 173.677C102.237 177.156 118.07 177.156 133.315 173.677C128.939 175.32 124.388 176.456 119.753 177.062C116.508 177.492 113.233 177.665 109.961 177.576V177.576Z" fill="#818285"/>
<path d="M164.791 278.368L54.2324 277.634C54.9942 240.003 61.771 202.735 74.3058 167.244C74.8205 168.144 86.337 187.523 109.048 187.832C116.327 187.915 123.495 186.05 129.81 182.43C136.124 178.81 141.356 173.567 144.962 167.244C151.263 185.46 156.096 204.152 159.412 223.14C162.616 241.385 164.414 259.848 164.791 278.368V278.368Z" fill="#AFD794"/>
<path d="M158.78 219.602L109.472 246.958L60.3175 219.486C57.3451 236.124 54.926 253.842 53.3176 272.552C49.0522 323.103 51.3184 373.993 60.0602 423.964L158.523 424.093C168.066 374.846 170.729 324.513 166.436 274.533C164.83 256.103 162.275 237.768 158.78 219.602V219.602Z" fill="#AFD794"/>
<path d="M61.4909 213.026L58.5957 228.995L109.899 255.888V239.546L61.4909 213.026Z" fill="#FEFBDF"/>
<path d="M157.622 213.464L160.582 229.381L109.896 255.888V239.546L157.622 213.464Z" fill="#FEFBDF"/>
<path d="M2.32502 222.844C1.13321 220.245 0.789942 217.337 1.34391 214.532C1.89788 211.727 3.32096 209.167 5.41131 207.217C7.50166 205.266 10.1532 204.023 12.9898 203.664C15.8263 203.304 18.704 203.847 21.2146 205.216L58.1188 236.419C59.0875 238.474 59.5715 240.723 59.5336 242.995C59.4956 245.266 58.9368 247.498 57.9 249.519C56.8521 251.334 55.4263 252.904 53.7191 254.12C52.0119 255.337 50.0631 256.172 48.0049 256.57C30.8349 248.231 15.3494 236.798 2.32502 222.844V222.844Z" fill="#FEFBDF"/>
<path d="M38.998 241.631C39.7468 238.954 41.3963 236.618 43.6679 235.017C45.9396 233.416 48.6943 232.648 51.4667 232.842C53.8037 233.119 56.0068 234.08 57.7993 235.605C59.5919 237.13 60.8939 239.15 61.542 241.412L59.1872 272.667C59.1809 273.08 59.0202 273.475 58.7369 273.774C57.8233 274.713 55.4557 274.289 52.9079 272.59C51.7371 271.776 50.6275 270.877 49.5881 269.901C40.1047 260.945 39.0495 247.82 38.998 241.631Z" fill="#FEFBDF"/>
<path d="M80.7793 128.898C82.426 128.655 84.0995 128.655 85.7462 128.898L84.2921 127.701C84.2921 127.701 81.2168 128.01 80.7793 128.898Z" fill="#A7D490"/>
<path d="M68.502 101.619C68.502 101.619 69.1839 104.694 76.6857 107.5C76.6857 107.5 81.2923 109.636 83.1195 100.165C83.1195 100.165 76.2096 100.68 68.7979 93.178C68.7979 93.178 68.5792 98.6724 78.8089 102.893C78.8089 102.893 79.4136 103.408 78.8089 103.794C78.8217 103.794 72.9413 104.604 68.502 101.619Z" fill="#A7D490"/>
<path d="M86.0018 128.898C91.2322 128.898 95.4723 122.267 95.4723 114.088C95.4723 105.908 91.2322 99.2771 86.0018 99.2771C80.7713 99.2771 76.5312 105.908 76.5312 114.088C76.5312 122.267 80.7713 128.898 86.0018 128.898Z" fill="white"/>
<path d="M149.709 101.619C149.709 101.619 149.027 104.694 141.526 107.5C141.526 107.5 136.919 109.636 135.092 100.165C135.092 100.165 142.002 100.68 149.413 93.178C149.413 93.178 149.632 98.6724 139.402 102.893C139.402 102.893 138.798 103.408 139.402 103.794C139.39 103.794 145.27 104.604 149.709 101.619Z" fill="#A7D490"/>
<path d="M137.818 128.898C136.172 128.655 134.498 128.655 132.852 128.898L134.318 127.701C134.318 127.701 137.381 128.01 137.818 128.898Z" fill="#A7D490"/>
<path d="M132.197 128.898C137.428 128.898 141.668 122.267 141.668 114.088C141.668 105.908 137.428 99.2771 132.197 99.2771C126.967 99.2771 122.727 105.908 122.727 114.088C122.727 122.267 126.967 128.898 132.197 128.898Z" fill="white"/>
<path d="M86.2078 128.898C90.3083 128.898 93.6324 123.598 93.6324 117.06C93.6324 110.522 90.3083 105.222 86.2078 105.222C82.1073 105.222 78.7832 110.522 78.7832 117.06C78.7832 123.598 82.1073 128.898 86.2078 128.898Z" fill="#231F20"/>
<path d="M81.7439 111.102C82.7815 111.102 83.6226 109.783 83.6226 108.156C83.6226 106.528 82.7815 105.209 81.7439 105.209C80.7063 105.209 79.8652 106.528 79.8652 108.156C79.8652 109.783 80.7063 111.102 81.7439 111.102Z" fill="white"/>
<path d="M132.145 128.898C136.302 128.898 139.672 123.598 139.672 117.06C139.672 110.522 136.302 105.222 132.145 105.222C127.987 105.222 124.617 110.522 124.617 117.06C124.617 123.598 127.987 128.898 132.145 128.898Z" fill="#231F20"/>
<path d="M128.195 111.102C129.233 111.102 130.074 109.783 130.074 108.156C130.074 106.528 129.233 105.209 128.195 105.209C127.158 105.209 126.316 106.528 126.316 108.156C126.316 109.783 127.158 111.102 128.195 111.102Z" fill="white"/>
<path opacity="0.57" d="M77.2519 140.659C82.0844 140.659 86.0018 139.628 86.0018 138.356C86.0018 137.084 82.0844 136.052 77.2519 136.052C72.4194 136.052 68.502 137.084 68.502 138.356C68.502 139.628 72.4194 140.659 77.2519 140.659Z" fill="#F7B1C4"/>
<path opacity="0.57" d="M143.148 140.659C147.981 140.659 151.898 139.628 151.898 138.356C151.898 137.084 147.981 136.052 143.148 136.052C138.316 136.052 134.398 137.084 134.398 138.356C134.398 139.628 138.316 140.659 143.148 140.659Z" fill="#F7B1C4"/>
<path d="M92.4102 146.552C93.627 147.454 94.9185 148.25 96.2704 148.933C96.9267 149.293 97.5572 149.576 98.2906 149.911C99.0241 150.245 99.6803 150.464 100.375 150.709C106.031 152.695 112.201 152.663 117.836 150.619C119.251 150.128 120.627 149.535 121.954 148.843C123.241 148.161 124.528 147.299 125.814 146.552C124.605 147.44 123.408 148.367 122.121 149.126C120.803 149.912 119.426 150.596 118.004 151.172C117.296 151.429 116.588 151.738 115.868 151.957L113.629 152.472C112.887 152.636 112.135 152.744 111.377 152.793C110.619 152.904 109.853 152.951 109.087 152.935C106.005 152.952 102.949 152.384 100.079 151.262C97.2597 150.168 94.6615 148.572 92.4102 146.552V146.552Z" fill="white"/>
<path d="M58.6976 54.4208L157.778 56.0936C161.149 37.8345 153.017 19.524 136.855 9.02405C120.694 -1.47588 96.5025 -4.02366 78.089 7.91744C62.2362 18.1729 54.58 36.4834 58.6976 54.4208Z" fill="#1C1B17" stroke="#6B6867" stroke-miterlimit="10"/>
<path d="M92.1533 3.45239C89.3341 10.0303 88.4848 17.2852 89.7085 24.3364C90.2091 27.024 91.0299 29.6419 92.1533 32.1342" fill="#1C1B17"/>
<path d="M92.1533 3.45239C89.3341 10.0303 88.4848 17.2852 89.7085 24.3364C90.2091 27.024 91.0299 29.6419 92.1533 32.1342" stroke="#6B6867" stroke-miterlimit="10"/>
<path d="M75.0135 15.1489C69.8888 19.4719 66.5057 25.5067 65.4915 32.1341C65.0045 35.7712 65.2806 39.4698 66.3021 42.9943" fill="#1C1B17"/>
<path d="M75.0135 15.1489C69.8888 19.4719 66.5057 25.5067 65.4915 32.1341C65.0045 35.7712 65.2806 39.4698 66.3021 42.9943" stroke="#6B6867" stroke-miterlimit="10"/>
<path d="M43.2688 118.553C44.8963 128.79 48.6958 138.561 54.4121 147.209C57.8992 152.465 62.0803 157.226 66.8422 161.363C65.9537 161.711 64.9818 161.787 64.0499 161.582C61.7209 161.016 59.9066 158.416 59.6106 155.148C57.0494 154.413 54.7762 152.908 53.0996 150.837C51.015 148.159 49.9972 144.803 50.243 141.418C47.8516 139.842 45.9946 137.578 44.9171 134.925C43.8396 132.271 43.5924 129.353 44.2081 126.556C42.9986 124.716 40.2192 120.264 41.4159 118.952C41.6732 118.553 42.1879 118.347 43.2688 118.553Z" fill="#1C1B17" stroke="#6B6867" stroke-miterlimit="10"/>
<path d="M135.967 14.0425C140.846 17.4121 144.934 21.8028 147.947 26.91C151.16 32.3483 153.113 38.4385 153.66 44.7316" fill="#1C1B17"/>
<path d="M135.967 14.0425C140.846 17.4121 144.934 21.8028 147.947 26.91C151.16 32.3483 153.113 38.4385 153.66 44.7316" stroke="#6B6867" stroke-miterlimit="10"/>
<path d="M107.402 0.389893L107.673 13.7593" stroke="#6B6867" stroke-miterlimit="10"/>
<path d="M179.524 102.932C179.653 111.373 178.714 130.043 166.657 147.556C163.04 152.752 158.732 157.432 153.854 161.466C154.856 161.837 155.931 161.969 156.993 161.852C160.545 161.402 163.62 157.825 164.881 152.845C165.989 152.395 167.021 151.778 167.943 151.018C172.434 147.273 172.692 141.213 172.717 139.784C175.088 137.424 176.823 134.502 177.761 131.292C178.454 128.904 178.698 126.408 178.482 123.931C180.175 120.707 181.145 117.152 181.325 113.514C181.505 109.877 180.891 106.243 179.524 102.867V102.932Z" fill="#1C1B17" stroke="#6B6867" stroke-miterlimit="10"/>
<path d="M120.191 3.45239C122.645 8.47124 123.766 14.0368 123.447 19.614C123.241 22.9555 122.507 26.2432 121.272 29.3548" fill="#1C1B17"/>
<path d="M120.191 3.45239C122.645 8.47124 123.766 14.0368 123.447 19.614C123.241 22.9555 122.507 26.2432 121.272 29.3548" stroke="#6B6867" stroke-miterlimit="10"/>
<path d="M151.099 60.1213C149.577 60.6621 148.239 61.6209 147.238 62.8879C146.053 64.4457 145.407 66.3474 145.398 68.3051C145.519 70.1848 146.215 71.9819 147.393 73.4521C149.18 75.2271 151.397 76.5084 153.827 77.1709C154.2 77.3124 154.496 77.4025 154.702 77.4668C155.559 77.9795 156.258 78.7186 156.722 79.6028C157.201 80.6888 157.371 81.8862 157.212 83.0626C157.053 84.239 156.572 85.3484 155.821 86.2682C158.935 81.4043 158.755 79.0366 158.06 77.7628C156.773 75.5495 153.827 76.476 150.88 73.1562C149.445 71.6712 148.602 69.7122 148.512 67.6489C148.468 66.8606 148.584 66.0715 148.851 65.3287C149.119 64.5859 149.533 63.9046 150.069 63.3254C150.583 62.8351 151.189 62.451 151.851 62.1949C152.513 61.9387 153.22 61.8157 153.93 61.8327L151.099 60.1213Z" fill="#1C1B17" stroke="#6B6867" stroke-miterlimit="10"/>
<path d="M63.6652 61.0989C65.2943 61.9192 66.6393 63.2104 67.5254 64.8047C68.7534 67.0321 69.4037 69.5315 69.417 72.0749C69.3299 74.4926 68.6398 76.8502 67.4096 78.9333C65.8004 81.1919 63.5632 82.9279 60.9758 83.9259C60.6155 84.1061 60.3196 84.2476 60.1137 84.3248C59.2007 85.0827 58.5038 86.068 58.0935 87.1814C57.6091 88.6629 57.4389 90.2291 57.594 91.7801C57.7491 93.331 58.226 94.8325 58.9942 96.1887C55.8803 89.6649 56.0604 86.4866 56.7553 84.7881C58.042 81.8157 60.9887 82.9995 63.9354 78.5988C65.4441 76.4283 66.2687 73.8559 66.303 71.2128C66.4066 69.1669 65.8618 67.1404 64.746 65.4224C64.3139 64.8004 63.7363 64.2936 63.0635 63.946C62.3906 63.5983 61.643 63.4205 60.8858 63.4279L63.6652 61.0989Z" fill="#1C1B17" stroke="#6B6867" stroke-miterlimit="10"/>
<path d="M179.702 102.623C182.069 101.555 179.303 70.5181 157.068 51.2425C133.353 30.6544 95.8308 30.7831 92.7298 38.9154C91.0055 43.4576 98.9577 52.1818 107.167 56.1579C119.662 62.2056 127.923 55.0513 139.915 57.0329C166.075 61.3693 176.832 103.922 179.702 102.623Z" fill="#1C1B17" stroke="#6B6867" stroke-miterlimit="10"/>
<path d="M109.293 38.6325C110.695 40.0737 113.153 44.3199 118.197 52.7868C120.397 56.4669 120.578 56.9302 120.397 57.4706C118.57 62.7206 91.5612 48.9137 71.565 59.6195C57.0504 67.34 51.1184 85.4961 50.089 88.6487C45.328 103.253 46.9493 119.621 43.3593 120.046C42.4843 120.148 41.7766 119.235 41.4163 118.887C32.2932 109.996 36.7711 73.9668 57.5522 53.5717C74.6274 36.8053 101.521 30.6803 109.293 38.6325Z" fill="#1C1B17" stroke="#6B6867" stroke-miterlimit="10"/>
<path d="M104.919 41.7976C97.3607 40.7631 89.6659 41.4763 82.4265 43.8822C75.8869 46.0759 69.8626 49.5784 64.7207 54.1762" fill="#1C1B17"/>
<path d="M104.919 41.7976C97.3607 40.7631 89.6659 41.4763 82.4265 43.8822C75.8869 46.0759 69.8626 49.5784 64.7207 54.1762" stroke="#6B6867" stroke-miterlimit="10"/>
<path d="M41.9555 106.136C40.7751 100.503 40.8275 94.6817 42.1091 89.0711C43.3906 83.4606 45.8711 78.1938 49.3801 73.6323" fill="#1C1B17"/>
<path d="M41.9555 106.136C40.7751 100.503 40.8275 94.6817 42.1091 89.0711C43.3906 83.4606 45.8711 78.1938 49.3801 73.6323" stroke="#6B6867" stroke-miterlimit="10"/>
<path d="M139.826 49.2351C144.314 50.6194 148.565 52.6759 152.436 55.3343C158.222 59.3472 163.054 64.5836 166.591 70.6725" fill="#1C1B17"/>
<path d="M139.826 49.2351C144.314 50.6194 148.565 52.6759 152.436 55.3343C158.222 59.3472 163.054 64.5836 166.591 70.6725" stroke="#6B6867" stroke-miterlimit="10"/>
<path d="M110.476 51.3196C107.114 52.53 103.496 52.8449 99.9757 52.2332C94.0824 51.1266 92.1265 47.7296 87.4298 47.2149C84.5218 46.8932 80.2755 47.6395 74.6523 52.6965" stroke="#6B6867" stroke-miterlimit="10"/>
<path d="M115.725 41.0513C118.794 40.3661 121.935 40.0593 125.079 40.1377C131.059 40.3277 136.914 41.8906 142.193 44.7057" stroke="#6B6867" stroke-miterlimit="10"/>
<path d="M81.0625 17.5552C80.5736 18.0313 75.4008 23.397 76.9449 29.8694C77.4039 31.6531 78.2867 33.2997 79.5184 34.669" stroke="#6B6867" stroke-miterlimit="10"/>
<path d="M99.2934 8.41919C97.0994 11.9633 96.2886 16.1917 97.0159 20.2959C97.5904 23.1679 98.9233 25.8337 100.876 28.0165" stroke="#6B6867" stroke-miterlimit="10"/>
<path d="M110.026 19.3823C110.995 20.2995 111.697 21.4625 112.058 22.7473C112.418 24.0322 112.423 25.3908 112.072 26.6782C111.625 28.0591 110.745 29.2592 109.562 30.101" stroke="#6B6867" stroke-miterlimit="10"/>
<path d="M130.562 12.9873C131.142 13.695 136.649 20.5406 134.204 27.8236C133.628 29.5184 132.698 31.0712 131.476 32.3787" stroke="#6B6867" stroke-miterlimit="10"/>
<path d="M67.345 57.4834C65.3414 57.5297 63.3704 58.001 61.5625 58.8662C59.7546 59.7313 58.1511 60.9705 56.858 62.5017C55.2236 64.6033 54.2676 67.1525 54.1172 69.8105" stroke="#6B6867" stroke-miterlimit="10"/>
<path d="M169.848 76.8745C172.247 78.7835 174.194 81.2005 175.548 83.9517C176.996 86.9347 177.703 90.2234 177.607 93.538" stroke="#6B6867" stroke-miterlimit="10"/>
<path d="M123.021 53.147C127.846 51.7271 132.956 51.572 137.858 52.6966" stroke="#6B6867" stroke-miterlimit="10"/>
<path d="M149.491 46.134C148.603 47.8196 132.48 35.0421 107.877 35.1451C83.2741 35.248 67.0224 48.2314 66.1216 46.5843C65.2209 44.9373 83.5572 25.7003 107.748 25.5973C131.939 25.4944 150.546 44.2682 149.491 46.134Z" fill="#A4D6B0" stroke="#E6EC9C" stroke-miterlimit="10"/>
<path d="M97.7121 28.9301C96.351 24.0381 96.418 18.8588 97.9051 14.0037C99.3484 9.30956 102.146 5.1464 105.947 2.03687C110.337 4.93155 113.676 9.16415 115.469 14.1066C117.2 18.8916 117.513 24.0746 116.37 29.033" fill="#A4D6B0"/>
<path d="M97.7121 28.9301C96.351 24.0381 96.418 18.8588 97.9051 14.0037C99.3484 9.30956 102.146 5.1464 105.947 2.03687C110.337 4.93155 113.676 9.16415 115.469 14.1066C117.2 18.8916 117.513 24.0746 116.37 29.033" stroke="#E6EC9C" stroke-miterlimit="10"/>
<path d="M106.643 10.5295L107.337 27.5019" stroke="#E6EC9C" stroke-miterlimit="10"/>
<path d="M80.12 35.3639C77.3574 31.6953 75.8342 27.2427 75.7707 22.6508C75.7232 18.0694 77.0695 13.5818 79.631 9.7832C84.4926 10.6871 88.928 13.1487 92.267 16.796C95.3945 20.2286 97.3306 24.5791 97.7871 29.2003" fill="#A4D6B0"/>
<path d="M80.12 35.3639C77.3574 31.6953 75.8342 27.2427 75.7707 22.6508C75.7232 18.0694 77.0695 13.5818 79.631 9.7832C84.4926 10.6871 88.928 13.1487 92.267 16.796C95.3945 20.2286 97.3306 24.5791 97.7871 29.2003" stroke="#E6EC9C" stroke-miterlimit="10"/>
<path d="M82.9121 16.7703L88.7282 30.9117" stroke="#E6EC9C" stroke-miterlimit="10"/>
<path d="M134.1 35.3638C136.867 31.693 138.391 27.2347 138.449 22.6378C138.508 18.0548 137.161 13.5639 134.589 9.77026C129.726 10.6617 125.288 13.1201 121.953 16.7702C118.888 20.2083 117.003 24.5369 116.574 29.1231" fill="#A4D6B0"/>
<path d="M134.1 35.3638C136.867 31.693 138.391 27.2347 138.449 22.6378C138.508 18.0548 137.161 13.5639 134.589 9.77026C129.726 10.6617 125.288 13.1201 121.953 16.7702C118.888 20.2083 117.003 24.5369 116.574 29.1231" stroke="#E6EC9C" stroke-miterlimit="10"/>
<path d="M131.31 16.6418L125.494 30.7833" stroke="#E6EC9C" stroke-miterlimit="10"/>
<path d="M148.063 44.6929C151.211 42.2554 153.472 38.8511 154.497 35.0036C155.498 31.1028 155.278 26.9887 153.866 23.217C149.551 22.8117 145.222 23.8284 141.539 26.1122C138.164 28.2638 135.601 31.4783 134.256 35.2481" fill="#A4D6B0"/>
<path d="M148.063 44.6929C151.211 42.2554 153.472 38.8511 154.497 35.0036C155.498 31.1028 155.278 26.9887 153.866 23.217C149.551 22.8117 145.222 23.8284 141.539 26.1122C138.164 28.2638 135.601 31.4783 134.256 35.2481" stroke="#E6EC9C" stroke-miterlimit="10"/>
<path d="M149.657 28.2737L141.615 38.8379" stroke="#E6EC9C" stroke-miterlimit="10"/>
<path d="M66.7408 45.1045C63.5895 42.6643 61.3286 39.255 60.3071 35.4024C59.3118 31.5019 59.5272 27.3908 60.9247 23.6157C65.2684 23.2057 69.6275 24.222 73.3419 26.5109C76.7171 28.6626 79.2797 31.877 80.6249 35.6469" fill="#A4D6B0"/>
<path d="M66.7408 45.1045C63.5895 42.6643 61.3286 39.255 60.3071 35.4024C59.3118 31.5019 59.5272 27.3908 60.9247 23.6157C65.2684 23.2057 69.6275 24.222 73.3419 26.5109C76.7171 28.6626 79.2797 31.877 80.6249 35.6469" stroke="#E6EC9C" stroke-miterlimit="10"/>
<path d="M65.1445 28.6855L73.1868 39.2369" stroke="#E6EC9C" stroke-miterlimit="10"/>
</svg>
